# MagicaVoxel @ Ephtracy

# group
o 

# material
mtllib BossCoreGround.mtl
usemtl palette

# normals
vn -1 0 0
vn 1 0 0
vn 0 0 1
vn 0 0 -1
vn 0 -1 0
vn 0 1 0

# texcoords
vt 0.873047 0.5
vt 0.955078 0.5

# verts
v -0.7 0 0.2
v -0.7 0 -0.3
v -0.7 0.1 0.2
v -0.7 0.1 -0.3
v -0.6 0 0.3
v -0.6 0 0.2
v -0.6 0 -0.3
v -0.6 0 -0.4
v -0.6 0.1 0.3
v -0.6 0.1 0.2
v -0.6 0.1 -0.3
v -0.6 0.1 -0.4
v -0.5 0 0.4
v -0.5 0 0.3
v -0.5 0 -0.4
v -0.5 0 -0.5
v -0.5 0.1 0.4
v -0.5 0.1 0.3
v -0.5 0.1 -0.4
v -0.5 0.1 -0.5
v -0.4 0 0.5
v -0.4 0 0.4
v -0.4 0 -0.5
v -0.4 0 -0.6
v -0.4 0.1 0.5
v -0.4 0.1 0.4
v -0.4 0.1 -0.5
v -0.4 0.1 -0.6
v -0.4 0.2 0
v -0.4 0.2 -0.1
v -0.4 0.4 0
v -0.4 0.4 -0.1
v -0.3 0 0.6
v -0.3 0 0.5
v -0.3 0 -0.6
v -0.3 0 -0.7
v -0.3 0.1 0.6
v -0.3 0.1 0.5
v -0.3 0.1 0
v -0.3 0.1 -0.1
v -0.3 0.1 -0.6
v -0.3 0.1 -0.7
v -0.3 0.2 0
v -0.3 0.2 -0.1
v -0.2 0 0.7
v -0.2 0 0.6
v -0.2 0 -0.7
v -0.2 0 -0.8
v -0.2 0.1 0.7
v -0.2 0.1 0.6
v -0.2 0.1 -0.7
v -0.2 0.1 -0.8
v -0.1 0 0.5
v -0.1 0 0.1
v -0.1 0 -0.2
v -0.1 0 -0.6
v -0.1 0.1 0.5
v -0.1 0.1 0.1
v -0.1 0.1 -0.2
v -0.1 0.1 -0.6
v 0 0.1 0.3
v 0 0.1 0.1
v 0 0.1 -0.2
v 0 0.1 -0.4
v 0 0.2 0.4
v 0 0.2 0.3
v 0 0.2 0.2
v 0 0.2 0.1
v 0 0.2 -0.2
v 0 0.2 -0.3
v 0 0.2 -0.4
v 0 0.2 -0.5
v 0 0.3 0.3
v 0 0.3 0.2
v 0 0.3 -0.3
v 0 0.3 -0.4
v 0 0.4 0.4
v 0 0.4 0.3
v 0 0.4 -0.4
v 0 0.4 -0.5
v 0.2 0.1 0
v 0.2 0.1 -0.1
v 0.2 0.2 0
v 0.2 0.2 -0.1
v 0.3 0 0.5
v 0.3 0 0.4
v 0.3 0 -0.5
v 0.3 0 -0.6
v 0.3 0.1 0.5
v 0.3 0.1 0.4
v 0.3 0.1 -0.5
v 0.3 0.1 -0.6
v 0.3 0.2 0
v 0.3 0.2 -0.1
v 0.3 0.3 0
v 0.3 0.3 -0.1
v 0.4 0 0.4
v 0.4 0 0.3
v 0.4 0 -0.4
v 0.4 0 -0.5
v 0.4 0.1 0.4
v 0.4 0.1 0.3
v 0.4 0.1 -0.4
v 0.4 0.1 -0.5
v 0.4 0.3 0
v 0.4 0.3 -0.1
v 0.4 0.4 0
v 0.4 0.4 -0.1
v 0.5 0 0.3
v 0.5 0 0.2
v 0.5 0 -0.3
v 0.5 0 -0.4
v 0.5 0.1 0.3
v 0.5 0.1 0.2
v 0.5 0.1 -0.3
v 0.5 0.1 -0.4
v 0.6 0 0.2
v 0.6 0 0.1
v 0.6 0 -0.2
v 0.6 0 -0.3
v 0.6 0.1 0.2
v 0.6 0.1 0.1
v 0.6 0.1 -0.2
v 0.6 0.1 -0.3
v -0.5 0 0.2
v -0.5 0 0.1
v -0.5 0 -0.2
v -0.5 0 -0.3
v -0.5 0.1 0.2
v -0.5 0.1 0.1
v -0.5 0.1 -0.2
v -0.5 0.1 -0.3
v -0.4 0 0.3
v -0.4 0 0.2
v -0.4 0 -0.3
v -0.4 0 -0.4
v -0.4 0.1 0.3
v -0.4 0.1 0.2
v -0.4 0.1 -0.3
v -0.4 0.1 -0.4
v -0.3 0 0.4
v -0.3 0 0.3
v -0.3 0 -0.4
v -0.3 0 -0.5
v -0.3 0.1 0.4
v -0.3 0.1 0.3
v -0.3 0.1 -0.4
v -0.3 0.1 -0.5
v -0.3 0.3 0
v -0.3 0.3 -0.1
v -0.3 0.4 0
v -0.3 0.4 -0.1
v -0.2 0 0.5
v -0.2 0 0.4
v -0.2 0 -0.5
v -0.2 0 -0.6
v -0.2 0.1 0.5
v -0.2 0.1 0.4
v -0.2 0.1 -0.5
v -0.2 0.1 -0.6
v -0.2 0.2 0
v -0.2 0.2 -0.1
v -0.2 0.3 0
v -0.2 0.3 -0.1
v -0.1 0.1 0
v -0.1 0.1 -0.1
v -0.1 0.2 0
v -0.1 0.2 -0.1
v 0.1 0.1 0.3
v 0.1 0.1 0.1
v 0.1 0.1 -0.2
v 0.1 0.1 -0.4
v 0.1 0.2 0.4
v 0.1 0.2 0.3
v 0.1 0.2 0.2
v 0.1 0.2 0.1
v 0.1 0.2 -0.2
v 0.1 0.2 -0.3
v 0.1 0.2 -0.4
v 0.1 0.2 -0.5
v 0.1 0.3 0.3
v 0.1 0.3 0.2
v 0.1 0.3 -0.3
v 0.1 0.3 -0.4
v 0.1 0.4 0.4
v 0.1 0.4 0.3
v 0.1 0.4 -0.4
v 0.1 0.4 -0.5
v 0.2 0 0.5
v 0.2 0 0.1
v 0.2 0 -0.2
v 0.2 0 -0.6
v 0.2 0.1 0.5
v 0.2 0.1 0.1
v 0.2 0.1 -0.2
v 0.2 0.1 -0.6
v 0.3 0 0.7
v 0.3 0 0.6
v 0.3 0 -0.7
v 0.3 0 -0.8
v 0.3 0.1 0.7
v 0.3 0.1 0.6
v 0.3 0.1 -0.7
v 0.3 0.1 -0.8
v 0.4 0 0.6
v 0.4 0 0.5
v 0.4 0 -0.6
v 0.4 0 -0.7
v 0.4 0.1 0.6
v 0.4 0.1 0.5
v 0.4 0.1 0
v 0.4 0.1 -0.1
v 0.4 0.1 -0.6
v 0.4 0.1 -0.7
v 0.4 0.2 0
v 0.4 0.2 -0.1
v 0.5 0 0.5
v 0.5 0 0.4
v 0.5 0 -0.5
v 0.5 0 -0.6
v 0.5 0.1 0.5
v 0.5 0.1 0.4
v 0.5 0.1 -0.5
v 0.5 0.1 -0.6
v 0.5 0.2 0
v 0.5 0.2 -0.1
v 0.5 0.4 0
v 0.5 0.4 -0.1
v 0.6 0 0.4
v 0.6 0 0.3
v 0.6 0 -0.4
v 0.6 0 -0.5
v 0.6 0.1 0.4
v 0.6 0.1 0.3
v 0.6 0.1 -0.4
v 0.6 0.1 -0.5
v 0.7 0 0.3
v 0.7 0 0.2
v 0.7 0 -0.3
v 0.7 0 -0.4
v 0.7 0.1 0.3
v 0.7 0.1 0.2
v 0.7 0.1 -0.3
v 0.7 0.1 -0.4
v 0.8 0 0.2
v 0.8 0 -0.3
v 0.8 0.1 0.2
v 0.8 0.1 -0.3
v -0.2 0 0.7
v -0.2 0.1 0.7
v 0.3 0 0.7
v 0.3 0.1 0.7
v -0.3 0 0.6
v -0.3 0.1 0.6
v -0.2 0 0.6
v -0.2 0.1 0.6
v 0.3 0 0.6
v 0.3 0.1 0.6
v 0.4 0 0.6
v 0.4 0.1 0.6
v -0.4 0 0.5
v -0.4 0.1 0.5
v -0.3 0 0.5
v -0.3 0.1 0.5
v 0.4 0 0.5
v 0.4 0.1 0.5
v 0.5 0 0.5
v 0.5 0.1 0.5
v -0.5 0 0.4
v -0.5 0.1 0.4
v -0.4 0 0.4
v -0.4 0.1 0.4
v 0 0.2 0.4
v 0 0.4 0.4
v 0.1 0.2 0.4
v 0.1 0.4 0.4
v 0.5 0 0.4
v 0.5 0.1 0.4
v 0.6 0 0.4
v 0.6 0.1 0.4
v -0.6 0 0.3
v -0.6 0.1 0.3
v -0.5 0 0.3
v -0.5 0.1 0.3
v 0 0.1 0.3
v 0 0.2 0.3
v 0.1 0.1 0.3
v 0.1 0.2 0.3
v 0.6 0 0.3
v 0.6 0.1 0.3
v 0.7 0 0.3
v 0.7 0.1 0.3
v -0.7 0 0.2
v -0.7 0.1 0.2
v -0.6 0 0.2
v -0.6 0.1 0.2
v 0.7 0 0.2
v 0.7 0.1 0.2
v 0.8 0 0.2
v 0.8 0.1 0.2
v -0.5 0 0.1
v -0.5 0.1 0.1
v -0.1 0 0.1
v -0.1 0.1 0.1
v 0.2 0 0.1
v 0.2 0.1 0.1
v 0.6 0 0.1
v 0.6 0.1 0.1
v -0.4 0.2 0
v -0.4 0.4 0
v -0.3 0.1 0
v -0.3 0.2 0
v -0.3 0.3 0
v -0.3 0.4 0
v -0.2 0.2 0
v -0.2 0.3 0
v -0.1 0.1 0
v -0.1 0.2 0
v 0.2 0.1 0
v 0.2 0.2 0
v 0.3 0.2 0
v 0.3 0.3 0
v 0.4 0.1 0
v 0.4 0.2 0
v 0.4 0.3 0
v 0.4 0.4 0
v 0.5 0.2 0
v 0.5 0.4 0
v 0 0.1 -0.2
v 0 0.2 -0.2
v 0.1 0.1 -0.2
v 0.1 0.2 -0.2
v -0.5 0 -0.3
v -0.5 0.1 -0.3
v -0.4 0 -0.3
v -0.4 0.1 -0.3
v 0 0.2 -0.3
v 0 0.3 -0.3
v 0.1 0.2 -0.3
v 0.1 0.3 -0.3
v 0.5 0 -0.3
v 0.5 0.1 -0.3
v 0.6 0 -0.3
v 0.6 0.1 -0.3
v -0.4 0 -0.4
v -0.4 0.1 -0.4
v -0.3 0 -0.4
v -0.3 0.1 -0.4
v 0 0.3 -0.4
v 0 0.4 -0.4
v 0.1 0.3 -0.4
v 0.1 0.4 -0.4
v 0.4 0 -0.4
v 0.4 0.1 -0.4
v 0.5 0 -0.4
v 0.5 0.1 -0.4
v -0.3 0 -0.5
v -0.3 0.1 -0.5
v -0.2 0 -0.5
v -0.2 0.1 -0.5
v 0.3 0 -0.5
v 0.3 0.1 -0.5
v 0.4 0 -0.5
v 0.4 0.1 -0.5
v -0.2 0 -0.6
v -0.2 0.1 -0.6
v -0.1 0 -0.6
v -0.1 0.1 -0.6
v 0.2 0 -0.6
v 0.2 0.1 -0.6
v 0.3 0 -0.6
v 0.3 0.1 -0.6
v -0.2 0 0.5
v -0.2 0.1 0.5
v -0.1 0 0.5
v -0.1 0.1 0.5
v 0.2 0 0.5
v 0.2 0.1 0.5
v 0.3 0 0.5
v 0.3 0.1 0.5
v -0.3 0 0.4
v -0.3 0.1 0.4
v -0.2 0 0.4
v -0.2 0.1 0.4
v 0.3 0 0.4
v 0.3 0.1 0.4
v 0.4 0 0.4
v 0.4 0.1 0.4
v -0.4 0 0.3
v -0.4 0.1 0.3
v -0.3 0 0.3
v -0.3 0.1 0.3
v 0 0.3 0.3
v 0 0.4 0.3
v 0.1 0.3 0.3
v 0.1 0.4 0.3
v 0.4 0 0.3
v 0.4 0.1 0.3
v 0.5 0 0.3
v 0.5 0.1 0.3
v -0.5 0 0.2
v -0.5 0.1 0.2
v -0.4 0 0.2
v -0.4 0.1 0.2
v 0 0.2 0.2
v 0 0.3 0.2
v 0.1 0.2 0.2
v 0.1 0.3 0.2
v 0.5 0 0.2
v 0.5 0.1 0.2
v 0.6 0 0.2
v 0.6 0.1 0.2
v 0 0.1 0.1
v 0 0.2 0.1
v 0.1 0.1 0.1
v 0.1 0.2 0.1
v -0.4 0.2 -0.1
v -0.4 0.4 -0.1
v -0.3 0.1 -0.1
v -0.3 0.2 -0.1
v -0.3 0.3 -0.1
v -0.3 0.4 -0.1
v -0.2 0.2 -0.1
v -0.2 0.3 -0.1
v -0.1 0.1 -0.1
v -0.1 0.2 -0.1
v 0.2 0.1 -0.1
v 0.2 0.2 -0.1
v 0.3 0.2 -0.1
v 0.3 0.3 -0.1
v 0.4 0.1 -0.1
v 0.4 0.2 -0.1
v 0.4 0.3 -0.1
v 0.4 0.4 -0.1
v 0.5 0.2 -0.1
v 0.5 0.4 -0.1
v -0.5 0 -0.2
v -0.5 0.1 -0.2
v -0.1 0 -0.2
v -0.1 0.1 -0.2
v 0.2 0 -0.2
v 0.2 0.1 -0.2
v 0.6 0 -0.2
v 0.6 0.1 -0.2
v -0.7 0 -0.3
v -0.7 0.1 -0.3
v -0.6 0 -0.3
v -0.6 0.1 -0.3
v 0.7 0 -0.3
v 0.7 0.1 -0.3
v 0.8 0 -0.3
v 0.8 0.1 -0.3
v -0.6 0 -0.4
v -0.6 0.1 -0.4
v -0.5 0 -0.4
v -0.5 0.1 -0.4
v 0 0.1 -0.4
v 0 0.2 -0.4
v 0.1 0.1 -0.4
v 0.1 0.2 -0.4
v 0.6 0 -0.4
v 0.6 0.1 -0.4
v 0.7 0 -0.4
v 0.7 0.1 -0.4
v -0.5 0 -0.5
v -0.5 0.1 -0.5
v -0.4 0 -0.5
v -0.4 0.1 -0.5
v 0 0.2 -0.5
v 0 0.4 -0.5
v 0.1 0.2 -0.5
v 0.1 0.4 -0.5
v 0.5 0 -0.5
v 0.5 0.1 -0.5
v 0.6 0 -0.5
v 0.6 0.1 -0.5
v -0.4 0 -0.6
v -0.4 0.1 -0.6
v -0.3 0 -0.6
v -0.3 0.1 -0.6
v 0.4 0 -0.6
v 0.4 0.1 -0.6
v 0.5 0 -0.6
v 0.5 0.1 -0.6
v -0.3 0 -0.7
v -0.3 0.1 -0.7
v -0.2 0 -0.7
v -0.2 0.1 -0.7
v 0.3 0 -0.7
v 0.3 0.1 -0.7
v 0.4 0 -0.7
v 0.4 0.1 -0.7
v -0.2 0 -0.8
v -0.2 0.1 -0.8
v 0.3 0 -0.8
v 0.3 0.1 -0.8
v -0.2 0 0.7
v 0.3 0 0.7
v -0.3 0 0.6
v -0.2 0 0.6
v 0 0 0.6
v 0.1 0 0.6
v 0.3 0 0.6
v 0.4 0 0.6
v -0.4 0 0.5
v -0.3 0 0.5
v -0.2 0 0.5
v -0.1 0 0.5
v 0.2 0 0.5
v 0.3 0 0.5
v 0.4 0 0.5
v 0.5 0 0.5
v -0.5 0 0.4
v -0.4 0 0.4
v -0.3 0 0.4
v -0.2 0 0.4
v 0.3 0 0.4
v 0.4 0 0.4
v 0.5 0 0.4
v 0.6 0 0.4
v -0.6 0 0.3
v -0.5 0 0.3
v -0.4 0 0.3
v -0.3 0 0.3
v 0.4 0 0.3
v 0.5 0 0.3
v 0.6 0 0.3
v 0.7 0 0.3
v -0.7 0 0.2
v -0.6 0 0.2
v -0.5 0 0.2
v -0.4 0 0.2
v 0.5 0 0.2
v 0.6 0 0.2
v 0.7 0 0.2
v 0.8 0 0.2
v -0.5 0 0.1
v -0.1 0 0.1
v 0.2 0 0.1
v 0.6 0 0.1
v -0.6 0 0
v 0 0 0
v 0.1 0 0
v 0.7 0 0
v -0.6 0 -0.1
v 0 0 -0.1
v 0.1 0 -0.1
v 0.7 0 -0.1
v -0.5 0 -0.2
v -0.1 0 -0.2
v 0.2 0 -0.2
v 0.6 0 -0.2
v -0.7 0 -0.3
v -0.6 0 -0.3
v -0.5 0 -0.3
v -0.4 0 -0.3
v 0.5 0 -0.3
v 0.6 0 -0.3
v 0.7 0 -0.3
v 0.8 0 -0.3
v -0.6 0 -0.4
v -0.5 0 -0.4
v -0.4 0 -0.4
v -0.3 0 -0.4
v 0.4 0 -0.4
v 0.5 0 -0.4
v 0.6 0 -0.4
v 0.7 0 -0.4
v -0.5 0 -0.5
v -0.4 0 -0.5
v -0.3 0 -0.5
v -0.2 0 -0.5
v 0.3 0 -0.5
v 0.4 0 -0.5
v 0.5 0 -0.5
v 0.6 0 -0.5
v -0.4 0 -0.6
v -0.3 0 -0.6
v -0.2 0 -0.6
v -0.1 0 -0.6
v 0.2 0 -0.6
v 0.3 0 -0.6
v 0.4 0 -0.6
v 0.5 0 -0.6
v -0.3 0 -0.7
v -0.2 0 -0.7
v 0 0 -0.7
v 0.1 0 -0.7
v 0.3 0 -0.7
v 0.4 0 -0.7
v -0.2 0 -0.8
v 0.3 0 -0.8
v 0 0.2 0.4
v 0.1 0.2 0.4
v 0 0.2 0.3
v 0.1 0.2 0.3
v -0.4 0.2 0
v -0.3 0.2 0
v 0.4 0.2 0
v 0.5 0.2 0
v -0.4 0.2 -0.1
v -0.3 0.2 -0.1
v 0.4 0.2 -0.1
v 0.5 0.2 -0.1
v 0 0.2 -0.4
v 0.1 0.2 -0.4
v 0 0.2 -0.5
v 0.1 0.2 -0.5
v -0.2 0.1 0.7
v 0.3 0.1 0.7
v -0.3 0.1 0.6
v -0.2 0.1 0.6
v 0 0.1 0.6
v 0.1 0.1 0.6
v 0.3 0.1 0.6
v 0.4 0.1 0.6
v -0.4 0.1 0.5
v -0.3 0.1 0.5
v -0.2 0.1 0.5
v -0.1 0.1 0.5
v 0.2 0.1 0.5
v 0.3 0.1 0.5
v 0.4 0.1 0.5
v 0.5 0.1 0.5
v -0.5 0.1 0.4
v -0.4 0.1 0.4
v -0.3 0.1 0.4
v -0.2 0.1 0.4
v 0.3 0.1 0.4
v 0.4 0.1 0.4
v 0.5 0.1 0.4
v 0.6 0.1 0.4
v -0.6 0.1 0.3
v -0.5 0.1 0.3
v -0.4 0.1 0.3
v -0.3 0.1 0.3
v 0 0.1 0.3
v 0.1 0.1 0.3
v 0.4 0.1 0.3
v 0.5 0.1 0.3
v 0.6 0.1 0.3
v 0.7 0.1 0.3
v -0.7 0.1 0.2
v -0.6 0.1 0.2
v -0.5 0.1 0.2
v -0.4 0.1 0.2
v 0.5 0.1 0.2
v 0.6 0.1 0.2
v 0.7 0.1 0.2
v 0.8 0.1 0.2
v -0.5 0.1 0.1
v -0.1 0.1 0.1
v 0 0.1 0.1
v 0.1 0.1 0.1
v 0.2 0.1 0.1
v 0.6 0.1 0.1
v -0.6 0.1 0
v -0.3 0.1 0
v -0.1 0.1 0
v 0 0.1 0
v 0.1 0.1 0
v 0.2 0.1 0
v 0.4 0.1 0
v 0.7 0.1 0
v -0.6 0.1 -0.1
v -0.3 0.1 -0.1
v -0.1 0.1 -0.1
v 0 0.1 -0.1
v 0.1 0.1 -0.1
v 0.2 0.1 -0.1
v 0.4 0.1 -0.1
v 0.7 0.1 -0.1
v -0.5 0.1 -0.2
v -0.1 0.1 -0.2
v 0 0.1 -0.2
v 0.1 0.1 -0.2
v 0.2 0.1 -0.2
v 0.6 0.1 -0.2
v -0.7 0.1 -0.3
v -0.6 0.1 -0.3
v -0.5 0.1 -0.3
v -0.4 0.1 -0.3
v 0.5 0.1 -0.3
v 0.6 0.1 -0.3
v 0.7 0.1 -0.3
v 0.8 0.1 -0.3
v -0.6 0.1 -0.4
v -0.5 0.1 -0.4
v -0.4 0.1 -0.4
v -0.3 0.1 -0.4
v 0 0.1 -0.4
v 0.1 0.1 -0.4
v 0.4 0.1 -0.4
v 0.5 0.1 -0.4
v 0.6 0.1 -0.4
v 0.7 0.1 -0.4
v -0.5 0.1 -0.5
v -0.4 0.1 -0.5
v -0.3 0.1 -0.5
v -0.2 0.1 -0.5
v 0.3 0.1 -0.5
v 0.4 0.1 -0.5
v 0.5 0.1 -0.5
v 0.6 0.1 -0.5
v -0.4 0.1 -0.6
v -0.3 0.1 -0.6
v -0.2 0.1 -0.6
v -0.1 0.1 -0.6
v 0.2 0.1 -0.6
v 0.3 0.1 -0.6
v 0.4 0.1 -0.6
v 0.5 0.1 -0.6
v -0.3 0.1 -0.7
v -0.2 0.1 -0.7
v 0 0.1 -0.7
v 0.1 0.1 -0.7
v 0.3 0.1 -0.7
v 0.4 0.1 -0.7
v -0.2 0.1 -0.8
v 0.3 0.1 -0.8
v 0 0.2 0.2
v 0.1 0.2 0.2
v 0 0.2 0.1
v 0.1 0.2 0.1
v -0.2 0.2 0
v -0.1 0.2 0
v 0.2 0.2 0
v 0.3 0.2 0
v -0.2 0.2 -0.1
v -0.1 0.2 -0.1
v 0.2 0.2 -0.1
v 0.3 0.2 -0.1
v 0 0.2 -0.2
v 0.1 0.2 -0.2
v 0 0.2 -0.3
v 0.1 0.2 -0.3
v 0 0.3 0.3
v 0.1 0.3 0.3
v 0 0.3 0.2
v 0.1 0.3 0.2
v -0.3 0.3 0
v -0.2 0.3 0
v 0.3 0.3 0
v 0.4 0.3 0
v -0.3 0.3 -0.1
v -0.2 0.3 -0.1
v 0.3 0.3 -0.1
v 0.4 0.3 -0.1
v 0 0.3 -0.3
v 0.1 0.3 -0.3
v 0 0.3 -0.4
v 0.1 0.3 -0.4
v 0 0.4 0.4
v 0.1 0.4 0.4
v 0 0.4 0.3
v 0.1 0.4 0.3
v -0.4 0.4 0
v -0.3 0.4 0
v 0.4 0.4 0
v 0.5 0.4 0
v -0.4 0.4 -0.1
v -0.3 0.4 -0.1
v 0.4 0.4 -0.1
v 0.5 0.4 -0.1
v 0 0.4 -0.4
v 0.1 0.4 -0.4
v 0 0.4 -0.5
v 0.1 0.4 -0.5

# faces
f 3/2/1 2/2/1 1/2/1
f 4/2/1 2/2/1 3/2/1
f 9/2/1 6/2/1 5/2/1
f 10/2/1 6/2/1 9/2/1
f 11/2/1 8/2/1 7/2/1
f 12/2/1 8/2/1 11/2/1
f 17/2/1 14/2/1 13/2/1
f 18/2/1 14/2/1 17/2/1
f 19/2/1 16/2/1 15/2/1
f 20/2/1 16/2/1 19/2/1
f 25/2/1 22/2/1 21/2/1
f 26/2/1 22/2/1 25/2/1
f 27/2/1 24/2/1 23/2/1
f 28/2/1 24/2/1 27/2/1
f 31/1/1 30/1/1 29/1/1
f 32/1/1 30/1/1 31/1/1
f 37/2/1 34/2/1 33/2/1
f 38/2/1 34/2/1 37/2/1
f 41/2/1 36/2/1 35/2/1
f 42/2/1 36/2/1 41/2/1
f 43/1/1 40/1/1 39/1/1
f 44/1/1 40/1/1 43/1/1
f 49/2/1 46/2/1 45/2/1
f 50/2/1 46/2/1 49/2/1
f 51/2/1 48/2/1 47/2/1
f 52/2/1 48/2/1 51/2/1
f 57/1/1 54/1/1 53/1/1
f 58/1/1 54/1/1 57/1/1
f 59/1/1 56/1/1 55/1/1
f 60/1/1 56/1/1 59/1/1
f 66/1/1 62/1/1 61/1/1
f 67/1/1 62/1/1 66/1/1
f 68/1/1 62/1/1 67/1/1
f 69/1/1 64/1/1 63/1/1
f 70/1/1 64/1/1 69/1/1
f 71/1/1 64/1/1 70/1/1
f 73/1/1 66/1/1 65/1/1
f 73/1/1 67/1/1 66/1/1
f 74/1/1 67/1/1 73/1/1
f 75/1/1 72/1/1 71/1/1
f 75/1/1 71/1/1 70/1/1
f 76/1/1 72/1/1 75/1/1
f 77/1/1 73/1/1 65/1/1
f 78/1/1 73/1/1 77/1/1
f 79/1/1 72/1/1 76/1/1
f 80/1/1 72/1/1 79/1/1
f 83/1/1 82/1/1 81/1/1
f 84/1/1 82/1/1 83/1/1
f 89/1/1 86/1/1 85/1/1
f 90/1/1 86/1/1 89/1/1
f 91/1/1 88/1/1 87/1/1
f 92/1/1 88/1/1 91/1/1
f 95/1/1 94/1/1 93/1/1
f 96/1/1 94/1/1 95/1/1
f 101/1/1 98/1/1 97/1/1
f 102/1/1 98/1/1 101/1/1
f 103/1/1 100/1/1 99/1/1
f 104/1/1 100/1/1 103/1/1
f 107/1/1 106/1/1 105/1/1
f 108/1/1 106/1/1 107/1/1
f 113/1/1 110/1/1 109/1/1
f 114/1/1 110/1/1 113/1/1
f 115/1/1 112/1/1 111/1/1
f 116/1/1 112/1/1 115/1/1
f 121/1/1 118/1/1 117/1/1
f 122/1/1 118/1/1 121/1/1
f 123/1/1 120/1/1 119/1/1
f 124/1/1 120/1/1 123/1/1
f 125/1/2 126/1/2 129/1/2
f 129/1/2 126/1/2 130/1/2
f 127/1/2 128/1/2 131/1/2
f 131/1/2 128/1/2 132/1/2
f 133/1/2 134/1/2 137/1/2
f 137/1/2 134/1/2 138/1/2
f 135/1/2 136/1/2 139/1/2
f 139/1/2 136/1/2 140/1/2
f 141/1/2 142/1/2 145/1/2
f 145/1/2 142/1/2 146/1/2
f 143/1/2 144/1/2 147/1/2
f 147/1/2 144/1/2 148/1/2
f 149/1/2 150/1/2 151/1/2
f 151/1/2 150/1/2 152/1/2
f 153/1/2 154/1/2 157/1/2
f 157/1/2 154/1/2 158/1/2
f 155/1/2 156/1/2 159/1/2
f 159/1/2 156/1/2 160/1/2
f 161/1/2 162/1/2 163/1/2
f 163/1/2 162/1/2 164/1/2
f 165/1/2 166/1/2 167/1/2
f 167/1/2 166/1/2 168/1/2
f 169/1/2 170/1/2 174/1/2
f 174/1/2 170/1/2 175/1/2
f 175/1/2 170/1/2 176/1/2
f 171/1/2 172/1/2 177/1/2
f 177/1/2 172/1/2 178/1/2
f 178/1/2 172/1/2 179/1/2
f 173/1/2 174/1/2 181/1/2
f 174/1/2 175/1/2 181/1/2
f 181/1/2 175/1/2 182/1/2
f 179/1/2 180/1/2 183/1/2
f 178/1/2 179/1/2 183/1/2
f 183/1/2 180/1/2 184/1/2
f 173/1/2 181/1/2 185/1/2
f 185/1/2 181/1/2 186/1/2
f 184/1/2 180/1/2 187/1/2
f 187/1/2 180/1/2 188/1/2
f 189/1/2 190/1/2 193/1/2
f 193/1/2 190/1/2 194/1/2
f 191/1/2 192/1/2 195/1/2
f 195/1/2 192/1/2 196/1/2
f 197/2/2 198/2/2 201/2/2
f 201/2/2 198/2/2 202/2/2
f 199/2/2 200/2/2 203/2/2
f 203/2/2 200/2/2 204/2/2
f 205/2/2 206/2/2 209/2/2
f 209/2/2 206/2/2 210/2/2
f 207/2/2 208/2/2 213/2/2
f 213/2/2 208/2/2 214/2/2
f 211/1/2 212/1/2 215/1/2
f 215/1/2 212/1/2 216/1/2
f 217/2/2 218/2/2 221/2/2
f 221/2/2 218/2/2 222/2/2
f 219/2/2 220/2/2 223/2/2
f 223/2/2 220/2/2 224/2/2
f 225/1/2 226/1/2 227/1/2
f 227/1/2 226/1/2 228/1/2
f 229/2/2 230/2/2 233/2/2
f 233/2/2 230/2/2 234/2/2
f 231/2/2 232/2/2 235/2/2
f 235/2/2 232/2/2 236/2/2
f 237/2/2 238/2/2 241/2/2
f 241/2/2 238/2/2 242/2/2
f 239/2/2 240/2/2 243/2/2
f 243/2/2 240/2/2 244/2/2
f 245/2/2 246/2/2 247/2/2
f 247/2/2 246/2/2 248/2/2
f 251/2/3 250/2/3 249/2/3
f 252/2/3 250/2/3 251/2/3
f 255/2/3 254/2/3 253/2/3
f 256/2/3 254/2/3 255/2/3
f 259/2/3 258/2/3 257/2/3
f 260/2/3 258/2/3 259/2/3
f 263/2/3 262/2/3 261/2/3
f 264/2/3 262/2/3 263/2/3
f 267/2/3 266/2/3 265/2/3
f 268/2/3 266/2/3 267/2/3
f 271/2/3 270/2/3 269/2/3
f 272/2/3 270/2/3 271/2/3
f 275/1/3 274/1/3 273/1/3
f 276/1/3 274/1/3 275/1/3
f 279/2/3 278/2/3 277/2/3
f 280/2/3 278/2/3 279/2/3
f 283/2/3 282/2/3 281/2/3
f 284/2/3 282/2/3 283/2/3
f 287/1/3 286/1/3 285/1/3
f 288/1/3 286/1/3 287/1/3
f 291/2/3 290/2/3 289/2/3
f 292/2/3 290/2/3 291/2/3
f 295/2/3 294/2/3 293/2/3
f 296/2/3 294/2/3 295/2/3
f 299/2/3 298/2/3 297/2/3
f 300/2/3 298/2/3 299/2/3
f 303/1/3 302/1/3 301/1/3
f 304/1/3 302/1/3 303/1/3
f 307/1/3 306/1/3 305/1/3
f 308/1/3 306/1/3 307/1/3
f 312/1/3 310/1/3 309/1/3
f 313/1/3 310/1/3 312/1/3
f 314/1/3 310/1/3 313/1/3
f 315/1/3 312/1/3 311/1/3
f 315/1/3 313/1/3 312/1/3
f 316/1/3 313/1/3 315/1/3
f 317/1/3 315/1/3 311/1/3
f 318/1/3 315/1/3 317/1/3
f 321/1/3 320/1/3 319/1/3
f 323/1/3 321/1/3 319/1/3
f 323/1/3 322/1/3 321/1/3
f 324/1/3 322/1/3 323/1/3
f 325/1/3 322/1/3 324/1/3
f 327/1/3 325/1/3 324/1/3
f 327/1/3 326/1/3 325/1/3
f 328/1/3 326/1/3 327/1/3
f 331/1/3 330/1/3 329/1/3
f 332/1/3 330/1/3 331/1/3
f 335/1/3 334/1/3 333/1/3
f 336/1/3 334/1/3 335/1/3
f 339/1/3 338/1/3 337/1/3
f 340/1/3 338/1/3 339/1/3
f 343/1/3 342/1/3 341/1/3
f 344/1/3 342/1/3 343/1/3
f 347/1/3 346/1/3 345/1/3
f 348/1/3 346/1/3 347/1/3
f 351/1/3 350/1/3 349/1/3
f 352/1/3 350/1/3 351/1/3
f 355/1/3 354/1/3 353/1/3
f 356/1/3 354/1/3 355/1/3
f 359/1/3 358/1/3 357/1/3
f 360/1/3 358/1/3 359/1/3
f 363/1/3 362/1/3 361/1/3
f 364/1/3 362/1/3 363/1/3
f 367/1/3 366/1/3 365/1/3
f 368/1/3 366/1/3 367/1/3
f 371/1/3 370/1/3 369/1/3
f 372/1/3 370/1/3 371/1/3
f 373/1/4 374/1/4 375/1/4
f 375/1/4 374/1/4 376/1/4
f 377/1/4 378/1/4 379/1/4
f 379/1/4 378/1/4 380/1/4
f 381/1/4 382/1/4 383/1/4
f 383/1/4 382/1/4 384/1/4
f 385/1/4 386/1/4 387/1/4
f 387/1/4 386/1/4 388/1/4
f 389/1/4 390/1/4 391/1/4
f 391/1/4 390/1/4 392/1/4
f 393/1/4 394/1/4 395/1/4
f 395/1/4 394/1/4 396/1/4
f 397/1/4 398/1/4 399/1/4
f 399/1/4 398/1/4 400/1/4
f 401/1/4 402/1/4 403/1/4
f 403/1/4 402/1/4 404/1/4
f 405/1/4 406/1/4 407/1/4
f 407/1/4 406/1/4 408/1/4
f 409/1/4 410/1/4 411/1/4
f 411/1/4 410/1/4 412/1/4
f 413/1/4 414/1/4 415/1/4
f 415/1/4 414/1/4 416/1/4
f 417/1/4 418/1/4 420/1/4
f 420/1/4 418/1/4 421/1/4
f 421/1/4 418/1/4 422/1/4
f 419/1/4 420/1/4 423/1/4
f 420/1/4 421/1/4 423/1/4
f 423/1/4 421/1/4 424/1/4
f 419/1/4 423/1/4 425/1/4
f 425/1/4 423/1/4 426/1/4
f 427/1/4 428/1/4 429/1/4
f 427/1/4 429/1/4 431/1/4
f 429/1/4 430/1/4 431/1/4
f 431/1/4 430/1/4 432/1/4
f 432/1/4 430/1/4 433/1/4
f 432/1/4 433/1/4 435/1/4
f 433/1/4 434/1/4 435/1/4
f 435/1/4 434/1/4 436/1/4
f 437/1/4 438/1/4 439/1/4
f 439/1/4 438/1/4 440/1/4
f 441/1/4 442/1/4 443/1/4
f 443/1/4 442/1/4 444/1/4
f 445/2/4 446/2/4 447/2/4
f 447/2/4 446/2/4 448/2/4
f 449/2/4 450/2/4 451/2/4
f 451/2/4 450/2/4 452/2/4
f 453/2/4 454/2/4 455/2/4
f 455/2/4 454/2/4 456/2/4
f 457/1/4 458/1/4 459/1/4
f 459/1/4 458/1/4 460/1/4
f 461/2/4 462/2/4 463/2/4
f 463/2/4 462/2/4 464/2/4
f 465/2/4 466/2/4 467/2/4
f 467/2/4 466/2/4 468/2/4
f 469/1/4 470/1/4 471/1/4
f 471/1/4 470/1/4 472/1/4
f 473/2/4 474/2/4 475/2/4
f 475/2/4 474/2/4 476/2/4
f 477/2/4 478/2/4 479/2/4
f 479/2/4 478/2/4 480/2/4
f 481/2/4 482/2/4 483/2/4
f 483/2/4 482/2/4 484/2/4
f 485/2/4 486/2/4 487/2/4
f 487/2/4 486/2/4 488/2/4
f 489/2/4 490/2/4 491/2/4
f 491/2/4 490/2/4 492/2/4
f 493/2/4 494/2/4 495/2/4
f 495/2/4 494/2/4 496/2/4
f 500/2/5 498/2/5 497/2/5
f 501/2/5 498/2/5 500/2/5
f 502/2/5 498/2/5 501/2/5
f 503/2/5 498/2/5 502/2/5
f 506/2/5 500/2/5 499/2/5
f 507/1/5 501/1/5 500/1/5
f 507/2/5 500/2/5 506/2/5
f 508/1/5 501/1/5 507/1/5
f 509/1/5 503/1/5 502/1/5
f 510/2/5 504/2/5 503/2/5
f 510/1/5 503/1/5 509/1/5
f 511/2/5 504/2/5 510/2/5
f 514/2/5 506/2/5 505/2/5
f 515/1/5 507/1/5 506/1/5
f 515/2/5 506/2/5 514/2/5
f 516/1/5 507/1/5 515/1/5
f 517/1/5 511/1/5 510/1/5
f 518/2/5 512/2/5 511/2/5
f 518/1/5 511/1/5 517/1/5
f 519/2/5 512/2/5 518/2/5
f 522/2/5 514/2/5 513/2/5
f 523/1/5 515/1/5 514/1/5
f 523/2/5 514/2/5 522/2/5
f 524/1/5 515/1/5 523/1/5
f 525/1/5 519/1/5 518/1/5
f 526/2/5 520/2/5 519/2/5
f 526/1/5 519/1/5 525/1/5
f 527/2/5 520/2/5 526/2/5
f 530/2/5 522/2/5 521/2/5
f 531/1/5 523/1/5 522/1/5
f 531/2/5 522/2/5 530/2/5
f 532/1/5 523/1/5 531/1/5
f 533/1/5 527/1/5 526/1/5
f 534/2/5 528/2/5 527/2/5
f 534/1/5 527/1/5 533/1/5
f 535/2/5 528/2/5 534/2/5
f 537/1/5 531/1/5 530/1/5
f 538/1/5 501/1/5 508/1/5
f 539/1/5 509/1/5 502/1/5
f 540/1/5 535/1/5 534/1/5
f 541/1/5 538/1/5 537/1/5
f 541/1/5 537/1/5 530/1/5
f 541/2/5 530/2/5 529/2/5
f 542/2/5 502/2/5 501/2/5
f 542/1/5 538/1/5 541/1/5
f 542/1/5 501/1/5 538/1/5
f 543/1/5 540/1/5 539/1/5
f 543/2/5 502/2/5 542/2/5
f 543/1/5 539/1/5 502/1/5
f 544/1/5 535/1/5 540/1/5
f 544/1/5 540/1/5 543/1/5
f 544/2/5 536/2/5 535/2/5
f 545/2/5 542/2/5 541/2/5
f 545/2/5 541/2/5 529/2/5
f 545/2/5 544/2/5 543/2/5
f 545/2/5 543/2/5 542/2/5
f 546/2/5 544/2/5 545/2/5
f 547/2/5 544/2/5 546/2/5
f 548/2/5 536/2/5 544/2/5
f 548/2/5 544/2/5 547/2/5
f 549/1/5 546/1/5 545/1/5
f 550/1/5 546/1/5 549/1/5
f 551/1/5 548/1/5 547/1/5
f 552/1/5 548/1/5 551/1/5
f 553/2/5 545/2/5 529/2/5
f 554/1/5 549/1/5 545/1/5
f 554/2/5 545/2/5 553/2/5
f 555/1/5 549/1/5 554/1/5
f 558/1/5 548/1/5 552/1/5
f 559/2/5 536/2/5 548/2/5
f 559/1/5 548/1/5 558/1/5
f 560/2/5 536/2/5 559/2/5
f 561/2/5 555/2/5 554/2/5
f 562/1/5 556/1/5 555/1/5
f 562/2/5 555/2/5 561/2/5
f 563/1/5 556/1/5 562/1/5
f 566/1/5 558/1/5 557/1/5
f 567/2/5 559/2/5 558/2/5
f 567/1/5 558/1/5 566/1/5
f 568/2/5 559/2/5 567/2/5
f 569/2/5 563/2/5 562/2/5
f 570/1/5 564/1/5 563/1/5
f 570/2/5 563/2/5 569/2/5
f 571/1/5 564/1/5 570/1/5
f 574/1/5 566/1/5 565/1/5
f 575/2/5 567/2/5 566/2/5
f 575/1/5 566/1/5 574/1/5
f 576/2/5 567/2/5 575/2/5
f 577/2/5 571/2/5 570/2/5
f 578/1/5 572/1/5 571/1/5
f 578/2/5 571/2/5 577/2/5
f 579/1/5 572/1/5 578/1/5
f 580/1/5 546/1/5 550/1/5
f 581/1/5 551/1/5 547/1/5
f 582/1/5 574/1/5 573/1/5
f 583/2/5 575/2/5 574/2/5
f 583/1/5 574/1/5 582/1/5
f 584/2/5 575/2/5 583/2/5
f 585/2/5 579/2/5 578/2/5
f 586/1/5 580/1/5 579/1/5
f 586/2/5 579/2/5 585/2/5
f 587/2/5 547/2/5 546/2/5
f 587/1/5 580/1/5 586/1/5
f 587/1/5 546/1/5 580/1/5
f 588/1/5 581/1/5 547/1/5
f 588/2/5 547/2/5 587/2/5
f 588/1/5 582/1/5 581/1/5
f 589/2/5 583/2/5 582/2/5
f 589/1/5 582/1/5 588/1/5
f 590/2/5 583/2/5 589/2/5
f 591/2/5 587/2/5 586/2/5
f 591/2/5 589/2/5 588/2/5
f 591/2/5 588/2/5 587/2/5
f 592/2/5 589/2/5 591/2/5
f 595/1/5 594/1/5 593/1/5
f 596/1/5 594/1/5 595/1/5
f 601/1/5 598/1/5 597/1/5
f 602/1/5 598/1/5 601/1/5
f 603/1/5 600/1/5 599/1/5
f 604/1/5 600/1/5 603/1/5
f 607/1/5 606/1/5 605/1/5
f 608/1/5 606/1/5 607/1/5
f 609/2/6 610/2/6 612/2/6
f 612/2/6 610/2/6 613/2/6
f 613/2/6 610/2/6 614/2/6
f 614/2/6 610/2/6 615/2/6
f 611/2/6 612/2/6 618/2/6
f 612/1/6 613/1/6 619/1/6
f 618/2/6 612/2/6 619/2/6
f 619/1/6 613/1/6 620/1/6
f 614/1/6 615/1/6 621/1/6
f 615/2/6 616/2/6 622/2/6
f 621/1/6 615/1/6 622/1/6
f 622/2/6 616/2/6 623/2/6
f 617/2/6 618/2/6 626/2/6
f 618/1/6 619/1/6 627/1/6
f 626/2/6 618/2/6 627/2/6
f 627/1/6 619/1/6 628/1/6
f 622/1/6 623/1/6 629/1/6
f 623/2/6 624/2/6 630/2/6
f 629/1/6 623/1/6 630/1/6
f 630/2/6 624/2/6 631/2/6
f 625/2/6 626/2/6 634/2/6
f 626/1/6 627/1/6 635/1/6
f 634/2/6 626/2/6 635/2/6
f 635/1/6 627/1/6 636/1/6
f 613/2/6 614/2/6 637/2/6
f 620/1/6 613/1/6 637/1/6
f 614/1/6 621/1/6 638/1/6
f 637/2/6 614/2/6 638/2/6
f 630/1/6 631/1/6 639/1/6
f 631/2/6 632/2/6 640/2/6
f 639/1/6 631/1/6 640/1/6
f 640/2/6 632/2/6 641/2/6
f 633/2/6 634/2/6 644/2/6
f 634/1/6 635/1/6 645/1/6
f 644/2/6 634/2/6 645/2/6
f 645/1/6 635/1/6 646/1/6
f 640/1/6 641/1/6 647/1/6
f 641/2/6 642/2/6 648/2/6
f 647/1/6 641/1/6 648/1/6
f 648/2/6 642/2/6 649/2/6
f 644/1/6 645/1/6 651/1/6
f 620/1/6 637/1/6 652/1/6
f 652/1/6 637/1/6 653/1/6
f 638/1/6 621/1/6 654/1/6
f 654/1/6 621/1/6 655/1/6
f 648/1/6 649/1/6 656/1/6
f 644/1/6 651/1/6 657/1/6
f 643/2/6 644/2/6 657/2/6
f 652/1/6 653/1/6 657/1/6
f 651/1/6 652/1/6 657/1/6
f 657/1/6 653/1/6 658/1/6
f 658/1/6 653/1/6 659/1/6
f 653/2/6 654/2/6 660/2/6
f 659/1/6 653/1/6 660/1/6
f 655/1/6 656/1/6 661/1/6
f 660/2/6 654/2/6 661/2/6
f 654/1/6 655/1/6 661/1/6
f 661/1/6 656/1/6 662/1/6
f 662/1/6 656/1/6 663/1/6
f 656/1/6 649/1/6 664/1/6
f 663/1/6 656/1/6 664/1/6
f 649/2/6 650/2/6 664/2/6
f 657/2/6 658/2/6 665/2/6
f 643/2/6 657/2/6 665/2/6
f 665/2/6 658/2/6 666/2/6
f 659/2/6 660/2/6 667/2/6
f 661/2/6 662/2/6 667/2/6
f 660/2/6 661/2/6 667/2/6
f 667/2/6 662/2/6 668/2/6
f 668/2/6 662/2/6 669/2/6
f 669/2/6 662/2/6 670/2/6
f 663/2/6 664/2/6 671/2/6
f 664/2/6 650/2/6 672/2/6
f 671/2/6 664/2/6 672/2/6
f 665/1/6 666/1/6 673/1/6
f 666/1/6 667/1/6 673/1/6
f 667/1/6 668/1/6 673/1/6
f 673/1/6 668/1/6 674/1/6
f 668/2/6 669/2/6 675/2/6
f 674/1/6 668/1/6 675/1/6
f 670/1/6 671/1/6 676/1/6
f 675/2/6 669/2/6 676/2/6
f 669/1/6 670/1/6 676/1/6
f 671/1/6 672/1/6 676/1/6
f 676/1/6 672/1/6 677/1/6
f 677/1/6 672/1/6 678/1/6
f 643/2/6 665/2/6 679/2/6
f 665/1/6 673/1/6 680/1/6
f 679/2/6 665/2/6 680/2/6
f 680/1/6 673/1/6 681/1/6
f 678/1/6 672/1/6 684/1/6
f 672/2/6 650/2/6 685/2/6
f 684/1/6 672/1/6 685/1/6
f 685/2/6 650/2/6 686/2/6
f 680/2/6 681/2/6 687/2/6
f 681/1/6 682/1/6 688/1/6
f 687/2/6 681/2/6 688/2/6
f 688/1/6 682/1/6 689/1/6
f 674/1/6 675/1/6 691/1/6
f 676/1/6 677/1/6 692/1/6
f 683/1/6 684/1/6 694/1/6
f 684/2/6 685/2/6 695/2/6
f 694/1/6 684/1/6 695/1/6
f 695/2/6 685/2/6 696/2/6
f 688/2/6 689/2/6 697/2/6
f 689/1/6 690/1/6 698/1/6
f 697/2/6 689/2/6 698/2/6
f 698/1/6 690/1/6 699/1/6
f 693/1/6 694/1/6 702/1/6
f 694/2/6 695/2/6 703/2/6
f 702/1/6 694/1/6 703/1/6
f 703/2/6 695/2/6 704/2/6
f 698/2/6 699/2/6 705/2/6
f 699/1/6 700/1/6 706/1/6
f 705/2/6 699/2/6 706/2/6
f 706/1/6 700/1/6 707/1/6
f 674/1/6 691/1/6 708/1/6
f 692/1/6 677/1/6 709/1/6
f 701/1/6 702/1/6 710/1/6
f 702/2/6 703/2/6 711/2/6
f 710/1/6 702/1/6 711/1/6
f 711/2/6 703/2/6 712/2/6
f 706/2/6 707/2/6 713/2/6
f 707/1/6 708/1/6 714/1/6
f 713/2/6 707/2/6 714/2/6
f 691/2/6 692/2/6 715/2/6
f 714/1/6 708/1/6 715/1/6
f 708/1/6 691/1/6 715/1/6
f 692/1/6 709/1/6 716/1/6
f 715/2/6 692/2/6 716/2/6
f 709/1/6 710/1/6 716/1/6
f 710/2/6 711/2/6 717/2/6
f 716/1/6 710/1/6 717/1/6
f 717/2/6 711/2/6 718/2/6
f 714/2/6 715/2/6 719/2/6
f 716/2/6 717/2/6 719/2/6
f 715/2/6 716/2/6 719/2/6
f 719/2/6 717/2/6 720/2/6
f 721/1/6 722/1/6 723/1/6
f 723/1/6 722/1/6 724/1/6
f 725/1/6 726/1/6 729/1/6
f 729/1/6 726/1/6 730/1/6
f 727/1/6 728/1/6 731/1/6
f 731/1/6 728/1/6 732/1/6
f 733/1/6 734/1/6 735/1/6
f 735/1/6 734/1/6 736/1/6
f 737/1/6 738/1/6 739/1/6
f 739/1/6 738/1/6 740/1/6
f 741/1/6 742/1/6 745/1/6
f 745/1/6 742/1/6 746/1/6
f 743/1/6 744/1/6 747/1/6
f 747/1/6 744/1/6 748/1/6
f 749/1/6 750/1/6 751/1/6
f 751/1/6 750/1/6 752/1/6
f 753/1/6 754/1/6 755/1/6
f 755/1/6 754/1/6 756/1/6
f 757/1/6 758/1/6 761/1/6
f 761/1/6 758/1/6 762/1/6
f 759/1/6 760/1/6 763/1/6
f 763/1/6 760/1/6 764/1/6
f 765/1/6 766/1/6 767/1/6
f 767/1/6 766/1/6 768/1/6
