# MagicaVoxel @ Ephtracy

# group
o 

# material
mtllib big_witch.mtl
usemtl palette

# normals
vn -1 0 0
vn 1 0 0
vn 0 0 1
vn 0 0 -1
vn 0 -1 0
vn 0 1 0

# texcoords
vt 0.00976562 0.5
vt 0.537109 0.5
vt 0.693359 0.5
vt 0.841797 0.5
vt 0.958984 0.5
vt 0.978516 0.5
vt 0.990234 0.5

# verts
v -0.4 0.1 0.1
v -0.4 0.1 0
v -0.4 0.2 0.3
v -0.4 0.2 0.2
v -0.4 0.3 0.2
v -0.4 0.3 0.1
v -0.4 0.4 0.3
v -0.4 0.4 0.2
v -0.4 0.4 0.1
v -0.4 0.4 0
v -0.4 0.8 0.1
v -0.4 0.8 0
v -0.4 0.9 0.1
v -0.4 0.9 0
v -0.4 1.2 0.1
v -0.4 1.2 0
v -0.4 1.3 0.3
v -0.4 1.3 0.2
v -0.4 1.3 0
v -0.4 1.3 -0.1
v -0.4 1.4 0.4
v -0.4 1.4 0.3
v -0.4 1.4 0
v -0.4 1.6 0.4
v -0.4 1.6 0.3
v -0.4 1.6 0
v -0.4 1.6 -0.1
v -0.4 1.7 0.3
v -0.4 1.7 0
v -0.3 0.8 0
v -0.3 0.8 -0.1
v -0.3 0.9 0
v -0.3 0.9 -0.1
v -0.2 0 -0.3
v -0.2 0 -0.4
v -0.2 0.1 -0.1
v -0.2 0.1 -0.3
v -0.2 0.2 -0.1
v -0.2 0.2 -0.2
v -0.2 0.2 -0.3
v -0.2 0.2 -0.4
v -0.2 0.3 0.2
v -0.2 0.3 0.1
v -0.2 0.3 0
v -0.2 0.3 -0.2
v -0.2 0.4 0.1
v -0.2 0.4 0
v -0.2 0.5 0.2
v -0.2 0.5 0.1
v -0.2 0.5 -0.2
v -0.2 0.5 -0.3
v -0.2 0.6 0.1
v -0.2 0.6 -0.2
v -0.2 0.9 0.1
v -0.2 0.9 0
v -0.2 0.9 -0.1
v -0.2 0.9 -0.2
v -0.2 1 0
v -0.2 1 -0.1
v -0.2 1.1 0.2
v -0.2 1.1 0.1
v -0.2 1.2 -0.1
v -0.2 1.2 -0.2
v -0.2 1.3 0.2
v -0.2 1.3 0.1
v -0.2 1.3 -0.1
v -0.2 1.3 -0.2
v -0.2 1.4 0.2
v -0.2 1.4 0.1
v -0.2 1.4 -0.1
v -0.2 1.4 -0.2
v -0.1 0.2 0.2
v -0.1 0.2 0.1
v -0.1 0.2 -0.3
v -0.1 0.2 -0.4
v -0.1 0.3 0.2
v -0.1 0.3 0.1
v -0.1 0.4 -0.3
v -0.1 0.4 -0.4
v -0.1 0.5 0.2
v -0.1 0.5 0.1
v -0.1 0.5 -0.2
v -0.1 0.5 -0.3
v -0.1 0.6 0.1
v -0.1 0.6 -0.2
v -0.1 0.6 -0.3
v -0.1 0.7 0.2
v -0.1 0.7 0.1
v -0.1 0.8 0
v -0.1 0.8 -0.1
v -0.1 0.9 0.1
v -0.1 0.9 0
v -0.1 0.9 -0.1
v -0.1 0.9 -0.2
v -0.1 0.9 -0.3
v -0.1 1 0.2
v -0.1 1 0.1
v -0.1 1.1 0.2
v -0.1 1.1 0.1
v -0.1 1.2 0.3
v -0.1 1.2 0.2
v -0.1 1.2 -0.1
v -0.1 1.2 -0.2
v -0.1 1.3 0.3
v -0.1 1.3 0.2
v -0.1 1.3 -0.1
v -0.1 1.3 -0.2
v -0.1 1.3 -0.3
v -0.1 1.4 0.3
v -0.1 1.4 0.2
v -0.1 1.4 0.1
v -0.1 1.4 -0.2
v -0.1 1.4 -0.3
v -0.1 1.5 0.1
v -0.1 1.5 0
v -0.1 1.6 0
v -0.1 1.6 -0.1
v -0.1 1.6 -0.2
v -0.1 1.6 -0.3
v -0.1 1.7 -0.1
v -0.1 1.7 -0.3
v 0 0.1 -0.3
v 0 0.1 -0.5
v 0 0.2 -0.3
v 0 0.2 -0.4
v 0 0.2 -0.5
v 0 0.4 -0.3
v 0 0.4 -0.4
v 0 0.5 -0.3
v 0 0.5 -0.4
v 0 0.8 -0.2
v 0 0.8 -0.3
v 0 0.9 -0.2
v 0 0.9 -0.3
v 0 1.5 0.1
v 0 1.5 0
v 0 1.6 0.1
v 0 1.6 0
v 0 1.6 -0.1
v 0 1.7 0
v 0 1.7 -0.1
v 0 1.7 -0.3
v 0 1.7 -0.4
v 0 1.8 -0.1
v 0 1.8 -0.4
v 0.1 0.2 -0.2
v 0.1 0.2 -0.3
v 0.1 0.3 0.2
v 0.1 0.3 0.1
v 0.1 0.3 -0.2
v 0.1 0.3 -0.3
v 0.1 0.4 0.2
v 0.1 0.4 0.1
v 0.1 0.4 0
v 0.1 0.4 -0.1
v 0.1 0.4 -0.2
v 0.1 0.5 0.1
v 0.1 0.5 0
v 0.1 0.5 -0.1
v 0.1 0.5 -0.2
v 0.1 0.8 0.5
v 0.1 0.8 0.2
v 0.1 0.9 0.5
v 0.1 0.9 0.2
v 0.2 0.1 -0.3
v 0.2 0.1 -0.4
v 0.2 0.2 0.2
v 0.2 0.2 0.1
v 0.2 0.2 0
v 0.2 0.2 -0.1
v 0.2 0.2 -0.3
v 0.2 0.2 -0.4
v 0.2 0.3 0.2
v 0.2 0.3 0.1
v 0.2 0.3 0
v 0.2 0.3 -0.1
v 0.2 0.3 -0.2
v 0.2 0.4 0.1
v 0.2 0.4 0
v 0.2 0.4 -0.1
v 0.2 0.4 -0.2
v 0.2 0.5 0
v 0.2 0.5 -0.1
v 0.2 0.8 0.2
v 0.2 0.8 0.1
v 0.2 0.9 0.2
v 0.2 0.9 0.1
v -0.3 0.1 0.1
v -0.3 0.1 0
v -0.3 0.2 0.3
v -0.3 0.2 0.2
v -0.3 0.3 0.2
v -0.3 0.3 0.1
v -0.3 0.4 0.3
v -0.3 0.4 0.2
v -0.3 0.4 0.1
v -0.3 0.4 0
v -0.3 0.8 0.1
v -0.3 0.8 0
v -0.3 0.9 0.1
v -0.3 0.9 0
v -0.3 1.2 0.1
v -0.3 1.2 0
v -0.3 1.3 0.3
v -0.3 1.3 0.2
v -0.3 1.3 0.1
v -0.3 1.3 0
v -0.3 1.4 0.4
v -0.3 1.4 0.3
v -0.3 1.4 0.1
v -0.3 1.4 0
v -0.3 1.4 -0.1
v -0.3 1.6 0.4
v -0.3 1.6 0.3
v -0.3 1.6 0
v -0.3 1.6 -0.1
v -0.3 1.7 0.3
v -0.3 1.7 0
v -0.1 0 -0.3
v -0.1 0 -0.4
v -0.1 0.1 -0.1
v -0.1 0.1 -0.3
v -0.1 0.2 -0.1
v -0.1 0.2 -0.2
v -0.1 0.2 -0.4
v -0.1 0.3 0.2
v -0.1 0.3 0.1
v -0.1 0.3 0
v -0.1 0.3 -0.2
v -0.1 0.4 0.2
v -0.1 0.4 0.1
v -0.1 0.4 0
v -0.1 0.4 -0.1
v -0.1 0.4 -0.2
v -0.1 0.5 0
v -0.1 0.5 -0.1
v 0 0.2 0.2
v 0 0.2 0.1
v 0 0.2 -0.2
v 0 0.2 -0.3
v 0 0.3 0.2
v 0 0.3 0.1
v 0 0.3 -0.2
v 0 0.3 -0.3
v 0 0.4 0.1
v 0 0.4 0
v 0 0.4 -0.1
v 0 0.4 -0.2
v 0 0.5 0.1
v 0 0.5 0
v 0 0.5 -0.1
v 0 0.5 -0.2
v 0 0.6 0.2
v 0 0.6 0.1
v 0 0.7 0.2
v 0 0.7 0.1
v 0.1 0.1 -0.3
v 0.1 0.1 -0.5
v 0.1 0.2 -0.3
v 0.1 0.2 -0.4
v 0.1 0.2 -0.5
v 0.1 0.3 -0.3
v 0.1 0.3 -0.4
v 0.1 0.4 -0.3
v 0.1 0.4 -0.4
v 0.1 0.5 -0.3
v 0.1 0.5 -0.4
v 0.1 0.8 -0.2
v 0.1 0.8 -0.3
v 0.1 0.9 -0.2
v 0.1 0.9 -0.3
v 0.1 1.5 0.1
v 0.1 1.5 0
v 0.1 1.6 0.1
v 0.1 1.6 0
v 0.1 1.6 -0.1
v 0.1 1.7 0
v 0.1 1.7 -0.1
v 0.1 1.7 -0.3
v 0.1 1.7 -0.4
v 0.1 1.8 -0.1
v 0.1 1.8 -0.4
v 0.2 0.3 -0.3
v 0.2 0.3 -0.4
v 0.2 0.4 0.2
v 0.2 0.4 0.1
v 0.2 0.4 -0.3
v 0.2 0.4 -0.4
v 0.2 0.5 -0.2
v 0.2 0.5 -0.3
v 0.2 0.6 0.2
v 0.2 0.6 0.1
v 0.2 0.6 -0.2
v 0.2 0.6 -0.3
v 0.2 0.8 0.1
v 0.2 0.8 -0.1
v 0.2 0.9 -0.1
v 0.2 0.9 -0.2
v 0.2 0.9 -0.3
v 0.2 1 0.2
v 0.2 1 0.1
v 0.2 1.1 0.2
v 0.2 1.1 0.1
v 0.2 1.2 0.3
v 0.2 1.2 0.2
v 0.2 1.2 -0.1
v 0.2 1.2 -0.2
v 0.2 1.3 0.3
v 0.2 1.3 0.2
v 0.2 1.3 -0.1
v 0.2 1.3 -0.2
v 0.2 1.3 -0.3
v 0.2 1.4 0.3
v 0.2 1.4 0.2
v 0.2 1.4 0.1
v 0.2 1.4 -0.2
v 0.2 1.4 -0.3
v 0.2 1.5 0.1
v 0.2 1.5 0
v 0.2 1.6 0
v 0.2 1.6 -0.1
v 0.2 1.6 -0.2
v 0.2 1.6 -0.3
v 0.2 1.7 -0.1
v 0.2 1.7 -0.3
v 0.3 0.1 -0.3
v 0.3 0.1 -0.4
v 0.3 0.2 0.2
v 0.3 0.2 0.1
v 0.3 0.2 0
v 0.3 0.2 -0.1
v 0.3 0.2 -0.2
v 0.3 0.2 -0.3
v 0.3 0.2 -0.4
v 0.3 0.3 0.1
v 0.3 0.3 0
v 0.3 0.3 -0.1
v 0.3 0.3 -0.2
v 0.3 0.4 0.2
v 0.3 0.4 0.1
v 0.3 0.5 -0.2
v 0.3 0.5 -0.3
v 0.3 0.6 0.1
v 0.3 0.6 -0.2
v 0.3 0.8 0.2
v 0.3 0.8 0.1
v 0.3 0.8 -0.1
v 0.3 0.9 0.2
v 0.3 0.9 0.1
v 0.3 0.9 0
v 0.3 0.9 -0.1
v 0.3 0.9 -0.2
v 0.3 1 0
v 0.3 1 -0.1
v 0.3 1.1 0.2
v 0.3 1.1 0.1
v 0.3 1.2 -0.1
v 0.3 1.2 -0.2
v 0.3 1.3 0.2
v 0.3 1.3 0.1
v 0.3 1.3 -0.1
v 0.3 1.3 -0.2
v 0.3 1.4 0.2
v 0.3 1.4 0.1
v 0.3 1.4 -0.1
v 0.3 1.4 -0.2
v 0.4 0.8 0.5
v 0.4 0.8 0.2
v 0.4 0.9 0.5
v 0.4 0.9 0.2
v 0.4 1.3 0.1
v 0.4 1.3 -0.1
v 0.4 1.4 0.1
v 0.4 1.4 -0.1
v 0.1 0.8 0.5
v 0.1 0.9 0.5
v 0.4 0.8 0.5
v 0.4 0.9 0.5
v -0.4 1.4 0.4
v -0.4 1.6 0.4
v -0.3 1.4 0.4
v -0.3 1.6 0.4
v -0.4 0.2 0.3
v -0.4 0.4 0.3
v -0.4 1.3 0.3
v -0.4 1.4 0.3
v -0.4 1.6 0.3
v -0.4 1.7 0.3
v -0.3 0.2 0.3
v -0.3 0.4 0.3
v -0.3 1.3 0.3
v -0.3 1.4 0.3
v -0.3 1.6 0.3
v -0.3 1.7 0.3
v -0.1 1.2 0.3
v -0.1 1.3 0.3
v -0.1 1.4 0.3
v 0.2 1.2 0.3
v 0.2 1.3 0.3
v 0.2 1.4 0.3
v -0.4 0.4 0.2
v -0.4 1.3 0.2
v -0.3 0.4 0.2
v -0.3 1.3 0.2
v -0.2 0.3 0.2
v -0.2 0.5 0.2
v -0.2 1.1 0.2
v -0.2 1.3 0.2
v -0.2 1.4 0.2
v -0.1 0.2 0.2
v -0.1 0.3 0.2
v -0.1 0.4 0.2
v -0.1 0.5 0.2
v -0.1 0.7 0.2
v -0.1 1 0.2
v -0.1 1.1 0.2
v -0.1 1.2 0.2
v -0.1 1.3 0.2
v -0.1 1.4 0.2
v 0 0.2 0.2
v 0 0.3 0.2
v 0 0.6 0.2
v 0 0.7 0.2
v 0 1.1 0.2
v 0 1.2 0.2
v 0.1 0.3 0.2
v 0.1 0.4 0.2
v 0.1 1.1 0.2
v 0.1 1.2 0.2
v 0.2 0.2 0.2
v 0.2 0.3 0.2
v 0.2 0.4 0.2
v 0.2 0.6 0.2
v 0.2 1 0.2
v 0.2 1.1 0.2
v 0.2 1.2 0.2
v 0.2 1.3 0.2
v 0.2 1.4 0.2
v 0.3 0.2 0.2
v 0.3 0.4 0.2
v 0.3 1.1 0.2
v 0.3 1.3 0.2
v 0.3 1.4 0.2
v -0.4 0.1 0.1
v -0.4 0.3 0.1
v -0.3 0.1 0.1
v -0.3 0.3 0.1
v -0.3 1.3 0.1
v -0.3 1.4 0.1
v -0.2 0.5 0.1
v -0.2 0.6 0.1
v -0.2 0.9 0.1
v -0.2 1.1 0.1
v -0.2 1.3 0.1
v -0.2 1.4 0.1
v -0.1 0.5 0.1
v -0.1 0.6 0.1
v -0.1 0.7 0.1
v -0.1 0.9 0.1
v -0.1 1 0.1
v -0.1 1.1 0.1
v -0.1 1.4 0.1
v -0.1 1.5 0.1
v 0 0.6 0.1
v 0 0.7 0.1
v 0 1.5 0.1
v 0 1.6 0.1
v 0.1 1.5 0.1
v 0.1 1.6 0.1
v 0.2 0.4 0.1
v 0.2 0.6 0.1
v 0.2 0.8 0.1
v 0.2 0.9 0.1
v 0.2 1 0.1
v 0.2 1.1 0.1
v 0.2 1.4 0.1
v 0.2 1.5 0.1
v 0.3 0.4 0.1
v 0.3 0.6 0.1
v 0.3 0.9 0.1
v 0.3 1.1 0.1
v 0.3 1.3 0.1
v 0.3 1.4 0.1
v 0.4 1.3 0.1
v 0.4 1.4 0.1
v -0.3 0.8 0
v -0.3 0.9 0
v -0.2 0.3 0
v -0.2 0.4 0
v -0.2 0.9 0
v -0.1 0.3 0
v -0.1 0.4 0
v -0.1 0.8 0
v -0.1 0.9 0
v -0.1 1.5 0
v -0.1 1.6 0
v 0 1.5 0
v 0 1.6 0
v 0 1.7 0
v 0.1 1.5 0
v 0.1 1.6 0
v 0.1 1.7 0
v 0.2 0.2 0
v 0.2 0.3 0
v 0.2 1.5 0
v 0.2 1.6 0
v 0.3 0.2 0
v 0.3 0.3 0
v -0.2 0.1 -0.1
v -0.2 0.2 -0.1
v -0.1 0.1 -0.1
v -0.1 0.2 -0.1
v -0.1 0.4 -0.1
v -0.1 0.5 -0.1
v -0.1 1.6 -0.1
v -0.1 1.7 -0.1
v 0 0.4 -0.1
v 0 0.5 -0.1
v 0 1.6 -0.1
v 0 1.7 -0.1
v 0 1.8 -0.1
v 0.1 0.4 -0.1
v 0.1 0.5 -0.1
v 0.1 1.6 -0.1
v 0.1 1.7 -0.1
v 0.1 1.8 -0.1
v 0.2 0.4 -0.1
v 0.2 0.5 -0.1
v 0.2 1.6 -0.1
v 0.2 1.7 -0.1
v -0.2 0.2 -0.2
v -0.2 0.3 -0.2
v -0.1 0.2 -0.2
v -0.1 0.3 -0.2
v -0.1 0.4 -0.2
v 0 0.2 -0.2
v 0 0.3 -0.2
v 0 0.4 -0.2
v 0 0.5 -0.2
v 0.1 0.2 -0.2
v 0.1 0.3 -0.2
v 0.1 0.4 -0.2
v 0.1 0.5 -0.2
v 0.2 0.3 -0.2
v 0.2 0.4 -0.2
v 0.3 0.2 -0.2
v 0.3 0.3 -0.2
v -0.2 0 -0.3
v -0.2 0.1 -0.3
v -0.1 0 -0.3
v -0.1 0.1 -0.3
v 0 0.1 -0.3
v 0 0.2 -0.3
v 0 0.3 -0.3
v 0.1 0.1 -0.3
v 0.1 0.2 -0.3
v 0.1 0.3 -0.3
v 0.2 0.1 -0.3
v 0.2 0.2 -0.3
v 0.3 0.1 -0.3
v 0.3 0.2 -0.3
v -0.4 0.2 0.2
v -0.4 0.3 0.2
v -0.3 0.2 0.2
v -0.3 0.3 0.2
v 0.1 0.8 0.2
v 0.1 0.9 0.2
v 0.2 0.8 0.2
v 0.2 0.9 0.2
v 0.3 0.8 0.2
v 0.3 0.9 0.2
v 0.4 0.8 0.2
v 0.4 0.9 0.2
v -0.4 0.4 0.1
v -0.4 0.8 0.1
v -0.4 0.9 0.1
v -0.4 1.2 0.1
v -0.3 0.4 0.1
v -0.3 0.8 0.1
v -0.3 0.9 0.1
v -0.3 1.2 0.1
v -0.2 0.3 0.1
v -0.2 0.4 0.1
v -0.1 0.2 0.1
v -0.1 0.3 0.1
v -0.1 0.4 0.1
v 0 0.2 0.1
v 0 0.3 0.1
v 0 0.4 0.1
v 0 0.5 0.1
v 0.1 0.3 0.1
v 0.1 0.4 0.1
v 0.1 0.5 0.1
v 0.2 0.2 0.1
v 0.2 0.3 0.1
v 0.2 0.4 0.1
v 0.3 0.2 0.1
v 0.3 0.3 0.1
v -0.4 0.1 0
v -0.4 0.4 0
v -0.4 0.8 0
v -0.4 0.9 0
v -0.4 1.2 0
v -0.4 1.3 0
v -0.4 1.6 0
v -0.4 1.7 0
v -0.3 0.1 0
v -0.3 0.4 0
v -0.3 0.8 0
v -0.3 0.9 0
v -0.3 1.2 0
v -0.3 1.3 0
v -0.3 1.6 0
v -0.3 1.7 0
v -0.1 0.4 0
v -0.1 0.5 0
v 0 0.4 0
v 0 0.5 0
v 0.1 0.4 0
v 0.1 0.5 0
v 0.2 0.4 0
v 0.2 0.5 0
v -0.4 1.3 -0.1
v -0.4 1.6 -0.1
v -0.3 0.8 -0.1
v -0.3 0.9 -0.1
v -0.3 1.3 -0.1
v -0.3 1.4 -0.1
v -0.3 1.6 -0.1
v -0.2 0.9 -0.1
v -0.2 1.2 -0.1
v -0.2 1.3 -0.1
v -0.2 1.4 -0.1
v -0.1 0.8 -0.1
v -0.1 0.9 -0.1
v -0.1 1.2 -0.1
v -0.1 1.3 -0.1
v 0.2 0.2 -0.1
v 0.2 0.3 -0.1
v 0.2 0.8 -0.1
v 0.2 0.9 -0.1
v 0.2 1.2 -0.1
v 0.2 1.3 -0.1
v 0.3 0.2 -0.1
v 0.3 0.3 -0.1
v 0.3 0.8 -0.1
v 0.3 0.9 -0.1
v 0.3 1.2 -0.1
v 0.3 1.3 -0.1
v 0.3 1.4 -0.1
v 0.4 1.3 -0.1
v 0.4 1.4 -0.1
v -0.2 0.5 -0.2
v -0.2 0.6 -0.2
v -0.2 0.9 -0.2
v -0.2 1.2 -0.2
v -0.2 1.3 -0.2
v -0.2 1.4 -0.2
v -0.1 0.5 -0.2
v -0.1 0.6 -0.2
v -0.1 0.9 -0.2
v -0.1 1.2 -0.2
v -0.1 1.3 -0.2
v -0.1 1.4 -0.2
v -0.1 1.6 -0.2
v 0 0.8 -0.2
v 0 0.9 -0.2
v 0.1 0.8 -0.2
v 0.1 0.9 -0.2
v 0.2 0.5 -0.2
v 0.2 0.6 -0.2
v 0.2 0.9 -0.2
v 0.2 1.2 -0.2
v 0.2 1.3 -0.2
v 0.2 1.4 -0.2
v 0.2 1.6 -0.2
v 0.3 0.5 -0.2
v 0.3 0.6 -0.2
v 0.3 0.9 -0.2
v 0.3 1.2 -0.2
v 0.3 1.3 -0.2
v 0.3 1.4 -0.2
v -0.2 0.2 -0.3
v -0.2 0.5 -0.3
v -0.1 0.2 -0.3
v -0.1 0.4 -0.3
v -0.1 0.5 -0.3
v -0.1 0.6 -0.3
v -0.1 0.9 -0.3
v -0.1 1.3 -0.3
v -0.1 1.4 -0.3
v -0.1 1.6 -0.3
v -0.1 1.7 -0.3
v 0 0.4 -0.3
v 0 0.5 -0.3
v 0 0.8 -0.3
v 0 0.9 -0.3
v 0 1.7 -0.3
v 0.1 0.2 -0.3
v 0.1 0.3 -0.3
v 0.1 0.4 -0.3
v 0.1 0.5 -0.3
v 0.1 0.8 -0.3
v 0.1 0.9 -0.3
v 0.1 1.7 -0.3
v 0.2 0.2 -0.3
v 0.2 0.3 -0.3
v 0.2 0.4 -0.3
v 0.2 0.5 -0.3
v 0.2 0.6 -0.3
v 0.2 0.9 -0.3
v 0.2 1.3 -0.3
v 0.2 1.4 -0.3
v 0.2 1.6 -0.3
v 0.2 1.7 -0.3
v 0.3 0.2 -0.3
v 0.3 0.5 -0.3
v -0.2 0 -0.4
v -0.2 0.2 -0.4
v -0.1 0 -0.4
v -0.1 0.2 -0.4
v -0.1 0.4 -0.4
v 0 0.2 -0.4
v 0 0.4 -0.4
v 0 0.5 -0.4
v 0 1.7 -0.4
v 0 1.8 -0.4
v 0.1 0.2 -0.4
v 0.1 0.3 -0.4
v 0.1 0.4 -0.4
v 0.1 0.5 -0.4
v 0.1 1.7 -0.4
v 0.1 1.8 -0.4
v 0.2 0.1 -0.4
v 0.2 0.2 -0.4
v 0.2 0.3 -0.4
v 0.2 0.4 -0.4
v 0.3 0.1 -0.4
v 0.3 0.2 -0.4
v 0 0.1 -0.5
v 0 0.2 -0.5
v 0.1 0.1 -0.5
v 0.1 0.2 -0.5
v -0.2 0 -0.3
v -0.1 0 -0.3
v -0.2 0 -0.4
v -0.1 0 -0.4
v -0.4 0.1 0.1
v -0.3 0.1 0.1
v -0.4 0.1 0
v -0.3 0.1 0
v -0.2 0.1 -0.1
v -0.1 0.1 -0.1
v -0.2 0.1 -0.3
v -0.1 0.1 -0.3
v 0 0.1 -0.3
v 0.1 0.1 -0.3
v 0.2 0.1 -0.3
v 0.3 0.1 -0.3
v 0.2 0.1 -0.4
v 0.3 0.1 -0.4
v 0 0.1 -0.5
v 0.1 0.1 -0.5
v -0.4 0.2 0.3
v -0.3 0.2 0.3
v -0.4 0.2 0.2
v -0.3 0.2 0.2
v -0.1 0.2 0.2
v 0 0.2 0.2
v 0.2 0.2 0.2
v 0.3 0.2 0.2
v -0.1 0.2 0.1
v 0 0.2 0.1
v 0.2 0.2 0.1
v 0.3 0.2 0.1
v 0.2 0.2 0
v 0.3 0.2 0
v 0.2 0.2 -0.1
v 0.3 0.2 -0.1
v -0.1 0.2 -0.2
v 0 0.2 -0.2
v 0.1 0.2 -0.2
v 0.3 0.2 -0.2
v 0 0.2 -0.3
v 0.1 0.2 -0.3
v 0.2 0.2 -0.3
v 0.3 0.2 -0.3
v -0.1 0.2 -0.4
v 0 0.2 -0.4
v -0.4 0.3 0.2
v -0.3 0.3 0.2
v -0.2 0.3 0.2
v -0.1 0.3 0.2
v 0.1 0.3 0.2
v 0.2 0.3 0.2
v -0.4 0.3 0.1
v -0.3 0.3 0.1
v -0.2 0.3 0.1
v -0.1 0.3 0.1
v 0.1 0.3 0.1
v 0.2 0.3 0.1
v 0.3 0.3 0.1
v -0.2 0.3 0
v -0.1 0.3 0
v 0.2 0.3 0
v 0.3 0.3 0
v 0.2 0.3 -0.1
v 0.3 0.3 -0.1
v -0.2 0.3 -0.2
v -0.1 0.3 -0.2
v 0 0.3 -0.2
v 0.1 0.3 -0.2
v 0.2 0.3 -0.2
v 0.3 0.3 -0.2
v 0 0.3 -0.3
v 0.1 0.3 -0.3
v 0.2 0.3 -0.3
v 0.1 0.3 -0.4
v 0.2 0.3 -0.4
v -0.1 0.4 0.2
v 0.1 0.4 0.2
v -0.2 0.4 0.1
v -0.1 0.4 0.1
v 0 0.4 0.1
v 0.1 0.4 0.1
v 0.2 0.4 0.1
v -0.2 0.4 0
v -0.1 0.4 0
v 0 0.4 0
v 0.1 0.4 0
v 0.2 0.4 0
v -0.1 0.4 -0.1
v 0 0.4 -0.1
v 0.1 0.4 -0.1
v 0.2 0.4 -0.1
v -0.1 0.4 -0.2
v 0 0.4 -0.2
v 0.1 0.4 -0.2
v 0.2 0.4 -0.2
v 0 0.5 0.1
v 0.1 0.5 0.1
v -0.1 0.5 0
v 0 0.5 0
v 0.1 0.5 0
v 0.2 0.5 0
v -0.1 0.5 -0.1
v 0 0.5 -0.1
v 0.1 0.5 -0.1
v 0.2 0.5 -0.1
v 0 0.5 -0.2
v 0.1 0.5 -0.2
v 0.1 0.8 0.5
v 0.4 0.8 0.5
v 0.1 0.8 0.2
v 0.2 0.8 0.2
v 0.3 0.8 0.2
v 0.4 0.8 0.2
v -0.4 0.8 0.1
v -0.3 0.8 0.1
v 0.2 0.8 0.1
v 0.3 0.8 0.1
v -0.4 0.8 0
v -0.3 0.8 0
v -0.1 0.8 0
v -0.3 0.8 -0.1
v -0.1 0.8 -0.1
v 0.2 0.8 -0.1
v 0.3 0.8 -0.1
v 0 0.8 -0.2
v 0.1 0.8 -0.2
v 0 0.8 -0.3
v 0.1 0.8 -0.3
v -0.2 0.9 0.1
v -0.1 0.9 0.1
v -0.2 0.9 0
v -0.1 0.9 0
v -0.2 0.9 -0.1
v -0.1 0.9 -0.1
v 0.2 0.9 -0.1
v 0.3 0.9 -0.1
v -0.2 0.9 -0.2
v -0.1 0.9 -0.2
v 0 0.9 -0.2
v 0.1 0.9 -0.2
v 0.2 0.9 -0.2
v 0.3 0.9 -0.2
v -0.1 0.9 -0.3
v 0 0.9 -0.3
v 0.1 0.9 -0.3
v 0.2 0.9 -0.3
v -0.1 1 0.2
v 0.2 1 0.2
v -0.1 1 0.1
v 0.2 1 0.1
v -0.2 1.1 0.2
v -0.1 1.1 0.2
v 0.2 1.1 0.2
v 0.3 1.1 0.2
v -0.2 1.1 0.1
v -0.1 1.1 0.1
v 0.2 1.1 0.1
v 0.3 1.1 0.1
v -0.1 1.2 0.3
v 0.2 1.2 0.3
v -0.1 1.2 0.2
v 0 1.2 0.2
v 0.1 1.2 0.2
v 0.2 1.2 0.2
v -0.4 1.2 0.1
v -0.3 1.2 0.1
v -0.4 1.2 0
v -0.3 1.2 0
v -0.4 1.3 0.3
v -0.3 1.3 0.3
v -0.4 1.3 0.2
v -0.3 1.3 0.2
v -0.3 1.3 0.1
v -0.2 1.3 0.1
v 0.3 1.3 0.1
v 0.4 1.3 0.1
v -0.4 1.3 0
v -0.3 1.3 0
v -0.4 1.3 -0.1
v -0.3 1.3 -0.1
v -0.2 1.3 -0.1
v -0.1 1.3 -0.1
v 0.2 1.3 -0.1
v 0.3 1.3 -0.1
v 0.4 1.3 -0.1
v -0.2 1.3 -0.2
v -0.1 1.3 -0.2
v 0.2 1.3 -0.2
v 0.3 1.3 -0.2
v -0.4 1.4 0.4
v -0.3 1.4 0.4
v -0.4 1.4 0.3
v -0.3 1.4 0.3
v -0.1 1.6 -0.2
v 0.2 1.6 -0.2
v -0.1 1.6 -0.3
v 0.2 1.6 -0.3
v 0 1.7 -0.3
v 0.1 1.7 -0.3
v 0 1.7 -0.4
v 0.1 1.7 -0.4
v -0.2 0.2 -0.1
v -0.1 0.2 -0.1
v -0.2 0.2 -0.2
v -0.1 0.2 -0.2
v -0.2 0.2 -0.3
v -0.1 0.2 -0.3
v 0.2 0.2 -0.3
v 0.3 0.2 -0.3
v -0.2 0.2 -0.4
v -0.1 0.2 -0.4
v 0 0.2 -0.4
v 0.1 0.2 -0.4
v 0.2 0.2 -0.4
v 0.3 0.2 -0.4
v 0 0.2 -0.5
v 0.1 0.2 -0.5
v -0.1 0.3 0.2
v 0 0.3 0.2
v -0.1 0.3 0.1
v 0 0.3 0.1
v -0.4 0.4 0.3
v -0.3 0.4 0.3
v -0.4 0.4 0.2
v -0.3 0.4 0.2
v 0.2 0.4 0.2
v 0.3 0.4 0.2
v -0.4 0.4 0.1
v -0.3 0.4 0.1
v 0.2 0.4 0.1
v 0.3 0.4 0.1
v -0.4 0.4 0
v -0.3 0.4 0
v -0.1 0.4 -0.3
v 0 0.4 -0.3
v 0.1 0.4 -0.3
v 0.2 0.4 -0.3
v -0.1 0.4 -0.4
v 0 0.4 -0.4
v 0.1 0.4 -0.4
v 0.2 0.4 -0.4
v -0.2 0.5 0.2
v -0.1 0.5 0.2
v -0.2 0.5 0.1
v -0.1 0.5 0.1
v -0.2 0.5 -0.2
v -0.1 0.5 -0.2
v 0.2 0.5 -0.2
v 0.3 0.5 -0.2
v -0.2 0.5 -0.3
v -0.1 0.5 -0.3
v 0 0.5 -0.3
v 0.1 0.5 -0.3
v 0.2 0.5 -0.3
v 0.3 0.5 -0.3
v 0 0.5 -0.4
v 0.1 0.5 -0.4
v 0 0.6 0.2
v 0.2 0.6 0.2
v -0.2 0.6 0.1
v -0.1 0.6 0.1
v 0 0.6 0.1
v 0.2 0.6 0.1
v 0.3 0.6 0.1
v -0.2 0.6 -0.2
v -0.1 0.6 -0.2
v 0.2 0.6 -0.2
v 0.3 0.6 -0.2
v -0.1 0.6 -0.3
v 0.2 0.6 -0.3
v -0.1 0.7 0.2
v 0 0.7 0.2
v -0.1 0.7 0.1
v 0 0.7 0.1
v 0.1 0.9 0.5
v 0.4 0.9 0.5
v 0.1 0.9 0.2
v 0.2 0.9 0.2
v 0.3 0.9 0.2
v 0.4 0.9 0.2
v -0.4 0.9 0.1
v -0.3 0.9 0.1
v 0.2 0.9 0.1
v 0.3 0.9 0.1
v -0.4 0.9 0
v -0.3 0.9 0
v -0.2 0.9 0
v -0.3 0.9 -0.1
v -0.2 0.9 -0.1
v -0.2 1.2 -0.1
v -0.1 1.2 -0.1
v 0.2 1.2 -0.1
v 0.3 1.2 -0.1
v -0.2 1.2 -0.2
v -0.1 1.2 -0.2
v 0.2 1.2 -0.2
v 0.3 1.2 -0.2
v -0.1 1.4 0.3
v 0.2 1.4 0.3
v -0.2 1.4 0.2
v -0.1 1.4 0.2
v 0.2 1.4 0.2
v 0.3 1.4 0.2
v -0.3 1.4 0.1
v -0.2 1.4 0.1
v -0.1 1.4 0.1
v 0.2 1.4 0.1
v 0.3 1.4 0.1
v 0.4 1.4 0.1
v -0.3 1.4 0
v -0.3 1.4 -0.1
v -0.2 1.4 -0.1
v 0.3 1.4 -0.1
v 0.4 1.4 -0.1
v -0.2 1.4 -0.2
v -0.1 1.4 -0.2
v 0.2 1.4 -0.2
v 0.3 1.4 -0.2
v -0.1 1.4 -0.3
v 0.2 1.4 -0.3
v -0.1 1.5 0.1
v 0 1.5 0.1
v 0.1 1.5 0.1
v 0.2 1.5 0.1
v -0.1 1.5 0
v 0 1.5 0
v 0.1 1.5 0
v 0.2 1.5 0
v -0.4 1.6 0.4
v -0.3 1.6 0.4
v -0.4 1.6 0.3
v -0.3 1.6 0.3
v 0 1.6 0.1
v 0.1 1.6 0.1
v -0.4 1.6 0
v -0.3 1.6 0
v -0.1 1.6 0
v 0 1.6 0
v 0.1 1.6 0
v 0.2 1.6 0
v -0.4 1.6 -0.1
v -0.3 1.6 -0.1
v -0.1 1.6 -0.1
v 0 1.6 -0.1
v 0.1 1.6 -0.1
v 0.2 1.6 -0.1
v -0.4 1.7 0.3
v -0.3 1.7 0.3
v -0.4 1.7 0
v -0.3 1.7 0
v 0 1.7 0
v 0.1 1.7 0
v -0.1 1.7 -0.1
v 0 1.7 -0.1
v 0.1 1.7 -0.1
v 0.2 1.7 -0.1
v -0.1 1.7 -0.3
v 0 1.7 -0.3
v 0.1 1.7 -0.3
v 0.2 1.7 -0.3
v 0 1.8 -0.1
v 0.1 1.8 -0.1
v 0 1.8 -0.4
v 0.1 1.8 -0.4

# faces
f 5/2/1 4/2/1 3/2/1
f 6/2/1 2/2/1 1/2/1
f 7/2/1 5/2/1 3/2/1
f 7/2/1 6/2/1 5/2/1
f 8/2/1 6/2/1 7/2/1
f 9/2/1 2/2/1 6/2/1
f 9/2/1 6/2/1 8/2/1
f 10/2/1 2/2/1 9/2/1
f 11/2/1 9/2/1 8/2/1
f 13/2/1 11/2/1 8/2/1
f 13/6/1 12/6/1 11/6/1
f 14/6/1 12/6/1 13/6/1
f 15/2/1 13/2/1 8/2/1
f 18/2/1 15/2/1 8/2/1
f 18/2/1 16/2/1 15/2/1
f 19/2/1 16/2/1 18/2/1
f 22/2/1 19/2/1 18/2/1
f 22/2/1 20/2/1 19/2/1
f 22/2/1 18/2/1 17/2/1
f 23/2/1 20/2/1 22/2/1
f 24/2/1 22/2/1 21/2/1
f 25/1/1 23/1/1 22/1/1
f 25/2/1 22/2/1 24/2/1
f 26/2/1 20/2/1 23/2/1
f 26/1/1 23/1/1 25/1/1
f 27/2/1 20/2/1 26/2/1
f 28/1/1 26/1/1 25/1/1
f 29/1/1 26/1/1 28/1/1
f 32/7/1 31/7/1 30/7/1
f 33/7/1 31/7/1 32/7/1
f 37/7/1 35/7/1 34/7/1
f 38/7/1 37/7/1 36/7/1
f 39/7/1 37/7/1 38/7/1
f 40/7/1 35/7/1 37/7/1
f 40/7/1 37/7/1 39/7/1
f 41/7/1 35/7/1 40/7/1
f 45/7/1 40/7/1 39/7/1
f 46/7/1 43/7/1 42/7/1
f 47/7/1 45/7/1 44/7/1
f 48/7/1 46/7/1 42/7/1
f 48/7/1 47/7/1 46/7/1
f 49/7/1 47/7/1 48/7/1
f 50/7/1 45/7/1 47/7/1
f 50/7/1 47/7/1 49/7/1
f 50/7/1 40/7/1 45/7/1
f 51/7/1 40/7/1 50/7/1
f 52/7/1 50/7/1 49/7/1
f 53/7/1 50/7/1 52/7/1
f 58/5/1 55/5/1 54/5/1
f 58/7/1 56/7/1 55/7/1
f 59/5/1 57/5/1 56/5/1
f 59/7/1 56/7/1 58/7/1
f 61/5/1 58/5/1 54/5/1
f 61/5/1 59/5/1 58/5/1
f 62/5/1 57/5/1 59/5/1
f 62/5/1 61/5/1 60/5/1
f 62/5/1 59/5/1 61/5/1
f 63/5/1 57/5/1 62/5/1
f 64/5/1 62/5/1 60/5/1
f 65/5/1 62/5/1 64/5/1
f 66/5/1 62/5/1 65/5/1
f 68/3/1 65/3/1 64/3/1
f 69/3/1 65/3/1 68/3/1
f 70/3/1 67/3/1 66/3/1
f 71/3/1 67/3/1 70/3/1
f 76/7/1 73/7/1 72/7/1
f 77/7/1 73/7/1 76/7/1
f 78/7/1 75/7/1 74/7/1
f 79/7/1 75/7/1 78/7/1
f 84/7/1 81/7/1 80/7/1
f 85/7/1 83/7/1 82/7/1
f 86/7/1 83/7/1 85/7/1
f 87/7/1 84/7/1 80/7/1
f 87/7/1 85/7/1 84/7/1
f 88/7/1 85/7/1 87/7/1
f 89/7/1 85/7/1 88/7/1
f 90/7/1 85/7/1 89/7/1
f 91/7/1 89/7/1 88/7/1
f 92/7/1 89/7/1 91/7/1
f 93/7/1 85/7/1 90/7/1
f 94/7/1 85/7/1 93/7/1
f 98/6/1 97/6/1 96/6/1
f 99/6/1 97/6/1 98/6/1
f 103/5/1 95/5/1 94/5/1
f 104/5/1 101/5/1 100/5/1
f 105/5/1 101/5/1 104/5/1
f 106/5/1 103/5/1 102/5/1
f 107/5/1 95/5/1 103/5/1
f 107/5/1 103/5/1 106/5/1
f 108/5/1 95/5/1 107/5/1
f 109/3/1 105/3/1 104/3/1
f 110/3/1 105/3/1 109/3/1
f 112/3/1 108/3/1 107/3/1
f 113/3/1 108/3/1 112/3/1
f 114/3/1 112/3/1 111/3/1
f 115/3/1 112/3/1 114/3/1
f 116/3/1 112/3/1 115/3/1
f 117/3/1 112/3/1 116/3/1
f 118/3/1 112/3/1 117/3/1
f 120/3/1 119/3/1 118/3/1
f 120/3/1 118/3/1 117/3/1
f 121/3/1 119/3/1 120/3/1
f 124/7/1 123/7/1 122/7/1
f 125/7/1 123/7/1 124/7/1
f 126/7/1 123/7/1 125/7/1
f 129/7/1 128/7/1 127/7/1
f 130/7/1 128/7/1 129/7/1
f 133/5/1 132/5/1 131/5/1
f 134/5/1 132/5/1 133/5/1
f 137/3/1 136/3/1 135/3/1
f 138/3/1 136/3/1 137/3/1
f 140/3/1 139/3/1 138/3/1
f 141/3/1 139/3/1 140/3/1
f 144/3/1 142/3/1 141/3/1
f 144/3/1 143/3/1 142/3/1
f 145/3/1 143/3/1 144/3/1
f 150/7/1 147/7/1 146/7/1
f 151/7/1 147/7/1 150/7/1
f 152/7/1 149/7/1 148/7/1
f 153/7/1 149/7/1 152/7/1
f 157/7/1 154/7/1 153/7/1
f 158/7/1 154/7/1 157/7/1
f 159/7/1 156/7/1 155/7/1
f 160/7/1 156/7/1 159/7/1
f 163/3/1 162/3/1 161/3/1
f 164/3/1 162/3/1 163/3/1
f 171/7/1 166/7/1 165/7/1
f 172/7/1 166/7/1 171/7/1
f 173/7/1 168/7/1 167/7/1
f 174/7/1 168/7/1 173/7/1
f 175/7/1 170/7/1 169/7/1
f 176/7/1 170/7/1 175/7/1
f 178/7/1 177/7/1 176/7/1
f 178/7/1 176/7/1 175/7/1
f 178/7/1 175/7/1 174/7/1
f 179/7/1 177/7/1 178/7/1
f 180/7/1 177/7/1 179/7/1
f 181/7/1 177/7/1 180/7/1
f 182/7/1 180/7/1 179/7/1
f 183/7/1 180/7/1 182/7/1
f 186/6/1 185/6/1 184/6/1
f 187/6/1 185/6/1 186/6/1
f 190/2/2 191/2/2 192/2/2
f 188/2/2 189/2/2 193/2/2
f 190/2/2 192/2/2 194/2/2
f 192/2/2 193/2/2 194/2/2
f 194/2/2 193/2/2 195/2/2
f 193/2/2 189/2/2 196/2/2
f 195/2/2 193/2/2 196/2/2
f 196/2/2 189/2/2 197/2/2
f 195/2/2 196/2/2 198/2/2
f 195/2/2 198/2/2 200/2/2
f 198/6/2 199/6/2 200/6/2
f 200/6/2 199/6/2 201/6/2
f 195/2/2 200/2/2 202/2/2
f 195/2/2 202/2/2 205/2/2
f 202/2/2 203/2/2 205/2/2
f 205/2/2 203/2/2 206/2/2
f 206/2/2 203/2/2 207/2/2
f 204/2/2 205/2/2 209/2/2
f 205/2/2 206/2/2 209/2/2
f 209/2/2 206/2/2 210/2/2
f 208/2/2 209/2/2 213/2/2
f 210/1/2 211/1/2 214/1/2
f 213/2/2 209/2/2 214/2/2
f 209/1/2 210/1/2 214/1/2
f 211/2/2 212/2/2 215/2/2
f 214/1/2 211/1/2 215/1/2
f 215/2/2 212/2/2 216/2/2
f 214/1/2 215/1/2 217/1/2
f 217/1/2 215/1/2 218/1/2
f 219/7/2 220/7/2 222/7/2
f 221/7/2 222/7/2 223/7/2
f 223/7/2 222/7/2 224/7/2
f 222/7/2 220/7/2 225/7/2
f 224/7/2 222/7/2 225/7/2
f 226/7/2 227/7/2 230/7/2
f 230/7/2 227/7/2 231/7/2
f 228/7/2 229/7/2 232/7/2
f 232/7/2 229/7/2 233/7/2
f 233/7/2 229/7/2 234/7/2
f 232/7/2 233/7/2 235/7/2
f 235/7/2 233/7/2 236/7/2
f 237/7/2 238/7/2 241/7/2
f 241/7/2 238/7/2 242/7/2
f 239/7/2 240/7/2 243/7/2
f 243/7/2 240/7/2 244/7/2
f 245/7/2 246/7/2 249/7/2
f 249/7/2 246/7/2 250/7/2
f 247/7/2 248/7/2 251/7/2
f 251/7/2 248/7/2 252/7/2
f 253/7/2 254/7/2 255/7/2
f 255/7/2 254/7/2 256/7/2
f 257/7/2 258/7/2 259/7/2
f 259/7/2 258/7/2 260/7/2
f 260/7/2 258/7/2 261/7/2
f 259/7/2 260/7/2 262/7/2
f 262/7/2 260/7/2 263/7/2
f 264/7/2 265/7/2 266/7/2
f 266/7/2 265/7/2 267/7/2
f 268/5/2 269/5/2 270/5/2
f 270/5/2 269/5/2 271/5/2
f 272/3/2 273/3/2 274/3/2
f 274/3/2 273/3/2 275/3/2
f 275/3/2 276/3/2 277/3/2
f 277/3/2 276/3/2 278/3/2
f 278/3/2 279/3/2 281/3/2
f 279/3/2 280/3/2 281/3/2
f 281/3/2 280/3/2 282/3/2
f 283/7/2 284/7/2 287/7/2
f 287/7/2 284/7/2 288/7/2
f 285/7/2 286/7/2 291/7/2
f 291/7/2 286/7/2 292/7/2
f 289/7/2 290/7/2 293/7/2
f 293/7/2 290/7/2 294/7/2
f 292/7/2 293/7/2 295/7/2
f 295/7/2 293/7/2 296/7/2
f 296/7/2 293/7/2 297/7/2
f 297/7/2 293/7/2 298/7/2
f 300/6/2 301/6/2 302/6/2
f 302/6/2 301/6/2 303/6/2
f 298/5/2 299/5/2 307/5/2
f 304/5/2 305/5/2 308/5/2
f 308/5/2 305/5/2 309/5/2
f 306/5/2 307/5/2 310/5/2
f 307/5/2 299/5/2 311/5/2
f 310/5/2 307/5/2 311/5/2
f 311/5/2 299/5/2 312/5/2
f 308/3/2 309/3/2 313/3/2
f 313/3/2 309/3/2 314/3/2
f 311/3/2 312/3/2 316/3/2
f 316/3/2 312/3/2 317/3/2
f 315/3/2 316/3/2 318/3/2
f 318/3/2 316/3/2 319/3/2
f 319/3/2 316/3/2 320/3/2
f 320/3/2 316/3/2 321/3/2
f 321/3/2 316/3/2 322/3/2
f 322/3/2 323/3/2 324/3/2
f 321/3/2 322/3/2 324/3/2
f 324/3/2 323/3/2 325/3/2
f 326/7/2 327/7/2 333/7/2
f 333/7/2 327/7/2 334/7/2
f 328/7/2 329/7/2 335/7/2
f 330/7/2 331/7/2 336/7/2
f 336/7/2 331/7/2 337/7/2
f 332/7/2 333/7/2 338/7/2
f 328/7/2 335/7/2 339/7/2
f 337/7/2 338/7/2 339/7/2
f 336/7/2 337/7/2 339/7/2
f 335/7/2 336/7/2 339/7/2
f 339/7/2 338/7/2 340/7/2
f 338/7/2 333/7/2 341/7/2
f 340/7/2 338/7/2 341/7/2
f 341/7/2 333/7/2 342/7/2
f 340/7/2 341/7/2 343/7/2
f 343/7/2 341/7/2 344/7/2
f 345/6/2 346/6/2 348/6/2
f 346/7/2 347/7/2 349/7/2
f 348/6/2 346/6/2 349/6/2
f 349/7/2 347/7/2 350/7/2
f 350/7/2 347/7/2 351/7/2
f 349/5/2 350/5/2 353/5/2
f 350/7/2 351/7/2 353/7/2
f 351/5/2 352/5/2 354/5/2
f 353/7/2 351/7/2 354/7/2
f 349/5/2 353/5/2 356/5/2
f 353/5/2 354/5/2 356/5/2
f 354/5/2 352/5/2 357/5/2
f 355/5/2 356/5/2 357/5/2
f 356/5/2 354/5/2 357/5/2
f 357/5/2 352/5/2 358/5/2
f 355/5/2 357/5/2 359/5/2
f 359/5/2 357/5/2 360/5/2
f 360/5/2 357/5/2 361/5/2
f 359/3/2 360/3/2 363/3/2
f 363/3/2 360/3/2 364/3/2
f 361/3/2 362/3/2 365/3/2
f 365/3/2 362/3/2 366/3/2
f 367/3/2 368/3/2 369/3/2
f 369/3/2 368/3/2 370/3/2
f 371/3/2 372/3/2 373/3/2
f 373/3/2 372/3/2 374/3/2
f 377/3/3 376/3/3 375/3/3
f 378/3/3 376/3/3 377/3/3
f 381/2/3 380/2/3 379/2/3
f 382/2/3 380/2/3 381/2/3
f 389/2/3 384/2/3 383/2/3
f 390/2/3 384/2/3 389/2/3
f 391/2/3 386/2/3 385/2/3
f 392/2/3 386/2/3 391/2/3
f 393/1/3 388/1/3 387/1/3
f 394/1/3 388/1/3 393/1/3
f 398/5/3 396/5/3 395/5/3
f 399/3/3 397/3/3 396/3/3
f 399/5/3 396/5/3 398/5/3
f 400/3/3 397/3/3 399/3/3
f 403/2/3 402/2/3 401/2/3
f 404/2/3 402/2/3 403/2/3
f 411/7/3 406/7/3 405/7/3
f 412/7/3 406/7/3 411/7/3
f 413/7/3 406/7/3 412/7/3
f 416/5/3 408/5/3 407/5/3
f 417/5/3 408/5/3 416/5/3
f 418/3/3 409/3/3 408/3/3
f 418/5/3 408/5/3 417/5/3
f 419/3/3 409/3/3 418/3/3
f 420/7/3 411/7/3 410/7/3
f 421/7/3 411/7/3 420/7/3
f 422/7/3 414/7/3 413/7/3
f 422/7/3 413/7/3 412/7/3
f 423/7/3 414/7/3 422/7/3
f 424/4/3 417/4/3 416/4/3
f 424/6/3 416/6/3 415/6/3
f 425/4/3 417/4/3 424/4/3
f 427/7/3 422/7/3 412/7/3
f 428/6/3 425/6/3 424/6/3
f 428/6/3 424/6/3 415/6/3
f 429/6/3 425/6/3 428/6/3
f 431/7/3 427/7/3 426/7/3
f 432/7/3 422/7/3 427/7/3
f 432/7/3 427/7/3 431/7/3
f 433/7/3 422/7/3 432/7/3
f 434/6/3 428/6/3 415/6/3
f 435/4/3 429/4/3 428/4/3
f 435/6/3 428/6/3 434/6/3
f 436/4/3 429/4/3 435/4/3
f 439/7/3 431/7/3 430/7/3
f 439/7/3 432/7/3 431/7/3
f 440/7/3 432/7/3 439/7/3
f 441/5/3 436/5/3 435/5/3
f 441/5/3 437/5/3 436/5/3
f 442/3/3 438/3/3 437/3/3
f 442/5/3 437/5/3 441/5/3
f 443/3/3 438/3/3 442/3/3
f 446/2/3 445/2/3 444/2/3
f 447/2/3 445/2/3 446/2/3
f 454/3/3 449/3/3 448/3/3
f 455/3/3 449/3/3 454/3/3
f 456/7/3 451/7/3 450/7/3
f 457/7/3 451/7/3 456/7/3
f 459/5/3 453/5/3 452/5/3
f 460/5/3 453/5/3 459/5/3
f 461/5/3 453/5/3 460/5/3
f 465/7/3 460/7/3 459/7/3
f 465/7/3 459/7/3 458/7/3
f 466/3/3 463/3/3 462/3/3
f 468/3/3 466/3/3 462/3/3
f 468/3/3 467/3/3 466/3/3
f 469/3/3 467/3/3 468/3/3
f 471/7/3 465/7/3 464/7/3
f 472/7/3 460/7/3 465/7/3
f 472/7/3 465/7/3 471/7/3
f 473/7/3 460/7/3 472/7/3
f 474/7/3 460/7/3 473/7/3
f 476/3/3 468/3/3 462/3/3
f 477/3/3 468/3/3 476/3/3
f 478/7/3 471/7/3 470/7/3
f 479/7/3 471/7/3 478/7/3
f 480/5/3 475/5/3 474/5/3
f 480/5/3 474/5/3 473/5/3
f 481/5/3 475/5/3 480/5/3
f 484/3/3 483/3/3 482/3/3
f 485/3/3 483/3/3 484/3/3
f 490/7/3 487/7/3 486/7/3
f 491/7/3 489/7/3 488/7/3
f 492/7/3 489/7/3 491/7/3
f 493/7/3 490/7/3 486/7/3
f 494/7/3 490/7/3 493/7/3
f 497/3/3 496/3/3 495/3/3
f 498/3/3 496/3/3 497/3/3
f 501/3/3 499/3/3 498/3/3
f 502/3/3 499/3/3 501/3/3
f 505/3/3 501/3/3 500/3/3
f 506/3/3 501/3/3 505/3/3
f 507/7/3 504/7/3 503/7/3
f 508/7/3 504/7/3 507/7/3
f 511/7/3 510/7/3 509/7/3
f 512/7/3 510/7/3 511/7/3
f 517/7/3 514/7/3 513/7/3
f 518/7/3 514/7/3 517/7/3
f 519/3/3 516/3/3 515/3/3
f 520/3/3 516/3/3 519/3/3
f 525/3/3 521/3/3 520/3/3
f 526/3/3 521/3/3 525/3/3
f 527/7/3 523/7/3 522/7/3
f 528/7/3 523/7/3 527/7/3
f 529/3/3 525/3/3 524/3/3
f 530/3/3 525/3/3 529/3/3
f 533/7/3 532/7/3 531/7/3
f 534/7/3 532/7/3 533/7/3
f 536/7/3 534/7/3 533/7/3
f 536/7/3 535/7/3 534/7/3
f 537/7/3 535/7/3 536/7/3
f 538/7/3 535/7/3 537/7/3
f 541/7/3 539/7/3 538/7/3
f 541/7/3 538/7/3 537/7/3
f 542/7/3 539/7/3 541/7/3
f 543/7/3 539/7/3 542/7/3
f 544/7/3 541/7/3 540/7/3
f 544/7/3 542/7/3 541/7/3
f 545/7/3 542/7/3 544/7/3
f 546/7/3 544/7/3 540/7/3
f 547/7/3 544/7/3 546/7/3
f 550/7/3 549/7/3 548/7/3
f 551/7/3 549/7/3 550/7/3
f 555/7/3 553/7/3 552/7/3
f 555/7/3 554/7/3 553/7/3
f 556/7/3 554/7/3 555/7/3
f 557/7/3 554/7/3 556/7/3
f 560/7/3 559/7/3 558/7/3
f 561/7/3 559/7/3 560/7/3
f 562/2/4 563/2/4 564/2/4
f 564/2/4 563/2/4 565/2/4
f 566/3/4 567/3/4 568/3/4
f 568/3/4 567/3/4 569/3/4
f 570/3/4 571/3/4 572/3/4
f 572/3/4 571/3/4 573/3/4
f 574/2/4 575/2/4 578/2/4
f 578/2/4 575/2/4 579/2/4
f 576/2/4 577/2/4 580/2/4
f 580/2/4 577/2/4 581/2/4
f 582/7/4 583/7/4 585/7/4
f 585/7/4 583/7/4 586/7/4
f 584/7/4 585/7/4 587/7/4
f 587/7/4 585/7/4 588/7/4
f 589/7/4 590/7/4 592/7/4
f 592/7/4 590/7/4 593/7/4
f 591/7/4 592/7/4 595/7/4
f 595/7/4 592/7/4 596/7/4
f 594/7/4 595/7/4 597/7/4
f 597/7/4 595/7/4 598/7/4
f 599/2/4 600/2/4 607/2/4
f 607/2/4 600/2/4 608/2/4
f 601/6/4 602/6/4 609/6/4
f 609/6/4 602/6/4 610/6/4
f 603/2/4 604/2/4 611/2/4
f 611/2/4 604/2/4 612/2/4
f 605/1/4 606/1/4 613/1/4
f 613/1/4 606/1/4 614/1/4
f 615/7/4 616/7/4 617/7/4
f 617/7/4 616/7/4 618/7/4
f 619/7/4 620/7/4 621/7/4
f 621/7/4 620/7/4 622/7/4
f 623/2/4 624/2/4 627/2/4
f 627/2/4 624/2/4 628/2/4
f 628/2/4 624/2/4 629/2/4
f 625/7/4 626/7/4 630/7/4
f 627/3/4 628/3/4 632/3/4
f 632/3/4 628/3/4 633/3/4
f 625/7/4 630/7/4 634/7/4
f 634/7/4 630/7/4 635/7/4
f 631/5/4 632/5/4 636/5/4
f 636/5/4 632/5/4 637/5/4
f 638/7/4 639/7/4 644/7/4
f 644/7/4 639/7/4 645/7/4
f 640/7/4 641/7/4 646/7/4
f 646/7/4 641/7/4 647/7/4
f 642/5/4 643/5/4 648/5/4
f 648/5/4 643/5/4 649/5/4
f 649/3/4 650/3/4 651/3/4
f 651/3/4 650/3/4 652/3/4
f 653/7/4 654/7/4 659/7/4
f 659/7/4 654/7/4 660/7/4
f 655/5/4 656/5/4 661/5/4
f 661/5/4 656/5/4 662/5/4
f 657/3/4 658/3/4 663/3/4
f 663/3/4 658/3/4 664/3/4
f 660/7/4 661/7/4 666/7/4
f 666/7/4 661/7/4 667/7/4
f 660/7/4 666/7/4 668/7/4
f 660/7/4 668/7/4 671/7/4
f 668/7/4 669/7/4 671/7/4
f 671/7/4 669/7/4 672/7/4
f 664/3/4 665/3/4 675/3/4
f 675/3/4 665/3/4 676/3/4
f 670/7/4 671/7/4 677/7/4
f 677/7/4 671/7/4 678/7/4
f 672/5/4 673/5/4 679/5/4
f 679/5/4 673/5/4 680/5/4
f 674/3/4 675/3/4 681/3/4
f 681/3/4 675/3/4 682/3/4
f 683/7/4 684/7/4 685/7/4
f 685/7/4 684/7/4 686/7/4
f 686/7/4 684/7/4 687/7/4
f 686/7/4 687/7/4 694/7/4
f 687/7/4 688/7/4 694/7/4
f 694/7/4 688/7/4 695/7/4
f 689/5/4 690/5/4 697/5/4
f 692/3/4 693/3/4 698/3/4
f 695/7/4 688/7/4 702/7/4
f 696/5/4 697/5/4 703/5/4
f 697/5/4 690/5/4 704/5/4
f 703/5/4 697/5/4 704/5/4
f 692/3/4 698/3/4 705/3/4
f 699/7/4 700/7/4 706/7/4
f 706/7/4 700/7/4 707/7/4
f 701/7/4 702/7/4 708/7/4
f 702/7/4 688/7/4 709/7/4
f 708/7/4 702/7/4 709/7/4
f 709/7/4 688/7/4 710/7/4
f 704/5/4 690/5/4 711/5/4
f 690/3/4 691/3/4 712/3/4
f 711/5/4 690/5/4 712/5/4
f 712/3/4 691/3/4 713/3/4
f 692/3/4 705/3/4 714/3/4
f 714/3/4 705/3/4 715/3/4
f 706/7/4 707/7/4 716/7/4
f 707/7/4 708/7/4 716/7/4
f 708/7/4 709/7/4 716/7/4
f 716/7/4 709/7/4 717/7/4
f 718/7/4 719/7/4 720/7/4
f 720/7/4 719/7/4 721/7/4
f 721/7/4 722/7/4 723/7/4
f 723/7/4 722/7/4 724/7/4
f 723/7/4 724/7/4 728/7/4
f 724/7/4 725/7/4 728/7/4
f 728/7/4 725/7/4 729/7/4
f 729/7/4 725/7/4 730/7/4
f 730/7/4 725/7/4 731/7/4
f 726/3/4 727/3/4 732/3/4
f 732/3/4 727/3/4 733/3/4
f 729/7/4 730/7/4 736/7/4
f 736/7/4 730/7/4 737/7/4
f 734/7/4 735/7/4 738/7/4
f 738/7/4 735/7/4 739/7/4
f 740/7/4 741/7/4 742/7/4
f 742/7/4 741/7/4 743/7/4
f 746/7/5 745/7/5 744/7/5
f 747/7/5 745/7/5 746/7/5
f 750/2/5 749/2/5 748/2/5
f 751/2/5 749/2/5 750/2/5
f 754/7/5 753/7/5 752/7/5
f 755/7/5 753/7/5 754/7/5
f 760/7/5 759/7/5 758/7/5
f 761/7/5 759/7/5 760/7/5
f 762/7/5 757/7/5 756/7/5
f 763/7/5 757/7/5 762/7/5
f 766/2/5 765/2/5 764/2/5
f 767/2/5 765/2/5 766/2/5
f 772/7/5 769/7/5 768/7/5
f 773/7/5 769/7/5 772/7/5
f 774/7/5 771/7/5 770/7/5
f 775/7/5 771/7/5 774/7/5
f 778/7/5 777/7/5 776/7/5
f 779/7/5 777/7/5 778/7/5
f 784/7/5 781/7/5 780/7/5
f 785/7/5 783/7/5 782/7/5
f 786/7/5 783/7/5 785/7/5
f 787/7/5 783/7/5 786/7/5
f 788/7/5 784/7/5 780/7/5
f 789/7/5 784/7/5 788/7/5
f 796/2/5 791/2/5 790/2/5
f 797/2/5 791/2/5 796/2/5
f 798/7/5 793/7/5 792/7/5
f 799/7/5 793/7/5 798/7/5
f 800/7/5 795/7/5 794/7/5
f 801/7/5 795/7/5 800/7/5
f 805/7/5 802/7/5 801/7/5
f 806/7/5 802/7/5 805/7/5
f 809/7/5 804/7/5 803/7/5
f 810/7/5 804/7/5 809/7/5
f 813/7/5 808/7/5 807/7/5
f 814/7/5 808/7/5 813/7/5
f 815/7/5 812/7/5 811/7/5
f 816/7/5 812/7/5 815/7/5
f 818/7/5 817/7/5 816/7/5
f 819/7/5 817/7/5 818/7/5
f 823/7/5 821/7/5 820/7/5
f 824/7/5 821/7/5 823/7/5
f 825/7/5 821/7/5 824/7/5
f 827/7/5 823/7/5 822/7/5
f 827/7/5 824/7/5 823/7/5
f 828/7/5 824/7/5 827/7/5
f 829/7/5 824/7/5 828/7/5
f 830/7/5 826/7/5 825/7/5
f 831/7/5 826/7/5 830/7/5
f 836/7/5 833/7/5 832/7/5
f 837/7/5 833/7/5 836/7/5
f 838/7/5 835/7/5 834/7/5
f 839/7/5 835/7/5 838/7/5
f 843/7/5 841/7/5 840/7/5
f 844/7/5 841/7/5 843/7/5
f 846/7/5 843/7/5 842/7/5
f 846/7/5 845/7/5 844/7/5
f 846/7/5 844/7/5 843/7/5
f 847/7/5 845/7/5 846/7/5
f 848/7/5 845/7/5 847/7/5
f 849/7/5 845/7/5 848/7/5
f 850/7/5 848/7/5 847/7/5
f 851/7/5 848/7/5 850/7/5
f 854/3/5 853/3/5 852/3/5
f 855/3/5 853/3/5 854/3/5
f 856/3/5 853/3/5 855/3/5
f 857/3/5 853/3/5 856/3/5
f 860/6/5 856/6/5 855/6/5
f 861/6/5 856/6/5 860/6/5
f 862/6/5 859/6/5 858/6/5
f 863/6/5 859/6/5 862/6/5
f 865/7/5 864/7/5 863/7/5
f 866/7/5 864/7/5 865/7/5
f 867/7/5 861/7/5 860/7/5
f 868/7/5 861/7/5 867/7/5
f 871/5/5 870/5/5 869/5/5
f 872/5/5 870/5/5 871/5/5
f 875/5/5 874/5/5 873/5/5
f 876/5/5 874/5/5 875/5/5
f 881/5/5 878/5/5 877/5/5
f 882/5/5 878/5/5 881/5/5
f 885/5/5 880/5/5 879/5/5
f 886/5/5 880/5/5 885/5/5
f 887/5/5 883/5/5 882/5/5
f 888/5/5 883/5/5 887/5/5
f 889/5/5 885/5/5 884/5/5
f 890/5/5 885/5/5 889/5/5
f 893/6/5 892/6/5 891/6/5
f 894/6/5 892/6/5 893/6/5
f 899/5/5 896/5/5 895/5/5
f 900/5/5 896/5/5 899/5/5
f 901/5/5 898/5/5 897/5/5
f 902/5/5 898/5/5 901/5/5
f 905/5/5 904/5/5 903/5/5
f 906/5/5 904/5/5 905/5/5
f 907/5/5 904/5/5 906/5/5
f 908/5/5 904/5/5 907/5/5
f 911/2/5 910/2/5 909/2/5
f 912/2/5 910/2/5 911/2/5
f 915/2/5 914/2/5 913/2/5
f 916/2/5 914/2/5 915/2/5
f 922/3/5 918/3/5 917/3/5
f 923/2/5 922/2/5 921/2/5
f 924/3/5 918/3/5 922/3/5
f 924/2/5 922/2/5 923/2/5
f 925/3/5 918/3/5 924/3/5
f 928/3/5 920/3/5 919/3/5
f 929/3/5 920/3/5 928/3/5
f 930/3/5 926/3/5 925/3/5
f 931/3/5 926/3/5 930/3/5
f 932/3/5 928/3/5 927/3/5
f 933/3/5 928/3/5 932/3/5
f 936/2/5 935/2/5 934/2/5
f 937/2/5 935/2/5 936/2/5
f 940/3/5 939/3/5 938/3/5
f 941/3/5 939/3/5 940/3/5
f 944/3/5 943/3/5 942/3/5
f 945/3/5 943/3/5 944/3/5
f 946/7/6 947/7/6 948/7/6
f 948/7/6 947/7/6 949/7/6
f 950/7/6 951/7/6 954/7/6
f 954/7/6 951/7/6 955/7/6
f 952/7/6 953/7/6 958/7/6
f 958/7/6 953/7/6 959/7/6
f 956/7/6 957/7/6 960/7/6
f 960/7/6 957/7/6 961/7/6
f 962/7/6 963/7/6 964/7/6
f 964/7/6 963/7/6 965/7/6
f 966/2/6 967/2/6 968/2/6
f 968/2/6 967/2/6 969/2/6
f 970/7/6 971/7/6 974/7/6
f 974/7/6 971/7/6 975/7/6
f 972/2/6 973/2/6 976/2/6
f 976/2/6 973/2/6 977/2/6
f 978/7/6 979/7/6 982/7/6
f 982/7/6 979/7/6 983/7/6
f 980/7/6 981/7/6 984/7/6
f 984/7/6 981/7/6 985/7/6
f 986/7/6 987/7/6 988/7/6
f 988/7/6 987/7/6 989/7/6
f 990/7/6 991/7/6 994/7/6
f 994/7/6 991/7/6 995/7/6
f 992/7/6 993/7/6 998/7/6
f 998/7/6 993/7/6 999/7/6
f 996/7/6 997/7/6 1000/7/6
f 1000/7/6 997/7/6 1001/7/6
f 1002/7/6 1003/7/6 1006/7/6
f 1006/7/6 1003/7/6 1007/7/6
f 1004/7/6 1005/7/6 1009/7/6
f 1009/7/6 1005/7/6 1010/7/6
f 1007/7/6 1008/7/6 1011/7/6
f 1011/7/6 1008/7/6 1012/7/6
f 1010/7/6 1011/7/6 1013/7/6
f 1013/7/6 1011/7/6 1014/7/6
f 1015/7/6 1016/7/6 1017/7/6
f 1017/7/6 1016/7/6 1018/7/6
f 1019/3/6 1020/3/6 1021/3/6
f 1021/3/6 1020/3/6 1022/3/6
f 1022/3/6 1020/3/6 1023/3/6
f 1023/3/6 1020/3/6 1024/3/6
f 1022/6/6 1023/6/6 1027/6/6
f 1027/6/6 1023/6/6 1028/6/6
f 1025/6/6 1026/6/6 1029/6/6
f 1029/6/6 1026/6/6 1030/6/6
f 1030/7/6 1031/7/6 1032/7/6
f 1032/7/6 1031/7/6 1033/7/6
f 1034/5/6 1035/5/6 1038/5/6
f 1038/5/6 1035/5/6 1039/5/6
f 1036/5/6 1037/5/6 1040/5/6
f 1040/5/6 1037/5/6 1041/5/6
f 1042/3/6 1043/3/6 1045/3/6
f 1045/3/6 1043/3/6 1046/3/6
f 1044/3/6 1045/3/6 1049/3/6
f 1046/3/6 1047/3/6 1049/3/6
f 1045/3/6 1046/3/6 1049/3/6
f 1049/3/6 1047/3/6 1050/3/6
f 1050/3/6 1047/3/6 1051/3/6
f 1051/3/6 1047/3/6 1052/3/6
f 1048/3/6 1049/3/6 1054/3/6
f 1049/3/6 1050/3/6 1054/3/6
f 1054/3/6 1050/3/6 1055/3/6
f 1055/3/6 1050/3/6 1056/3/6
f 1052/3/6 1053/3/6 1057/3/6
f 1051/3/6 1052/3/6 1057/3/6
f 1057/3/6 1053/3/6 1058/3/6
f 1056/3/6 1050/3/6 1059/3/6
f 1059/3/6 1050/3/6 1060/3/6
f 1051/3/6 1057/3/6 1061/3/6
f 1061/3/6 1057/3/6 1062/3/6
f 1060/3/6 1061/3/6 1063/3/6
f 1063/3/6 1061/3/6 1064/3/6
f 1065/3/6 1066/3/6 1069/3/6
f 1069/3/6 1066/3/6 1070/3/6
f 1067/3/6 1068/3/6 1071/3/6
f 1071/3/6 1068/3/6 1072/3/6
f 1073/2/6 1074/2/6 1075/2/6
f 1075/2/6 1074/2/6 1076/2/6
f 1077/3/6 1078/3/6 1082/3/6
f 1082/3/6 1078/3/6 1083/3/6
f 1079/2/6 1080/2/6 1085/2/6
f 1085/2/6 1080/2/6 1086/2/6
f 1081/3/6 1082/3/6 1087/3/6
f 1087/3/6 1082/3/6 1088/3/6
f 1083/3/6 1084/3/6 1089/3/6
f 1089/3/6 1084/3/6 1090/3/6
f 1091/1/6 1092/1/6 1093/1/6
f 1093/1/6 1092/1/6 1094/1/6
f 1095/3/6 1096/3/6 1098/3/6
f 1098/3/6 1096/3/6 1099/3/6
f 1097/3/6 1098/3/6 1101/3/6
f 1101/3/6 1098/3/6 1102/3/6
f 1099/3/6 1100/3/6 1103/3/6
f 1103/3/6 1100/3/6 1104/3/6
f 1105/3/6 1106/3/6 1107/3/6
f 1107/3/6 1106/3/6 1108/3/6
