# MagicaVoxel @ Ephtracy

# group
o 

# material
mtllib Arrow.mtl
usemtl palette

# normals
vn -1 0 0
vn 1 0 0
vn 0 0 1
vn 0 0 -1
vn 0 -1 0
vn 0 1 0

# texcoords
vt 0.0488281 0.5
vt 0.830078 0.5
vt 0.966797 0.5

# verts
v 0 0 0.2
v 0 0 0.1
v 0 0 -0.1
v 0 0 -0.2
v 0 0.1 0.2
v 0 0.1 0.1
v 0 0.1 -0.1
v 0 0.1 -0.2
v 0.1 0 0.2
v 0.1 0 0.1
v 0.1 0 -0.1
v 0.1 0 -0.2
v 0.1 0.1 0.2
v 0.1 0.1 0.1
v 0.1 0.1 -0.1
v 0.1 0.1 -0.2
v 0 0 0.2
v 0 0.1 0.2
v 0.1 0 0.2
v 0.1 0.1 0.2
v 0 0 -0.2
v 0 0.1 -0.2
v 0.1 0 -0.2
v 0.1 0.1 -0.2
v 0 0 0.2
v 0.1 0 0.2
v 0 0 0.1
v 0.1 0 0.1
v 0 0 -0.1
v 0.1 0 -0.1
v 0 0 -0.2
v 0.1 0 -0.2
v 0 0.1 0.2
v 0.1 0.1 0.2
v 0 0.1 0.1
v 0.1 0.1 0.1
v 0 0.1 -0.1
v 0.1 0.1 -0.1
v 0 0.1 -0.2
v 0.1 0.1 -0.2

# faces
f 5/3/1 2/3/1 1/3/1
f 6/1/1 3/1/1 2/1/1
f 6/3/1 2/3/1 5/3/1
f 7/2/1 4/2/1 3/2/1
f 7/1/1 3/1/1 6/1/1
f 8/2/1 4/2/1 7/2/1
f 9/3/2 10/3/2 13/3/2
f 10/1/2 11/1/2 14/1/2
f 13/3/2 10/3/2 14/3/2
f 11/2/2 12/2/2 15/2/2
f 14/1/2 11/1/2 15/1/2
f 15/2/2 12/2/2 16/2/2
f 19/3/3 18/3/3 17/3/3
f 20/3/3 18/3/3 19/3/3
f 21/2/4 22/2/4 23/2/4
f 23/2/4 22/2/4 24/2/4
f 27/3/5 26/3/5 25/3/5
f 28/3/5 26/3/5 27/3/5
f 29/1/5 28/1/5 27/1/5
f 30/1/5 28/1/5 29/1/5
f 31/2/5 30/2/5 29/2/5
f 32/2/5 30/2/5 31/2/5
f 33/3/6 34/3/6 35/3/6
f 35/3/6 34/3/6 36/3/6
f 35/1/6 36/1/6 37/1/6
f 37/1/6 36/1/6 38/1/6
f 37/2/6 38/2/6 39/2/6
f 39/2/6 38/2/6 40/2/6
