# MagicaVoxel @ Ephtracy

# group
o 

# material
mtllib Dragon.mtl
usemtl palette

# normals
vn -1 0 0
vn 1 0 0
vn 0 0 1
vn 0 0 -1
vn 0 -1 0
vn 0 1 0

# texcoords
vt 0.302734 0.5
vt 0.587891 0.5
vt 0.873047 0.5

# verts
v -0.7 0.8 5.6
v -0.7 0.8 4.5
v -0.7 0.9 5.7
v -0.7 0.9 5.6
v -0.7 0.9 4.5
v -0.7 0.9 4.4
v -0.7 1 5.7
v -0.7 1 5.1
v -0.7 1 4.4
v -0.7 1 3.2
v -0.7 1.1 5.7
v -0.7 1.1 5.6
v -0.7 1.1 5.5
v -0.7 1.1 5.4
v -0.7 1.1 5.3
v -0.7 1.1 5.2
v -0.7 1.1 5.1
v -0.7 1.1 5
v -0.7 1.1 4.9
v -0.7 1.2 5.6
v -0.7 1.2 5.5
v -0.7 1.2 5.4
v -0.7 1.2 5.3
v -0.7 1.2 5.2
v -0.7 1.2 5.1
v -0.7 1.3 5.7
v -0.7 1.3 5.6
v -0.7 1.3 5.5
v -0.7 1.3 5.4
v -0.7 1.3 5.3
v -0.7 1.3 5.2
v -0.7 1.3 5.1
v -0.7 1.3 5
v -0.7 1.3 -3.1
v -0.7 1.3 -3.9
v -0.7 1.4 5.6
v -0.7 1.4 5.5
v -0.7 1.4 5.4
v -0.7 1.4 5.3
v -0.7 1.4 5.2
v -0.7 1.4 5.1
v -0.7 1.4 4.9
v -0.7 1.5 5.7
v -0.7 1.5 5.3
v -0.7 1.6 5.3
v -0.7 1.6 4.8
v -0.7 1.9 5.3
v -0.7 1.9 4.8
v -0.7 1.9 -3.1
v -0.7 1.9 -3.9
v -0.7 2 5.7
v -0.7 2 5.5
v -0.7 2 3.7
v -0.7 2 3.2
v -0.7 2.1 4.3
v -0.7 2.1 3.7
v -0.7 2.2 5.5
v -0.7 2.2 4.3
v -0.6 0.8 5.7
v -0.6 0.8 5.6
v -0.6 0.8 4.5
v -0.6 0.8 4.3
v -0.6 0.9 5.9
v -0.6 0.9 5.7
v -0.6 0.9 5.6
v -0.6 0.9 4.5
v -0.6 0.9 4.4
v -0.6 0.9 4.3
v -0.6 0.9 3.2
v -0.6 1 5.9
v -0.6 1 5.7
v -0.6 1 4.4
v -0.6 1 3.2
v -0.6 1 2.1
v -0.6 1 -1.5
v -0.6 1 -1.7
v -0.6 1.1 5.9
v -0.6 1.1 5.8
v -0.6 1.1 5.7
v -0.6 1.1 -1.7
v -0.6 1.1 -2.2
v -0.6 1.2 5.8
v -0.6 1.2 5.7
v -0.6 1.2 -2.2
v -0.6 1.2 -2.9
v -0.6 1.2 -3.1
v -0.6 1.2 -3.9
v -0.6 1.3 5.9
v -0.6 1.3 5.8
v -0.6 1.3 -2.9
v -0.6 1.3 -3.1
v -0.6 1.3 -3.9
v -0.6 1.4 5.8
v -0.6 1.4 5.7
v -0.6 1.4 -3.9
v -0.6 1.4 -4.2
v -0.6 1.5 5.9
v -0.6 1.5 5.7
v -0.6 1.8 -1.5
v -0.6 1.8 -1.7
v -0.6 1.8 -2.2
v -0.6 1.8 -2.9
v -0.6 1.8 -3.9
v -0.6 1.8 -4.2
v -0.6 1.9 -1.7
v -0.6 1.9 -2.2
v -0.6 1.9 -2.9
v -0.6 1.9 -3.1
v -0.6 1.9 -3.9
v -0.6 2 5.9
v -0.6 2 5.7
v -0.6 2 5.5
v -0.6 2 3.7
v -0.6 2 3.2
v -0.6 2 2.1
v -0.6 2 -3.1
v -0.6 2 -3.9
v -0.6 2.1 5.7
v -0.6 2.1 5.5
v -0.6 2.1 4.3
v -0.6 2.1 3.7
v -0.6 2.1 3.2
v -0.6 2.2 5.4
v -0.6 2.2 4.3
v -0.6 2.2 3.7
v -0.6 2.3 5.4
v -0.6 2.3 4.3
v -0.5 0.8 5.9
v -0.5 0.8 5.7
v -0.5 0.9 6
v -0.5 0.9 5.9
v -0.5 0.9 5.7
v -0.5 0.9 3.2
v -0.5 0.9 2.1
v -0.5 0.9 1.9
v -0.5 0.9 1.2
v -0.5 0.9 -1.5
v -0.5 0.9 -1.7
v -0.5 1 6
v -0.5 1 5.9
v -0.5 1 3.2
v -0.5 1 2.1
v -0.5 1 1.9
v -0.5 1 -0.5
v -0.5 1 -1.5
v -0.5 1 -1.7
v -0.5 1 -2.2
v -0.5 1.1 6
v -0.5 1.1 5.9
v -0.5 1.1 -1.7
v -0.5 1.1 -2.2
v -0.5 1.1 -2.9
v -0.5 1.2 -2.2
v -0.5 1.2 -2.9
v -0.5 1.2 -3.1
v -0.5 1.3 6
v -0.5 1.3 5.9
v -0.5 1.3 -2.9
v -0.5 1.3 -3.1
v -0.5 1.3 -3.9
v -0.5 1.3 -4.2
v -0.5 1.3 -4.4
v -0.5 1.3 -4.9
v -0.5 1.4 -3.9
v -0.5 1.4 -4.2
v -0.5 1.4 -4.4
v -0.5 1.5 6
v -0.5 1.5 5.9
v -0.5 1.7 -4.4
v -0.5 1.7 -4.9
v -0.5 1.8 -0.5
v -0.5 1.8 -1.5
v -0.5 1.8 -1.7
v -0.5 1.8 -2.2
v -0.5 1.8 -2.9
v -0.5 1.8 -3.9
v -0.5 1.8 -4.2
v -0.5 1.8 -4.4
v -0.5 1.9 1.9
v -0.5 1.9 1.2
v -0.5 1.9 -1.5
v -0.5 1.9 -1.7
v -0.5 1.9 -2.2
v -0.5 1.9 -2.9
v -0.5 1.9 -3.1
v -0.5 1.9 -3.9
v -0.5 1.9 -4.2
v -0.5 2 6
v -0.5 2 5.9
v -0.5 2 5.7
v -0.5 2 3.2
v -0.5 2 2.1
v -0.5 2 1.9
v -0.5 2 -1.7
v -0.5 2 -2.2
v -0.5 2 -2.9
v -0.5 2 -3.1
v -0.5 2.1 5.9
v -0.5 2.1 5.7
v -0.5 2.1 3.2
v -0.5 2.1 2.1
v -0.5 2.2 5.5
v -0.5 2.2 5.4
v -0.5 2.3 5.5
v -0.5 2.3 5.4
v -0.5 2.3 4.6
v -0.5 2.4 5.4
v -0.5 2.4 4.6
v -0.4 0.8 1.9
v -0.4 0.8 1.2
v -0.4 0.8 0.7
v -0.4 0.8 0.3
v -0.4 0.9 2.1
v -0.4 0.9 1.9
v -0.4 0.9 1.2
v -0.4 0.9 0.7
v -0.4 0.9 0.3
v -0.4 0.9 -0.3
v -0.4 0.9 -0.5
v -0.4 0.9 -1.5
v -0.4 1 2.1
v -0.4 1 1.9
v -0.4 1 -0.3
v -0.4 1 -0.5
v -0.4 1 -1.5
v -0.4 1.1 6
v -0.4 1.1 5.9
v -0.4 1.2 6
v -0.4 1.2 5.9
v -0.4 1.2 -4.4
v -0.4 1.2 -4.9
v -0.4 1.3 -4.2
v -0.4 1.3 -4.4
v -0.4 1.3 -4.9
v -0.4 1.4 -4.2
v -0.4 1.4 -4.4
v -0.4 1.4 -4.9
v -0.4 1.4 -5.2
v -0.4 1.6 -4.9
v -0.4 1.6 -5.2
v -0.4 1.7 0.3
v -0.4 1.7 -0.3
v -0.4 1.7 -4.4
v -0.4 1.7 -4.9
v -0.4 1.8 0.7
v -0.4 1.8 0.3
v -0.4 1.8 -0.3
v -0.4 1.8 -0.5
v -0.4 1.8 -1.5
v -0.4 1.8 -4.2
v -0.4 1.8 -4.4
v -0.4 1.8 -4.9
v -0.4 1.9 1.9
v -0.4 1.9 1.2
v -0.4 1.9 0.7
v -0.4 1.9 -0.5
v -0.4 1.9 -1.5
v -0.4 1.9 -4.2
v -0.4 1.9 -4.4
v -0.4 2 2.1
v -0.4 2 1.9
v -0.4 2 1.2
v -0.4 2.1 2.1
v -0.4 2.1 1.9
v -0.3 0.7 0.7
v -0.3 0.7 0.3
v -0.3 0.8 6
v -0.3 0.8 5.9
v -0.3 0.8 1.2
v -0.3 0.8 0.7
v -0.3 0.8 0.3
v -0.3 0.8 -0.3
v -0.3 0.9 6.1
v -0.3 0.9 6
v -0.3 0.9 5.9
v -0.3 0.9 1.2
v -0.3 0.9 0.7
v -0.3 0.9 0.3
v -0.3 0.9 -0.3
v -0.3 0.9 -0.5
v -0.3 1 6.1
v -0.3 1 6
v -0.3 1 -0.3
v -0.3 1 -0.5
v -0.3 1.1 6.1
v -0.3 1.1 6
v -0.3 1.3 6.1
v -0.3 1.3 6
v -0.3 1.3 -4.9
v -0.3 1.3 -5.2
v -0.3 1.3 -5.4
v -0.3 1.3 -5.8
v -0.3 1.4 6
v -0.3 1.4 -4.9
v -0.3 1.4 -5.2
v -0.3 1.4 -5.4
v -0.3 1.5 6.1
v -0.3 1.5 6
v -0.3 1.5 -5.4
v -0.3 1.5 -5.8
v -0.3 1.6 -4.9
v -0.3 1.6 -5.2
v -0.3 1.6 -5.4
v -0.3 1.7 0.3
v -0.3 1.7 -0.3
v -0.3 1.7 -4.9
v -0.3 1.7 -5.2
v -0.3 1.8 0.7
v -0.3 1.8 0.3
v -0.3 1.8 -0.3
v -0.3 1.8 -0.5
v -0.3 1.8 -4.4
v -0.3 1.8 -4.5
v -0.3 1.9 1.2
v -0.3 1.9 0.7
v -0.3 1.9 0.3
v -0.3 1.9 -0.3
v -0.3 1.9 -0.5
v -0.3 1.9 -4.4
v -0.3 1.9 -4.5
v -0.3 2 6.1
v -0.3 2 6
v -0.3 2 5.9
v -0.3 2 1.2
v -0.3 2 0.7
v -0.3 2.1 6
v -0.3 2.1 5.9
v -0.3 2.1 5.6
v -0.3 2.1 5.5
v -0.3 2.2 5.6
v -0.3 2.2 5.5
v -0.2 0.8 6.1
v -0.2 0.8 6
v -0.2 0.9 6.2
v -0.2 0.9 6.1
v -0.2 0.9 6
v -0.2 1 6.2
v -0.2 1 6.1
v -0.2 1.1 6.1
v -0.2 1.1 -2.9
v -0.2 1.1 -3
v -0.2 1.2 6.2
v -0.2 1.2 6.1
v -0.2 1.2 -2.9
v -0.2 1.2 -3
v -0.2 1.2 -5.4
v -0.2 1.2 -5.8
v -0.2 1.3 -5.2
v -0.2 1.3 -5.4
v -0.2 1.3 -5.8
v -0.2 1.3 -6.2
v -0.2 1.4 6.2
v -0.2 1.4 6.1
v -0.2 1.4 -5.2
v -0.2 1.4 -5.4
v -0.2 1.4 -5.8
v -0.2 1.4 -6.2
v -0.2 1.5 6.2
v -0.2 1.5 6.1
v -0.2 1.5 -5.4
v -0.2 1.5 -5.8
v -0.2 1.6 -5.2
v -0.2 1.6 -5.4
v -0.2 1.6 -5.8
v -0.2 1.7 -5.2
v -0.2 1.7 -5.4
v -0.2 2 6.2
v -0.2 2 6.1
v -0.2 2 6
v -0.2 2.1 6.1
v -0.2 2.1 6
v -0.1 1.2 -5.8
v -0.1 1.2 -6.2
v -0.1 1.3 6.2
v -0.1 1.3 6.1
v -0.1 1.3 -5.8
v -0.1 1.3 -6.2
v -0.1 1.3 -6.3
v -0.1 1.4 6.2
v -0.1 1.4 6.1
v -0.1 1.4 -5.8
v -0.1 1.4 -6.2
v -0.1 1.4 -6.3
v -0.1 1.5 -5.8
v -0.1 1.5 -6.2
v -0.1 1.6 -5.4
v -0.1 1.6 -5.5
v -0.1 1.7 -5.4
v -0.1 1.7 -5.5
v 0 1.1 6.2
v 0 1.1 6.1
v 0 1.2 6.2
v 0 1.2 6.1
v 0.1 1.3 6.2
v 0.1 1.3 6.1
v 0.1 1.4 6.2
v 0.1 1.4 6.1
v 0.2 1.3 6.1
v 0.2 1.3 6
v 0.2 1.4 6.1
v 0.2 1.4 6
v 0.3 1.1 6
v 0.3 1.1 5.9
v 0.3 1.2 6
v 0.3 1.2 5.9
v 0.4 1.3 6
v 0.4 1.3 5.9
v 0.4 1.4 6
v 0.4 1.4 5.9
v 0.5 1.1 5.9
v 0.5 1.1 5.8
v 0.5 1.2 5.9
v 0.5 1.2 5.8
v 0.5 1.3 5.8
v 0.5 1.3 5.7
v 0.5 1.4 5.8
v 0.5 1.4 5.7
v 0.6 1.1 5.7
v 0.6 1.1 5.6
v 0.6 1.1 5.4
v 0.6 1.1 5.2
v 0.6 1.1 5.1
v 0.6 1.1 5
v 0.6 1.2 5.7
v 0.6 1.2 5.6
v 0.6 1.2 5.4
v 0.6 1.2 5.2
v 0.6 1.2 5.1
v 0.6 1.2 5
v 0.6 1.3 5.6
v 0.6 1.3 5.4
v 0.6 1.3 5.2
v 0.6 1.3 5.1
v 0.6 1.4 5.6
v 0.6 1.4 5.4
v 0.6 1.4 5.2
v 0.6 1.4 5.1
v 0.6 1.9 0.7
v 0.6 1.9 0.6
v 0.6 2 1.9
v 0.6 2 1.8
v 0.6 2 0.7
v 0.6 2 0.6
v 0.6 2.1 1.9
v 0.6 2.1 1.8
v -0.6 1.1 5.6
v -0.6 1.1 5.5
v -0.6 1.1 5.4
v -0.6 1.1 5.3
v -0.6 1.1 5.2
v -0.6 1.1 5.1
v -0.6 1.2 5.6
v -0.6 1.2 5.5
v -0.6 1.2 5.4
v -0.6 1.2 5.3
v -0.6 1.2 5.2
v -0.6 1.2 5.1
v -0.6 1.3 5.7
v -0.6 1.3 5.6
v -0.6 1.3 5.5
v -0.6 1.3 5.4
v -0.6 1.3 5.3
v -0.6 1.3 5.2
v -0.6 1.3 5.1
v -0.6 1.3 5
v -0.6 1.4 5.7
v -0.6 1.4 5.6
v -0.6 1.4 5.5
v -0.6 1.4 5.4
v -0.6 1.4 5.3
v -0.6 1.4 5.2
v -0.6 1.4 5.1
v -0.6 1.4 5
v -0.5 1.1 5.8
v -0.5 1.1 5.7
v -0.5 1.2 5.8
v -0.5 1.2 5.7
v -0.5 1.3 5.9
v -0.5 1.3 5.8
v -0.5 1.4 5.9
v -0.5 1.4 5.8
v -0.4 1.3 6
v -0.4 1.3 5.9
v -0.4 1.4 6
v -0.4 1.4 5.9
v -0.3 1.1 6
v -0.3 1.1 5.9
v -0.3 1.2 6
v -0.3 1.2 5.9
v -0.3 1.2 -4.4
v -0.3 1.2 -4.5
v -0.3 1.3 -4.4
v -0.3 1.3 -4.5
v -0.2 1.3 6.1
v -0.2 1.3 6
v -0.2 1.4 6.1
v -0.2 1.4 6
v -0.2 1.9 -2.9
v -0.2 1.9 -3
v -0.2 2 -2.9
v -0.2 2 -3
v -0.1 1.1 6.2
v -0.1 1.1 6.1
v -0.1 1.2 6.2
v -0.1 1.2 6.1
v -0.1 1.2 -5.4
v -0.1 1.2 -5.5
v -0.1 1.3 -5.4
v -0.1 1.3 -5.5
v 0 1.3 6.2
v 0 1.3 6.1
v 0 1.4 6.2
v 0 1.4 6.1
v 0.1 1.1 6.2
v 0.1 1.1 6.1
v 0.1 1.2 6.2
v 0.1 1.2 6.1
v 0.1 1.2 -5.8
v 0.1 1.2 -6.2
v 0.1 1.3 -3.9
v 0.1 1.3 -4.1
v 0.1 1.3 -4.9
v 0.1 1.3 -5.2
v 0.1 1.3 -5.8
v 0.1 1.3 -6.2
v 0.1 1.3 -6.3
v 0.1 1.4 -3.9
v 0.1 1.4 -4.1
v 0.1 1.4 -4.9
v 0.1 1.4 -5.2
v 0.1 1.4 -5.8
v 0.1 1.4 -6.2
v 0.1 1.4 -6.3
v 0.1 1.5 -5.8
v 0.1 1.5 -6.2
v 0.1 1.6 -4.9
v 0.1 1.6 -5.2
v 0.1 1.7 -4.9
v 0.1 1.7 -5.2
v 0.1 1.8 -3.9
v 0.1 1.8 -4.1
v 0.1 1.9 -3.9
v 0.1 1.9 -4.1
v 0.2 0.8 6.1
v 0.2 0.8 6
v 0.2 0.9 6.2
v 0.2 0.9 6.1
v 0.2 0.9 6
v 0.2 1 6.2
v 0.2 1 6.1
v 0.2 1.1 6.2
v 0.2 1.1 6.1
v 0.2 1.2 -3.3
v 0.2 1.2 -3.9
v 0.2 1.2 -4.5
v 0.2 1.2 -4.9
v 0.2 1.2 -5.5
v 0.2 1.2 -5.8
v 0.2 1.3 6.2
v 0.2 1.3 6.1
v 0.2 1.3 -3.3
v 0.2 1.3 -3.9
v 0.2 1.3 -4.1
v 0.2 1.3 -4.5
v 0.2 1.3 -4.9
v 0.2 1.3 -5.2
v 0.2 1.3 -5.5
v 0.2 1.3 -5.6
v 0.2 1.3 -5.8
v 0.2 1.3 -6.2
v 0.2 1.4 -3.9
v 0.2 1.4 -4.1
v 0.2 1.4 -4.5
v 0.2 1.4 -4.9
v 0.2 1.4 -5.2
v 0.2 1.4 -5.6
v 0.2 1.4 -5.8
v 0.2 1.4 -6.2
v 0.2 1.5 6.2
v 0.2 1.5 6.1
v 0.2 1.5 -5.6
v 0.2 1.5 -5.8
v 0.2 1.6 -4.9
v 0.2 1.6 -5.2
v 0.2 1.6 -5.5
v 0.2 1.6 -5.6
v 0.2 1.6 -5.8
v 0.2 1.7 -4.5
v 0.2 1.7 -4.9
v 0.2 1.7 -5.2
v 0.2 1.7 -5.5
v 0.2 1.8 -3.9
v 0.2 1.8 -4.1
v 0.2 1.8 -4.5
v 0.2 1.8 -4.9
v 0.2 1.9 -3.3
v 0.2 1.9 -3.9
v 0.2 1.9 -4.1
v 0.2 1.9 -4.5
v 0.2 2 6.2
v 0.2 2 6.1
v 0.2 2 6
v 0.2 2 -3.3
v 0.2 2 -3.9
v 0.2 2.1 6.1
v 0.2 2.1 6
v 0.3 0.8 6
v 0.3 0.8 5.9
v 0.3 0.9 6.1
v 0.3 0.9 6
v 0.3 0.9 5.9
v 0.3 1 6.1
v 0.3 1 6
v 0.3 1.1 6.1
v 0.3 1.1 6
v 0.3 1.1 -2.4
v 0.3 1.1 -3
v 0.3 1.2 -2.4
v 0.3 1.2 -3
v 0.3 1.2 -3.3
v 0.3 1.3 6.1
v 0.3 1.3 6
v 0.3 1.3 -3
v 0.3 1.3 -3.3
v 0.3 1.3 -3.9
v 0.3 1.3 -4.5
v 0.3 1.3 -4.9
v 0.3 1.3 -5.6
v 0.3 1.3 -5.8
v 0.3 1.4 6
v 0.3 1.4 -4.1
v 0.3 1.4 -4.5
v 0.3 1.4 -5.2
v 0.3 1.4 -5.6
v 0.3 1.5 6.1
v 0.3 1.5 6
v 0.3 1.5 -5.6
v 0.3 1.5 -5.8
v 0.3 1.6 -5.2
v 0.3 1.6 -5.6
v 0.3 1.7 -4.5
v 0.3 1.7 -4.9
v 0.3 1.8 -2.4
v 0.3 1.8 -3
v 0.3 1.8 -4.1
v 0.3 1.8 -4.5
v 0.3 1.9 -2.4
v 0.3 1.9 -3
v 0.3 1.9 -3.3
v 0.3 1.9 -3.9
v 0.3 2 6.1
v 0.3 2 6
v 0.3 2 5.9
v 0.3 2 -3
v 0.3 2 -3.3
v 0.3 2.1 6
v 0.3 2.1 5.9
v 0.4 1.1 6
v 0.4 1.1 5.9
v 0.4 1.1 -2.2
v 0.4 1.1 -2.4
v 0.4 1.2 6
v 0.4 1.2 5.9
v 0.4 1.2 -2.2
v 0.4 1.2 -2.4
v 0.4 1.2 -3
v 0.4 1.3 -3
v 0.4 1.3 -3.3
v 0.4 1.8 -2.2
v 0.4 1.8 -2.4
v 0.4 1.8 -3
v 0.4 1.9 -2.2
v 0.4 1.9 -2.4
v 0.4 1.9 -3
v 0.4 1.9 -3.3
v 0.4 2.1 5.6
v 0.4 2.1 5.5
v 0.4 2.2 5.6
v 0.4 2.2 5.5
v 0.5 0.8 5.9
v 0.5 0.8 5.8
v 0.5 0.9 6
v 0.5 0.9 5.9
v 0.5 0.9 5.8
v 0.5 0.9 -1.6
v 0.5 0.9 -1.7
v 0.5 1 6
v 0.5 1 5.9
v 0.5 1 -1.6
v 0.5 1 -1.7
v 0.5 1 -1.8
v 0.5 1 -2.2
v 0.5 1.1 6
v 0.5 1.1 5.9
v 0.5 1.1 -1.8
v 0.5 1.1 -2.2
v 0.5 1.2 -2.2
v 0.5 1.2 -2.4
v 0.5 1.3 6
v 0.5 1.3 5.9
v 0.5 1.4 5.9
v 0.5 1.5 6
v 0.5 1.5 5.9
v 0.5 1.8 -1.6
v 0.5 1.8 -1.8
v 0.5 1.8 -2.2
v 0.5 1.8 -2.4
v 0.5 1.9 -1.6
v 0.5 1.9 -1.7
v 0.5 1.9 -1.8
v 0.5 1.9 -2.2
v 0.5 2 6
v 0.5 2 5.9
v 0.5 2 5.7
v 0.5 2 -1.7
v 0.5 2 -2.2
v 0.5 2.1 5.9
v 0.5 2.1 5.7
v 0.6 0.7 0.7
v 0.6 0.7 0.6
v 0.6 0.8 5.8
v 0.6 0.8 5.6
v 0.6 0.8 4.5
v 0.6 0.8 4.3
v 0.6 0.8 1.9
v 0.6 0.8 1.8
v 0.6 0.8 0.7
v 0.6 0.8 0.6
v 0.6 0.9 5.9
v 0.6 0.9 5.8
v 0.6 0.9 5.7
v 0.6 0.9 5.6
v 0.6 0.9 4.5
v 0.6 0.9 4.4
v 0.6 0.9 4.3
v 0.6 0.9 3.3
v 0.6 0.9 1.9
v 0.6 0.9 1.8
v 0.6 0.9 -0.7
v 0.6 0.9 -1.6
v 0.6 1 5.9
v 0.6 1 5.7
v 0.6 1 4.4
v 0.6 1 3.3
v 0.6 1 -0.7
v 0.6 1 -1.6
v 0.6 1 -1.8
v 0.6 1.1 5.8
v 0.6 1.1 5.7
v 0.6 1.1 -1.8
v 0.6 1.1 -2.2
v 0.6 1.2 5.9
v 0.6 1.2 5.8
v 0.6 1.3 5.8
v 0.6 1.3 5.7
v 0.6 1.4 5.9
v 0.6 1.4 5.8
v 0.6 1.4 5.7
v 0.6 1.5 5.9
v 0.6 1.5 5.7
v 0.6 1.8 -0.7
v 0.6 1.8 -1.6
v 0.6 1.8 -1.8
v 0.6 1.9 -0.7
v 0.6 1.9 -1.6
v 0.6 1.9 -1.8
v 0.6 1.9 -2.2
v 0.6 2 5.9
v 0.6 2 5.7
v 0.6 2 5.5
v 0.6 2 3.7
v 0.6 2 3.3
v 0.6 2.1 5.7
v 0.6 2.1 5.5
v 0.6 2.1 4.3
v 0.6 2.1 3.7
v 0.6 2.1 3.3
v 0.6 2.2 5.5
v 0.6 2.2 5.4
v 0.6 2.2 4.6
v 0.6 2.2 4.3
v 0.6 2.2 3.7
v 0.6 2.3 5.5
v 0.6 2.3 5.4
v 0.6 2.3 4.6
v 0.6 2.3 4.3
v 0.6 2.4 5.4
v 0.6 2.4 4.6
v 0.7 0.8 5.6
v 0.7 0.8 4.5
v 0.7 0.8 0.3
v 0.7 0.8 -0.3
v 0.7 0.9 5.7
v 0.7 0.9 5.6
v 0.7 0.9 4.5
v 0.7 0.9 4.4
v 0.7 0.9 3.3
v 0.7 0.9 2.3
v 0.7 0.9 0.3
v 0.7 0.9 -0.3
v 0.7 0.9 -0.7
v 0.7 1 5.7
v 0.7 1 5.1
v 0.7 1 4.4
v 0.7 1 3.3
v 0.7 1 2.3
v 0.7 1 -0.3
v 0.7 1 -0.7
v 0.7 1 -1.6
v 0.7 1.1 5.6
v 0.7 1.1 5.4
v 0.7 1.1 5.2
v 0.7 1.1 5.1
v 0.7 1.1 4.9
v 0.7 1.2 5.7
v 0.7 1.2 5.6
v 0.7 1.2 5.4
v 0.7 1.2 5.2
v 0.7 1.2 5.1
v 0.7 1.2 5
v 0.7 1.3 5.6
v 0.7 1.3 5.4
v 0.7 1.3 5.2
v 0.7 1.3 5.1
v 0.7 1.4 5.7
v 0.7 1.4 5.6
v 0.7 1.4 5.4
v 0.7 1.4 5.2
v 0.7 1.4 5.1
v 0.7 1.4 5
v 0.7 1.4 4.9
v 0.7 1.5 5.7
v 0.7 1.5 5.4
v 0.7 1.6 5.3
v 0.7 1.6 4.8
v 0.7 1.7 0.3
v 0.7 1.7 -0.3
v 0.7 1.8 0.3
v 0.7 1.8 -0.3
v 0.7 1.8 -0.7
v 0.7 1.8 -1.6
v 0.7 1.9 5.3
v 0.7 1.9 4.8
v 0.7 1.9 -0.3
v 0.7 1.9 -0.7
v 0.7 2 5.7
v 0.7 2 5.5
v 0.7 2 3.7
v 0.7 2 3.3
v 0.7 2 2.3
v 0.7 2.1 4.3
v 0.7 2.1 3.7
v 0.7 2.1 3.3
v 0.7 2.1 2.3
v 0.7 2.2 5.5
v 0.7 2.2 5.4
v 0.7 2.2 4.6
v 0.7 2.2 4.3
v 0.7 2.3 5.4
v 0.7 2.3 4.6
v 0.8 0.8 1.8
v 0.8 0.8 1.3
v 0.8 0.9 2.3
v 0.8 0.9 1.8
v 0.8 0.9 1.3
v 0.8 0.9 0.3
v 0.8 0.9 -0.3
v 0.8 1 3.3
v 0.8 1 2.3
v 0.8 1 1.8
v 0.8 1 -0.3
v 0.8 1 -0.7
v 0.8 1.7 0.3
v 0.8 1.7 -0.3
v 0.8 1.8 -0.3
v 0.8 1.8 -0.7
v 0.8 1.9 1.8
v 0.8 1.9 1.3
v 0.8 2 3.3
v 0.8 2 2.3
v 0.8 2 1.8
v 0.8 2 1.3
v 0.8 2.1 2.3
v 0.8 2.1 1.8
v 0.9 0.7 0.6
v 0.9 0.7 0.3
v 0.9 0.8 1.3
v 0.9 0.8 0.6
v 0.9 0.8 0.3
v 0.9 0.9 1.8
v 0.9 0.9 1.3
v 0.9 0.9 0.6
v 0.9 1 2.3
v 0.9 1 1.8
v 0.9 1.8 0.6
v 0.9 1.8 0.3
v 0.9 1.9 1.8
v 0.9 1.9 1.3
v 0.9 1.9 0.6
v 0.9 1.9 0.3
v 0.9 2 2.3
v 0.9 2 1.8
v 0.9 2 1.3
v 0.9 2 0.6
v 1 0.8 0.6
v 1 0.8 0.3
v 1 0.9 1.3
v 1 0.9 0.6
v 1 1.8 0.6
v 1 1.8 0.3
v 1 1.9 1.3
v 1 1.9 0.6
v -0.2 0.9 6.2
v -0.2 1 6.2
v -0.2 1.2 6.2
v -0.2 1.4 6.2
v -0.2 1.5 6.2
v -0.2 2 6.2
v -0.1 1.1 6.2
v -0.1 1.2 6.2
v -0.1 1.3 6.2
v -0.1 1.4 6.2
v 0 1.1 6.2
v 0 1.2 6.2
v 0 1.3 6.2
v 0 1.4 6.2
v 0.1 1.1 6.2
v 0.1 1.2 6.2
v 0.1 1.3 6.2
v 0.1 1.4 6.2
v 0.2 0.9 6.2
v 0.2 1 6.2
v 0.2 1.1 6.2
v 0.2 1.3 6.2
v 0.2 1.5 6.2
v 0.2 2 6.2
v -0.3 0.9 6.1
v -0.3 1 6.1
v -0.3 1.1 6.1
v -0.3 1.3 6.1
v -0.3 1.5 6.1
v -0.3 2 6.1
v -0.2 0.8 6.1
v -0.2 0.9 6.1
v -0.2 1 6.1
v -0.2 1.1 6.1
v -0.2 1.3 6.1
v -0.2 1.4 6.1
v -0.2 1.5 6.1
v -0.2 2 6.1
v -0.2 2.1 6.1
v 0.2 0.8 6.1
v 0.2 0.9 6.1
v 0.2 1 6.1
v 0.2 1.1 6.1
v 0.2 1.3 6.1
v 0.2 1.5 6.1
v 0.2 2 6.1
v 0.2 2.1 6.1
v 0.3 0.9 6.1
v 0.3 1 6.1
v 0.3 1.1 6.1
v 0.3 1.3 6.1
v 0.3 1.5 6.1
v 0.3 2 6.1
v -0.5 0.9 6
v -0.5 1 6
v -0.5 1.1 6
v -0.5 1.3 6
v -0.5 1.5 6
v -0.5 2 6
v -0.4 1.1 6
v -0.4 1.2 6
v -0.4 1.3 6
v -0.4 1.4 6
v -0.3 0.8 6
v -0.3 0.9 6
v -0.3 1 6
v -0.3 1.1 6
v -0.3 1.2 6
v -0.3 1.4 6
v -0.3 1.5 6
v -0.3 2 6
v -0.3 2.1 6
v -0.2 0.8 6
v -0.2 0.9 6
v -0.2 2 6
v -0.2 2.1 6
v 0.2 0.8 6
v 0.2 0.9 6
v 0.2 2 6
v 0.2 2.1 6
v 0.3 0.8 6
v 0.3 0.9 6
v 0.3 1 6
v 0.3 1.1 6
v 0.3 1.2 6
v 0.3 1.4 6
v 0.3 1.5 6
v 0.3 2 6
v 0.3 2.1 6
v 0.4 1.1 6
v 0.4 1.2 6
v 0.4 1.3 6
v 0.4 1.4 6
v 0.5 0.9 6
v 0.5 1 6
v 0.5 1.1 6
v 0.5 1.3 6
v 0.5 1.5 6
v 0.5 2 6
v -0.6 0.9 5.9
v -0.6 1 5.9
v -0.6 1.1 5.9
v -0.6 1.3 5.9
v -0.6 1.5 5.9
v -0.6 2 5.9
v -0.5 0.8 5.9
v -0.5 0.9 5.9
v -0.5 1 5.9
v -0.5 1.1 5.9
v -0.5 1.3 5.9
v -0.5 1.5 5.9
v -0.5 2 5.9
v -0.5 2.1 5.9
v -0.3 0.8 5.9
v -0.3 0.9 5.9
v -0.3 2 5.9
v -0.3 2.1 5.9
v 0.3 0.8 5.9
v 0.3 0.9 5.9
v 0.3 2 5.9
v 0.3 2.1 5.9
v 0.5 0.8 5.9
v 0.5 0.9 5.9
v 0.5 1 5.9
v 0.5 1.1 5.9
v 0.5 1.2 5.9
v 0.5 1.4 5.9
v 0.5 1.5 5.9
v 0.5 2 5.9
v 0.5 2.1 5.9
v 0.6 0.9 5.9
v 0.6 1 5.9
v 0.6 1.2 5.9
v 0.6 1.4 5.9
v 0.6 1.5 5.9
v 0.6 2 5.9
v -0.6 1.1 5.8
v -0.6 1.2 5.8
v -0.5 1.1 5.8
v -0.5 1.2 5.8
v 0.5 0.8 5.8
v 0.5 0.9 5.8
v 0.5 1.3 5.8
v 0.5 1.4 5.8
v 0.6 0.8 5.8
v 0.6 0.9 5.8
v 0.6 1.3 5.8
v 0.6 1.4 5.8
v -0.7 0.9 5.7
v -0.7 1 5.7
v -0.7 1.1 5.7
v -0.7 1.3 5.7
v -0.7 1.5 5.7
v -0.7 2 5.7
v -0.6 0.8 5.7
v -0.6 0.9 5.7
v -0.6 1 5.7
v -0.6 1.1 5.7
v -0.6 1.3 5.7
v -0.6 1.4 5.7
v -0.6 1.5 5.7
v -0.6 2 5.7
v -0.6 2.1 5.7
v -0.5 0.8 5.7
v -0.5 0.9 5.7
v -0.5 2 5.7
v -0.5 2.1 5.7
v 0.5 2 5.7
v 0.5 2.1 5.7
v 0.6 0.9 5.7
v 0.6 1 5.7
v 0.6 1.1 5.7
v 0.6 1.2 5.7
v 0.6 1.4 5.7
v 0.6 1.5 5.7
v 0.6 2 5.7
v 0.6 2.1 5.7
v 0.7 0.9 5.7
v 0.7 1 5.7
v 0.7 1.2 5.7
v 0.7 1.4 5.7
v 0.7 1.5 5.7
v 0.7 2 5.7
v -0.7 0.8 5.6
v -0.7 0.9 5.6
v -0.7 1.1 5.6
v -0.7 1.2 5.6
v -0.6 0.8 5.6
v -0.6 0.9 5.6
v -0.6 1.1 5.6
v -0.6 1.2 5.6
v -0.3 2.1 5.6
v -0.3 2.2 5.6
v 0.4 2.1 5.6
v 0.4 2.2 5.6
v 0.6 0.8 5.6
v 0.6 0.9 5.6
v 0.6 1.3 5.6
v 0.6 1.4 5.6
v 0.7 0.8 5.6
v 0.7 0.9 5.6
v 0.7 1.3 5.6
v 0.7 1.4 5.6
v -0.7 1.3 5.5
v -0.7 1.4 5.5
v -0.7 2 5.5
v -0.7 2.2 5.5
v -0.6 1.3 5.5
v -0.6 1.4 5.5
v -0.6 2 5.5
v -0.6 2.1 5.5
v -0.5 2.2 5.5
v -0.5 2.3 5.5
v -0.3 2.1 5.5
v -0.3 2.2 5.5
v 0.4 2.1 5.5
v 0.4 2.2 5.5
v 0.6 2 5.5
v 0.6 2.1 5.5
v 0.6 2.2 5.5
v 0.6 2.3 5.5
v 0.7 2 5.5
v 0.7 2.2 5.5
v -0.7 1.1 5.4
v -0.7 1.2 5.4
v -0.6 1.1 5.4
v -0.6 1.2 5.4
v -0.6 2.2 5.4
v -0.6 2.3 5.4
v -0.5 2.2 5.4
v -0.5 2.3 5.4
v -0.5 2.4 5.4
v 0.6 1.1 5.4
v 0.6 1.2 5.4
v 0.6 2.2 5.4
v 0.6 2.3 5.4
v 0.6 2.4 5.4
v 0.7 1.1 5.4
v 0.7 1.2 5.4
v 0.7 2.2 5.4
v 0.7 2.3 5.4
v -0.7 1.3 5.3
v -0.7 1.4 5.3
v -0.6 1.3 5.3
v -0.6 1.4 5.3
v -0.7 1.1 5.2
v -0.7 1.2 5.2
v -0.6 1.1 5.2
v -0.6 1.2 5.2
v 0.6 1.3 5.2
v 0.6 1.4 5.2
v 0.7 1.3 5.2
v 0.7 1.4 5.2
v -0.7 1.3 5.1
v -0.7 1.4 5.1
v -0.6 1.3 5.1
v -0.6 1.4 5.1
v 0.6 1.1 5.1
v 0.6 1.2 5.1
v 0.7 1.1 5.1
v 0.7 1.2 5.1
v -0.7 1.1 5
v -0.7 1.3 5
v -0.6 1.1 5
v -0.6 1.3 5
v -0.6 1.4 5
v 0.6 1.1 5
v 0.6 1.2 5
v 0.6 1.4 5
v 0.7 1.2 5
v 0.7 1.4 5
v 0.6 0.9 3.3
v 0.6 1 3.3
v 0.6 2 3.3
v 0.6 2.1 3.3
v 0.7 0.9 3.3
v 0.7 1 3.3
v 0.7 2 3.3
v 0.7 2.1 3.3
v 0.8 1 3.3
v 0.8 2 3.3
v 0.7 0.9 2.3
v 0.7 1 2.3
v 0.7 2 2.3
v 0.7 2.1 2.3
v 0.8 0.9 2.3
v 0.8 1 2.3
v 0.8 2 2.3
v 0.8 2.1 2.3
v 0.9 1 2.3
v 0.9 2 2.3
v -0.5 0.9 1.9
v -0.5 1 1.9
v -0.4 0.8 1.9
v -0.4 0.9 1.9
v -0.4 1 1.9
v 0.6 0.8 1.9
v 0.6 0.9 1.9
v 0.6 0.8 1.8
v 0.6 0.9 1.8
v 0.8 0.8 1.8
v 0.8 0.9 1.8
v 0.8 1 1.8
v 0.9 0.9 1.8
v 0.9 1 1.8
v 0.8 0.8 1.3
v 0.8 0.9 1.3
v 0.8 1.9 1.3
v 0.8 2 1.3
v 0.9 0.8 1.3
v 0.9 0.9 1.3
v 0.9 1.9 1.3
v 0.9 2 1.3
v 1 0.9 1.3
v 1 1.9 1.3
v -0.4 0.8 0.7
v -0.4 0.9 0.7
v -0.3 0.7 0.7
v -0.3 0.8 0.7
v -0.3 0.9 0.7
v 0.6 0.7 0.7
v 0.6 0.8 0.7
v 0.6 0.7 0.6
v 0.6 0.8 0.6
v 0.9 0.7 0.6
v 0.9 0.8 0.6
v 0.9 0.9 0.6
v 1 0.8 0.6
v 1 0.9 0.6
v -0.4 1.7 -0.3
v -0.4 1.8 -0.3
v -0.3 1.7 -0.3
v -0.3 1.8 -0.3
v -0.3 1.9 -0.3
v 0.7 1.7 -0.3
v 0.7 1.8 -0.3
v 0.7 1.9 -0.3
v 0.8 1.7 -0.3
v 0.8 1.8 -0.3
v -0.5 1 -0.5
v -0.5 1.8 -0.5
v -0.4 0.9 -0.5
v -0.4 1 -0.5
v -0.4 1.8 -0.5
v -0.4 1.9 -0.5
v -0.3 0.9 -0.5
v -0.3 1 -0.5
v -0.3 1.8 -0.5
v -0.3 1.9 -0.5
v -0.6 1 -1.5
v -0.6 1.8 -1.5
v -0.5 0.9 -1.5
v -0.5 1 -1.5
v -0.5 1.8 -1.5
v -0.5 1.9 -1.5
v -0.4 0.9 -1.5
v -0.4 1 -1.5
v -0.4 1.8 -1.5
v -0.4 1.9 -1.5
v -0.6 1.8 -1.7
v -0.6 1.9 -1.7
v -0.5 1.8 -1.7
v -0.5 1.9 -1.7
v -0.5 2 -1.7
v 0.5 1.9 -1.7
v 0.5 2 -1.7
v 0.5 1.8 -1.8
v 0.5 1.9 -1.8
v 0.6 1.8 -1.8
v 0.6 1.9 -1.8
v -0.6 1.8 -2.9
v -0.6 1.9 -2.9
v -0.5 1.8 -2.9
v -0.5 1.9 -2.9
v -0.5 2 -2.9
v -0.2 1.9 -2.9
v -0.2 2 -2.9
v -0.2 1.9 -3
v -0.2 2 -3
v 0.3 1.8 -3
v 0.3 1.9 -3
v 0.3 2 -3
v 0.4 1.8 -3
v 0.4 1.9 -3
v -0.7 1.3 -3.1
v -0.7 1.9 -3.1
v -0.6 1.2 -3.1
v -0.6 1.3 -3.1
v -0.6 1.9 -3.1
v -0.6 2 -3.1
v -0.5 1.2 -3.1
v -0.5 1.3 -3.1
v -0.5 1.9 -3.1
v -0.5 2 -3.1
v 0.1 1.3 -4.1
v 0.1 1.4 -4.1
v 0.1 1.8 -4.1
v 0.1 1.9 -4.1
v 0.2 1.3 -4.1
v 0.2 1.4 -4.1
v 0.2 1.8 -4.1
v 0.2 1.9 -4.1
v 0.3 1.4 -4.1
v 0.3 1.8 -4.1
v -0.5 1.3 -4.4
v -0.5 1.4 -4.4
v -0.4 1.2 -4.4
v -0.4 1.3 -4.4
v -0.4 1.4 -4.4
v -0.3 1.2 -4.4
v -0.3 1.3 -4.4
v -0.3 1.2 -4.5
v -0.3 1.3 -4.5
v 0.2 1.2 -4.5
v 0.2 1.3 -4.5
v 0.2 1.4 -4.5
v 0.3 1.3 -4.5
v 0.3 1.4 -4.5
v 0.1 1.3 -5.2
v 0.1 1.4 -5.2
v 0.1 1.6 -5.2
v 0.1 1.7 -5.2
v 0.2 1.3 -5.2
v 0.2 1.4 -5.2
v 0.2 1.6 -5.2
v 0.2 1.7 -5.2
v 0.3 1.4 -5.2
v 0.3 1.6 -5.2
v -0.3 1.3 -5.4
v -0.3 1.4 -5.4
v -0.2 1.2 -5.4
v -0.2 1.3 -5.4
v -0.2 1.4 -5.4
v -0.1 1.2 -5.4
v -0.1 1.3 -5.4
v -0.1 1.2 -5.5
v -0.1 1.3 -5.5
v 0.2 1.2 -5.5
v 0.2 1.3 -5.5
v 0.2 1.3 -5.6
v 0.2 1.4 -5.6
v 0.3 1.3 -5.6
v 0.3 1.4 -5.6
v -0.2 1.1 6.1
v -0.2 1.2 6.1
v -0.1 1.1 6.1
v -0.1 1.2 6.1
v -0.1 1.3 6.1
v -0.1 1.4 6.1
v 0 1.1 6.1
v 0 1.2 6.1
v 0 1.3 6.1
v 0 1.4 6.1
v 0.1 1.1 6.1
v 0.1 1.2 6.1
v 0.1 1.3 6.1
v 0.1 1.4 6.1
v 0.2 1.3 6.1
v 0.2 1.4 6.1
v -0.3 1.3 6
v -0.3 1.4 6
v -0.2 1.3 6
v -0.2 1.4 6
v 0.2 1.3 6
v 0.2 1.4 6
v 0.3 1.3 6
v 0.3 1.4 6
v -0.5 1.3 5.9
v -0.5 1.4 5.9
v -0.4 1.1 5.9
v -0.4 1.2 5.9
v -0.4 1.3 5.9
v -0.4 1.4 5.9
v -0.3 1.1 5.9
v -0.3 1.2 5.9
v 0.3 1.1 5.9
v 0.3 1.2 5.9
v 0.4 1.1 5.9
v 0.4 1.2 5.9
v 0.4 1.3 5.9
v 0.4 1.4 5.9
v 0.5 1.3 5.9
v 0.5 1.4 5.9
v -0.6 1.3 5.8
v -0.6 1.4 5.8
v -0.5 1.3 5.8
v -0.5 1.4 5.8
v 0.5 1.1 5.8
v 0.5 1.2 5.8
v 0.6 1.1 5.8
v 0.6 1.2 5.8
v -0.6 1.1 5.7
v -0.6 1.2 5.7
v -0.5 1.1 5.7
v -0.5 1.2 5.7
v 0.5 1.3 5.7
v 0.5 1.4 5.7
v 0.6 1.3 5.7
v 0.6 1.4 5.7
v -0.7 1.3 5.6
v -0.7 1.4 5.6
v -0.6 1.3 5.6
v -0.6 1.4 5.6
v 0.6 1.1 5.6
v 0.6 1.2 5.6
v 0.7 1.1 5.6
v 0.7 1.2 5.6
v -0.7 1.1 5.5
v -0.7 1.2 5.5
v -0.6 1.1 5.5
v -0.6 1.2 5.5
v -0.7 1.3 5.4
v -0.7 1.4 5.4
v -0.6 1.3 5.4
v -0.6 1.4 5.4
v 0.6 1.3 5.4
v 0.6 1.4 5.4
v 0.7 1.3 5.4
v 0.7 1.4 5.4
v -0.7 1.1 5.3
v -0.7 1.2 5.3
v -0.6 1.1 5.3
v -0.6 1.2 5.3
v -0.7 1.3 5.2
v -0.7 1.4 5.2
v -0.6 1.3 5.2
v -0.6 1.4 5.2
v 0.6 1.1 5.2
v 0.6 1.2 5.2
v 0.7 1.1 5.2
v 0.7 1.2 5.2
v -0.7 1.1 5.1
v -0.7 1.2 5.1
v -0.6 1.1 5.1
v -0.6 1.2 5.1
v 0.6 1.3 5.1
v 0.6 1.4 5.1
v 0.7 1.3 5.1
v 0.7 1.4 5.1
v -0.5 2.3 4.6
v -0.5 2.4 4.6
v 0.6 2.2 4.6
v 0.6 2.3 4.6
v 0.6 2.4 4.6
v 0.7 2.2 4.6
v 0.7 2.3 4.6
v -0.7 0.8 4.5
v -0.7 0.9 4.5
v -0.6 0.8 4.5
v -0.6 0.9 4.5
v 0.6 0.8 4.5
v 0.6 0.9 4.5
v 0.7 0.8 4.5
v 0.7 0.9 4.5
v -0.7 0.9 4.4
v -0.7 1 4.4
v -0.6 0.9 4.4
v -0.6 1 4.4
v 0.6 0.9 4.4
v 0.6 1 4.4
v 0.7 0.9 4.4
v 0.7 1 4.4
v -0.7 2.1 4.3
v -0.7 2.2 4.3
v -0.6 0.8 4.3
v -0.6 0.9 4.3
v -0.6 2.1 4.3
v -0.6 2.2 4.3
v -0.6 2.3 4.3
v 0.6 0.8 4.3
v 0.6 0.9 4.3
v 0.6 2.1 4.3
v 0.6 2.2 4.3
v 0.6 2.3 4.3
v 0.7 2.1 4.3
v 0.7 2.2 4.3
v -0.7 2 3.7
v -0.7 2.1 3.7
v -0.6 2 3.7
v -0.6 2.1 3.7
v -0.6 2.2 3.7
v 0.6 2 3.7
v 0.6 2.1 3.7
v 0.6 2.2 3.7
v 0.7 2 3.7
v 0.7 2.1 3.7
v -0.7 1 3.2
v -0.7 2 3.2
v -0.6 0.9 3.2
v -0.6 1 3.2
v -0.6 2 3.2
v -0.6 2.1 3.2
v -0.5 0.9 3.2
v -0.5 1 3.2
v -0.5 2 3.2
v -0.5 2.1 3.2
v -0.6 1 2.1
v -0.6 2 2.1
v -0.5 0.9 2.1
v -0.5 1 2.1
v -0.5 2 2.1
v -0.5 2.1 2.1
v -0.4 0.9 2.1
v -0.4 1 2.1
v -0.4 2 2.1
v -0.4 2.1 2.1
v -0.5 1.9 1.9
v -0.5 2 1.9
v -0.4 1.9 1.9
v -0.4 2 1.9
v -0.4 2.1 1.9
v 0.6 2 1.9
v 0.6 2.1 1.9
v 0.6 2 1.8
v 0.6 2.1 1.8
v 0.8 1.9 1.8
v 0.8 2 1.8
v 0.8 2.1 1.8
v 0.9 1.9 1.8
v 0.9 2 1.8
v -0.5 0.9 1.2
v -0.5 1.9 1.2
v -0.4 0.8 1.2
v -0.4 0.9 1.2
v -0.4 1.9 1.2
v -0.4 2 1.2
v -0.3 0.8 1.2
v -0.3 0.9 1.2
v -0.3 1.9 1.2
v -0.3 2 1.2
v -0.4 1.8 0.7
v -0.4 1.9 0.7
v -0.3 1.8 0.7
v -0.3 1.9 0.7
v -0.3 2 0.7
v 0.6 1.9 0.7
v 0.6 2 0.7
v 0.6 1.9 0.6
v 0.6 2 0.6
v 0.9 1.8 0.6
v 0.9 1.9 0.6
v 0.9 2 0.6
v 1 1.8 0.6
v 1 1.9 0.6
v -0.4 0.8 0.3
v -0.4 0.9 0.3
v -0.4 1.7 0.3
v -0.4 1.8 0.3
v -0.3 0.7 0.3
v -0.3 0.8 0.3
v -0.3 0.9 0.3
v -0.3 1.7 0.3
v -0.3 1.8 0.3
v -0.3 1.9 0.3
v 0.7 0.8 0.3
v 0.7 0.9 0.3
v 0.7 1.7 0.3
v 0.7 1.8 0.3
v 0.8 0.9 0.3
v 0.8 1.7 0.3
v 0.9 0.7 0.3
v 0.9 0.8 0.3
v 0.9 1.8 0.3
v 0.9 1.9 0.3
v 1 0.8 0.3
v 1 1.8 0.3
v -0.4 0.9 -0.3
v -0.4 1 -0.3
v -0.3 0.8 -0.3
v -0.3 0.9 -0.3
v -0.3 1 -0.3
v 0.7 0.8 -0.3
v 0.7 0.9 -0.3
v 0.7 1 -0.3
v 0.8 0.9 -0.3
v 0.8 1 -0.3
v 0.6 0.9 -0.7
v 0.6 1 -0.7
v 0.6 1.8 -0.7
v 0.6 1.9 -0.7
v 0.7 0.9 -0.7
v 0.7 1 -0.7
v 0.7 1.8 -0.7
v 0.7 1.9 -0.7
v 0.8 1 -0.7
v 0.8 1.8 -0.7
v 0.5 0.9 -1.6
v 0.5 1 -1.6
v 0.5 1.8 -1.6
v 0.5 1.9 -1.6
v 0.6 0.9 -1.6
v 0.6 1 -1.6
v 0.6 1.8 -1.6
v 0.6 1.9 -1.6
v 0.7 1 -1.6
v 0.7 1.8 -1.6
v -0.6 1 -1.7
v -0.6 1.1 -1.7
v -0.5 0.9 -1.7
v -0.5 1 -1.7
v -0.5 1.1 -1.7
v 0.5 0.9 -1.7
v 0.5 1 -1.7
v 0.5 1 -1.8
v 0.5 1.1 -1.8
v 0.6 1 -1.8
v 0.6 1.1 -1.8
v -0.6 1.1 -2.2
v -0.6 1.2 -2.2
v -0.6 1.8 -2.2
v -0.6 1.9 -2.2
v -0.5 1 -2.2
v -0.5 1.1 -2.2
v -0.5 1.2 -2.2
v -0.5 1.8 -2.2
v -0.5 1.9 -2.2
v -0.5 2 -2.2
v 0.4 1.1 -2.2
v 0.4 1.2 -2.2
v 0.4 1.8 -2.2
v 0.4 1.9 -2.2
v 0.5 1 -2.2
v 0.5 1.1 -2.2
v 0.5 1.2 -2.2
v 0.5 1.8 -2.2
v 0.5 1.9 -2.2
v 0.5 2 -2.2
v 0.6 1.1 -2.2
v 0.6 1.9 -2.2
v 0.3 1.1 -2.4
v 0.3 1.2 -2.4
v 0.3 1.8 -2.4
v 0.3 1.9 -2.4
v 0.4 1.1 -2.4
v 0.4 1.2 -2.4
v 0.4 1.8 -2.4
v 0.4 1.9 -2.4
v 0.5 1.2 -2.4
v 0.5 1.8 -2.4
v -0.6 1.2 -2.9
v -0.6 1.3 -2.9
v -0.5 1.1 -2.9
v -0.5 1.2 -2.9
v -0.5 1.3 -2.9
v -0.2 1.1 -2.9
v -0.2 1.2 -2.9
v -0.2 1.1 -3
v -0.2 1.2 -3
v 0.3 1.1 -3
v 0.3 1.2 -3
v 0.3 1.3 -3
v 0.4 1.2 -3
v 0.4 1.3 -3
v 0.2 1.2 -3.3
v 0.2 1.3 -3.3
v 0.2 1.9 -3.3
v 0.2 2 -3.3
v 0.3 1.2 -3.3
v 0.3 1.3 -3.3
v 0.3 1.9 -3.3
v 0.3 2 -3.3
v 0.4 1.3 -3.3
v 0.4 1.9 -3.3
v -0.7 1.3 -3.9
v -0.7 1.9 -3.9
v -0.6 1.2 -3.9
v -0.6 1.3 -3.9
v -0.6 1.4 -3.9
v -0.6 1.8 -3.9
v -0.6 1.9 -3.9
v -0.6 2 -3.9
v -0.5 1.3 -3.9
v -0.5 1.4 -3.9
v -0.5 1.8 -3.9
v -0.5 1.9 -3.9
v 0.1 1.3 -3.9
v 0.1 1.4 -3.9
v 0.1 1.8 -3.9
v 0.1 1.9 -3.9
v 0.2 1.2 -3.9
v 0.2 1.3 -3.9
v 0.2 1.4 -3.9
v 0.2 1.8 -3.9
v 0.2 1.9 -3.9
v 0.2 2 -3.9
v 0.3 1.3 -3.9
v 0.3 1.9 -3.9
v -0.6 1.4 -4.2
v -0.6 1.8 -4.2
v -0.5 1.3 -4.2
v -0.5 1.4 -4.2
v -0.5 1.8 -4.2
v -0.5 1.9 -4.2
v -0.4 1.3 -4.2
v -0.4 1.4 -4.2
v -0.4 1.8 -4.2
v -0.4 1.9 -4.2
v -0.5 1.7 -4.4
v -0.5 1.8 -4.4
v -0.4 1.7 -4.4
v -0.4 1.8 -4.4
v -0.4 1.9 -4.4
v -0.3 1.8 -4.4
v -0.3 1.9 -4.4
v -0.3 1.8 -4.5
v -0.3 1.9 -4.5
v 0.2 1.7 -4.5
v 0.2 1.8 -4.5
v 0.2 1.9 -4.5
v 0.3 1.7 -4.5
v 0.3 1.8 -4.5
v -0.5 1.3 -4.9
v -0.5 1.7 -4.9
v -0.4 1.2 -4.9
v -0.4 1.3 -4.9
v -0.4 1.4 -4.9
v -0.4 1.6 -4.9
v -0.4 1.7 -4.9
v -0.4 1.8 -4.9
v -0.3 1.3 -4.9
v -0.3 1.4 -4.9
v -0.3 1.6 -4.9
v -0.3 1.7 -4.9
v 0.1 1.3 -4.9
v 0.1 1.4 -4.9
v 0.1 1.6 -4.9
v 0.1 1.7 -4.9
v 0.2 1.2 -4.9
v 0.2 1.3 -4.9
v 0.2 1.4 -4.9
v 0.2 1.6 -4.9
v 0.2 1.7 -4.9
v 0.2 1.8 -4.9
v 0.3 1.3 -4.9
v 0.3 1.7 -4.9
v -0.4 1.4 -5.2
v -0.4 1.6 -5.2
v -0.3 1.3 -5.2
v -0.3 1.4 -5.2
v -0.3 1.6 -5.2
v -0.3 1.7 -5.2
v -0.2 1.3 -5.2
v -0.2 1.4 -5.2
v -0.2 1.6 -5.2
v -0.2 1.7 -5.2
v -0.3 1.5 -5.4
v -0.3 1.6 -5.4
v -0.2 1.5 -5.4
v -0.2 1.6 -5.4
v -0.2 1.7 -5.4
v -0.1 1.6 -5.4
v -0.1 1.7 -5.4
v -0.1 1.6 -5.5
v -0.1 1.7 -5.5
v 0.2 1.6 -5.5
v 0.2 1.7 -5.5
v 0.2 1.5 -5.6
v 0.2 1.6 -5.6
v 0.3 1.5 -5.6
v 0.3 1.6 -5.6
v -0.3 1.3 -5.8
v -0.3 1.5 -5.8
v -0.2 1.2 -5.8
v -0.2 1.3 -5.8
v -0.2 1.4 -5.8
v -0.2 1.5 -5.8
v -0.2 1.6 -5.8
v -0.1 1.2 -5.8
v -0.1 1.3 -5.8
v -0.1 1.4 -5.8
v -0.1 1.5 -5.8
v 0.1 1.2 -5.8
v 0.1 1.3 -5.8
v 0.1 1.4 -5.8
v 0.1 1.5 -5.8
v 0.2 1.2 -5.8
v 0.2 1.3 -5.8
v 0.2 1.4 -5.8
v 0.2 1.5 -5.8
v 0.2 1.6 -5.8
v 0.3 1.3 -5.8
v 0.3 1.5 -5.8
v -0.2 1.3 -6.2
v -0.2 1.4 -6.2
v -0.1 1.2 -6.2
v -0.1 1.3 -6.2
v -0.1 1.4 -6.2
v -0.1 1.5 -6.2
v 0.1 1.2 -6.2
v 0.1 1.3 -6.2
v 0.1 1.4 -6.2
v 0.1 1.5 -6.2
v 0.2 1.3 -6.2
v 0.2 1.4 -6.2
v -0.1 1.3 -6.3
v -0.1 1.4 -6.3
v 0.1 1.3 -6.3
v 0.1 1.4 -6.3
v -0.3 0.7 0.7
v 0.6 0.7 0.7
v 0.6 0.7 0.6
v 0.9 0.7 0.6
v -0.3 0.7 0.3
v 0.9 0.7 0.3
v -0.2 0.8 6.1
v 0.2 0.8 6.1
v -0.3 0.8 6
v -0.2 0.8 6
v 0.2 0.8 6
v 0.3 0.8 6
v -0.5 0.8 5.9
v -0.3 0.8 5.9
v 0.3 0.8 5.9
v 0.5 0.8 5.9
v 0.5 0.8 5.8
v 0.6 0.8 5.8
v -0.6 0.8 5.7
v -0.5 0.8 5.7
v -0.7 0.8 5.6
v -0.6 0.8 5.6
v 0.6 0.8 5.6
v 0.7 0.8 5.6
v -0.7 0.8 4.5
v -0.6 0.8 4.5
v 0.6 0.8 4.5
v 0.7 0.8 4.5
v -0.6 0.8 4.3
v 0.6 0.8 4.3
v -0.4 0.8 1.9
v 0.6 0.8 1.9
v 0.6 0.8 1.8
v 0.8 0.8 1.8
v 0.8 0.8 1.3
v 0.9 0.8 1.3
v -0.4 0.8 1.2
v -0.3 0.8 1.2
v -0.4 0.8 0.7
v -0.3 0.8 0.7
v 0.6 0.8 0.7
v 0.6 0.8 0.6
v 0.9 0.8 0.6
v 1 0.8 0.6
v -0.4 0.8 0.3
v -0.3 0.8 0.3
v 0.7 0.8 0.3
v 0.9 0.8 0.3
v 1 0.8 0.3
v -0.3 0.8 -0.3
v 0.7 0.8 -0.3
v -0.2 0.9 6.2
v 0.2 0.9 6.2
v -0.3 0.9 6.1
v -0.2 0.9 6.1
v 0.2 0.9 6.1
v 0.3 0.9 6.1
v -0.5 0.9 6
v -0.3 0.9 6
v -0.2 0.9 6
v 0.2 0.9 6
v 0.3 0.9 6
v 0.5 0.9 6
v -0.6 0.9 5.9
v -0.5 0.9 5.9
v -0.3 0.9 5.9
v 0.3 0.9 5.9
v 0.5 0.9 5.9
v 0.6 0.9 5.9
v 0.5 0.9 5.8
v 0.6 0.9 5.8
v -0.7 0.9 5.7
v -0.6 0.9 5.7
v -0.5 0.9 5.7
v 0.6 0.9 5.7
v 0.7 0.9 5.7
v -0.7 0.9 5.6
v -0.6 0.9 5.6
v 0.6 0.9 5.6
v 0.7 0.9 5.6
v -0.7 0.9 4.5
v -0.6 0.9 4.5
v 0.6 0.9 4.5
v 0.7 0.9 4.5
v -0.7 0.9 4.4
v -0.6 0.9 4.4
v 0.6 0.9 4.4
v 0.7 0.9 4.4
v -0.6 0.9 4.3
v 0.6 0.9 4.3
v 0.6 0.9 3.3
v 0.7 0.9 3.3
v -0.6 0.9 3.2
v -0.5 0.9 3.2
v 0.7 0.9 2.3
v 0.8 0.9 2.3
v -0.5 0.9 2.1
v -0.4 0.9 2.1
v -0.5 0.9 1.9
v -0.4 0.9 1.9
v 0.6 0.9 1.9
v 0.6 0.9 1.8
v 0.8 0.9 1.8
v 0.9 0.9 1.8
v 0.8 0.9 1.3
v 0.9 0.9 1.3
v 1 0.9 1.3
v -0.5 0.9 1.2
v -0.4 0.9 1.2
v -0.3 0.9 1.2
v -0.4 0.9 0.7
v -0.3 0.9 0.7
v 0.9 0.9 0.6
v 1 0.9 0.6
v -0.4 0.9 0.3
v -0.3 0.9 0.3
v 0.7 0.9 0.3
v 0.8 0.9 0.3
v -0.4 0.9 -0.3
v -0.3 0.9 -0.3
v 0.7 0.9 -0.3
v 0.8 0.9 -0.3
v -0.4 0.9 -0.5
v -0.3 0.9 -0.5
v 0.6 0.9 -0.7
v 0.7 0.9 -0.7
v -0.5 0.9 -1.5
v -0.4 0.9 -1.5
v 0.5 0.9 -1.6
v 0.6 0.9 -1.6
v -0.5 0.9 -1.7
v 0.5 0.9 -1.7
v -0.7 1 4.4
v -0.6 1 4.4
v 0.6 1 4.4
v 0.7 1 4.4
v 0.6 1 3.3
v 0.7 1 3.3
v 0.8 1 3.3
v -0.7 1 3.2
v -0.6 1 3.2
v -0.5 1 3.2
v 0.7 1 2.3
v 0.8 1 2.3
v 0.9 1 2.3
v -0.6 1 2.1
v -0.5 1 2.1
v -0.4 1 2.1
v -0.5 1 1.9
v -0.4 1 1.9
v 0.8 1 1.8
v 0.9 1 1.8
v -0.4 1 -0.3
v -0.3 1 -0.3
v 0.7 1 -0.3
v 0.8 1 -0.3
v -0.5 1 -0.5
v -0.4 1 -0.5
v -0.3 1 -0.5
v 0.6 1 -0.7
v 0.7 1 -0.7
v 0.8 1 -0.7
v -0.6 1 -1.5
v -0.5 1 -1.5
v -0.4 1 -1.5
v 0.5 1 -1.6
v 0.6 1 -1.6
v 0.7 1 -1.6
v -0.6 1 -1.7
v -0.5 1 -1.7
v 0.5 1 -1.7
v 0.5 1 -1.8
v 0.6 1 -1.8
v -0.5 1 -2.2
v 0.5 1 -2.2
v -0.6 1.1 -1.7
v -0.5 1.1 -1.7
v 0.5 1.1 -1.8
v 0.6 1.1 -1.8
v -0.6 1.1 -2.2
v -0.5 1.1 -2.2
v 0.4 1.1 -2.2
v 0.5 1.1 -2.2
v 0.6 1.1 -2.2
v 0.3 1.1 -2.4
v 0.4 1.1 -2.4
v -0.5 1.1 -2.9
v -0.2 1.1 -2.9
v -0.2 1.1 -3
v 0.3 1.1 -3
v -0.6 1.2 -2.2
v -0.5 1.2 -2.2
v 0.4 1.2 -2.2
v 0.5 1.2 -2.2
v 0.3 1.2 -2.4
v 0.4 1.2 -2.4
v 0.5 1.2 -2.4
v -0.6 1.2 -2.9
v -0.5 1.2 -2.9
v -0.2 1.2 -2.9
v -0.2 1.2 -3
v 0.3 1.2 -3
v 0.4 1.2 -3
v -0.6 1.2 -3.1
v -0.5 1.2 -3.1
v 0.2 1.2 -3.3
v 0.3 1.2 -3.3
v -0.6 1.2 -3.9
v 0.2 1.2 -3.9
v -0.4 1.2 -4.4
v -0.3 1.2 -4.4
v -0.3 1.2 -4.5
v 0.2 1.2 -4.5
v -0.4 1.2 -4.9
v 0.2 1.2 -4.9
v -0.2 1.2 -5.4
v -0.1 1.2 -5.4
v -0.1 1.2 -5.5
v 0.2 1.2 -5.5
v -0.2 1.2 -5.8
v -0.1 1.2 -5.8
v 0.1 1.2 -5.8
v 0.2 1.2 -5.8
v -0.1 1.2 -6.2
v 0.1 1.2 -6.2
v -0.1 1.3 6.2
v 0 1.3 6.2
v 0.1 1.3 6.2
v 0.2 1.3 6.2
v -0.3 1.3 6.1
v -0.2 1.3 6.1
v -0.1 1.3 6.1
v 0 1.3 6.1
v 0.1 1.3 6.1
v 0.2 1.3 6.1
v 0.3 1.3 6.1
v -0.5 1.3 6
v -0.4 1.3 6
v -0.3 1.3 6
v -0.2 1.3 6
v 0.2 1.3 6
v 0.3 1.3 6
v 0.4 1.3 6
v 0.5 1.3 6
v -0.6 1.3 5.9
v -0.5 1.3 5.9
v -0.4 1.3 5.9
v 0.4 1.3 5.9
v 0.5 1.3 5.9
v -0.6 1.3 5.8
v -0.5 1.3 5.8
v 0.5 1.3 5.8
v 0.6 1.3 5.8
v -0.7 1.3 5.7
v -0.6 1.3 5.7
v 0.5 1.3 5.7
v 0.6 1.3 5.7
v -0.7 1.3 5.6
v -0.6 1.3 5.6
v 0.6 1.3 5.6
v 0.7 1.3 5.6
v -0.7 1.3 5.5
v -0.6 1.3 5.5
v -0.7 1.3 5.4
v -0.6 1.3 5.4
v 0.6 1.3 5.4
v 0.7 1.3 5.4
v -0.7 1.3 5.3
v -0.6 1.3 5.3
v -0.7 1.3 5.2
v -0.6 1.3 5.2
v 0.6 1.3 5.2
v 0.7 1.3 5.2
v -0.7 1.3 5.1
v -0.6 1.3 5.1
v 0.6 1.3 5.1
v 0.7 1.3 5.1
v -0.7 1.3 5
v -0.6 1.3 5
v -0.6 1.3 -2.9
v -0.5 1.3 -2.9
v 0.3 1.3 -3
v 0.4 1.3 -3
v -0.7 1.3 -3.1
v -0.6 1.3 -3.1
v -0.5 1.3 -3.1
v 0.2 1.3 -3.3
v 0.3 1.3 -3.3
v 0.4 1.3 -3.3
v -0.7 1.3 -3.9
v -0.6 1.3 -3.9
v -0.5 1.3 -3.9
v 0.1 1.3 -3.9
v 0.2 1.3 -3.9
v 0.3 1.3 -3.9
v 0.1 1.3 -4.1
v 0.2 1.3 -4.1
v -0.5 1.3 -4.2
v -0.4 1.3 -4.2
v -0.5 1.3 -4.4
v -0.4 1.3 -4.4
v -0.3 1.3 -4.4
v -0.3 1.3 -4.5
v 0.2 1.3 -4.5
v 0.3 1.3 -4.5
v -0.5 1.3 -4.9
v -0.4 1.3 -4.9
v -0.3 1.3 -4.9
v 0.1 1.3 -4.9
v 0.2 1.3 -4.9
v 0.3 1.3 -4.9
v -0.3 1.3 -5.2
v -0.2 1.3 -5.2
v 0.1 1.3 -5.2
v 0.2 1.3 -5.2
v -0.3 1.3 -5.4
v -0.2 1.3 -5.4
v -0.1 1.3 -5.4
v -0.1 1.3 -5.5
v 0.2 1.3 -5.5
v 0.2 1.3 -5.6
v 0.3 1.3 -5.6
v -0.3 1.3 -5.8
v -0.2 1.3 -5.8
v -0.1 1.3 -5.8
v 0.1 1.3 -5.8
v 0.2 1.3 -5.8
v 0.3 1.3 -5.8
v -0.2 1.3 -6.2
v -0.1 1.3 -6.2
v 0.1 1.3 -6.2
v 0.2 1.3 -6.2
v -0.1 1.3 -6.3
v 0.1 1.3 -6.3
v -0.2 1.4 6.2
v -0.1 1.4 6.2
v 0 1.4 6.2
v 0.1 1.4 6.2
v -0.2 1.4 6.1
v -0.1 1.4 6.1
v 0 1.4 6.1
v 0.1 1.4 6.1
v 0.2 1.4 6.1
v -0.4 1.4 6
v -0.3 1.4 6
v -0.2 1.4 6
v 0.2 1.4 6
v 0.3 1.4 6
v 0.4 1.4 6
v -0.5 1.4 5.9
v -0.4 1.4 5.9
v 0.4 1.4 5.9
v 0.5 1.4 5.9
v 0.6 1.4 5.9
v -0.6 1.4 5.8
v -0.5 1.4 5.8
v 0.5 1.4 5.8
v 0.6 1.4 5.8
v -0.6 1.4 5.7
v 0.5 1.4 5.7
v 0.6 1.4 5.7
v 0.7 1.4 5.7
v -0.7 1.4 5.6
v -0.6 1.4 5.6
v 0.6 1.4 5.6
v 0.7 1.4 5.6
v -0.7 1.4 5.5
v -0.6 1.4 5.5
v -0.7 1.4 5.4
v -0.6 1.4 5.4
v 0.6 1.4 5.4
v 0.7 1.4 5.4
v -0.7 1.4 5.3
v -0.6 1.4 5.3
v -0.7 1.4 5.2
v -0.6 1.4 5.2
v 0.6 1.4 5.2
v 0.7 1.4 5.2
v -0.7 1.4 5.1
v -0.6 1.4 5.1
v 0.6 1.4 5.1
v 0.7 1.4 5.1
v -0.6 1.4 5
v 0.6 1.4 5
v 0.7 1.4 5
v -0.6 1.4 -3.9
v -0.5 1.4 -3.9
v 0.1 1.4 -3.9
v 0.2 1.4 -3.9
v 0.1 1.4 -4.1
v 0.2 1.4 -4.1
v 0.3 1.4 -4.1
v -0.6 1.4 -4.2
v -0.5 1.4 -4.2
v -0.4 1.4 -4.2
v -0.5 1.4 -4.4
v -0.4 1.4 -4.4
v 0.2 1.4 -4.5
v 0.3 1.4 -4.5
v -0.4 1.4 -4.9
v -0.3 1.4 -4.9
v 0.1 1.4 -4.9
v 0.2 1.4 -4.9
v -0.4 1.4 -5.2
v -0.3 1.4 -5.2
v -0.2 1.4 -5.2
v 0.1 1.4 -5.2
v 0.2 1.4 -5.2
v 0.3 1.4 -5.2
v -0.3 1.4 -5.4
v -0.2 1.4 -5.4
v 0.2 1.4 -5.6
v 0.3 1.4 -5.6
v -0.1 1.1 6.2
v 0 1.1 6.2
v 0.1 1.1 6.2
v 0.2 1.1 6.2
v -0.3 1.1 6.1
v -0.2 1.1 6.1
v -0.1 1.1 6.1
v 0 1.1 6.1
v 0.1 1.1 6.1
v 0.2 1.1 6.1
v 0.3 1.1 6.1
v -0.5 1.1 6
v -0.4 1.1 6
v -0.3 1.1 6
v 0.3 1.1 6
v 0.4 1.1 6
v 0.5 1.1 6
v -0.6 1.1 5.9
v -0.5 1.1 5.9
v -0.4 1.1 5.9
v -0.3 1.1 5.9
v 0.3 1.1 5.9
v 0.4 1.1 5.9
v 0.5 1.1 5.9
v -0.6 1.1 5.8
v -0.5 1.1 5.8
v 0.5 1.1 5.8
v 0.6 1.1 5.8
v -0.7 1.1 5.7
v -0.6 1.1 5.7
v -0.5 1.1 5.7
v 0.6 1.1 5.7
v -0.7 1.1 5.6
v -0.6 1.1 5.6
v 0.6 1.1 5.6
v 0.7 1.1 5.6
v -0.7 1.1 5.5
v -0.6 1.1 5.5
v -0.7 1.1 5.4
v -0.6 1.1 5.4
v 0.6 1.1 5.4
v 0.7 1.1 5.4
v -0.7 1.1 5.3
v -0.6 1.1 5.3
v -0.7 1.1 5.2
v -0.6 1.1 5.2
v 0.6 1.1 5.2
v 0.7 1.1 5.2
v -0.7 1.1 5.1
v -0.6 1.1 5.1
v 0.6 1.1 5.1
v 0.7 1.1 5.1
v -0.7 1.1 5
v -0.6 1.1 5
v 0.6 1.1 5
v -0.2 1.2 6.2
v -0.1 1.2 6.2
v 0 1.2 6.2
v 0.1 1.2 6.2
v -0.2 1.2 6.1
v -0.1 1.2 6.1
v 0 1.2 6.1
v 0.1 1.2 6.1
v -0.4 1.2 6
v -0.3 1.2 6
v 0.3 1.2 6
v 0.4 1.2 6
v -0.4 1.2 5.9
v -0.3 1.2 5.9
v 0.3 1.2 5.9
v 0.4 1.2 5.9
v 0.5 1.2 5.9
v 0.6 1.2 5.9
v -0.6 1.2 5.8
v -0.5 1.2 5.8
v 0.5 1.2 5.8
v 0.6 1.2 5.8
v -0.6 1.2 5.7
v -0.5 1.2 5.7
v 0.6 1.2 5.7
v 0.7 1.2 5.7
v -0.7 1.2 5.6
v -0.6 1.2 5.6
v 0.6 1.2 5.6
v 0.7 1.2 5.6
v -0.7 1.2 5.5
v -0.6 1.2 5.5
v -0.7 1.2 5.4
v -0.6 1.2 5.4
v 0.6 1.2 5.4
v 0.7 1.2 5.4
v -0.7 1.2 5.3
v -0.6 1.2 5.3
v -0.7 1.2 5.2
v -0.6 1.2 5.2
v 0.6 1.2 5.2
v 0.7 1.2 5.2
v -0.7 1.2 5.1
v -0.6 1.2 5.1
v 0.6 1.2 5.1
v 0.7 1.2 5.1
v 0.6 1.2 5
v 0.7 1.2 5
v -0.2 1.4 -5.8
v -0.1 1.4 -5.8
v 0.1 1.4 -5.8
v 0.2 1.4 -5.8
v -0.2 1.4 -6.2
v -0.1 1.4 -6.2
v 0.1 1.4 -6.2
v 0.2 1.4 -6.2
v -0.1 1.4 -6.3
v 0.1 1.4 -6.3
v -0.3 1.5 -5.4
v -0.2 1.5 -5.4
v 0.2 1.5 -5.6
v 0.3 1.5 -5.6
v -0.3 1.5 -5.8
v -0.2 1.5 -5.8
v -0.1 1.5 -5.8
v 0.1 1.5 -5.8
v 0.2 1.5 -5.8
v 0.3 1.5 -5.8
v -0.1 1.5 -6.2
v 0.1 1.5 -6.2
v -0.4 1.6 -4.9
v -0.3 1.6 -4.9
v 0.1 1.6 -4.9
v 0.2 1.6 -4.9
v -0.4 1.6 -5.2
v -0.3 1.6 -5.2
v -0.2 1.6 -5.2
v 0.1 1.6 -5.2
v 0.2 1.6 -5.2
v 0.3 1.6 -5.2
v -0.3 1.6 -5.4
v -0.2 1.6 -5.4
v -0.1 1.6 -5.4
v -0.1 1.6 -5.5
v 0.2 1.6 -5.5
v 0.2 1.6 -5.6
v 0.3 1.6 -5.6
v -0.2 1.6 -5.8
v 0.2 1.6 -5.8
v -0.4 1.7 0.3
v -0.3 1.7 0.3
v 0.7 1.7 0.3
v 0.8 1.7 0.3
v -0.4 1.7 -0.3
v -0.3 1.7 -0.3
v 0.7 1.7 -0.3
v 0.8 1.7 -0.3
v -0.5 1.7 -4.4
v -0.4 1.7 -4.4
v 0.2 1.7 -4.5
v 0.3 1.7 -4.5
v -0.5 1.7 -4.9
v -0.4 1.7 -4.9
v -0.3 1.7 -4.9
v 0.1 1.7 -4.9
v 0.2 1.7 -4.9
v 0.3 1.7 -4.9
v -0.3 1.7 -5.2
v -0.2 1.7 -5.2
v 0.1 1.7 -5.2
v 0.2 1.7 -5.2
v -0.2 1.7 -5.4
v -0.1 1.7 -5.4
v -0.1 1.7 -5.5
v 0.2 1.7 -5.5
v -0.4 1.8 0.7
v -0.3 1.8 0.7
v 0.9 1.8 0.6
v 1 1.8 0.6
v -0.4 1.8 0.3
v -0.3 1.8 0.3
v 0.7 1.8 0.3
v 0.9 1.8 0.3
v 1 1.8 0.3
v -0.4 1.8 -0.3
v -0.3 1.8 -0.3
v 0.7 1.8 -0.3
v 0.8 1.8 -0.3
v -0.5 1.8 -0.5
v -0.4 1.8 -0.5
v -0.3 1.8 -0.5
v 0.6 1.8 -0.7
v 0.7 1.8 -0.7
v 0.8 1.8 -0.7
v -0.6 1.8 -1.5
v -0.5 1.8 -1.5
v -0.4 1.8 -1.5
v 0.5 1.8 -1.6
v 0.6 1.8 -1.6
v 0.7 1.8 -1.6
v -0.6 1.8 -1.7
v -0.5 1.8 -1.7
v 0.5 1.8 -1.8
v 0.6 1.8 -1.8
v -0.6 1.8 -2.2
v -0.5 1.8 -2.2
v 0.4 1.8 -2.2
v 0.5 1.8 -2.2
v 0.3 1.8 -2.4
v 0.4 1.8 -2.4
v 0.5 1.8 -2.4
v -0.6 1.8 -2.9
v -0.5 1.8 -2.9
v 0.3 1.8 -3
v 0.4 1.8 -3
v -0.6 1.8 -3.9
v -0.5 1.8 -3.9
v 0.1 1.8 -3.9
v 0.2 1.8 -3.9
v 0.1 1.8 -4.1
v 0.2 1.8 -4.1
v 0.3 1.8 -4.1
v -0.6 1.8 -4.2
v -0.5 1.8 -4.2
v -0.4 1.8 -4.2
v -0.5 1.8 -4.4
v -0.4 1.8 -4.4
v -0.3 1.8 -4.4
v -0.3 1.8 -4.5
v 0.2 1.8 -4.5
v 0.3 1.8 -4.5
v -0.4 1.8 -4.9
v 0.2 1.8 -4.9
v -0.5 1.9 1.9
v -0.4 1.9 1.9
v 0.8 1.9 1.8
v 0.9 1.9 1.8
v 0.8 1.9 1.3
v 0.9 1.9 1.3
v 1 1.9 1.3
v -0.5 1.9 1.2
v -0.4 1.9 1.2
v -0.3 1.9 1.2
v -0.4 1.9 0.7
v -0.3 1.9 0.7
v 0.6 1.9 0.7
v 0.6 1.9 0.6
v 0.9 1.9 0.6
v 1 1.9 0.6
v -0.3 1.9 0.3
v 0.9 1.9 0.3
v -0.3 1.9 -0.3
v 0.7 1.9 -0.3
v -0.4 1.9 -0.5
v -0.3 1.9 -0.5
v 0.6 1.9 -0.7
v 0.7 1.9 -0.7
v -0.5 1.9 -1.5
v -0.4 1.9 -1.5
v 0.5 1.9 -1.6
v 0.6 1.9 -1.6
v -0.6 1.9 -1.7
v -0.5 1.9 -1.7
v 0.5 1.9 -1.7
v 0.5 1.9 -1.8
v 0.6 1.9 -1.8
v -0.6 1.9 -2.2
v -0.5 1.9 -2.2
v 0.4 1.9 -2.2
v 0.5 1.9 -2.2
v 0.6 1.9 -2.2
v 0.3 1.9 -2.4
v 0.4 1.9 -2.4
v -0.6 1.9 -2.9
v -0.5 1.9 -2.9
v -0.2 1.9 -2.9
v -0.2 1.9 -3
v 0.3 1.9 -3
v 0.4 1.9 -3
v -0.7 1.9 -3.1
v -0.6 1.9 -3.1
v -0.5 1.9 -3.1
v 0.2 1.9 -3.3
v 0.3 1.9 -3.3
v 0.4 1.9 -3.3
v -0.7 1.9 -3.9
v -0.6 1.9 -3.9
v -0.5 1.9 -3.9
v 0.1 1.9 -3.9
v 0.2 1.9 -3.9
v 0.3 1.9 -3.9
v 0.1 1.9 -4.1
v 0.2 1.9 -4.1
v -0.5 1.9 -4.2
v -0.4 1.9 -4.2
v -0.4 1.9 -4.4
v -0.3 1.9 -4.4
v -0.3 1.9 -4.5
v 0.2 1.9 -4.5
v -0.2 2 6.2
v 0.2 2 6.2
v -0.3 2 6.1
v -0.2 2 6.1
v 0.2 2 6.1
v 0.3 2 6.1
v -0.5 2 6
v -0.3 2 6
v -0.2 2 6
v 0.2 2 6
v 0.3 2 6
v 0.5 2 6
v -0.6 2 5.9
v -0.5 2 5.9
v -0.3 2 5.9
v 0.3 2 5.9
v 0.5 2 5.9
v 0.6 2 5.9
v -0.7 2 5.7
v -0.6 2 5.7
v -0.5 2 5.7
v 0.5 2 5.7
v 0.6 2 5.7
v 0.7 2 5.7
v -0.7 2 5.5
v -0.6 2 5.5
v 0.6 2 5.5
v 0.7 2 5.5
v -0.7 2 3.7
v -0.6 2 3.7
v 0.6 2 3.7
v 0.7 2 3.7
v 0.6 2 3.3
v 0.7 2 3.3
v 0.8 2 3.3
v -0.7 2 3.2
v -0.6 2 3.2
v -0.5 2 3.2
v 0.7 2 2.3
v 0.8 2 2.3
v 0.9 2 2.3
v -0.6 2 2.1
v -0.5 2 2.1
v -0.4 2 2.1
v -0.5 2 1.9
v -0.4 2 1.9
v 0.6 2 1.9
v 0.6 2 1.8
v 0.8 2 1.8
v 0.9 2 1.8
v 0.8 2 1.3
v 0.9 2 1.3
v -0.4 2 1.2
v -0.3 2 1.2
v -0.3 2 0.7
v 0.6 2 0.7
v 0.6 2 0.6
v 0.9 2 0.6
v -0.5 2 -1.7
v 0.5 2 -1.7
v -0.5 2 -2.2
v 0.5 2 -2.2
v -0.5 2 -2.9
v -0.2 2 -2.9
v -0.2 2 -3
v 0.3 2 -3
v -0.6 2 -3.1
v -0.5 2 -3.1
v 0.2 2 -3.3
v 0.3 2 -3.3
v -0.6 2 -3.9
v 0.2 2 -3.9
v -0.2 2.1 6.1
v 0.2 2.1 6.1
v -0.3 2.1 6
v -0.2 2.1 6
v 0.2 2.1 6
v 0.3 2.1 6
v -0.5 2.1 5.9
v -0.3 2.1 5.9
v 0.3 2.1 5.9
v 0.5 2.1 5.9
v -0.6 2.1 5.7
v -0.5 2.1 5.7
v 0.5 2.1 5.7
v 0.6 2.1 5.7
v -0.3 2.1 5.6
v 0.4 2.1 5.6
v -0.6 2.1 5.5
v -0.3 2.1 5.5
v 0.4 2.1 5.5
v 0.6 2.1 5.5
v -0.7 2.1 4.3
v -0.6 2.1 4.3
v 0.6 2.1 4.3
v 0.7 2.1 4.3
v -0.7 2.1 3.7
v -0.6 2.1 3.7
v 0.6 2.1 3.7
v 0.7 2.1 3.7
v 0.6 2.1 3.3
v 0.7 2.1 3.3
v -0.6 2.1 3.2
v -0.5 2.1 3.2
v 0.7 2.1 2.3
v 0.8 2.1 2.3
v -0.5 2.1 2.1
v -0.4 2.1 2.1
v -0.4 2.1 1.9
v 0.6 2.1 1.9
v 0.6 2.1 1.8
v 0.8 2.1 1.8
v -0.3 2.2 5.6
v 0.4 2.2 5.6
v -0.7 2.2 5.5
v -0.5 2.2 5.5
v -0.3 2.2 5.5
v 0.4 2.2 5.5
v 0.6 2.2 5.5
v 0.7 2.2 5.5
v -0.6 2.2 5.4
v -0.5 2.2 5.4
v 0.6 2.2 5.4
v 0.7 2.2 5.4
v 0.6 2.2 4.6
v 0.7 2.2 4.6
v -0.7 2.2 4.3
v -0.6 2.2 4.3
v 0.6 2.2 4.3
v 0.7 2.2 4.3
v -0.6 2.2 3.7
v 0.6 2.2 3.7
v -0.5 2.3 5.5
v 0.6 2.3 5.5
v -0.6 2.3 5.4
v -0.5 2.3 5.4
v 0.6 2.3 5.4
v 0.7 2.3 5.4
v -0.5 2.3 4.6
v 0.6 2.3 4.6
v 0.7 2.3 4.6
v -0.6 2.3 4.3
v 0.6 2.3 4.3
v -0.5 2.4 5.4
v 0.6 2.4 5.4
v -0.5 2.4 4.6
v 0.6 2.4 4.6

# faces
f 4/2/1 2/2/1 1/2/1
f 5/2/1 2/2/1 4/2/1
f 7/2/1 4/2/1 3/2/1
f 7/2/1 6/2/1 5/2/1
f 7/2/1 5/2/1 4/2/1
f 8/2/1 6/2/1 7/2/1
f 9/2/1 6/2/1 8/2/1
f 11/3/1 8/3/1 7/3/1
f 12/3/1 8/3/1 11/3/1
f 13/3/1 8/3/1 12/3/1
f 14/3/1 8/3/1 13/3/1
f 15/3/1 8/3/1 14/3/1
f 16/3/1 8/3/1 15/3/1
f 17/2/1 10/2/1 9/2/1
f 17/3/1 8/3/1 16/3/1
f 17/2/1 9/2/1 8/2/1
f 18/2/1 10/2/1 17/2/1
f 19/2/1 10/2/1 18/2/1
f 20/3/1 13/3/1 12/3/1
f 21/3/1 13/3/1 20/3/1
f 22/3/1 15/3/1 14/3/1
f 23/3/1 15/3/1 22/3/1
f 24/3/1 17/3/1 16/3/1
f 25/3/1 17/3/1 24/3/1
f 33/3/1 19/3/1 18/3/1
f 36/3/1 27/3/1 26/3/1
f 37/3/1 29/3/1 28/3/1
f 38/3/1 29/3/1 37/3/1
f 39/3/1 31/3/1 30/3/1
f 40/3/1 31/3/1 39/3/1
f 41/3/1 33/3/1 32/3/1
f 42/2/1 10/2/1 19/2/1
f 42/3/1 19/3/1 33/3/1
f 42/3/1 33/3/1 41/3/1
f 43/3/1 38/3/1 37/3/1
f 43/3/1 36/3/1 26/3/1
f 43/3/1 37/3/1 36/3/1
f 43/3/1 39/3/1 38/3/1
f 44/2/1 41/2/1 40/2/1
f 44/3/1 39/3/1 43/3/1
f 44/2/1 42/2/1 41/2/1
f 44/2/1 40/2/1 39/2/1
f 45/2/1 44/2/1 43/2/1
f 45/2/1 42/2/1 44/2/1
f 46/2/1 10/2/1 42/2/1
f 46/2/1 42/2/1 45/2/1
f 47/2/1 45/2/1 43/2/1
f 47/1/1 46/1/1 45/1/1
f 48/2/1 10/2/1 46/2/1
f 48/1/1 46/1/1 47/1/1
f 49/2/1 35/2/1 34/2/1
f 50/2/1 35/2/1 49/2/1
f 51/2/1 47/2/1 43/2/1
f 51/2/1 48/2/1 47/2/1
f 52/2/1 48/2/1 51/2/1
f 53/2/1 10/2/1 48/2/1
f 53/2/1 48/2/1 52/2/1
f 54/2/1 10/2/1 53/2/1
f 55/2/1 53/2/1 52/2/1
f 56/2/1 53/2/1 55/2/1
f 57/2/1 55/2/1 52/2/1
f 58/2/1 55/2/1 57/2/1
f 64/2/1 60/2/1 59/2/1
f 65/2/1 60/2/1 64/2/1
f 66/2/1 62/2/1 61/2/1
f 67/2/1 62/2/1 66/2/1
f 68/2/1 62/2/1 67/2/1
f 70/2/1 64/2/1 63/2/1
f 71/2/1 64/2/1 70/2/1
f 72/2/1 69/2/1 68/2/1
f 72/2/1 68/2/1 67/2/1
f 73/2/1 69/2/1 72/2/1
f 77/3/1 71/3/1 70/3/1
f 78/3/1 71/3/1 77/3/1
f 79/3/1 71/3/1 78/3/1
f 80/2/1 76/2/1 75/2/1
f 82/3/1 79/3/1 78/3/1
f 83/3/1 79/3/1 82/3/1
f 84/2/1 81/2/1 80/2/1
f 90/2/1 85/2/1 84/2/1
f 91/2/1 87/2/1 86/2/1
f 92/2/1 87/2/1 91/2/1
f 93/3/1 89/3/1 88/3/1
f 97/3/1 94/3/1 93/3/1
f 97/3/1 93/3/1 88/3/1
f 98/3/1 94/3/1 97/3/1
f 99/2/1 90/2/1 84/2/1
f 99/2/1 80/2/1 75/2/1
f 99/2/1 84/2/1 80/2/1
f 99/2/1 91/2/1 90/2/1
f 100/2/1 91/2/1 99/2/1
f 101/2/1 91/2/1 100/2/1
f 102/2/1 91/2/1 101/2/1
f 103/2/1 96/2/1 95/2/1
f 104/2/1 96/2/1 103/2/1
f 105/2/1 101/2/1 100/2/1
f 106/2/1 101/2/1 105/2/1
f 107/2/1 91/2/1 102/2/1
f 108/2/1 91/2/1 107/2/1
f 110/2/1 98/2/1 97/2/1
f 111/2/1 98/2/1 110/2/1
f 114/2/1 74/2/1 73/2/1
f 115/2/1 74/2/1 114/2/1
f 116/2/1 109/2/1 108/2/1
f 117/2/1 109/2/1 116/2/1
f 118/2/1 112/2/1 111/2/1
f 119/2/1 112/2/1 118/2/1
f 121/2/1 114/2/1 113/2/1
f 122/2/1 114/2/1 121/2/1
f 124/2/1 121/2/1 120/2/1
f 125/2/1 121/2/1 124/2/1
f 126/2/1 124/2/1 123/2/1
f 127/2/1 124/2/1 126/2/1
f 131/2/1 129/2/1 128/2/1
f 132/2/1 129/2/1 131/2/1
f 139/2/1 131/2/1 130/2/1
f 140/2/1 131/2/1 139/2/1
f 141/2/1 134/2/1 133/2/1
f 142/2/1 134/2/1 141/2/1
f 143/2/1 136/2/1 135/2/1
f 145/2/1 138/2/1 137/2/1
f 146/2/1 138/2/1 145/2/1
f 148/3/1 140/3/1 139/3/1
f 149/3/1 140/3/1 148/3/1
f 150/2/1 147/2/1 146/2/1
f 151/2/1 147/2/1 150/2/1
f 153/2/1 152/2/1 151/2/1
f 154/2/1 152/2/1 153/2/1
f 158/2/1 155/2/1 154/2/1
f 159/2/1 155/2/1 158/2/1
f 164/2/1 161/2/1 160/2/1
f 165/2/1 161/2/1 164/2/1
f 166/2/1 163/2/1 162/2/1
f 167/3/1 157/3/1 156/3/1
f 168/3/1 157/3/1 167/3/1
f 169/2/1 166/2/1 165/2/1
f 169/2/1 163/2/1 166/2/1
f 170/2/1 163/2/1 169/2/1
f 171/2/1 145/2/1 144/2/1
f 172/2/1 145/2/1 171/2/1
f 177/2/1 169/2/1 165/2/1
f 178/2/1 169/2/1 177/2/1
f 179/2/1 143/2/1 142/2/1
f 179/2/1 136/2/1 143/2/1
f 180/2/1 136/2/1 179/2/1
f 181/2/1 173/2/1 172/2/1
f 182/2/1 173/2/1 181/2/1
f 183/2/1 175/2/1 174/2/1
f 184/2/1 175/2/1 183/2/1
f 186/2/1 177/2/1 176/2/1
f 187/2/1 177/2/1 186/2/1
f 188/2/1 168/2/1 167/2/1
f 189/2/1 168/2/1 188/2/1
f 192/2/1 179/2/1 142/2/1
f 193/2/1 179/2/1 192/2/1
f 194/2/1 183/2/1 182/2/1
f 195/2/1 183/2/1 194/2/1
f 196/2/1 185/2/1 184/2/1
f 197/2/1 185/2/1 196/2/1
f 198/2/1 190/2/1 189/2/1
f 199/2/1 190/2/1 198/2/1
f 200/2/1 192/2/1 191/2/1
f 201/2/1 192/2/1 200/2/1
f 204/2/1 203/2/1 202/2/1
f 205/2/1 203/2/1 204/2/1
f 207/2/1 206/2/1 205/2/1
f 208/2/1 206/2/1 207/2/1
f 214/2/1 210/2/1 209/2/1
f 215/2/1 210/2/1 214/2/1
f 216/2/1 212/2/1 211/2/1
f 217/2/1 212/2/1 216/2/1
f 221/2/1 214/2/1 213/2/1
f 222/2/1 214/2/1 221/2/1
f 223/2/1 218/2/1 217/2/1
f 223/2/1 216/2/1 215/2/1
f 223/2/1 217/2/1 216/2/1
f 224/2/1 220/2/1 219/2/1
f 225/2/1 220/2/1 224/2/1
f 228/3/1 227/3/1 226/3/1
f 229/3/1 227/3/1 228/3/1
f 233/2/1 231/2/1 230/2/1
f 234/2/1 231/2/1 233/2/1
f 235/2/1 233/2/1 232/2/1
f 236/2/1 233/2/1 235/2/1
f 239/2/1 238/2/1 237/2/1
f 240/2/1 238/2/1 239/2/1
f 241/2/1 223/2/1 215/2/1
f 241/2/1 224/2/1 223/2/1
f 242/2/1 224/2/1 241/2/1
f 245/2/1 241/2/1 215/2/1
f 246/2/1 241/2/1 245/2/1
f 247/2/1 224/2/1 242/2/1
f 248/2/1 224/2/1 247/2/1
f 251/2/1 244/2/1 243/2/1
f 252/2/1 244/2/1 251/2/1
f 254/2/1 245/2/1 215/2/1
f 255/2/1 245/2/1 254/2/1
f 256/2/1 249/2/1 248/2/1
f 257/2/1 249/2/1 256/2/1
f 258/2/1 251/2/1 250/2/1
f 259/2/1 251/2/1 258/2/1
f 261/2/1 254/2/1 253/2/1
f 262/2/1 254/2/1 261/2/1
f 263/2/1 261/2/1 260/2/1
f 264/2/1 261/2/1 263/2/1
f 270/2/1 266/2/1 265/2/1
f 271/2/1 266/2/1 270/2/1
f 274/2/1 268/2/1 267/2/1
f 275/2/1 268/2/1 274/2/1
f 276/2/1 270/2/1 269/2/1
f 277/2/1 270/2/1 276/2/1
f 278/2/1 272/2/1 271/2/1
f 279/2/1 272/2/1 278/2/1
f 281/2/1 274/2/1 273/2/1
f 282/2/1 274/2/1 281/2/1
f 283/2/1 280/2/1 279/2/1
f 284/2/1 280/2/1 283/2/1
f 285/3/1 282/3/1 281/3/1
f 286/3/1 282/3/1 285/3/1
f 293/3/1 288/3/1 287/3/1
f 294/2/1 290/2/1 289/2/1
f 295/2/1 290/2/1 294/2/1
f 296/2/1 292/2/1 291/2/1
f 297/3/1 293/3/1 287/3/1
f 298/3/1 293/3/1 297/3/1
f 299/2/1 296/2/1 295/2/1
f 299/2/1 292/2/1 296/2/1
f 300/2/1 292/2/1 299/2/1
f 302/2/1 299/2/1 295/2/1
f 303/2/1 299/2/1 302/2/1
f 306/2/1 302/2/1 301/2/1
f 307/2/1 302/2/1 306/2/1
f 309/2/1 305/2/1 304/2/1
f 310/2/1 305/2/1 309/2/1
f 315/2/1 309/2/1 308/2/1
f 316/2/1 309/2/1 315/2/1
f 317/2/1 311/2/1 310/2/1
f 318/2/1 311/2/1 317/2/1
f 319/2/1 313/2/1 312/2/1
f 320/2/1 313/2/1 319/2/1
f 321/2/1 298/2/1 297/2/1
f 322/2/1 298/2/1 321/2/1
f 324/2/1 315/2/1 314/2/1
f 325/2/1 315/2/1 324/2/1
f 326/2/1 323/2/1 322/2/1
f 327/2/1 323/2/1 326/2/1
f 330/2/1 329/2/1 328/2/1
f 331/2/1 329/2/1 330/2/1
f 335/2/1 333/2/1 332/2/1
f 336/2/1 333/2/1 335/2/1
f 337/2/1 335/2/1 334/2/1
f 338/2/1 335/2/1 337/2/1
f 339/3/1 338/3/1 337/3/1
f 342/3/1 339/3/1 337/3/1
f 343/3/1 339/3/1 342/3/1
f 344/2/1 341/2/1 340/2/1
f 345/2/1 341/2/1 344/2/1
f 349/2/1 347/2/1 346/2/1
f 350/2/1 347/2/1 349/2/1
f 354/2/1 349/2/1 348/2/1
f 355/2/1 349/2/1 354/2/1
f 356/2/1 351/2/1 350/2/1
f 357/2/1 351/2/1 356/2/1
f 358/3/1 353/3/1 352/3/1
f 359/3/1 353/3/1 358/3/1
f 363/2/1 361/2/1 360/2/1
f 364/2/1 361/2/1 363/2/1
f 365/2/1 363/2/1 362/2/1
f 366/2/1 363/2/1 365/2/1
f 367/2/1 359/2/1 358/2/1
f 368/2/1 359/2/1 367/2/1
f 370/2/1 369/2/1 368/2/1
f 371/2/1 369/2/1 370/2/1
f 376/2/1 373/2/1 372/2/1
f 377/2/1 373/2/1 376/2/1
f 379/3/1 375/3/1 374/3/1
f 380/3/1 375/3/1 379/3/1
f 382/2/1 378/2/1 377/2/1
f 383/2/1 378/2/1 382/2/1
f 384/2/1 382/2/1 381/2/1
f 385/2/1 382/2/1 384/2/1
f 388/2/1 387/2/1 386/2/1
f 389/2/1 387/2/1 388/2/1
f 392/3/1 391/3/1 390/3/1
f 393/3/1 391/3/1 392/3/1
f 396/3/1 395/3/1 394/3/1
f 397/3/1 395/3/1 396/3/1
f 400/3/1 399/3/1 398/3/1
f 401/3/1 399/3/1 400/3/1
f 404/3/1 403/3/1 402/3/1
f 405/3/1 403/3/1 404/3/1
f 408/3/1 407/3/1 406/3/1
f 409/3/1 407/3/1 408/3/1
f 412/3/1 411/3/1 410/3/1
f 413/3/1 411/3/1 412/3/1
f 416/3/1 415/3/1 414/3/1
f 417/3/1 415/3/1 416/3/1
f 424/3/1 419/3/1 418/3/1
f 425/3/1 419/3/1 424/3/1
f 426/3/1 421/3/1 420/3/1
f 427/3/1 421/3/1 426/3/1
f 428/3/1 423/3/1 422/3/1
f 429/3/1 423/3/1 428/3/1
f 434/3/1 431/3/1 430/3/1
f 435/3/1 431/3/1 434/3/1
f 436/3/1 433/3/1 432/3/1
f 437/3/1 433/3/1 436/3/1
f 442/2/1 439/2/1 438/2/1
f 443/2/1 439/2/1 442/2/1
f 444/2/1 441/2/1 440/2/1
f 445/2/1 441/2/1 444/2/1
f 446/3/2 447/3/2 452/3/2
f 452/3/2 447/3/2 453/3/2
f 448/3/2 449/3/2 454/3/2
f 454/3/2 449/3/2 455/3/2
f 450/3/2 451/3/2 456/3/2
f 456/3/2 451/3/2 457/3/2
f 458/3/2 459/3/2 466/3/2
f 466/3/2 459/3/2 467/3/2
f 460/3/2 461/3/2 468/3/2
f 468/3/2 461/3/2 469/3/2
f 462/3/2 463/3/2 470/3/2
f 470/3/2 463/3/2 471/3/2
f 464/3/2 465/3/2 472/3/2
f 472/3/2 465/3/2 473/3/2
f 474/3/2 475/3/2 476/3/2
f 476/3/2 475/3/2 477/3/2
f 478/3/2 479/3/2 480/3/2
f 480/3/2 479/3/2 481/3/2
f 482/3/2 483/3/2 484/3/2
f 484/3/2 483/3/2 485/3/2
f 486/3/2 487/3/2 488/3/2
f 488/3/2 487/3/2 489/3/2
f 490/2/2 491/2/2 492/2/2
f 492/2/2 491/2/2 493/2/2
f 494/3/2 495/3/2 496/3/2
f 496/3/2 495/3/2 497/3/2
f 498/2/2 499/2/2 500/2/2
f 500/2/2 499/2/2 501/2/2
f 502/3/2 503/3/2 504/3/2
f 504/3/2 503/3/2 505/3/2
f 506/2/2 507/2/2 508/2/2
f 508/2/2 507/2/2 509/2/2
f 510/3/2 511/3/2 512/3/2
f 512/3/2 511/3/2 513/3/2
f 514/3/2 515/3/2 516/3/2
f 516/3/2 515/3/2 517/3/2
f 518/2/2 519/2/2 524/2/2
f 524/2/2 519/2/2 525/2/2
f 520/2/2 521/2/2 527/2/2
f 527/2/2 521/2/2 528/2/2
f 522/2/2 523/2/2 529/2/2
f 529/2/2 523/2/2 530/2/2
f 525/2/2 526/2/2 532/2/2
f 532/2/2 526/2/2 533/2/2
f 531/2/2 532/2/2 534/2/2
f 534/2/2 532/2/2 535/2/2
f 536/2/2 537/2/2 538/2/2
f 538/2/2 537/2/2 539/2/2
f 540/2/2 541/2/2 542/2/2
f 542/2/2 541/2/2 543/2/2
f 544/2/2 545/2/2 547/2/2
f 547/2/2 545/2/2 548/2/2
f 546/2/2 547/2/2 549/2/2
f 549/2/2 547/2/2 550/2/2
f 549/3/2 550/3/2 551/3/2
f 551/3/2 550/3/2 552/3/2
f 553/2/2 554/2/2 561/2/2
f 561/2/2 554/2/2 562/2/2
f 555/2/2 556/2/2 564/2/2
f 564/2/2 556/2/2 565/2/2
f 557/2/2 558/2/2 567/2/2
f 567/2/2 558/2/2 568/2/2
f 568/2/2 558/2/2 569/2/2
f 563/2/2 564/2/2 572/2/2
f 572/2/2 564/2/2 573/2/2
f 567/2/2 568/2/2 575/2/2
f 566/2/2 567/2/2 575/2/2
f 575/2/2 568/2/2 576/2/2
f 569/2/2 570/2/2 577/2/2
f 577/2/2 570/2/2 578/2/2
f 559/3/2 560/3/2 579/3/2
f 579/3/2 560/3/2 580/3/2
f 574/2/2 575/2/2 583/2/2
f 583/2/2 575/2/2 584/2/2
f 581/2/2 582/2/2 586/2/2
f 586/2/2 582/2/2 587/2/2
f 584/2/2 585/2/2 590/2/2
f 590/2/2 585/2/2 591/2/2
f 571/2/2 572/2/2 592/2/2
f 592/2/2 572/2/2 593/2/2
f 588/2/2 589/2/2 594/2/2
f 594/2/2 589/2/2 595/2/2
f 593/2/2 594/2/2 598/2/2
f 598/2/2 594/2/2 599/2/2
f 579/2/2 580/2/2 600/2/2
f 600/2/2 580/2/2 601/2/2
f 596/2/2 597/2/2 603/2/2
f 603/2/2 597/2/2 604/2/2
f 601/2/2 602/2/2 605/2/2
f 605/2/2 602/2/2 606/2/2
f 607/2/2 608/2/2 610/2/2
f 610/2/2 608/2/2 611/2/2
f 609/2/2 610/2/2 612/2/2
f 612/2/2 610/2/2 613/2/2
f 612/3/2 613/3/2 614/3/2
f 614/3/2 613/3/2 615/3/2
f 616/2/2 617/2/2 618/2/2
f 618/2/2 617/2/2 619/2/2
f 619/2/2 620/2/2 623/2/2
f 623/2/2 620/2/2 624/2/2
f 621/3/2 622/3/2 630/3/2
f 626/2/2 627/2/2 632/2/2
f 628/2/2 629/2/2 634/2/2
f 621/3/2 630/3/2 635/3/2
f 635/3/2 630/3/2 636/3/2
f 633/2/2 634/2/2 637/2/2
f 634/2/2 629/2/2 637/2/2
f 637/2/2 629/2/2 638/2/2
f 633/2/2 637/2/2 639/2/2
f 639/2/2 637/2/2 640/2/2
f 631/2/2 632/2/2 641/2/2
f 632/2/2 627/2/2 641/2/2
f 641/2/2 627/2/2 642/2/2
f 631/2/2 641/2/2 645/2/2
f 645/2/2 641/2/2 646/2/2
f 643/2/2 644/2/2 647/2/2
f 647/2/2 644/2/2 648/2/2
f 624/2/2 625/2/2 649/2/2
f 649/2/2 625/2/2 650/2/2
f 635/2/2 636/2/2 651/2/2
f 651/2/2 636/2/2 652/2/2
f 648/2/2 649/2/2 654/2/2
f 654/2/2 649/2/2 655/2/2
f 652/2/2 653/2/2 656/2/2
f 656/2/2 653/2/2 657/2/2
f 658/3/2 659/3/2 662/3/2
f 662/3/2 659/3/2 663/3/2
f 660/2/2 661/2/2 664/2/2
f 664/2/2 661/2/2 665/2/2
f 665/2/2 666/2/2 667/2/2
f 665/2/2 667/2/2 670/2/2
f 667/2/2 668/2/2 670/2/2
f 670/2/2 668/2/2 671/2/2
f 669/2/2 670/2/2 672/2/2
f 672/2/2 670/2/2 673/2/2
f 671/2/2 668/2/2 674/2/2
f 674/2/2 668/2/2 675/2/2
f 676/2/2 677/2/2 678/2/2
f 678/2/2 677/2/2 679/2/2
f 680/2/2 681/2/2 683/2/2
f 683/2/2 681/2/2 684/2/2
f 682/2/2 683/2/2 687/2/2
f 687/2/2 683/2/2 688/2/2
f 685/2/2 686/2/2 689/2/2
f 689/2/2 686/2/2 690/2/2
f 687/3/2 688/3/2 693/3/2
f 693/3/2 688/3/2 694/3/2
f 691/2/2 692/2/2 695/2/2
f 695/2/2 692/2/2 696/2/2
f 699/3/2 700/3/2 701/3/2
f 699/3/2 701/3/2 702/3/2
f 702/3/2 701/3/2 703/3/2
f 697/2/2 698/2/2 706/2/2
f 706/2/2 698/2/2 707/2/2
f 704/2/2 705/2/2 708/2/2
f 708/2/2 705/2/2 709/2/2
f 709/2/2 705/2/2 710/2/2
f 702/2/2 703/2/2 712/2/2
f 712/2/2 703/2/2 713/2/2
f 710/2/2 711/2/2 715/2/2
f 709/2/2 710/2/2 715/2/2
f 715/2/2 711/2/2 716/2/2
f 713/2/2 714/2/2 717/2/2
f 717/2/2 714/2/2 718/2/2
f 719/2/2 720/2/2 727/2/2
f 727/2/2 720/2/2 728/2/2
f 721/2/2 722/2/2 730/2/2
f 730/2/2 722/2/2 731/2/2
f 731/2/2 722/2/2 732/2/2
f 723/2/2 724/2/2 733/2/2
f 733/2/2 724/2/2 734/2/2
f 734/2/2 724/2/2 735/2/2
f 725/2/2 726/2/2 737/2/2
f 737/2/2 726/2/2 738/2/2
f 729/2/2 730/2/2 741/2/2
f 730/2/2 731/2/2 741/2/2
f 741/2/2 731/2/2 742/2/2
f 735/2/2 736/2/2 743/2/2
f 734/2/2 735/2/2 743/2/2
f 743/2/2 736/2/2 744/2/2
f 739/2/2 740/2/2 745/2/2
f 745/2/2 740/2/2 746/2/2
f 741/3/2 742/3/2 748/3/2
f 748/3/2 742/3/2 749/3/2
f 746/2/2 747/2/2 750/2/2
f 741/3/2 748/3/2 752/3/2
f 752/3/2 748/3/2 753/3/2
f 754/3/2 755/3/2 757/3/2
f 757/3/2 755/3/2 758/3/2
f 756/3/2 757/3/2 759/3/2
f 757/3/2 758/3/2 759/3/2
f 759/3/2 758/3/2 760/3/2
f 750/2/2 751/2/2 762/2/2
f 746/2/2 750/2/2 762/2/2
f 762/2/2 751/2/2 763/2/2
f 761/2/2 762/2/2 764/2/2
f 764/2/2 762/2/2 765/2/2
f 763/2/2 751/2/2 766/2/2
f 766/2/2 751/2/2 767/2/2
f 759/2/2 760/2/2 768/2/2
f 768/2/2 760/2/2 769/2/2
f 769/2/2 770/2/2 773/2/2
f 773/2/2 770/2/2 774/2/2
f 771/2/2 772/2/2 776/2/2
f 776/2/2 772/2/2 777/2/2
f 775/2/2 776/2/2 781/2/2
f 781/2/2 776/2/2 782/2/2
f 778/2/2 779/2/2 783/2/2
f 783/2/2 779/2/2 784/2/2
f 780/2/2 781/2/2 785/2/2
f 785/2/2 781/2/2 786/2/2
f 784/2/2 785/2/2 787/2/2
f 787/2/2 785/2/2 788/2/2
f 789/2/2 790/2/2 794/2/2
f 794/2/2 790/2/2 795/2/2
f 791/2/2 792/2/2 799/2/2
f 799/2/2 792/2/2 800/2/2
f 793/2/2 794/2/2 802/2/2
f 794/2/2 795/2/2 802/2/2
f 795/2/2 796/2/2 802/2/2
f 802/2/2 796/2/2 803/2/2
f 803/2/2 796/2/2 804/2/2
f 797/2/2 798/2/2 805/2/2
f 805/2/2 798/2/2 806/2/2
f 800/2/2 801/2/2 807/2/2
f 807/2/2 801/2/2 808/2/2
f 802/3/2 803/3/2 810/3/2
f 810/3/2 803/3/2 811/3/2
f 811/3/2 803/3/2 812/3/2
f 803/2/2 804/2/2 813/2/2
f 812/3/2 803/3/2 813/3/2
f 804/2/2 805/2/2 813/2/2
f 813/2/2 805/2/2 814/2/2
f 802/3/2 810/3/2 815/3/2
f 815/3/2 810/3/2 816/3/2
f 811/3/2 812/3/2 817/3/2
f 817/3/2 812/3/2 818/3/2
f 813/3/2 814/3/2 819/3/2
f 819/3/2 814/3/2 820/3/2
f 821/3/2 822/3/2 826/3/2
f 826/3/2 822/3/2 827/3/2
f 823/3/2 824/3/2 828/3/2
f 828/3/2 824/3/2 829/3/2
f 820/3/2 814/3/2 830/3/2
f 814/2/2 805/2/2 831/2/2
f 830/3/2 814/3/2 831/3/2
f 826/3/2 827/3/2 832/3/2
f 825/3/2 826/3/2 832/3/2
f 828/2/2 829/2/2 833/2/2
f 832/3/2 827/3/2 833/3/2
f 829/2/2 830/2/2 833/2/2
f 830/2/2 831/2/2 833/2/2
f 827/2/2 828/2/2 833/2/2
f 832/2/2 833/2/2 834/2/2
f 833/2/2 831/2/2 834/2/2
f 831/2/2 805/2/2 835/2/2
f 834/2/2 831/2/2 835/2/2
f 836/2/2 837/2/2 838/2/2
f 838/2/2 837/2/2 839/2/2
f 808/2/2 809/2/2 840/2/2
f 840/2/2 809/2/2 841/2/2
f 832/2/2 834/2/2 842/2/2
f 834/1/2 835/1/2 842/1/2
f 835/2/2 805/2/2 843/2/2
f 842/1/2 835/1/2 843/1/2
f 839/2/2 840/2/2 844/2/2
f 844/2/2 840/2/2 845/2/2
f 832/2/2 842/2/2 846/2/2
f 842/2/2 843/2/2 846/2/2
f 846/2/2 843/2/2 847/2/2
f 843/2/2 805/2/2 848/2/2
f 847/2/2 843/2/2 848/2/2
f 848/2/2 805/2/2 849/2/2
f 847/2/2 848/2/2 851/2/2
f 851/2/2 848/2/2 852/2/2
f 849/2/2 850/2/2 853/2/2
f 853/2/2 850/2/2 854/2/2
f 847/2/2 851/2/2 855/2/2
f 855/2/2 851/2/2 856/2/2
f 856/2/2 851/2/2 857/2/2
f 857/2/2 851/2/2 858/2/2
f 856/2/2 857/2/2 859/2/2
f 859/2/2 857/2/2 860/2/2
f 861/2/2 862/2/2 864/2/2
f 864/2/2 862/2/2 865/2/2
f 863/2/2 864/2/2 869/2/2
f 869/2/2 864/2/2 870/2/2
f 866/2/2 867/2/2 871/2/2
f 871/2/2 872/2/2 873/2/2
f 866/2/2 871/2/2 873/2/2
f 873/2/2 872/2/2 874/2/2
f 874/2/2 872/2/2 875/2/2
f 875/2/2 872/2/2 876/2/2
f 868/2/2 869/2/2 879/2/2
f 879/2/2 869/2/2 880/2/2
f 877/2/2 878/2/2 881/2/2
f 881/2/2 878/2/2 882/2/2
f 880/2/2 881/2/2 883/2/2
f 883/2/2 881/2/2 884/2/2
f 885/2/2 886/2/2 888/2/2
f 888/2/2 886/2/2 889/2/2
f 887/2/2 888/2/2 891/2/2
f 891/2/2 888/2/2 892/2/2
f 890/2/2 891/2/2 894/2/2
f 893/2/2 894/2/2 897/2/2
f 894/2/2 891/2/2 897/2/2
f 897/2/2 891/2/2 898/2/2
f 895/2/2 896/2/2 899/2/2
f 899/2/2 896/2/2 900/2/2
f 893/2/2 897/2/2 901/2/2
f 901/2/2 897/2/2 902/2/2
f 898/2/2 899/2/2 903/2/2
f 903/2/2 899/2/2 904/2/2
f 905/2/2 906/2/2 908/2/2
f 908/2/2 906/2/2 909/2/2
f 907/2/2 908/2/2 909/2/2
f 909/2/2 906/2/2 910/2/2
f 907/2/2 909/2/2 911/2/2
f 911/2/2 909/2/2 912/2/2
f 919/3/3 915/3/3 914/3/3
f 920/3/3 915/3/3 919/3/3
f 922/3/3 917/3/3 916/3/3
f 923/3/3 919/3/3 914/3/3
f 925/3/3 922/3/3 921/3/3
f 926/3/3 917/3/3 922/3/3
f 926/3/3 922/3/3 925/3/3
f 927/3/3 924/3/3 923/3/3
f 927/3/3 923/3/3 914/3/3
f 928/3/3 924/3/3 927/3/3
f 930/3/3 917/3/3 926/3/3
f 931/2/3 914/2/3 913/2/3
f 932/3/3 927/3/3 914/3/3
f 932/2/3 914/2/3 931/2/3
f 933/3/3 927/3/3 932/3/3
f 934/3/3 930/3/3 929/3/3
f 935/2/3 918/2/3 917/2/3
f 935/3/3 930/3/3 934/3/3
f 935/3/3 917/3/3 930/3/3
f 936/2/3 918/2/3 935/2/3
f 944/2/3 938/2/3 937/2/3
f 945/3/3 939/3/3 938/3/3
f 945/2/3 938/2/3 944/2/3
f 946/3/3 939/3/3 945/3/3
f 947/3/3 941/3/3 940/3/3
f 948/3/3 941/3/3 947/3/3
f 949/2/3 942/2/3 941/2/3
f 949/3/3 941/3/3 948/3/3
f 950/2/3 942/2/3 949/2/3
f 952/2/3 944/2/3 943/2/3
f 953/2/3 944/2/3 952/2/3
f 958/2/3 951/2/3 950/2/3
f 959/2/3 951/2/3 958/2/3
f 960/2/3 954/2/3 953/2/3
f 961/3/3 955/3/3 954/3/3
f 961/2/3 954/2/3 960/2/3
f 962/3/3 955/3/3 961/3/3
f 963/3/3 957/3/3 956/3/3
f 964/2/3 958/2/3 957/2/3
f 964/3/3 957/3/3 963/3/3
f 965/2/3 958/2/3 964/2/3
f 972/3/3 968/3/3 967/3/3
f 974/3/3 970/3/3 969/3/3
f 975/3/3 970/3/3 974/3/3
f 977/2/3 967/2/3 966/2/3
f 978/3/3 973/3/3 972/3/3
f 978/3/3 972/3/3 967/3/3
f 978/2/3 967/2/3 977/2/3
f 979/3/3 973/3/3 978/3/3
f 980/3/3 973/3/3 979/3/3
f 981/3/3 970/3/3 975/3/3
f 982/2/3 971/2/3 970/2/3
f 982/3/3 970/3/3 981/3/3
f 983/2/3 971/2/3 982/2/3
f 985/2/3 977/2/3 976/2/3
f 986/2/3 977/2/3 985/2/3
f 987/2/3 984/2/3 983/2/3
f 988/2/3 984/2/3 987/2/3
f 993/2/3 990/2/3 989/2/3
f 994/2/3 990/2/3 993/2/3
f 1000/2/3 992/2/3 991/2/3
f 1001/2/3 992/2/3 1000/2/3
f 1002/3/3 996/3/3 995/3/3
f 1002/3/3 997/3/3 996/3/3
f 1003/3/3 997/3/3 1002/3/3
f 1005/3/3 999/3/3 998/3/3
f 1006/2/3 995/2/3 994/2/3
f 1007/3/3 1002/3/3 995/3/3
f 1007/2/3 995/2/3 1006/2/3
f 1008/3/3 1002/3/3 1007/3/3
f 1009/3/3 1005/3/3 1004/3/3
f 1010/3/3 999/3/3 1005/3/3
f 1010/3/3 1005/3/3 1009/3/3
f 1010/2/3 1000/2/3 999/2/3
f 1011/2/3 1000/2/3 1010/2/3
f 1019/2/3 1013/2/3 1012/2/3
f 1020/3/3 1014/3/3 1013/3/3
f 1020/2/3 1013/2/3 1019/2/3
f 1021/3/3 1014/3/3 1020/3/3
f 1022/3/3 1016/3/3 1015/3/3
f 1023/2/3 1017/2/3 1016/2/3
f 1023/3/3 1016/3/3 1022/3/3
f 1024/2/3 1017/2/3 1023/2/3
f 1026/2/3 1019/2/3 1018/2/3
f 1027/2/3 1019/2/3 1026/2/3
f 1028/2/3 1025/2/3 1024/2/3
f 1029/2/3 1025/2/3 1028/2/3
f 1034/2/3 1031/2/3 1030/2/3
f 1035/2/3 1031/2/3 1034/2/3
f 1041/2/3 1033/2/3 1032/2/3
f 1042/2/3 1033/2/3 1041/2/3
f 1043/2/3 1036/2/3 1035/2/3
f 1044/3/3 1037/3/3 1036/3/3
f 1044/2/3 1036/2/3 1043/2/3
f 1044/3/3 1038/3/3 1037/3/3
f 1045/3/3 1038/3/3 1044/3/3
f 1046/3/3 1040/3/3 1039/3/3
f 1047/2/3 1041/2/3 1040/2/3
f 1047/3/3 1040/3/3 1046/3/3
f 1048/2/3 1041/2/3 1047/2/3
f 1051/3/3 1050/3/3 1049/3/3
f 1052/3/3 1050/3/3 1051/3/3
f 1057/2/3 1054/2/3 1053/2/3
f 1058/2/3 1054/2/3 1057/2/3
f 1059/3/3 1056/3/3 1055/3/3
f 1060/3/3 1056/3/3 1059/3/3
f 1068/2/3 1062/2/3 1061/2/3
f 1069/3/3 1063/3/3 1062/3/3
f 1069/2/3 1062/2/3 1068/2/3
f 1070/3/3 1063/3/3 1069/3/3
f 1071/3/3 1065/3/3 1064/3/3
f 1072/3/3 1065/3/3 1071/3/3
f 1073/2/3 1066/2/3 1065/2/3
f 1073/3/3 1065/3/3 1072/3/3
f 1074/2/3 1066/2/3 1073/2/3
f 1076/2/3 1068/2/3 1067/2/3
f 1077/2/3 1068/2/3 1076/2/3
f 1078/2/3 1075/2/3 1074/2/3
f 1079/2/3 1075/2/3 1078/2/3
f 1088/2/3 1081/2/3 1080/2/3
f 1089/2/3 1081/2/3 1088/2/3
f 1090/2/3 1083/2/3 1082/2/3
f 1091/3/3 1084/3/3 1083/3/3
f 1091/2/3 1083/2/3 1090/2/3
f 1091/3/3 1085/3/3 1084/3/3
f 1092/3/3 1085/3/3 1091/3/3
f 1093/3/3 1087/3/3 1086/3/3
f 1094/2/3 1088/2/3 1087/2/3
f 1094/3/3 1087/3/3 1093/3/3
f 1095/2/3 1088/2/3 1094/2/3
f 1100/2/3 1097/2/3 1096/2/3
f 1101/2/3 1097/2/3 1100/2/3
f 1102/3/3 1099/3/3 1098/3/3
f 1103/3/3 1099/3/3 1102/3/3
f 1106/2/3 1105/2/3 1104/2/3
f 1107/2/3 1105/2/3 1106/2/3
f 1112/2/3 1109/2/3 1108/2/3
f 1113/2/3 1109/2/3 1112/2/3
f 1114/3/3 1111/3/3 1110/3/3
f 1115/3/3 1111/3/3 1114/3/3
f 1120/3/3 1117/3/3 1116/3/3
f 1121/3/3 1117/3/3 1120/3/3
f 1122/2/3 1119/2/3 1118/2/3
f 1123/2/3 1119/2/3 1122/2/3
f 1124/2/3 1119/2/3 1123/2/3
f 1126/2/3 1124/2/3 1123/2/3
f 1126/2/3 1125/2/3 1124/2/3
f 1127/2/3 1125/2/3 1126/2/3
f 1129/2/3 1125/2/3 1127/2/3
f 1131/2/3 1129/2/3 1128/2/3
f 1132/2/3 1125/2/3 1129/2/3
f 1132/2/3 1129/2/3 1131/2/3
f 1133/2/3 1125/2/3 1132/2/3
f 1134/2/3 1131/2/3 1130/2/3
f 1134/2/3 1132/2/3 1131/2/3
f 1135/2/3 1132/2/3 1134/2/3
f 1138/3/3 1137/3/3 1136/3/3
f 1139/3/3 1137/3/3 1138/3/3
f 1142/2/3 1141/2/3 1140/2/3
f 1143/2/3 1141/2/3 1142/2/3
f 1148/2/3 1144/2/3 1143/2/3
f 1149/2/3 1144/2/3 1148/2/3
f 1150/3/3 1146/3/3 1145/3/3
f 1151/3/3 1146/3/3 1150/3/3
f 1152/2/3 1148/2/3 1147/2/3
f 1153/2/3 1148/2/3 1152/2/3
f 1156/3/3 1155/3/3 1154/3/3
f 1157/3/3 1155/3/3 1156/3/3
f 1160/3/3 1159/3/3 1158/3/3
f 1161/3/3 1159/3/3 1160/3/3
f 1164/3/3 1163/3/3 1162/3/3
f 1165/3/3 1163/3/3 1164/3/3
f 1168/3/3 1167/3/3 1166/3/3
f 1169/3/3 1167/3/3 1168/3/3
f 1172/3/3 1171/3/3 1170/3/3
f 1173/3/3 1171/3/3 1172/3/3
f 1176/3/3 1175/3/3 1174/3/3
f 1177/3/3 1175/3/3 1176/3/3
f 1179/3/3 1177/3/3 1176/3/3
f 1179/3/3 1178/3/3 1177/3/3
f 1180/3/3 1178/3/3 1179/3/3
f 1181/3/3 1178/3/3 1180/3/3
f 1182/3/3 1181/3/3 1180/3/3
f 1183/3/3 1181/3/3 1182/3/3
f 1188/2/3 1185/2/3 1184/2/3
f 1189/2/3 1185/2/3 1188/2/3
f 1190/2/3 1187/2/3 1186/2/3
f 1191/2/3 1187/2/3 1190/2/3
f 1192/2/3 1190/2/3 1189/2/3
f 1193/2/3 1190/2/3 1192/2/3
f 1198/2/3 1195/2/3 1194/2/3
f 1199/2/3 1195/2/3 1198/2/3
f 1200/2/3 1197/2/3 1196/2/3
f 1201/2/3 1197/2/3 1200/2/3
f 1202/2/3 1200/2/3 1199/2/3
f 1203/2/3 1200/2/3 1202/2/3
f 1207/2/3 1205/2/3 1204/2/3
f 1208/2/3 1205/2/3 1207/2/3
f 1209/2/3 1207/2/3 1206/2/3
f 1210/2/3 1207/2/3 1209/2/3
f 1213/2/3 1212/2/3 1211/2/3
f 1214/2/3 1212/2/3 1213/2/3
f 1216/2/3 1215/2/3 1214/2/3
f 1217/2/3 1215/2/3 1216/2/3
f 1222/2/3 1219/2/3 1218/2/3
f 1223/2/3 1219/2/3 1222/2/3
f 1224/2/3 1221/2/3 1220/2/3
f 1225/2/3 1221/2/3 1224/2/3
f 1226/2/3 1224/2/3 1223/2/3
f 1227/2/3 1224/2/3 1226/2/3
f 1231/2/3 1229/2/3 1228/2/3
f 1232/2/3 1229/2/3 1231/2/3
f 1233/2/3 1231/2/3 1230/2/3
f 1234/2/3 1231/2/3 1233/2/3
f 1237/2/3 1236/2/3 1235/2/3
f 1238/2/3 1236/2/3 1237/2/3
f 1240/2/3 1239/2/3 1238/2/3
f 1241/2/3 1239/2/3 1240/2/3
f 1244/2/3 1243/2/3 1242/2/3
f 1245/2/3 1243/2/3 1244/2/3
f 1248/2/3 1246/2/3 1245/2/3
f 1249/2/3 1246/2/3 1248/2/3
f 1250/2/3 1248/2/3 1247/2/3
f 1251/2/3 1248/2/3 1250/2/3
f 1255/2/3 1253/2/3 1252/2/3
f 1256/2/3 1253/2/3 1255/2/3
f 1258/2/3 1255/2/3 1254/2/3
f 1259/2/3 1255/2/3 1258/2/3
f 1260/2/3 1257/2/3 1256/2/3
f 1261/2/3 1257/2/3 1260/2/3
f 1265/2/3 1263/2/3 1262/2/3
f 1266/2/3 1263/2/3 1265/2/3
f 1268/2/3 1265/2/3 1264/2/3
f 1269/2/3 1265/2/3 1268/2/3
f 1270/2/3 1267/2/3 1266/2/3
f 1271/2/3 1267/2/3 1270/2/3
f 1274/2/3 1273/2/3 1272/2/3
f 1275/2/3 1273/2/3 1274/2/3
f 1277/2/3 1276/2/3 1275/2/3
f 1278/2/3 1276/2/3 1277/2/3
f 1281/2/3 1280/2/3 1279/2/3
f 1282/2/3 1280/2/3 1281/2/3
f 1285/2/3 1284/2/3 1283/2/3
f 1286/2/3 1284/2/3 1285/2/3
f 1288/2/3 1287/2/3 1286/2/3
f 1289/2/3 1287/2/3 1288/2/3
f 1293/2/3 1291/2/3 1290/2/3
f 1294/2/3 1291/2/3 1293/2/3
f 1295/2/3 1293/2/3 1292/2/3
f 1296/2/3 1293/2/3 1295/2/3
f 1300/2/3 1298/2/3 1297/2/3
f 1301/2/3 1298/2/3 1300/2/3
f 1303/2/3 1300/2/3 1299/2/3
f 1304/2/3 1300/2/3 1303/2/3
f 1305/2/3 1302/2/3 1301/2/3
f 1306/2/3 1302/2/3 1305/2/3
f 1311/2/3 1308/2/3 1307/2/3
f 1312/2/3 1308/2/3 1311/2/3
f 1313/2/3 1310/2/3 1309/2/3
f 1314/2/3 1310/2/3 1313/2/3
f 1315/2/3 1313/2/3 1312/2/3
f 1316/2/3 1313/2/3 1315/2/3
f 1320/2/3 1318/2/3 1317/2/3
f 1321/2/3 1318/2/3 1320/2/3
f 1322/2/3 1320/2/3 1319/2/3
f 1323/2/3 1320/2/3 1322/2/3
f 1326/2/3 1325/2/3 1324/2/3
f 1327/2/3 1325/2/3 1326/2/3
f 1329/2/3 1328/2/3 1327/2/3
f 1330/2/3 1328/2/3 1329/2/3
f 1335/2/3 1332/2/3 1331/2/3
f 1336/2/3 1332/2/3 1335/2/3
f 1337/2/3 1334/2/3 1333/2/3
f 1338/2/3 1334/2/3 1337/2/3
f 1339/2/3 1337/2/3 1336/2/3
f 1340/2/3 1337/2/3 1339/2/3
f 1344/2/3 1342/2/3 1341/2/3
f 1345/2/3 1342/2/3 1344/2/3
f 1346/2/3 1344/2/3 1343/2/3
f 1347/2/3 1344/2/3 1346/2/3
f 1350/2/3 1349/2/3 1348/2/3
f 1351/2/3 1349/2/3 1350/2/3
f 1354/2/3 1353/2/3 1352/2/3
f 1355/2/3 1353/2/3 1354/2/3
f 1356/3/4 1357/3/4 1358/3/4
f 1358/3/4 1357/3/4 1359/3/4
f 1360/3/4 1361/3/4 1364/3/4
f 1364/3/4 1361/3/4 1365/3/4
f 1362/3/4 1363/3/4 1366/3/4
f 1366/3/4 1363/3/4 1367/3/4
f 1368/3/4 1369/3/4 1370/3/4
f 1370/3/4 1369/3/4 1371/3/4
f 1372/3/4 1373/3/4 1374/3/4
f 1374/3/4 1373/3/4 1375/3/4
f 1376/3/4 1377/3/4 1378/3/4
f 1378/3/4 1377/3/4 1379/3/4
f 1380/3/4 1381/3/4 1384/3/4
f 1384/3/4 1381/3/4 1385/3/4
f 1382/3/4 1383/3/4 1386/3/4
f 1386/3/4 1383/3/4 1387/3/4
f 1388/3/4 1389/3/4 1390/3/4
f 1390/3/4 1389/3/4 1391/3/4
f 1392/3/4 1393/3/4 1394/3/4
f 1394/3/4 1393/3/4 1395/3/4
f 1396/3/4 1397/3/4 1398/3/4
f 1398/3/4 1397/3/4 1399/3/4
f 1400/3/4 1401/3/4 1402/3/4
f 1402/3/4 1401/3/4 1403/3/4
f 1404/3/4 1405/3/4 1406/3/4
f 1406/3/4 1405/3/4 1407/3/4
f 1408/3/4 1409/3/4 1410/3/4
f 1410/3/4 1409/3/4 1411/3/4
f 1412/3/4 1413/3/4 1414/3/4
f 1414/3/4 1413/3/4 1415/3/4
f 1416/3/4 1417/3/4 1418/3/4
f 1418/3/4 1417/3/4 1419/3/4
f 1420/3/4 1421/3/4 1422/3/4
f 1422/3/4 1421/3/4 1423/3/4
f 1424/3/4 1425/3/4 1426/3/4
f 1426/3/4 1425/3/4 1427/3/4
f 1428/3/4 1429/3/4 1430/3/4
f 1430/3/4 1429/3/4 1431/3/4
f 1432/3/4 1433/3/4 1434/3/4
f 1434/3/4 1433/3/4 1435/3/4
f 1436/3/4 1437/3/4 1438/3/4
f 1438/3/4 1437/3/4 1439/3/4
f 1440/3/4 1441/3/4 1442/3/4
f 1442/3/4 1441/3/4 1443/3/4
f 1444/3/4 1445/3/4 1446/3/4
f 1446/3/4 1445/3/4 1447/3/4
f 1448/3/4 1449/3/4 1450/3/4
f 1450/3/4 1449/3/4 1451/3/4
f 1452/2/4 1453/2/4 1455/2/4
f 1455/2/4 1453/2/4 1456/2/4
f 1454/2/4 1455/2/4 1457/2/4
f 1457/2/4 1455/2/4 1458/2/4
f 1459/2/4 1460/2/4 1461/2/4
f 1461/2/4 1460/2/4 1462/2/4
f 1463/2/4 1464/2/4 1465/2/4
f 1465/2/4 1464/2/4 1466/2/4
f 1467/2/4 1468/2/4 1469/2/4
f 1469/2/4 1468/2/4 1470/2/4
f 1471/2/4 1472/2/4 1473/2/4
f 1473/2/4 1472/2/4 1474/2/4
f 1475/2/4 1476/2/4 1479/2/4
f 1479/2/4 1476/2/4 1480/2/4
f 1477/2/4 1478/2/4 1482/2/4
f 1482/2/4 1478/2/4 1483/2/4
f 1480/2/4 1481/2/4 1485/2/4
f 1485/2/4 1481/2/4 1486/2/4
f 1484/2/4 1485/2/4 1487/2/4
f 1487/2/4 1485/2/4 1488/2/4
f 1489/2/4 1490/2/4 1491/2/4
f 1491/2/4 1490/2/4 1492/2/4
f 1492/2/4 1493/2/4 1495/2/4
f 1495/2/4 1493/2/4 1496/2/4
f 1494/2/4 1495/2/4 1497/2/4
f 1497/2/4 1495/2/4 1498/2/4
f 1499/2/4 1500/2/4 1502/2/4
f 1502/2/4 1500/2/4 1503/2/4
f 1501/2/4 1502/2/4 1505/2/4
f 1505/2/4 1502/2/4 1506/2/4
f 1503/2/4 1504/2/4 1507/2/4
f 1507/2/4 1504/2/4 1508/2/4
f 1509/2/4 1510/2/4 1512/2/4
f 1512/2/4 1510/2/4 1513/2/4
f 1511/2/4 1512/2/4 1515/2/4
f 1515/2/4 1512/2/4 1516/2/4
f 1513/2/4 1514/2/4 1517/2/4
f 1517/2/4 1514/2/4 1518/2/4
f 1519/2/4 1520/2/4 1521/2/4
f 1521/2/4 1520/2/4 1522/2/4
f 1522/2/4 1523/2/4 1524/2/4
f 1524/2/4 1523/2/4 1525/2/4
f 1526/2/4 1527/2/4 1529/2/4
f 1529/2/4 1527/2/4 1530/2/4
f 1528/2/4 1529/2/4 1531/2/4
f 1531/2/4 1529/2/4 1532/2/4
f 1533/2/4 1534/2/4 1536/2/4
f 1536/2/4 1534/2/4 1537/2/4
f 1535/2/4 1536/2/4 1539/2/4
f 1539/2/4 1536/2/4 1540/2/4
f 1537/2/4 1538/2/4 1541/2/4
f 1541/2/4 1538/2/4 1542/2/4
f 1543/2/4 1544/2/4 1545/2/4
f 1545/2/4 1544/2/4 1546/2/4
f 1546/2/4 1547/2/4 1548/2/4
f 1548/2/4 1547/2/4 1549/2/4
f 1550/2/4 1551/2/4 1553/2/4
f 1553/2/4 1551/2/4 1554/2/4
f 1552/2/4 1553/2/4 1555/2/4
f 1555/2/4 1553/2/4 1556/2/4
f 1557/2/4 1558/2/4 1562/2/4
f 1562/2/4 1558/2/4 1563/2/4
f 1559/2/4 1560/2/4 1564/2/4
f 1564/2/4 1560/2/4 1565/2/4
f 1561/2/4 1562/2/4 1567/2/4
f 1565/2/4 1566/2/4 1570/2/4
f 1567/2/4 1568/2/4 1571/2/4
f 1569/2/4 1570/2/4 1572/2/4
f 1567/2/4 1571/2/4 1573/2/4
f 1571/2/4 1572/2/4 1573/2/4
f 1561/2/4 1567/2/4 1573/2/4
f 1573/2/4 1572/2/4 1574/2/4
f 1572/2/4 1570/2/4 1575/2/4
f 1574/2/4 1572/2/4 1575/2/4
f 1570/2/4 1566/2/4 1575/2/4
f 1575/2/4 1566/2/4 1576/2/4
f 1574/2/4 1575/2/4 1577/2/4
f 1577/2/4 1575/2/4 1578/2/4
f 1579/2/4 1580/2/4 1582/2/4
f 1582/2/4 1580/2/4 1583/2/4
f 1581/2/4 1582/2/4 1584/2/4
f 1584/2/4 1582/2/4 1585/2/4
f 1585/2/4 1586/2/4 1587/2/4
f 1587/2/4 1586/2/4 1588/2/4
f 1589/2/4 1590/2/4 1593/2/4
f 1593/2/4 1590/2/4 1594/2/4
f 1591/2/4 1592/2/4 1595/2/4
f 1595/2/4 1592/2/4 1596/2/4
f 1594/2/4 1595/2/4 1597/2/4
f 1597/2/4 1595/2/4 1598/2/4
f 1599/2/4 1600/2/4 1603/2/4
f 1603/2/4 1600/2/4 1604/2/4
f 1601/2/4 1602/2/4 1605/2/4
f 1605/2/4 1602/2/4 1606/2/4
f 1604/2/4 1605/2/4 1607/2/4
f 1607/2/4 1605/2/4 1608/2/4
f 1609/2/4 1610/2/4 1612/2/4
f 1612/2/4 1610/2/4 1613/2/4
f 1611/2/4 1612/2/4 1614/2/4
f 1614/2/4 1612/2/4 1615/2/4
f 1616/2/4 1617/2/4 1618/2/4
f 1618/2/4 1617/2/4 1619/2/4
f 1620/2/4 1621/2/4 1625/2/4
f 1625/2/4 1621/2/4 1626/2/4
f 1622/2/4 1623/2/4 1627/2/4
f 1627/2/4 1623/2/4 1628/2/4
f 1624/2/4 1625/2/4 1630/2/4
f 1628/2/4 1629/2/4 1633/2/4
f 1630/2/4 1631/2/4 1634/2/4
f 1624/2/4 1630/2/4 1634/2/4
f 1634/2/4 1631/2/4 1635/2/4
f 1635/2/4 1631/2/4 1636/2/4
f 1632/2/4 1633/2/4 1637/2/4
f 1633/2/4 1629/2/4 1638/2/4
f 1637/2/4 1633/2/4 1638/2/4
f 1638/2/4 1629/2/4 1639/2/4
f 1635/2/4 1636/2/4 1640/2/4
f 1636/2/4 1637/2/4 1640/2/4
f 1637/2/4 1638/2/4 1640/2/4
f 1640/2/4 1638/2/4 1641/2/4
f 1642/2/4 1643/2/4 1646/2/4
f 1646/2/4 1643/2/4 1647/2/4
f 1644/2/4 1645/2/4 1648/2/4
f 1648/2/4 1645/2/4 1649/2/4
f 1647/2/4 1648/2/4 1650/2/4
f 1650/2/4 1648/2/4 1651/2/4
f 1652/2/4 1653/2/4 1655/2/4
f 1655/2/4 1653/2/4 1656/2/4
f 1654/2/4 1655/2/4 1657/2/4
f 1657/2/4 1655/2/4 1658/2/4
f 1659/2/4 1660/2/4 1661/2/4
f 1661/2/4 1660/2/4 1662/2/4
f 1662/2/4 1663/2/4 1664/2/4
f 1664/2/4 1663/2/4 1665/2/4
f 1666/2/4 1667/2/4 1670/2/4
f 1670/2/4 1667/2/4 1671/2/4
f 1668/2/4 1669/2/4 1672/2/4
f 1672/2/4 1669/2/4 1673/2/4
f 1671/2/4 1672/2/4 1674/2/4
f 1674/2/4 1672/2/4 1675/2/4
f 1676/2/4 1677/2/4 1679/2/4
f 1679/2/4 1677/2/4 1680/2/4
f 1680/2/4 1677/2/4 1681/2/4
f 1681/2/4 1677/2/4 1682/2/4
f 1678/2/4 1679/2/4 1684/2/4
f 1679/2/4 1680/2/4 1684/2/4
f 1684/2/4 1680/2/4 1685/2/4
f 1682/2/4 1683/2/4 1686/2/4
f 1681/2/4 1682/2/4 1686/2/4
f 1686/2/4 1683/2/4 1687/2/4
f 1678/2/4 1684/2/4 1688/2/4
f 1687/2/4 1683/2/4 1691/2/4
f 1688/2/4 1689/2/4 1692/2/4
f 1678/2/4 1688/2/4 1692/2/4
f 1692/2/4 1689/2/4 1693/2/4
f 1693/2/4 1689/2/4 1694/2/4
f 1690/2/4 1691/2/4 1695/2/4
f 1691/2/4 1683/2/4 1696/2/4
f 1695/2/4 1691/2/4 1696/2/4
f 1696/2/4 1683/2/4 1697/2/4
f 1693/2/4 1694/2/4 1698/2/4
f 1694/2/4 1695/2/4 1698/2/4
f 1695/2/4 1696/2/4 1698/2/4
f 1698/2/4 1696/2/4 1699/2/4
f 1700/2/4 1701/2/4 1703/2/4
f 1703/2/4 1701/2/4 1704/2/4
f 1702/2/4 1703/2/4 1706/2/4
f 1706/2/4 1703/2/4 1707/2/4
f 1704/2/4 1705/2/4 1708/2/4
f 1708/2/4 1705/2/4 1709/2/4
f 1710/2/4 1711/2/4 1712/2/4
f 1712/2/4 1711/2/4 1713/2/4
f 1713/2/4 1714/2/4 1715/2/4
f 1715/2/4 1714/2/4 1716/2/4
f 1717/2/4 1718/2/4 1720/2/4
f 1720/2/4 1718/2/4 1721/2/4
f 1719/2/4 1720/2/4 1722/2/4
f 1722/2/4 1720/2/4 1723/2/4
f 1724/2/4 1725/2/4 1727/2/4
f 1727/2/4 1725/2/4 1728/2/4
f 1728/2/4 1725/2/4 1729/2/4
f 1729/2/4 1725/2/4 1730/2/4
f 1726/2/4 1727/2/4 1732/2/4
f 1727/2/4 1728/2/4 1732/2/4
f 1732/2/4 1728/2/4 1733/2/4
f 1730/2/4 1731/2/4 1734/2/4
f 1729/2/4 1730/2/4 1734/2/4
f 1734/2/4 1731/2/4 1735/2/4
f 1726/2/4 1732/2/4 1736/2/4
f 1735/2/4 1731/2/4 1739/2/4
f 1736/2/4 1737/2/4 1740/2/4
f 1726/2/4 1736/2/4 1740/2/4
f 1740/2/4 1737/2/4 1741/2/4
f 1741/2/4 1737/2/4 1742/2/4
f 1738/2/4 1739/2/4 1743/2/4
f 1739/2/4 1731/2/4 1744/2/4
f 1743/2/4 1739/2/4 1744/2/4
f 1744/2/4 1731/2/4 1745/2/4
f 1741/2/4 1742/2/4 1746/2/4
f 1742/2/4 1743/2/4 1746/2/4
f 1743/2/4 1744/2/4 1746/2/4
f 1746/2/4 1744/2/4 1747/2/4
f 1748/2/4 1749/2/4 1751/2/4
f 1751/2/4 1749/2/4 1752/2/4
f 1750/2/4 1751/2/4 1754/2/4
f 1754/2/4 1751/2/4 1755/2/4
f 1752/2/4 1753/2/4 1756/2/4
f 1756/2/4 1753/2/4 1757/2/4
f 1758/2/4 1759/2/4 1760/2/4
f 1760/2/4 1759/2/4 1761/2/4
f 1761/2/4 1762/2/4 1763/2/4
f 1763/2/4 1762/2/4 1764/2/4
f 1765/2/4 1766/2/4 1767/2/4
f 1767/2/4 1766/2/4 1768/2/4
f 1769/2/4 1770/2/4 1771/2/4
f 1771/2/4 1770/2/4 1772/2/4
f 1773/2/4 1774/2/4 1776/2/4
f 1776/2/4 1774/2/4 1777/2/4
f 1777/2/4 1774/2/4 1778/2/4
f 1775/2/4 1776/2/4 1780/2/4
f 1780/2/4 1776/2/4 1781/2/4
f 1778/2/4 1779/2/4 1782/2/4
f 1777/2/4 1778/2/4 1782/2/4
f 1782/2/4 1779/2/4 1783/2/4
f 1783/2/4 1779/2/4 1787/2/4
f 1784/2/4 1785/2/4 1788/2/4
f 1788/2/4 1785/2/4 1789/2/4
f 1786/2/4 1787/2/4 1790/2/4
f 1787/2/4 1779/2/4 1791/2/4
f 1790/2/4 1787/2/4 1791/2/4
f 1791/2/4 1779/2/4 1792/2/4
f 1789/2/4 1790/2/4 1793/2/4
f 1790/2/4 1791/2/4 1793/2/4
f 1793/2/4 1791/2/4 1794/2/4
f 1795/2/4 1796/2/4 1798/2/4
f 1798/2/4 1796/2/4 1799/2/4
f 1797/2/4 1798/2/4 1801/2/4
f 1801/2/4 1798/2/4 1802/2/4
f 1799/2/4 1800/2/4 1803/2/4
f 1803/2/4 1800/2/4 1804/2/4
f 1802/2/4 1803/2/4 1805/2/4
f 1805/2/4 1803/2/4 1806/2/4
f 1807/2/4 1808/2/4 1809/2/4
f 1809/2/4 1808/2/4 1810/2/4
f 1813/2/5 1812/2/5 1811/2/5
f 1815/2/5 1813/2/5 1811/2/5
f 1815/2/5 1814/2/5 1813/2/5
f 1816/2/5 1814/2/5 1815/2/5
f 1820/2/5 1818/2/5 1817/2/5
f 1821/2/5 1818/2/5 1820/2/5
f 1824/2/5 1820/2/5 1819/2/5
f 1824/2/5 1822/2/5 1821/2/5
f 1824/2/5 1821/2/5 1820/2/5
f 1825/2/5 1822/2/5 1824/2/5
f 1827/2/5 1824/2/5 1823/2/5
f 1827/2/5 1826/2/5 1825/2/5
f 1827/2/5 1825/2/5 1824/2/5
f 1830/2/5 1827/2/5 1823/2/5
f 1830/2/5 1828/2/5 1827/2/5
f 1832/2/5 1830/2/5 1829/2/5
f 1833/2/5 1828/2/5 1830/2/5
f 1833/2/5 1830/2/5 1832/2/5
f 1835/2/5 1832/2/5 1831/2/5
f 1835/2/5 1834/2/5 1833/2/5
f 1835/2/5 1833/2/5 1832/2/5
f 1836/2/5 1834/2/5 1835/2/5
f 1837/2/5 1834/2/5 1836/2/5
f 1838/2/5 1834/2/5 1837/2/5
f 1839/2/5 1837/2/5 1836/2/5
f 1840/2/5 1837/2/5 1839/2/5
f 1843/2/5 1842/2/5 1841/2/5
f 1845/2/5 1844/2/5 1843/2/5
f 1847/2/5 1843/2/5 1841/2/5
f 1847/2/5 1846/2/5 1845/2/5
f 1847/2/5 1845/2/5 1843/2/5
f 1848/2/5 1846/2/5 1847/2/5
f 1850/2/5 1846/2/5 1848/2/5
f 1851/2/5 1846/2/5 1850/2/5
f 1852/2/5 1846/2/5 1851/2/5
f 1853/2/5 1846/2/5 1852/2/5
f 1855/2/5 1850/2/5 1849/2/5
f 1856/2/5 1850/2/5 1855/2/5
f 1858/2/5 1854/2/5 1853/2/5
f 1859/2/5 1854/2/5 1858/2/5
f 1860/2/5 1857/2/5 1856/2/5
f 1861/2/5 1857/2/5 1860/2/5
f 1865/2/5 1863/2/5 1862/2/5
f 1866/2/5 1863/2/5 1865/2/5
f 1869/2/5 1865/2/5 1864/2/5
f 1870/2/5 1865/2/5 1869/2/5
f 1871/2/5 1867/2/5 1866/2/5
f 1872/2/5 1867/2/5 1871/2/5
f 1875/2/5 1869/2/5 1868/2/5
f 1876/2/5 1869/2/5 1875/2/5
f 1877/2/5 1873/2/5 1872/2/5
f 1878/2/5 1873/2/5 1877/2/5
f 1880/2/5 1879/2/5 1878/2/5
f 1881/2/5 1879/2/5 1880/2/5
f 1883/2/5 1875/2/5 1874/2/5
f 1884/2/5 1875/2/5 1883/2/5
f 1887/2/5 1883/2/5 1882/2/5
f 1888/2/5 1883/2/5 1887/2/5
f 1889/2/5 1886/2/5 1885/2/5
f 1890/2/5 1886/2/5 1889/2/5
f 1895/2/5 1892/2/5 1891/2/5
f 1896/2/5 1892/2/5 1895/2/5
f 1897/2/5 1894/2/5 1893/2/5
f 1898/2/5 1894/2/5 1897/2/5
f 1901/2/5 1900/2/5 1899/2/5
f 1903/2/5 1901/2/5 1899/2/5
f 1903/2/5 1902/2/5 1901/2/5
f 1904/2/5 1902/2/5 1903/2/5
f 1905/2/5 1902/2/5 1904/2/5
f 1907/2/5 1905/2/5 1904/2/5
f 1907/2/5 1906/2/5 1905/2/5
f 1908/2/5 1906/2/5 1907/2/5
f 1910/2/5 1906/2/5 1908/2/5
f 1911/2/5 1906/2/5 1910/2/5
f 1912/2/5 1906/2/5 1911/2/5
f 1913/2/5 1906/2/5 1912/2/5
f 1915/2/5 1914/2/5 1913/2/5
f 1916/2/5 1914/2/5 1915/2/5
f 1918/2/5 1910/2/5 1909/2/5
f 1919/2/5 1910/2/5 1918/2/5
f 1921/2/5 1920/2/5 1919/2/5
f 1922/2/5 1920/2/5 1921/2/5
f 1923/2/5 1917/2/5 1916/2/5
f 1924/2/5 1917/2/5 1923/2/5
f 1929/2/5 1926/2/5 1925/2/5
f 1930/2/5 1926/2/5 1929/2/5
f 1931/2/5 1928/2/5 1927/2/5
f 1932/2/5 1928/2/5 1931/2/5
f 1934/2/5 1931/2/5 1930/2/5
f 1935/2/5 1931/2/5 1934/2/5
f 1935/2/5 1934/2/5 1933/2/5
f 1936/2/5 1931/2/5 1935/2/5
f 1938/2/5 1935/2/5 1933/2/5
f 1939/2/5 1935/2/5 1938/2/5
f 1939/2/5 1938/2/5 1937/2/5
f 1940/2/5 1935/2/5 1939/2/5
f 1941/2/5 1939/2/5 1937/2/5
f 1942/2/5 1939/2/5 1941/2/5
f 1947/2/5 1946/2/5 1945/2/5
f 1948/2/5 1946/2/5 1947/2/5
f 1950/2/5 1944/2/5 1943/2/5
f 1951/2/5 1944/2/5 1950/2/5
f 1953/2/5 1949/2/5 1948/2/5
f 1954/2/5 1949/2/5 1953/2/5
f 1956/2/5 1952/2/5 1951/2/5
f 1957/2/5 1952/2/5 1956/2/5
f 1959/2/5 1958/2/5 1957/2/5
f 1960/2/5 1958/2/5 1959/2/5
f 1961/2/5 1955/2/5 1954/2/5
f 1962/2/5 1955/2/5 1961/2/5
f 1968/2/5 1964/2/5 1963/2/5
f 1969/2/5 1964/2/5 1968/2/5
f 1971/2/5 1966/2/5 1965/2/5
f 1972/2/5 1966/2/5 1971/2/5
f 1974/2/5 1968/2/5 1967/2/5
f 1975/2/5 1968/2/5 1974/2/5
f 1977/2/5 1971/2/5 1970/2/5
f 1978/2/5 1971/2/5 1977/2/5
f 1979/2/5 1974/2/5 1973/2/5
f 1980/2/5 1974/2/5 1979/2/5
f 1981/2/5 1977/2/5 1976/2/5
f 1982/2/5 1981/2/5 1980/2/5
f 1982/2/5 1977/2/5 1981/2/5
f 1983/2/5 1977/2/5 1982/2/5
f 1984/2/5 1982/2/5 1980/2/5
f 1985/2/5 1982/2/5 1984/2/5
f 1990/2/5 1987/2/5 1986/2/5
f 1991/2/5 1987/2/5 1990/2/5
f 1993/2/5 1989/2/5 1988/2/5
f 1994/2/5 1989/2/5 1993/2/5
f 1995/2/5 1992/2/5 1991/2/5
f 1996/2/5 1992/2/5 1995/2/5
f 1997/2/5 1995/2/5 1991/2/5
f 1998/2/5 1995/2/5 1997/2/5
f 1999/2/5 1995/2/5 1998/2/5
f 2000/2/5 1995/2/5 1999/2/5
f 2006/2/5 2004/2/5 2003/2/5
f 2007/2/5 2004/2/5 2006/2/5
f 2008/2/5 2002/2/5 2001/2/5
f 2009/2/5 2002/2/5 2008/2/5
f 2011/2/5 2010/2/5 2009/2/5
f 2012/2/5 2006/2/5 2005/2/5
f 2013/2/5 2006/2/5 2012/2/5
f 2015/2/5 2011/2/5 2009/2/5
f 2015/2/5 2012/2/5 2011/2/5
f 2016/2/5 2012/2/5 2015/2/5
f 2016/2/5 2015/2/5 2014/2/5
f 2017/2/5 2012/2/5 2016/2/5
f 2018/2/5 2016/2/5 2014/2/5
f 2019/2/5 2016/2/5 2018/2/5
f 2022/2/5 2021/2/5 2020/2/5
f 2024/2/5 2022/2/5 2020/2/5
f 2024/2/5 2023/2/5 2022/2/5
f 2025/2/5 2023/2/5 2024/2/5
f 2028/2/5 2027/2/5 2026/2/5
f 2030/2/5 2028/2/5 2026/2/5
f 2030/2/5 2029/2/5 2028/2/5
f 2031/2/5 2029/2/5 2030/2/5
f 2032/2/5 2029/2/5 2031/2/5
f 2033/2/5 2029/2/5 2032/2/5
f 2034/2/5 2032/2/5 2031/2/5
f 2035/2/5 2032/2/5 2034/2/5
f 2042/3/5 2037/3/5 2036/3/5
f 2043/3/5 2037/3/5 2042/3/5
f 2044/3/5 2039/3/5 2038/3/5
f 2045/3/5 2039/3/5 2044/3/5
f 2049/3/5 2041/3/5 2040/3/5
f 2050/3/5 2041/3/5 2049/3/5
f 2051/3/5 2046/3/5 2045/3/5
f 2052/3/5 2046/3/5 2051/3/5
f 2056/3/5 2048/3/5 2047/3/5
f 2057/3/5 2048/3/5 2056/3/5
f 2058/3/5 2054/3/5 2053/3/5
f 2059/3/5 2054/3/5 2058/3/5
f 2060/3/5 2056/3/5 2055/3/5
f 2061/3/5 2056/3/5 2060/3/5
f 2066/3/5 2063/3/5 2062/3/5
f 2067/3/5 2063/3/5 2066/3/5
f 2068/3/5 2065/3/5 2064/3/5
f 2069/3/5 2065/3/5 2068/3/5
f 2074/3/5 2073/3/5 2072/3/5
f 2075/3/5 2073/3/5 2074/3/5
f 2076/3/5 2071/3/5 2070/3/5
f 2077/3/5 2071/3/5 2076/3/5
f 2080/3/5 2079/3/5 2078/3/5
f 2081/3/5 2079/3/5 2080/3/5
f 2086/3/5 2083/3/5 2082/3/5
f 2087/3/5 2083/3/5 2086/3/5
f 2088/3/5 2085/3/5 2084/3/5
f 2089/3/5 2085/3/5 2088/3/5
f 2095/2/5 2091/2/5 2090/2/5
f 2096/2/5 2091/2/5 2095/2/5
f 2098/2/5 2093/2/5 2092/2/5
f 2099/2/5 2093/2/5 2098/2/5
f 2100/2/5 2095/2/5 2094/2/5
f 2101/2/5 2095/2/5 2100/2/5
f 2104/2/5 2098/2/5 2097/2/5
f 2105/2/5 2098/2/5 2104/2/5
f 2106/2/5 2103/2/5 2102/2/5
f 2108/2/5 2106/2/5 2102/2/5
f 2108/2/5 2107/2/5 2106/2/5
f 2109/2/5 2107/2/5 2108/2/5
f 2111/2/5 2107/2/5 2109/2/5
f 2112/2/5 2107/2/5 2111/2/5
f 2113/2/5 2107/2/5 2112/2/5
f 2114/2/5 2107/2/5 2113/2/5
f 2116/2/5 2111/2/5 2110/2/5
f 2117/2/5 2111/2/5 2116/2/5
f 2120/2/5 2115/2/5 2114/2/5
f 2121/2/5 2115/2/5 2120/2/5
f 2122/2/5 2119/2/5 2118/2/5
f 2123/2/5 2119/2/5 2122/2/5
f 2124/2/5 2119/2/5 2123/2/5
f 2127/2/5 2125/2/5 2124/2/5
f 2127/2/5 2124/2/5 2123/2/5
f 2128/2/5 2125/2/5 2127/2/5
f 2129/2/5 2125/2/5 2128/2/5
f 2130/2/5 2125/2/5 2129/2/5
f 2133/2/5 2127/2/5 2126/2/5
f 2134/2/5 2127/2/5 2133/2/5
f 2137/2/5 2132/2/5 2131/2/5
f 2138/2/5 2132/2/5 2137/2/5
f 2139/2/5 2135/2/5 2134/2/5
f 2140/2/5 2135/2/5 2139/2/5
f 2141/2/5 2137/2/5 2136/2/5
f 2142/2/5 2137/2/5 2141/2/5
f 2143/2/5 2141/2/5 2140/2/5
f 2144/2/5 2141/2/5 2143/2/5
f 2149/3/5 2146/3/5 2145/3/5
f 2150/3/5 2146/3/5 2149/3/5
f 2151/3/5 2148/3/5 2147/3/5
f 2152/3/5 2148/3/5 2151/3/5
f 2156/3/5 2150/3/5 2149/3/5
f 2156/3/5 2151/3/5 2150/3/5
f 2156/3/5 2153/3/5 2152/3/5
f 2156/3/5 2152/3/5 2151/3/5
f 2157/3/5 2153/3/5 2156/3/5
f 2161/3/5 2155/3/5 2154/3/5
f 2161/3/5 2159/3/5 2158/3/5
f 2161/3/5 2158/3/5 2157/3/5
f 2161/3/5 2157/3/5 2156/3/5
f 2161/3/5 2156/3/5 2155/3/5
f 2162/3/5 2159/3/5 2161/3/5
f 2166/3/5 2161/3/5 2160/3/5
f 2166/3/5 2164/3/5 2163/3/5
f 2166/3/5 2163/3/5 2162/3/5
f 2166/3/5 2162/3/5 2161/3/5
f 2167/3/5 2164/3/5 2166/3/5
f 2168/3/5 2164/3/5 2167/3/5
f 2169/3/5 2166/3/5 2165/3/5
f 2169/3/5 2167/3/5 2166/3/5
f 2170/3/5 2167/3/5 2169/3/5
f 2174/3/5 2171/3/5 2170/3/5
f 2174/3/5 2172/3/5 2171/3/5
f 2174/3/5 2170/3/5 2169/3/5
f 2175/3/5 2172/3/5 2174/3/5
f 2176/3/5 2172/3/5 2175/3/5
f 2177/3/5 2174/3/5 2173/3/5
f 2177/3/5 2175/3/5 2174/3/5
f 2178/3/5 2175/3/5 2177/3/5
f 2180/3/5 2175/3/5 2178/3/5
f 2181/3/5 2175/3/5 2180/3/5
f 2183/3/5 2180/3/5 2179/3/5
f 2183/3/5 2181/3/5 2180/3/5
f 2184/3/5 2181/3/5 2183/3/5
f 2186/3/5 2181/3/5 2184/3/5
f 2187/2/5 2182/2/5 2181/2/5
f 2187/3/5 2181/3/5 2186/3/5
f 2188/2/5 2182/2/5 2187/2/5
f 2189/2/5 2186/2/5 2185/2/5
f 2190/3/5 2187/3/5 2186/3/5
f 2190/2/5 2186/2/5 2189/2/5
f 2191/3/5 2187/3/5 2190/3/5
f 2193/3/5 2191/3/5 2190/3/5
f 2194/2/5 2192/2/5 2191/2/5
f 2194/3/5 2191/3/5 2193/3/5
f 2195/2/5 2192/2/5 2194/2/5
f 2200/2/5 2199/2/5 2198/2/5
f 2201/2/5 2199/2/5 2200/2/5
f 2203/2/5 2197/2/5 2196/2/5
f 2204/2/5 2197/2/5 2203/2/5
f 2206/2/5 2205/2/5 2204/2/5
f 2207/2/5 2205/2/5 2206/2/5
f 2208/2/5 2202/2/5 2201/2/5
f 2209/2/5 2202/2/5 2208/2/5
f 2214/2/5 2211/2/5 2210/2/5
f 2215/2/5 2211/2/5 2214/2/5
f 2217/2/5 2213/2/5 2212/2/5
f 2218/2/5 2213/2/5 2217/2/5
f 2220/2/5 2216/2/5 2215/2/5
f 2221/2/5 2216/2/5 2220/2/5
f 2222/2/5 2219/2/5 2218/2/5
f 2223/2/5 2219/2/5 2222/2/5
f 2224/3/6 2225/3/6 2230/3/6
f 2230/3/6 2225/3/6 2231/3/6
f 2226/3/6 2227/3/6 2232/3/6
f 2232/3/6 2227/3/6 2233/3/6
f 2228/3/6 2229/3/6 2237/3/6
f 2230/3/6 2231/3/6 2237/3/6
f 2233/3/6 2234/3/6 2237/3/6
f 2232/3/6 2233/3/6 2237/3/6
f 2231/3/6 2232/3/6 2237/3/6
f 2229/3/6 2230/3/6 2237/3/6
f 2237/3/6 2234/3/6 2238/3/6
f 2235/3/6 2236/3/6 2242/3/6
f 2242/3/6 2236/3/6 2243/3/6
f 2237/3/6 2238/3/6 2244/3/6
f 2244/3/6 2238/3/6 2245/3/6
f 2239/3/6 2240/3/6 2246/3/6
f 2246/3/6 2240/3/6 2247/3/6
f 2244/3/6 2245/3/6 2248/3/6
f 2242/3/6 2243/3/6 2248/3/6
f 2246/3/6 2247/3/6 2248/3/6
f 2245/3/6 2246/3/6 2248/3/6
f 2241/3/6 2242/3/6 2248/3/6
f 2243/3/6 2244/3/6 2248/3/6
f 2248/3/6 2247/3/6 2249/3/6
f 2249/3/6 2247/3/6 2250/3/6
f 2249/3/6 2250/3/6 2254/3/6
f 2250/3/6 2251/3/6 2254/3/6
f 2254/3/6 2251/3/6 2255/3/6
f 2252/3/6 2253/3/6 2256/3/6
f 2253/3/6 2254/3/6 2256/3/6
f 2254/3/6 2255/3/6 2256/3/6
f 2256/3/6 2255/3/6 2257/3/6
f 2257/3/6 2255/3/6 2258/3/6
f 2257/3/6 2258/3/6 2261/3/6
f 2258/3/6 2259/3/6 2261/3/6
f 2260/3/6 2261/3/6 2262/3/6
f 2261/3/6 2259/3/6 2263/3/6
f 2262/3/6 2261/3/6 2263/3/6
f 2263/3/6 2259/3/6 2264/3/6
f 2264/3/6 2259/3/6 2265/3/6
f 2263/3/6 2264/3/6 2267/3/6
f 2266/3/6 2267/3/6 2268/3/6
f 2267/3/6 2264/3/6 2269/3/6
f 2268/3/6 2267/3/6 2269/3/6
f 2269/3/6 2264/3/6 2270/3/6
f 2270/3/6 2271/3/6 2273/3/6
f 2269/3/6 2270/3/6 2273/3/6
f 2273/3/6 2271/3/6 2274/3/6
f 2274/3/6 2271/3/6 2275/3/6
f 2272/2/6 2273/2/6 2276/2/6
f 2273/3/6 2274/3/6 2277/3/6
f 2276/2/6 2273/2/6 2277/2/6
f 2277/3/6 2274/3/6 2278/3/6
f 2279/3/6 2280/3/6 2283/3/6
f 2283/3/6 2280/3/6 2284/3/6
f 2281/3/6 2282/3/6 2285/3/6
f 2285/3/6 2282/3/6 2286/3/6
f 2287/3/6 2288/3/6 2291/3/6
f 2291/3/6 2288/3/6 2292/3/6
f 2289/3/6 2290/3/6 2293/3/6
f 2293/3/6 2290/3/6 2294/3/6
f 2295/3/6 2296/3/6 2299/3/6
f 2299/3/6 2296/3/6 2300/3/6
f 2297/3/6 2298/3/6 2301/3/6
f 2301/3/6 2298/3/6 2302/3/6
f 2303/3/6 2304/3/6 2307/3/6
f 2307/3/6 2304/3/6 2308/3/6
f 2305/3/6 2306/3/6 2309/3/6
f 2309/3/6 2306/3/6 2310/3/6
f 2311/3/6 2312/3/6 2315/3/6
f 2315/3/6 2312/3/6 2316/3/6
f 2313/3/6 2314/3/6 2319/3/6
f 2319/3/6 2314/3/6 2320/3/6
f 2317/3/6 2318/3/6 2321/3/6
f 2321/3/6 2318/3/6 2322/3/6
f 2323/3/6 2324/3/6 2325/3/6
f 2325/3/6 2324/3/6 2326/3/6
f 2327/2/6 2328/2/6 2331/2/6
f 2331/2/6 2328/2/6 2332/2/6
f 2329/2/6 2330/2/6 2333/2/6
f 2333/2/6 2330/2/6 2334/2/6
f 2332/2/6 2333/2/6 2335/2/6
f 2335/2/6 2333/2/6 2336/2/6
f 2337/2/6 2338/2/6 2341/2/6
f 2341/2/6 2338/2/6 2342/2/6
f 2339/2/6 2340/2/6 2345/2/6
f 2345/2/6 2340/2/6 2346/2/6
f 2343/2/6 2344/2/6 2347/2/6
f 2347/2/6 2344/2/6 2348/2/6
f 2349/2/6 2350/2/6 2353/2/6
f 2353/2/6 2350/2/6 2354/2/6
f 2351/2/6 2352/2/6 2356/2/6
f 2356/2/6 2352/2/6 2357/2/6
f 2354/2/6 2355/2/6 2359/2/6
f 2359/2/6 2355/2/6 2360/2/6
f 2360/2/6 2361/2/6 2362/2/6
f 2357/2/6 2358/2/6 2363/2/6
f 2363/2/6 2358/2/6 2364/2/6
f 2362/2/6 2363/2/6 2364/2/6
f 2364/2/6 2358/2/6 2365/2/6
f 2360/2/6 2362/2/6 2366/2/6
f 2362/2/6 2364/2/6 2366/2/6
f 2366/2/6 2364/2/6 2367/2/6
f 2368/2/6 2369/2/6 2372/2/6
f 2372/2/6 2369/2/6 2373/2/6
f 2370/2/6 2371/2/6 2374/2/6
f 2374/2/6 2371/2/6 2375/2/6
f 2376/2/6 2377/2/6 2380/2/6
f 2380/2/6 2377/2/6 2381/2/6
f 2378/2/6 2379/2/6 2384/2/6
f 2384/2/6 2379/2/6 2385/2/6
f 2382/2/6 2383/2/6 2386/2/6
f 2386/2/6 2383/2/6 2387/2/6
f 2387/2/6 2383/2/6 2388/2/6
f 2388/2/6 2389/2/6 2390/2/6
f 2387/2/6 2388/2/6 2390/2/6
f 2390/2/6 2389/2/6 2391/2/6
f 2391/2/6 2389/2/6 2392/2/6
f 2392/2/6 2389/2/6 2393/2/6
f 2394/2/6 2395/2/6 2398/2/6
f 2398/2/6 2395/2/6 2399/2/6
f 2396/2/6 2397/2/6 2401/2/6
f 2401/2/6 2397/2/6 2402/2/6
f 2399/2/6 2400/2/6 2404/2/6
f 2404/2/6 2400/2/6 2405/2/6
f 2403/2/6 2404/2/6 2408/2/6
f 2408/2/6 2404/2/6 2409/2/6
f 2405/2/6 2406/2/6 2411/2/6
f 2411/2/6 2406/2/6 2412/2/6
f 2407/2/6 2408/2/6 2414/2/6
f 2414/2/6 2408/2/6 2415/2/6
f 2410/2/6 2411/2/6 2417/2/6
f 2417/2/6 2411/2/6 2418/2/6
f 2413/2/6 2414/2/6 2419/2/6
f 2419/2/6 2414/2/6 2420/2/6
f 2416/2/6 2417/2/6 2421/2/6
f 2421/2/6 2417/2/6 2422/2/6
f 2425/2/6 2426/2/6 2428/2/6
f 2428/2/6 2426/2/6 2429/2/6
f 2423/2/6 2424/2/6 2430/2/6
f 2430/2/6 2424/2/6 2431/2/6
f 2427/2/6 2428/2/6 2432/2/6
f 2432/2/6 2428/2/6 2433/2/6
f 2436/2/6 2437/2/6 2438/2/6
f 2438/2/6 2437/2/6 2439/2/6
f 2434/2/6 2435/2/6 2441/2/6
f 2441/2/6 2435/2/6 2442/2/6
f 2442/2/6 2443/2/6 2444/2/6
f 2444/2/6 2443/2/6 2445/2/6
f 2445/2/6 2446/2/6 2447/2/6
f 2439/2/6 2440/2/6 2448/2/6
f 2448/2/6 2440/2/6 2449/2/6
f 2445/2/6 2447/2/6 2450/2/6
f 2447/2/6 2448/2/6 2450/2/6
f 2450/2/6 2448/2/6 2451/2/6
f 2454/2/6 2455/2/6 2456/2/6
f 2456/2/6 2455/2/6 2457/2/6
f 2452/2/6 2453/2/6 2459/2/6
f 2459/2/6 2453/2/6 2460/2/6
f 2460/2/6 2461/2/6 2462/2/6
f 2462/2/6 2461/2/6 2463/2/6
f 2463/2/6 2464/2/6 2465/2/6
f 2457/2/6 2458/2/6 2466/2/6
f 2466/2/6 2458/2/6 2467/2/6
f 2463/2/6 2465/2/6 2468/2/6
f 2465/2/6 2466/2/6 2468/2/6
f 2468/2/6 2466/2/6 2469/2/6
f 2470/2/6 2471/2/6 2473/2/6
f 2473/2/6 2471/2/6 2474/2/6
f 2472/2/6 2473/2/6 2474/2/6
f 2474/2/6 2471/2/6 2475/2/6
f 2472/2/6 2474/2/6 2477/2/6
f 2477/2/6 2474/2/6 2478/2/6
f 2476/2/6 2477/2/6 2478/2/6
f 2478/2/6 2474/2/6 2479/2/6
f 2476/2/6 2478/2/6 2481/2/6
f 2481/2/6 2478/2/6 2482/2/6
f 2480/2/6 2481/2/6 2485/2/6
f 2485/2/6 2481/2/6 2486/2/6
f 2483/2/6 2484/2/6 2488/2/6
f 2488/2/6 2484/2/6 2489/2/6
f 2486/2/6 2487/2/6 2490/2/6
f 2490/2/6 2487/2/6 2491/2/6
f 2486/2/6 2490/2/6 2493/2/6
f 2493/2/6 2490/2/6 2494/2/6
f 2494/2/6 2490/2/6 2495/2/6
f 2495/2/6 2490/2/6 2496/2/6
f 2492/2/6 2493/2/6 2499/2/6
f 2499/2/6 2493/2/6 2500/2/6
f 2496/2/6 2497/2/6 2502/2/6
f 2502/2/6 2497/2/6 2503/2/6
f 2498/2/6 2499/2/6 2504/2/6
f 2504/2/6 2499/2/6 2505/2/6
f 2501/2/6 2502/2/6 2508/2/6
f 2508/2/6 2502/2/6 2509/2/6
f 2506/2/6 2507/2/6 2510/2/6
f 2506/2/6 2510/2/6 2512/2/6
f 2510/2/6 2511/2/6 2512/2/6
f 2512/2/6 2511/2/6 2513/2/6
f 2513/2/6 2511/2/6 2514/2/6
f 2514/2/6 2511/2/6 2515/2/6
f 2515/2/6 2511/2/6 2516/2/6
f 2516/2/6 2511/2/6 2517/2/6
f 2518/2/6 2519/2/6 2521/2/6
f 2521/2/6 2519/2/6 2522/2/6
f 2520/2/6 2521/2/6 2525/2/6
f 2525/2/6 2521/2/6 2526/2/6
f 2522/2/6 2523/2/6 2527/2/6
f 2527/2/6 2523/2/6 2528/2/6
f 2524/2/6 2525/2/6 2531/2/6
f 2531/2/6 2525/2/6 2532/2/6
f 2528/2/6 2529/2/6 2533/2/6
f 2533/2/6 2529/2/6 2534/2/6
f 2530/2/6 2531/2/6 2537/2/6
f 2537/2/6 2531/2/6 2538/2/6
f 2534/2/6 2535/2/6 2539/2/6
f 2539/2/6 2535/2/6 2540/2/6
f 2536/2/6 2537/2/6 2542/2/6
f 2542/2/6 2537/2/6 2543/2/6
f 2540/2/6 2541/2/6 2544/2/6
f 2544/2/6 2541/2/6 2545/2/6
f 2548/2/6 2549/2/6 2550/2/6
f 2550/2/6 2549/2/6 2551/2/6
f 2546/2/6 2547/2/6 2553/2/6
f 2553/2/6 2547/2/6 2554/2/6
f 2551/2/6 2552/2/6 2556/2/6
f 2556/2/6 2552/2/6 2557/2/6
f 2554/2/6 2555/2/6 2559/2/6
f 2559/2/6 2555/2/6 2560/2/6
f 2560/2/6 2561/2/6 2562/2/6
f 2562/2/6 2561/2/6 2563/2/6
f 2563/2/6 2564/2/6 2565/2/6
f 2557/2/6 2558/2/6 2566/2/6
f 2566/2/6 2558/2/6 2567/2/6
f 2565/2/6 2566/2/6 2568/2/6
f 2563/2/6 2565/2/6 2570/2/6
f 2568/2/6 2569/2/6 2570/2/6
f 2565/2/6 2568/2/6 2570/2/6
f 2570/2/6 2569/2/6 2571/2/6
f 2571/2/6 2569/2/6 2572/2/6
f 2572/2/6 2569/2/6 2573/2/6
f 2573/2/6 2569/2/6 2574/2/6
f 2574/2/6 2569/2/6 2575/2/6
f 2576/2/6 2577/2/6 2578/2/6
f 2578/2/6 2577/2/6 2579/2/6
f 2580/2/6 2581/2/6 2582/2/6
f 2580/2/6 2582/2/6 2585/2/6
f 2582/2/6 2583/2/6 2585/2/6
f 2585/2/6 2583/2/6 2586/2/6
f 2584/2/6 2585/2/6 2586/2/6
f 2586/2/6 2583/2/6 2587/2/6
f 2584/2/6 2586/2/6 2588/2/6
f 2588/2/6 2586/2/6 2589/2/6
f 2590/2/6 2591/2/6 2593/2/6
f 2593/2/6 2591/2/6 2594/2/6
f 2592/2/6 2593/2/6 2597/2/6
f 2594/2/6 2595/2/6 2597/2/6
f 2593/2/6 2594/2/6 2597/2/6
f 2597/2/6 2595/2/6 2598/2/6
f 2596/2/6 2597/2/6 2601/2/6
f 2598/2/6 2599/2/6 2601/2/6
f 2597/2/6 2598/2/6 2601/2/6
f 2601/2/6 2599/2/6 2602/2/6
f 2600/2/6 2601/2/6 2604/2/6
f 2602/2/6 2603/2/6 2604/2/6
f 2601/2/6 2602/2/6 2604/2/6
f 2604/2/6 2603/2/6 2605/2/6
f 2600/2/6 2604/2/6 2606/2/6
f 2606/2/6 2604/2/6 2607/2/6
f 2605/2/6 2603/2/6 2608/2/6
f 2608/2/6 2603/2/6 2609/2/6
f 2610/2/6 2611/2/6 2614/2/6
f 2614/2/6 2611/2/6 2615/2/6
f 2612/2/6 2613/2/6 2616/2/6
f 2616/2/6 2613/2/6 2617/2/6
f 2615/2/6 2616/2/6 2618/2/6
f 2615/2/6 2618/2/6 2620/2/6
f 2618/2/6 2619/2/6 2620/2/6
f 2620/2/6 2619/2/6 2621/2/6
f 2621/2/6 2619/2/6 2622/2/6
f 2621/2/6 2622/2/6 2624/2/6
f 2622/2/6 2623/2/6 2624/2/6
f 2624/2/6 2623/2/6 2625/2/6
f 2625/2/6 2623/2/6 2626/2/6
f 2626/2/6 2623/2/6 2627/2/6
f 2627/2/6 2623/2/6 2628/2/6
f 2628/2/6 2623/2/6 2629/2/6
f 2630/2/6 2631/2/6 2634/2/6
f 2634/2/6 2631/2/6 2635/2/6
f 2632/2/6 2633/2/6 2638/2/6
f 2638/2/6 2633/2/6 2639/2/6
f 2636/2/6 2637/2/6 2640/2/6
f 2640/2/6 2637/2/6 2641/2/6
f 2632/2/6 2638/2/6 2644/2/6
f 2644/2/6 2638/2/6 2645/2/6
f 2642/2/6 2643/2/6 2646/2/6
f 2646/2/6 2643/2/6 2647/2/6
f 2645/2/6 2646/2/6 2648/2/6
f 2648/2/6 2646/2/6 2649/2/6
f 2650/2/6 2651/2/6 2653/2/6
f 2653/2/6 2651/2/6 2654/2/6
f 2652/2/6 2653/2/6 2656/2/6
f 2654/2/6 2655/2/6 2657/2/6
f 2657/2/6 2655/2/6 2658/2/6
f 2652/2/6 2656/2/6 2659/2/6
f 2656/2/6 2657/2/6 2659/2/6
f 2659/2/6 2657/2/6 2660/2/6
f 2661/2/6 2662/2/6 2663/2/6
f 2663/2/6 2662/2/6 2664/2/6
