# MagicaVoxel @ Ephtracy

# group
o 

# material
mtllib Big_Witch.mtl
usemtl palette

# normals
vn -1 0 0
vn 1 0 0
vn 0 0 1
vn 0 0 -1
vn 0 -1 0
vn 0 1 0

# texcoords
vt 0.00585938 0.5
vt 0.0214844 0.5
vt 0.0253906 0.5
vt 0.0292969 0.5
vt 0.150391 0.5
vt 0.853516 0.5
vt 0.861328 0.5
vt 0.873047 0.5
vt 0.916016 0.5

# verts
v -0.3 0.9 -0.3
v -0.3 0.9 -0.6
v -0.3 1 -0.3
v -0.3 1 -0.6
v -0.3 1.4 0
v -0.3 1.4 -0.2
v -0.3 1.5 0
v -0.3 1.5 -0.2
v -0.2 0.2 0.3
v -0.2 0.2 0.2
v -0.2 0.3 0.3
v -0.2 0.3 0.2
v -0.2 0.3 0.1
v -0.2 0.3 0
v -0.2 0.3 -0.1
v -0.2 0.3 -0.2
v -0.2 0.3 -0.3
v -0.2 0.4 0.1
v -0.2 0.4 0
v -0.2 0.4 -0.1
v -0.2 0.4 -0.2
v -0.2 0.5 0.2
v -0.2 0.5 0
v -0.2 0.5 -0.1
v -0.2 0.5 -0.2
v -0.2 0.5 -0.3
v -0.2 0.6 0.2
v -0.2 0.6 0.1
v -0.2 0.7 0.1
v -0.2 0.7 -0.2
v -0.2 0.9 0
v -0.2 0.9 -0.2
v -0.2 0.9 -0.3
v -0.2 1 0.1
v -0.2 1 0
v -0.2 1 -0.1
v -0.2 1 -0.2
v -0.2 1 -0.3
v -0.2 1 -0.4
v -0.2 1 -0.5
v -0.2 1.1 0
v -0.2 1.1 -0.1
v -0.2 1.1 -0.4
v -0.2 1.1 -0.5
v -0.2 1.2 -0.2
v -0.2 1.2 -0.3
v -0.2 1.3 0.1
v -0.2 1.3 0
v -0.2 1.4 0.1
v -0.2 1.4 0
v -0.2 1.4 -0.2
v -0.2 1.4 -0.3
v -0.2 1.5 0.1
v -0.2 1.5 0
v -0.2 1.5 -0.2
v -0.2 1.5 -0.3
v -0.1 0.4 0.3
v -0.1 0.4 0.2
v -0.1 0.5 0.3
v -0.1 0.5 0.2
v -0.1 0.5 -0.2
v -0.1 0.5 -0.3
v -0.1 0.6 0.2
v -0.1 0.6 0.1
v -0.1 0.6 -0.2
v -0.1 0.6 -0.3
v -0.1 0.7 0.2
v -0.1 0.7 0.1
v -0.1 0.7 -0.2
v -0.1 0.7 -0.3
v -0.1 0.9 0.1
v -0.1 0.9 0
v -0.1 0.9 -0.2
v -0.1 1 0.2
v -0.1 1 0.1
v -0.1 1 0
v -0.1 1.1 -0.2
v -0.1 1.1 -0.3
v -0.1 1.2 -0.2
v -0.1 1.2 -0.3
v -0.1 1.3 0.1
v -0.1 1.3 0
v -0.1 1.3 -0.3
v -0.1 1.3 -0.4
v -0.1 1.4 0.2
v -0.1 1.4 0.1
v -0.1 1.4 0
v -0.1 1.4 -0.3
v -0.1 1.4 -0.4
v -0.1 1.5 0.2
v -0.1 1.5 0.1
v -0.1 1.5 -0.2
v -0.1 1.5 -0.3
v -0.1 1.5 -0.4
v -0.1 1.6 -0.1
v -0.1 1.6 -0.2
v -0.1 1.7 0.2
v -0.1 1.7 0.1
v -0.1 1.7 0
v -0.1 1.7 -0.1
v -0.1 1.8 0.2
v -0.1 1.8 0
v -2.98023e-08 0.2 0.4
v -2.98023e-08 0.2 0.2
v -2.98023e-08 0.3 0.4
v -2.98023e-08 0.3 0.3
v -2.98023e-08 0.3 0.2
v -2.98023e-08 0.4 0.3
v -2.98023e-08 0.4 0.2
v -2.98023e-08 0.5 0.3
v -2.98023e-08 0.5 0.2
v -2.98023e-08 0.6 0.3
v -2.98023e-08 0.6 0.2
v -2.98023e-08 0.9 0.2
v -2.98023e-08 0.9 0.1
v -2.98023e-08 1 0.2
v -2.98023e-08 1 0.1
v -2.98023e-08 1.6 -0.1
v -2.98023e-08 1.6 -0.2
v -2.98023e-08 1.7 0
v -2.98023e-08 1.7 -0.1
v -2.98023e-08 1.7 -0.2
v -2.98023e-08 1.8 0.3
v -2.98023e-08 1.8 0.2
v -2.98023e-08 1.8 0.1
v -2.98023e-08 1.8 0
v -2.98023e-08 1.8 -0.1
v -2.98023e-08 1.9 0.3
v -2.98023e-08 1.9 0.1
v 0.1 0.3 -0.2
v 0.1 0.3 -0.3
v 0.1 0.4 -0.2
v 0.1 0.4 -0.3
v 0.1 0.7 -0.2
v 0.1 0.7 -0.3
v 0.1 0.8 -0.2
v 0.1 0.8 -0.3
v 0.2 0.1 0.3
v 0.2 0.1 0.2
v 0.2 0.2 0.2
v 0.2 0.2 0
v 0.2 0.3 0.3
v 0.2 0.3 0.1
v 0.2 0.3 0
v 0.2 0.3 -0.1
v 0.2 0.4 0.1
v 0.2 0.4 0
v 0.2 0.4 -0.1
v 0.2 0.4 -0.2
v 0.2 0.4 -0.3
v 0.2 0.5 0.1
v 0.2 0.5 0
v 0.2 0.5 -0.2
v 0.2 0.5 -0.3
v 0.2 0.6 -0.2
v 0.2 0.7 0.1
v 0.2 0.7 -0.2
v 0.4 0.3 -0.1
v 0.4 0.3 -0.2
v 0.4 0.4 -0.3
v 0.4 0.4 -0.4
v 0.4 0.5 -0.2
v 0.4 0.5 -0.3
v 0.4 0.6 -0.1
v 0.4 0.6 -0.2
v 0.4 0.6 -0.3
v 0.4 0.6 -0.4
v 0.4 0.9 -0.1
v 0.4 0.9 -0.2
v 0.4 1 -0.1
v 0.4 1 -0.2
v 0.4 1.3 -0.1
v 0.4 1.3 -0.2
v 0.4 1.4 -0.1
v 0.4 1.4 -0.2
v 0.4 1.4 -0.3
v 0.4 1.4 -0.4
v 0.4 1.5 0
v 0.4 1.5 -0.1
v 0.4 1.5 -0.2
v 0.4 1.5 -0.4
v 0.4 1.5 -0.5
v 0.4 1.7 -0.4
v 0.4 1.7 -0.5
v 0.4 1.8 0
v 0.4 1.8 -0.1
v 0.4 1.8 -0.4
v -0.1 0.2 0.3
v -0.1 0.2 0.2
v -0.1 0.3 0.3
v -0.1 0.3 0.2
v -0.1 0.3 0
v -0.1 0.3 -0.1
v -0.1 0.3 -0.2
v -0.1 0.3 -0.3
v -0.1 0.4 0.1
v -0.1 0.4 0
v -0.1 0.4 -0.1
v -0.1 0.4 -0.2
v -0.1 0.4 -0.3
v -0.1 0.5 0.1
v -0.1 0.5 0
v -0.1 0.5 -0.1
v -0.1 0.5 -0.2
v -0.1 0.6 -0.2
v -0.1 0.7 0.1
v -0.1 0.7 -0.2
v -0.1 0.9 -0.2
v -0.1 0.9 -0.3
v -0.1 1 -0.2
v -0.1 1 -0.3
v -0.1 1 -0.4
v -0.1 1 -0.5
v -0.1 1.1 -0.4
v -0.1 1.1 -0.5
v -2.98023e-08 0.4 -0.2
v -2.98023e-08 0.4 -0.3
v -2.98023e-08 0.5 -0.2
v -2.98023e-08 0.5 -0.3
v -2.98023e-08 0.9 -0.3
v -2.98023e-08 0.9 -0.6
v -2.98023e-08 1 -0.3
v -2.98023e-08 1 -0.6
v 0.1 0.2 0.4
v 0.1 0.2 0.2
v 0.1 0.3 0.4
v 0.1 0.3 0.3
v 0.1 0.3 0.2
v 0.1 0.5 0.3
v 0.1 0.5 0.2
v 0.1 0.6 0.3
v 0.1 0.6 0.2
v 0.1 0.9 0.2
v 0.1 0.9 0.1
v 0.1 1 0.2
v 0.1 1 0.1
v 0.1 1.6 -0.1
v 0.1 1.6 -0.2
v 0.1 1.7 0
v 0.1 1.7 -0.1
v 0.1 1.7 -0.2
v 0.1 1.8 0.3
v 0.1 1.8 0.2
v 0.1 1.8 0.1
v 0.1 1.8 0
v 0.1 1.8 -0.1
v 0.1 1.9 0.3
v 0.1 1.9 0.1
v 0.2 0.3 0.3
v 0.2 0.3 0.2
v 0.2 0.3 -0.2
v 0.2 0.3 -0.3
v 0.2 0.4 0.3
v 0.2 0.4 0.2
v 0.2 0.4 -0.2
v 0.2 0.4 -0.3
v 0.2 0.5 0.3
v 0.2 0.5 0.2
v 0.2 0.6 0.2
v 0.2 0.6 0.1
v 0.2 0.6 -0.2
v 0.2 0.6 -0.3
v 0.2 0.7 0.2
v 0.2 0.7 0.1
v 0.2 0.7 -0.2
v 0.2 0.8 -0.2
v 0.2 0.8 -0.3
v 0.2 0.9 0.1
v 0.2 0.9 0
v 0.2 0.9 -0.1
v 0.2 1 0.2
v 0.2 1 0.1
v 0.2 1 0
v 0.2 1 -0.1
v 0.2 1 -0.2
v 0.2 1.1 -0.2
v 0.2 1.1 -0.3
v 0.2 1.2 -0.2
v 0.2 1.2 -0.3
v 0.2 1.3 0.1
v 0.2 1.3 0
v 0.2 1.3 -0.3
v 0.2 1.3 -0.4
v 0.2 1.4 0.2
v 0.2 1.4 0.1
v 0.2 1.4 0
v 0.2 1.4 -0.3
v 0.2 1.4 -0.4
v 0.2 1.5 0.2
v 0.2 1.5 0.1
v 0.2 1.5 -0.2
v 0.2 1.5 -0.3
v 0.2 1.5 -0.4
v 0.2 1.6 -0.1
v 0.2 1.6 -0.2
v 0.2 1.7 0.2
v 0.2 1.7 0.1
v 0.2 1.7 0
v 0.2 1.7 -0.1
v 0.2 1.8 0.2
v 0.2 1.8 0
v 0.3 0.1 0.3
v 0.3 0.1 0.2
v 0.3 0.2 0.2
v 0.3 0.2 0
v 0.3 0.3 0.3
v 0.3 0.3 0.2
v 0.3 0.3 0.1
v 0.3 0.3 0
v 0.3 0.3 -0.1
v 0.3 0.4 0.2
v 0.3 0.4 0.1
v 0.3 0.4 0
v 0.3 0.4 -0.1
v 0.3 0.4 -0.2
v 0.3 0.4 -0.3
v 0.3 0.5 0.1
v 0.3 0.5 0
v 0.3 0.6 0.2
v 0.3 0.6 0.1
v 0.3 0.6 -0.2
v 0.3 0.6 -0.3
v 0.3 0.7 0.1
v 0.3 0.7 -0.2
v 0.3 1 0.1
v 0.3 1 0
v 0.3 1 -0.1
v 0.3 1 -0.2
v 0.3 1.1 0
v 0.3 1.1 -0.1
v 0.3 1.2 -0.2
v 0.3 1.2 -0.3
v 0.3 1.3 0.1
v 0.3 1.3 0
v 0.3 1.4 0.1
v 0.3 1.4 0
v 0.3 1.4 -0.2
v 0.3 1.4 -0.3
v 0.3 1.5 0.1
v 0.3 1.5 0
v 0.3 1.5 -0.2
v 0.3 1.5 -0.3
v 0.4 0.9 0
v 0.4 0.9 -0.1
v 0.4 1 0
v 0.4 1 -0.1
v 0.5 0.3 -0.1
v 0.5 0.3 -0.2
v 0.5 0.4 -0.3
v 0.5 0.4 -0.4
v 0.5 0.5 -0.2
v 0.5 0.5 -0.3
v 0.5 0.6 -0.1
v 0.5 0.6 -0.2
v 0.5 0.6 -0.3
v 0.5 0.6 -0.4
v 0.5 0.9 -0.1
v 0.5 0.9 -0.2
v 0.5 1 -0.1
v 0.5 1 -0.2
v 0.5 1.3 -0.1
v 0.5 1.3 -0.2
v 0.5 1.4 0
v 0.5 1.4 -0.1
v 0.5 1.4 -0.3
v 0.5 1.4 -0.4
v 0.5 1.5 -0.1
v 0.5 1.5 -0.4
v 0.5 1.5 -0.5
v 0.5 1.7 -0.4
v 0.5 1.7 -0.5
v 0.5 1.8 0
v 0.5 1.8 -0.1
v 0.5 1.8 -0.4
v -2.98023e-08 0.2 0.4
v -2.98023e-08 0.3 0.4
v 0.1 0.2 0.4
v 0.1 0.3 0.4
v -0.2 0.2 0.3
v -0.2 0.3 0.3
v -0.1 0.2 0.3
v -0.1 0.3 0.3
v -0.1 0.4 0.3
v -0.1 0.5 0.3
v -2.98023e-08 0.3 0.3
v -2.98023e-08 0.4 0.3
v -2.98023e-08 0.5 0.3
v -2.98023e-08 0.6 0.3
v -2.98023e-08 1.8 0.3
v -2.98023e-08 1.9 0.3
v 0.1 0.3 0.3
v 0.1 0.4 0.3
v 0.1 0.5 0.3
v 0.1 0.6 0.3
v 0.1 1.8 0.3
v 0.1 1.9 0.3
v 0.2 0.1 0.3
v 0.2 0.3 0.3
v 0.2 0.4 0.3
v 0.2 0.5 0.3
v 0.3 0.1 0.3
v 0.3 0.3 0.3
v -0.2 0.3 0.2
v -0.2 0.5 0.2
v -0.2 0.6 0.2
v -0.1 0.3 0.2
v -0.1 0.4 0.2
v -0.1 0.5 0.2
v -0.1 0.6 0.2
v -0.1 0.7 0.2
v -0.1 1 0.2
v -0.1 1.4 0.2
v -0.1 1.5 0.2
v -0.1 1.7 0.2
v -0.1 1.8 0.2
v -2.98023e-08 0.3 0.2
v -2.98023e-08 0.4 0.2
v -2.98023e-08 0.5 0.2
v -2.98023e-08 0.6 0.2
v -2.98023e-08 0.9 0.2
v -2.98023e-08 1 0.2
v -2.98023e-08 1.8 0.2
v 0.1 0.5 0.2
v 0.1 0.6 0.2
v 0.1 0.9 0.2
v 0.1 1 0.2
v 0.1 1.8 0.2
v 0.2 0.3 0.2
v 0.2 0.4 0.2
v 0.2 0.5 0.2
v 0.2 0.6 0.2
v 0.2 0.7 0.2
v 0.2 1 0.2
v 0.2 1.4 0.2
v 0.2 1.5 0.2
v 0.2 1.7 0.2
v 0.2 1.8 0.2
v 0.3 0.3 0.2
v 0.3 0.4 0.2
v 0.3 0.6 0.2
v -0.2 0.6 0.1
v -0.2 0.7 0.1
v -0.2 1 0.1
v -0.2 1.3 0.1
v -0.2 1.4 0.1
v -0.2 1.5 0.1
v -0.1 0.6 0.1
v -0.1 0.7 0.1
v -0.1 0.9 0.1
v -0.1 1 0.1
v -0.1 1.3 0.1
v -0.1 1.4 0.1
v -0.1 1.5 0.1
v -0.1 1.7 0.1
v -2.98023e-08 0.9 0.1
v -2.98023e-08 1 0.1
v 0.1 0.9 0.1
v 0.1 1 0.1
v 0.2 0.6 0.1
v 0.2 0.7 0.1
v 0.2 0.9 0.1
v 0.2 1 0.1
v 0.2 1.3 0.1
v 0.2 1.4 0.1
v 0.2 1.5 0.1
v 0.2 1.7 0.1
v 0.3 0.6 0.1
v 0.3 0.7 0.1
v 0.3 1 0.1
v 0.3 1.3 0.1
v 0.3 1.4 0.1
v 0.3 1.5 0.1
v -0.3 1.4 0
v -0.3 1.5 0
v -0.2 0.3 0
v -0.2 0.4 0
v -0.2 0.9 0
v -0.2 1 0
v -0.2 1.3 0
v -0.2 1.4 0
v -0.2 1.5 0
v -0.1 0.3 0
v -0.1 0.4 0
v -0.1 0.9 0
v -0.1 1 0
v -0.1 1.3 0
v -0.1 1.4 0
v 0.2 0.3 0
v 0.2 0.4 0
v 0.2 0.9 0
v 0.2 1 0
v 0.2 1.3 0
v 0.2 1.4 0
v 0.3 0.3 0
v 0.3 0.4 0
v 0.3 1 0
v 0.3 1.3 0
v 0.3 1.4 0
v 0.3 1.5 0
v 0.4 0.9 0
v 0.4 1 0
v 0.4 1.4 0
v 0.4 1.5 0
v 0.4 1.8 0
v 0.5 1.4 0
v 0.5 1.8 0
v 0.4 0.3 -0.1
v 0.4 0.6 -0.1
v 0.4 0.9 -0.1
v 0.4 1 -0.1
v 0.4 1.3 -0.1
v 0.4 1.4 -0.1
v 0.5 0.3 -0.1
v 0.5 0.6 -0.1
v 0.5 0.9 -0.1
v 0.5 1 -0.1
v 0.5 1.3 -0.1
v 0.5 1.4 -0.1
v -0.2 0.3 -0.2
v -0.2 0.4 -0.2
v -0.1 0.3 -0.2
v -0.1 0.4 -0.2
v -0.1 0.5 -0.2
v -0.1 0.6 -0.2
v -0.1 0.7 -0.2
v -2.98023e-08 0.4 -0.2
v -2.98023e-08 0.5 -0.2
v 0.1 0.3 -0.2
v 0.1 0.4 -0.2
v 0.2 0.3 -0.2
v 0.2 0.4 -0.2
v 0.2 0.5 -0.2
v 0.2 0.6 -0.2
v 0.2 0.7 -0.2
v 0.4 0.6 -0.2
v 0.4 0.9 -0.2
v 0.4 1 -0.2
v 0.4 1.3 -0.2
v 0.5 0.6 -0.2
v 0.5 0.9 -0.2
v 0.5 1 -0.2
v 0.5 1.3 -0.2
v -0.3 0.9 -0.3
v -0.3 1 -0.3
v -0.2 0.9 -0.3
v -0.2 1 -0.3
v -0.1 0.9 -0.3
v -0.1 1 -0.3
v -2.98023e-08 0.9 -0.3
v -2.98023e-08 1 -0.3
v 0.4 0.4 -0.3
v 0.4 0.5 -0.3
v 0.5 0.4 -0.3
v 0.5 0.5 -0.3
v -0.2 1 -0.4
v -0.2 1.1 -0.4
v -0.1 1 -0.4
v -0.1 1.1 -0.4
v -0.2 0.2 0.2
v -0.2 0.3 0.2
v -0.1 0.2 0.2
v -0.1 0.3 0.2
v -2.98023e-08 0.2 0.2
v -2.98023e-08 0.3 0.2
v 0.1 0.2 0.2
v 0.1 0.3 0.2
v 0.2 0.1 0.2
v 0.2 0.2 0.2
v 0.3 0.1 0.2
v 0.3 0.2 0.2
v -0.2 0.3 0.1
v -0.2 0.4 0.1
v -0.1 0.4 0.1
v -0.1 0.5 0.1
v -0.1 0.7 0.1
v -2.98023e-08 1.8 0.1
v -2.98023e-08 1.9 0.1
v 0.1 1.8 0.1
v 0.1 1.9 0.1
v 0.2 0.3 0.1
v 0.2 0.4 0.1
v 0.2 0.5 0.1
v 0.2 0.7 0.1
v 0.3 0.3 0.1
v 0.3 0.4 0.1
v -0.1 1.7 0
v -0.1 1.8 0
v -2.98023e-08 1.7 0
v -2.98023e-08 1.8 0
v 0.1 1.7 0
v 0.1 1.8 0
v 0.2 0.2 0
v 0.2 0.3 0
v 0.2 1.7 0
v 0.2 1.8 0
v 0.3 0.2 0
v 0.3 0.3 0
v -0.2 0.3 -0.1
v -0.2 0.4 -0.1
v -0.1 0.3 -0.1
v -0.1 0.4 -0.1
v -0.1 1.6 -0.1
v -0.1 1.7 -0.1
v -2.98023e-08 1.6 -0.1
v -2.98023e-08 1.7 -0.1
v -2.98023e-08 1.8 -0.1
v 0.1 1.6 -0.1
v 0.1 1.7 -0.1
v 0.1 1.8 -0.1
v 0.2 0.3 -0.1
v 0.2 0.4 -0.1
v 0.2 0.9 -0.1
v 0.2 1 -0.1
v 0.2 1.6 -0.1
v 0.2 1.7 -0.1
v 0.3 0.3 -0.1
v 0.3 0.4 -0.1
v 0.3 1 -0.1
v 0.4 0.9 -0.1
v 0.4 1 -0.1
v -0.3 1.4 -0.2
v -0.3 1.5 -0.2
v -0.2 0.5 -0.2
v -0.2 0.7 -0.2
v -0.2 1 -0.2
v -0.2 1.2 -0.2
v -0.2 1.4 -0.2
v -0.2 1.5 -0.2
v -0.1 0.5 -0.2
v -0.1 0.6 -0.2
v -0.1 0.7 -0.2
v -0.1 0.9 -0.2
v -0.1 1 -0.2
v -0.1 1.1 -0.2
v -0.1 1.2 -0.2
v -0.1 1.5 -0.2
v -0.1 1.6 -0.2
v -2.98023e-08 1.6 -0.2
v -2.98023e-08 1.7 -0.2
v 0.1 0.7 -0.2
v 0.1 0.8 -0.2
v 0.1 1.6 -0.2
v 0.1 1.7 -0.2
v 0.2 0.6 -0.2
v 0.2 0.7 -0.2
v 0.2 0.8 -0.2
v 0.2 1 -0.2
v 0.2 1.1 -0.2
v 0.2 1.2 -0.2
v 0.2 1.5 -0.2
v 0.2 1.6 -0.2
v 0.3 0.6 -0.2
v 0.3 0.7 -0.2
v 0.3 1 -0.2
v 0.3 1.2 -0.2
v 0.3 1.4 -0.2
v 0.3 1.5 -0.2
v 0.4 0.3 -0.2
v 0.4 0.5 -0.2
v 0.4 1.4 -0.2
v 0.4 1.5 -0.2
v 0.5 0.3 -0.2
v 0.5 0.5 -0.2
v -0.2 0.3 -0.3
v -0.2 0.5 -0.3
v -0.2 1.2 -0.3
v -0.2 1.4 -0.3
v -0.2 1.5 -0.3
v -0.1 0.3 -0.3
v -0.1 0.4 -0.3
v -0.1 0.5 -0.3
v -0.1 0.6 -0.3
v -0.1 0.7 -0.3
v -0.1 1.1 -0.3
v -0.1 1.2 -0.3
v -0.1 1.3 -0.3
v -0.1 1.4 -0.3
v -0.1 1.5 -0.3
v -2.98023e-08 0.4 -0.3
v -2.98023e-08 0.5 -0.3
v -2.98023e-08 1.2 -0.3
v -2.98023e-08 1.3 -0.3
v 0.1 0.3 -0.3
v 0.1 0.4 -0.3
v 0.1 0.7 -0.3
v 0.1 0.8 -0.3
v 0.1 1.2 -0.3
v 0.1 1.3 -0.3
v 0.2 0.3 -0.3
v 0.2 0.4 -0.3
v 0.2 0.5 -0.3
v 0.2 0.6 -0.3
v 0.2 0.8 -0.3
v 0.2 1.1 -0.3
v 0.2 1.2 -0.3
v 0.2 1.3 -0.3
v 0.2 1.4 -0.3
v 0.2 1.5 -0.3
v 0.3 0.4 -0.3
v 0.3 0.6 -0.3
v 0.3 1.2 -0.3
v 0.3 1.4 -0.3
v 0.3 1.5 -0.3
v 0.4 0.6 -0.3
v 0.4 1.4 -0.3
v 0.5 0.6 -0.3
v 0.5 1.4 -0.3
v -0.1 1.3 -0.4
v -0.1 1.4 -0.4
v -0.1 1.5 -0.4
v 0.2 1.3 -0.4
v 0.2 1.4 -0.4
v 0.2 1.5 -0.4
v 0.4 0.4 -0.4
v 0.4 0.6 -0.4
v 0.4 1.4 -0.4
v 0.4 1.5 -0.4
v 0.4 1.7 -0.4
v 0.4 1.8 -0.4
v 0.5 0.4 -0.4
v 0.5 0.6 -0.4
v 0.5 1.4 -0.4
v 0.5 1.5 -0.4
v 0.5 1.7 -0.4
v 0.5 1.8 -0.4
v -0.2 1 -0.5
v -0.2 1.1 -0.5
v -0.1 1 -0.5
v -0.1 1.1 -0.5
v 0.4 1.5 -0.5
v 0.4 1.7 -0.5
v 0.5 1.5 -0.5
v 0.5 1.7 -0.5
v -0.3 0.9 -0.6
v -0.3 1 -0.6
v -2.98023e-08 0.9 -0.6
v -2.98023e-08 1 -0.6
v 0.2 0.1 0.3
v 0.3 0.1 0.3
v 0.2 0.1 0.2
v 0.3 0.1 0.2
v -2.98023e-08 0.2 0.4
v 0.1 0.2 0.4
v -0.2 0.2 0.3
v -0.1 0.2 0.3
v -0.2 0.2 0.2
v -0.1 0.2 0.2
v -2.98023e-08 0.2 0.2
v 0.1 0.2 0.2
v 0.2 0.2 0.2
v 0.3 0.2 0.2
v 0.2 0.2 0
v 0.3 0.2 0
v 0.1 0.3 0.3
v 0.2 0.3 0.3
v -0.2 0.3 0.2
v -0.1 0.3 0.2
v -2.98023e-08 0.3 0.2
v 0.1 0.3 0.2
v -0.2 0.3 0.1
v 0.2 0.3 0.1
v -0.2 0.3 0
v -0.1 0.3 0
v 0.2 0.3 0
v 0.3 0.3 0
v -0.2 0.3 -0.1
v -0.1 0.3 -0.1
v 0.2 0.3 -0.1
v 0.3 0.3 -0.1
v 0.4 0.3 -0.1
v 0.5 0.3 -0.1
v -0.2 0.3 -0.2
v -0.1 0.3 -0.2
v 0.1 0.3 -0.2
v 0.2 0.3 -0.2
v 0.4 0.3 -0.2
v 0.5 0.3 -0.2
v -0.2 0.3 -0.3
v -0.1 0.3 -0.3
v 0.1 0.3 -0.3
v 0.2 0.3 -0.3
v -0.1 0.4 0.3
v -2.98023e-08 0.4 0.3
v -0.1 0.4 0.2
v -2.98023e-08 0.4 0.2
v -0.2 0.4 0.1
v -0.1 0.4 0.1
v 0.2 0.4 0.1
v 0.3 0.4 0.1
v -0.2 0.4 0
v -0.1 0.4 0
v 0.2 0.4 0
v 0.3 0.4 0
v -0.2 0.4 -0.1
v -0.1 0.4 -0.1
v 0.2 0.4 -0.1
v 0.3 0.4 -0.1
v -0.2 0.4 -0.2
v -0.1 0.4 -0.2
v -2.98023e-08 0.4 -0.2
v 0.2 0.4 -0.2
v 0.3 0.4 -0.2
v -0.1 0.4 -0.3
v -2.98023e-08 0.4 -0.3
v 0.2 0.4 -0.3
v 0.3 0.4 -0.3
v 0.4 0.4 -0.3
v 0.5 0.4 -0.3
v 0.4 0.4 -0.4
v 0.5 0.4 -0.4
v -2.98023e-08 0.5 -0.2
v 0.2 0.5 -0.2
v 0.4 0.5 -0.2
v 0.5 0.5 -0.2
v -2.98023e-08 0.5 -0.3
v 0.2 0.5 -0.3
v 0.4 0.5 -0.3
v 0.5 0.5 -0.3
v -0.1 0.7 0.1
v 0.2 0.7 0.1
v -0.1 0.7 -0.2
v 0.2 0.7 -0.2
v -2.98023e-08 0.9 0.2
v 0.1 0.9 0.2
v -2.98023e-08 0.9 0.1
v 0.1 0.9 0.1
v -0.2 0.9 0
v -0.1 0.9 0
v 0.2 0.9 0
v 0.4 0.9 0
v 0.2 0.9 -0.1
v 0.4 0.9 -0.1
v 0.5 0.9 -0.1
v -0.2 0.9 -0.2
v -0.1 0.9 -0.2
v 0.4 0.9 -0.2
v 0.5 0.9 -0.2
v -0.3 0.9 -0.3
v -0.2 0.9 -0.3
v -0.1 0.9 -0.3
v -2.98023e-08 0.9 -0.3
v -0.3 0.9 -0.6
v -2.98023e-08 0.9 -0.6
v -0.1 1 0.2
v -2.98023e-08 1 0.2
v 0.1 1 0.2
v 0.2 1 0.2
v -0.2 1 0.1
v -0.1 1 0.1
v -2.98023e-08 1 0.1
v 0.1 1 0.1
v 0.2 1 0.1
v 0.3 1 0.1
v -0.2 1 0
v -0.1 1 0
v 0.2 1 0
v 0.3 1 0
v 0.2 1 -0.1
v 0.3 1 -0.1
v 0.2 1 -0.2
v 0.3 1 -0.2
v -0.1 1.1 -0.2
v 0.2 1.1 -0.2
v -0.1 1.1 -0.3
v 0.2 1.1 -0.3
v -0.2 1.2 -0.2
v -0.1 1.2 -0.2
v 0.2 1.2 -0.2
v 0.3 1.2 -0.2
v -0.2 1.2 -0.3
v -0.1 1.2 -0.3
v 0.2 1.2 -0.3
v 0.3 1.2 -0.3
v 0.4 1.3 -0.1
v 0.5 1.3 -0.1
v 0.4 1.3 -0.2
v 0.5 1.3 -0.2
v -0.1 1.3 -0.3
v -2.98023e-08 1.3 -0.3
v 0.1 1.3 -0.3
v 0.2 1.3 -0.3
v -0.1 1.3 -0.4
v 0.2 1.3 -0.4
v -0.2 1.4 0.1
v -0.1 1.4 0.1
v 0.2 1.4 0.1
v 0.3 1.4 0.1
v -0.3 1.4 0
v -0.2 1.4 0
v -0.1 1.4 0
v 0.2 1.4 0
v 0.3 1.4 0
v 0.4 1.4 0
v 0.5 1.4 0
v 0.4 1.4 -0.1
v 0.5 1.4 -0.1
v -0.3 1.4 -0.2
v -0.2 1.4 -0.2
v 0.3 1.4 -0.2
v 0.4 1.4 -0.2
v 0.4 1.4 -0.3
v 0.5 1.4 -0.3
v 0.4 1.4 -0.4
v 0.5 1.4 -0.4
v 0.4 1.5 -0.4
v 0.5 1.5 -0.4
v 0.4 1.5 -0.5
v 0.5 1.5 -0.5
v -0.1 1.7 0.2
v 0.2 1.7 0.2
v -0.1 1.7 0.1
v 0.2 1.7 0.1
v -2.98023e-08 1.8 0.3
v 0.1 1.8 0.3
v -2.98023e-08 1.8 0.2
v 0.1 1.8 0.2
v -2.98023e-08 0.3 0.4
v 0.1 0.3 0.4
v -0.2 0.3 0.3
v -0.1 0.3 0.3
v -2.98023e-08 0.3 0.3
v 0.1 0.3 0.3
v 0.2 0.3 0.3
v 0.3 0.3 0.3
v -0.2 0.3 0.2
v -0.1 0.3 0.2
v 0.2 0.3 0.2
v 0.3 0.3 0.2
v 0.2 0.3 0.1
v 0.3 0.3 0.1
v 0.2 0.3 0
v 0.3 0.3 0
v 0.1 0.4 -0.2
v 0.2 0.4 -0.2
v 0.1 0.4 -0.3
v 0.2 0.4 -0.3
v -0.1 0.5 0.3
v -2.98023e-08 0.5 0.3
v 0.1 0.5 0.3
v 0.2 0.5 0.3
v -0.1 0.5 0.2
v -2.98023e-08 0.5 0.2
v 0.1 0.5 0.2
v 0.2 0.5 0.2
v -0.2 0.5 -0.2
v -0.1 0.5 -0.2
v -0.2 0.5 -0.3
v -0.1 0.5 -0.3
v -2.98023e-08 0.6 0.3
v 0.1 0.6 0.3
v -0.2 0.6 0.2
v -0.1 0.6 0.2
v -2.98023e-08 0.6 0.2
v 0.1 0.6 0.2
v 0.2 0.6 0.2
v 0.3 0.6 0.2
v -0.2 0.6 0.1
v -0.1 0.6 0.1
v 0.2 0.6 0.1
v 0.3 0.6 0.1
v 0.4 0.6 -0.1
v 0.5 0.6 -0.1
v 0.2 0.6 -0.2
v 0.3 0.6 -0.2
v 0.4 0.6 -0.2
v 0.5 0.6 -0.2
v 0.2 0.6 -0.3
v 0.3 0.6 -0.3
v 0.4 0.6 -0.3
v 0.5 0.6 -0.3
v 0.4 0.6 -0.4
v 0.5 0.6 -0.4
v -0.1 0.7 0.2
v 0.2 0.7 0.2
v -0.2 0.7 0.1
v -0.1 0.7 0.1
v 0.2 0.7 0.1
v 0.3 0.7 0.1
v -0.2 0.7 -0.2
v -0.1 0.7 -0.2
v 0.1 0.7 -0.2
v 0.2 0.7 -0.2
v 0.3 0.7 -0.2
v -0.1 0.7 -0.3
v 0.1 0.7 -0.3
v 0.1 0.8 -0.2
v 0.2 0.8 -0.2
v 0.1 0.8 -0.3
v 0.2 0.8 -0.3
v 0.3 1 0
v 0.4 1 0
v 0.3 1 -0.1
v 0.4 1 -0.1
v 0.5 1 -0.1
v -0.2 1 -0.2
v -0.1 1 -0.2
v 0.4 1 -0.2
v 0.5 1 -0.2
v -0.3 1 -0.3
v -0.2 1 -0.3
v -0.1 1 -0.3
v -2.98023e-08 1 -0.3
v -0.2 1 -0.4
v -0.1 1 -0.4
v -0.2 1 -0.5
v -0.1 1 -0.5
v -0.3 1 -0.6
v -2.98023e-08 1 -0.6
v -0.2 1.1 -0.4
v -0.1 1.1 -0.4
v -0.2 1.1 -0.5
v -0.1 1.1 -0.5
v -0.2 1.3 0.1
v -0.1 1.3 0.1
v 0.2 1.3 0.1
v 0.3 1.3 0.1
v -0.2 1.3 0
v -0.1 1.3 0
v 0.2 1.3 0
v 0.3 1.3 0
v -0.1 1.5 0.2
v 0.2 1.5 0.2
v -0.2 1.5 0.1
v -0.1 1.5 0.1
v 0.2 1.5 0.1
v 0.3 1.5 0.1
v -0.3 1.5 0
v -0.2 1.5 0
v 0.3 1.5 0
v 0.4 1.5 0
v 0.4 1.5 -0.1
v -0.3 1.5 -0.2
v -0.2 1.5 -0.2
v -0.1 1.5 -0.2
v 0.2 1.5 -0.2
v 0.3 1.5 -0.2
v 0.4 1.5 -0.2
v -0.2 1.5 -0.3
v -0.1 1.5 -0.3
v 0.2 1.5 -0.3
v 0.3 1.5 -0.3
v -0.1 1.5 -0.4
v 0.2 1.5 -0.4
v -0.1 1.6 -0.1
v -2.98023e-08 1.6 -0.1
v 0.1 1.6 -0.1
v 0.2 1.6 -0.1
v -0.1 1.6 -0.2
v -2.98023e-08 1.6 -0.2
v 0.1 1.6 -0.2
v 0.2 1.6 -0.2
v -0.1 1.7 0
v -2.98023e-08 1.7 0
v 0.1 1.7 0
v 0.2 1.7 0
v -0.1 1.7 -0.1
v -2.98023e-08 1.7 -0.1
v 0.1 1.7 -0.1
v 0.2 1.7 -0.1
v -2.98023e-08 1.7 -0.2
v 0.1 1.7 -0.2
v 0.4 1.7 -0.4
v 0.5 1.7 -0.4
v 0.4 1.7 -0.5
v 0.5 1.7 -0.5
v -0.1 1.8 0.2
v -2.98023e-08 1.8 0.2
v 0.1 1.8 0.2
v 0.2 1.8 0.2
v -2.98023e-08 1.8 0.1
v 0.1 1.8 0.1
v -0.1 1.8 0
v -2.98023e-08 1.8 0
v 0.1 1.8 0
v 0.2 1.8 0
v 0.4 1.8 0
v 0.5 1.8 0
v -2.98023e-08 1.8 -0.1
v 0.1 1.8 -0.1
v 0.4 1.8 -0.1
v 0.5 1.8 -0.1
v 0.4 1.8 -0.4
v 0.5 1.8 -0.4
v -2.98023e-08 1.9 0.3
v 0.1 1.9 0.3
v -2.98023e-08 1.9 0.1
v 0.1 1.9 0.1

# faces
f 3/7/1 2/7/1 1/7/1
f 4/7/1 2/7/1 3/7/1
f 7/9/1 6/9/1 5/9/1
f 8/9/1 6/9/1 7/9/1
f 11/7/1 10/7/1 9/7/1
f 12/7/1 10/7/1 11/7/1
f 18/7/1 13/7/1 12/7/1
f 19/7/1 15/7/1 14/7/1
f 20/7/1 15/7/1 19/7/1
f 21/7/1 17/7/1 16/7/1
f 22/7/1 18/7/1 12/7/1
f 22/7/1 19/7/1 18/7/1
f 23/3/1 20/3/1 19/3/1
f 23/7/1 19/7/1 22/7/1
f 24/7/1 21/7/1 20/7/1
f 24/3/1 20/3/1 23/3/1
f 25/7/1 17/7/1 21/7/1
f 25/7/1 21/7/1 24/7/1
f 26/7/1 17/7/1 25/7/1
f 27/3/1 23/3/1 22/3/1
f 27/3/1 24/3/1 23/3/1
f 27/3/1 25/3/1 24/3/1
f 28/3/1 25/3/1 27/3/1
f 29/3/1 25/3/1 28/3/1
f 30/3/1 25/3/1 29/3/1
f 35/3/1 32/3/1 31/3/1
f 36/3/1 32/3/1 35/3/1
f 37/4/1 33/4/1 32/4/1
f 37/3/1 32/3/1 36/3/1
f 38/4/1 33/4/1 37/4/1
f 41/3/1 36/3/1 35/3/1
f 41/1/1 35/1/1 34/1/1
f 42/1/1 37/1/1 36/1/1
f 42/3/1 36/3/1 41/3/1
f 43/5/1 40/5/1 39/5/1
f 44/5/1 40/5/1 43/5/1
f 45/1/1 37/1/1 42/1/1
f 45/1/1 42/1/1 41/1/1
f 47/1/1 41/1/1 34/1/1
f 47/1/1 46/1/1 45/1/1
f 47/1/1 45/1/1 41/1/1
f 48/1/1 46/1/1 47/1/1
f 50/1/1 46/1/1 48/1/1
f 51/1/1 46/1/1 50/1/1
f 52/1/1 46/1/1 51/1/1
f 53/9/1 50/9/1 49/9/1
f 54/9/1 50/9/1 53/9/1
f 55/9/1 52/9/1 51/9/1
f 56/9/1 52/9/1 55/9/1
f 59/3/1 58/3/1 57/3/1
f 60/3/1 58/3/1 59/3/1
f 65/7/1 62/7/1 61/7/1
f 66/7/1 62/7/1 65/7/1
f 67/3/1 64/3/1 63/3/1
f 68/3/1 64/3/1 67/3/1
f 69/3/1 66/3/1 65/3/1
f 70/3/1 66/3/1 69/3/1
f 71/3/1 69/3/1 68/3/1
f 72/3/1 69/3/1 71/3/1
f 73/3/1 69/3/1 72/3/1
f 75/1/1 72/1/1 71/1/1
f 76/1/1 72/1/1 75/1/1
f 79/4/1 78/4/1 77/4/1
f 80/4/1 78/4/1 79/4/1
f 81/1/1 75/1/1 74/1/1
f 85/1/1 82/1/1 81/1/1
f 85/1/1 81/1/1 74/1/1
f 86/1/1 82/1/1 85/1/1
f 87/1/1 82/1/1 86/1/1
f 88/1/1 84/1/1 83/1/1
f 89/1/1 84/1/1 88/1/1
f 90/9/1 86/9/1 85/9/1
f 91/9/1 86/9/1 90/9/1
f 93/9/1 89/9/1 88/9/1
f 94/9/1 89/9/1 93/9/1
f 95/9/1 92/9/1 91/9/1
f 96/9/1 92/9/1 95/9/1
f 98/9/1 95/9/1 91/9/1
f 99/9/1 95/9/1 98/9/1
f 100/9/1 95/9/1 99/9/1
f 101/9/1 98/9/1 97/9/1
f 101/9/1 99/9/1 98/9/1
f 102/9/1 99/9/1 101/9/1
f 105/7/1 104/7/1 103/7/1
f 106/7/1 104/7/1 105/7/1
f 107/7/1 104/7/1 106/7/1
f 108/7/1 107/7/1 106/7/1
f 109/7/1 107/7/1 108/7/1
f 112/3/1 111/3/1 110/3/1
f 113/3/1 111/3/1 112/3/1
f 116/1/1 115/1/1 114/1/1
f 117/1/1 115/1/1 116/1/1
f 121/9/1 119/9/1 118/9/1
f 122/9/1 119/9/1 121/9/1
f 126/9/1 121/9/1 120/9/1
f 127/9/1 121/9/1 126/9/1
f 128/9/1 125/9/1 124/9/1
f 128/9/1 124/9/1 123/9/1
f 129/9/1 125/9/1 128/9/1
f 132/7/1 131/7/1 130/7/1
f 133/7/1 131/7/1 132/7/1
f 136/3/1 135/3/1 134/3/1
f 137/3/1 135/3/1 136/3/1
f 140/7/1 139/7/1 138/7/1
f 142/7/1 140/7/1 138/7/1
f 142/7/1 141/7/1 140/7/1
f 143/7/1 141/7/1 142/7/1
f 144/7/1 141/7/1 143/7/1
f 147/7/1 145/7/1 144/7/1
f 148/7/1 145/7/1 147/7/1
f 151/7/1 147/7/1 146/7/1
f 152/3/1 148/3/1 147/3/1
f 152/7/1 147/7/1 151/7/1
f 152/3/1 149/3/1 148/3/1
f 153/7/1 150/7/1 149/7/1
f 153/3/1 149/3/1 152/3/1
f 154/7/1 150/7/1 153/7/1
f 155/3/1 152/3/1 151/3/1
f 155/3/1 153/3/1 152/3/1
f 156/3/1 155/3/1 151/3/1
f 157/3/1 155/3/1 156/3/1
f 162/8/1 159/8/1 158/8/1
f 163/8/1 161/8/1 160/8/1
f 164/8/1 162/8/1 158/8/1
f 164/8/1 163/8/1 162/8/1
f 165/8/1 163/8/1 164/8/1
f 166/8/1 161/8/1 163/8/1
f 166/8/1 163/8/1 165/8/1
f 167/8/1 161/8/1 166/8/1
f 169/8/1 166/8/1 165/8/1
f 170/4/1 169/4/1 168/4/1
f 171/8/1 166/8/1 169/8/1
f 171/4/1 169/4/1 170/4/1
f 173/8/1 166/8/1 171/8/1
f 174/8/1 173/8/1 172/8/1
f 175/8/1 166/8/1 173/8/1
f 175/8/1 173/8/1 174/8/1
f 176/8/1 166/8/1 175/8/1
f 180/8/1 177/8/1 176/8/1
f 180/8/1 176/8/1 175/8/1
f 181/8/1 177/8/1 180/8/1
f 183/5/1 181/5/1 180/5/1
f 183/8/1 182/8/1 181/8/1
f 183/5/1 180/5/1 179/5/1
f 184/8/1 182/8/1 183/8/1
f 185/8/1 179/8/1 178/8/1
f 186/5/1 183/5/1 179/5/1
f 186/8/1 179/8/1 185/8/1
f 187/5/1 183/5/1 186/5/1
f 188/7/2 189/7/2 190/7/2
f 190/7/2 189/7/2 191/7/2
f 192/7/2 193/7/2 197/7/2
f 197/7/2 193/7/2 198/7/2
f 194/7/2 195/7/2 199/7/2
f 199/7/2 195/7/2 200/7/2
f 196/7/2 197/7/2 201/7/2
f 197/3/2 198/3/2 202/3/2
f 201/7/2 197/7/2 202/7/2
f 198/7/2 199/7/2 203/7/2
f 202/3/2 198/3/2 203/3/2
f 203/7/2 199/7/2 204/7/2
f 201/3/2 202/3/2 205/3/2
f 202/3/2 203/3/2 205/3/2
f 203/3/2 204/3/2 205/3/2
f 201/3/2 205/3/2 206/3/2
f 206/3/2 205/3/2 207/3/2
f 208/4/2 209/4/2 210/4/2
f 210/4/2 209/4/2 211/4/2
f 212/5/2 213/5/2 214/5/2
f 214/5/2 213/5/2 215/5/2
f 216/7/2 217/7/2 218/7/2
f 218/7/2 217/7/2 219/7/2
f 220/7/2 221/7/2 222/7/2
f 222/7/2 221/7/2 223/7/2
f 224/7/2 225/7/2 226/7/2
f 226/7/2 225/7/2 227/7/2
f 227/7/2 225/7/2 228/7/2
f 229/3/2 230/3/2 231/3/2
f 231/3/2 230/3/2 232/3/2
f 233/1/2 234/1/2 235/1/2
f 235/1/2 234/1/2 236/1/2
f 237/9/2 238/9/2 240/9/2
f 240/9/2 238/9/2 241/9/2
f 239/9/2 240/9/2 245/9/2
f 245/9/2 240/9/2 246/9/2
f 243/9/2 244/9/2 247/9/2
f 242/9/2 243/9/2 247/9/2
f 247/9/2 244/9/2 248/9/2
f 249/7/2 250/7/2 253/7/2
f 253/7/2 250/7/2 254/7/2
f 251/7/2 252/7/2 255/7/2
f 255/7/2 252/7/2 256/7/2
f 253/3/2 254/3/2 257/3/2
f 257/3/2 254/3/2 258/3/2
f 259/3/2 260/3/2 263/3/2
f 263/3/2 260/3/2 264/3/2
f 261/3/2 262/3/2 265/3/2
f 264/3/2 265/3/2 266/3/2
f 265/3/2 262/3/2 266/3/2
f 266/3/2 262/3/2 267/3/2
f 264/3/2 266/3/2 268/3/2
f 268/3/2 266/3/2 269/3/2
f 269/3/2 266/3/2 270/3/2
f 268/1/2 269/1/2 272/1/2
f 272/1/2 269/1/2 273/1/2
f 270/3/2 266/3/2 274/3/2
f 274/3/2 266/3/2 275/3/2
f 276/4/2 277/4/2 278/4/2
f 278/4/2 277/4/2 279/4/2
f 271/1/2 272/1/2 280/1/2
f 280/1/2 281/1/2 284/1/2
f 271/1/2 280/1/2 284/1/2
f 284/1/2 281/1/2 285/1/2
f 285/1/2 281/1/2 286/1/2
f 282/1/2 283/1/2 287/1/2
f 287/1/2 283/1/2 288/1/2
f 284/9/2 285/9/2 289/9/2
f 289/9/2 285/9/2 290/9/2
f 287/9/2 288/9/2 292/9/2
f 292/9/2 288/9/2 293/9/2
f 290/9/2 291/9/2 294/9/2
f 294/9/2 291/9/2 295/9/2
f 290/9/2 294/9/2 297/9/2
f 297/9/2 294/9/2 298/9/2
f 298/9/2 294/9/2 299/9/2
f 296/9/2 297/9/2 300/9/2
f 297/9/2 298/9/2 300/9/2
f 300/9/2 298/9/2 301/9/2
f 302/7/2 303/7/2 304/7/2
f 302/7/2 304/7/2 306/7/2
f 304/7/2 305/7/2 306/7/2
f 306/7/2 305/7/2 307/7/2
f 307/7/2 305/7/2 308/7/2
f 308/7/2 305/7/2 309/7/2
f 307/7/2 308/7/2 311/7/2
f 311/7/2 308/7/2 312/7/2
f 309/7/2 310/7/2 313/7/2
f 313/7/2 310/7/2 314/7/2
f 311/3/2 312/3/2 317/3/2
f 312/7/2 313/7/2 317/7/2
f 314/3/2 315/3/2 318/3/2
f 317/7/2 313/7/2 318/7/2
f 313/3/2 314/3/2 318/3/2
f 311/3/2 317/3/2 319/3/2
f 317/3/2 318/3/2 319/3/2
f 319/3/2 318/3/2 320/3/2
f 315/7/2 316/7/2 321/7/2
f 320/3/2 318/3/2 321/3/2
f 318/3/2 315/3/2 321/3/2
f 321/7/2 316/7/2 322/7/2
f 320/3/2 321/3/2 323/3/2
f 323/3/2 321/3/2 324/3/2
f 325/1/2 326/1/2 329/1/2
f 326/3/2 327/3/2 329/3/2
f 327/1/2 328/1/2 330/1/2
f 329/3/2 327/3/2 330/3/2
f 329/1/2 330/1/2 331/1/2
f 330/1/2 328/1/2 331/1/2
f 329/1/2 331/1/2 333/1/2
f 331/1/2 332/1/2 333/1/2
f 325/1/2 329/1/2 333/1/2
f 333/1/2 332/1/2 334/1/2
f 334/1/2 332/1/2 336/1/2
f 336/1/2 332/1/2 337/1/2
f 337/1/2 332/1/2 338/1/2
f 335/9/2 336/9/2 339/9/2
f 339/9/2 336/9/2 340/9/2
f 337/9/2 338/9/2 341/9/2
f 341/9/2 338/9/2 342/9/2
f 343/3/2 344/3/2 345/3/2
f 345/3/2 344/3/2 346/3/2
f 347/8/2 348/8/2 351/8/2
f 349/8/2 350/8/2 352/8/2
f 347/8/2 351/8/2 353/8/2
f 351/8/2 352/8/2 353/8/2
f 353/8/2 352/8/2 354/8/2
f 352/8/2 350/8/2 355/8/2
f 354/8/2 352/8/2 355/8/2
f 355/8/2 350/8/2 356/8/2
f 354/8/2 355/8/2 358/8/2
f 357/4/2 358/4/2 359/4/2
f 358/8/2 355/8/2 360/8/2
f 359/4/2 358/4/2 360/4/2
f 360/8/2 355/8/2 362/8/2
f 361/8/2 362/8/2 364/8/2
f 362/8/2 355/8/2 365/8/2
f 364/8/2 362/8/2 365/8/2
f 363/8/2 364/8/2 367/8/2
f 365/8/2 366/8/2 367/8/2
f 364/8/2 365/8/2 367/8/2
f 367/8/2 366/8/2 368/8/2
f 367/5/2 368/5/2 370/5/2
f 368/8/2 369/8/2 370/8/2
f 370/8/2 369/8/2 371/8/2
f 363/8/2 367/8/2 372/8/2
f 367/5/2 370/5/2 373/5/2
f 372/8/2 367/8/2 373/8/2
f 373/5/2 370/5/2 374/5/2
f 377/7/3 376/7/3 375/7/3
f 378/7/3 376/7/3 377/7/3
f 381/7/3 380/7/3 379/7/3
f 382/7/3 380/7/3 381/7/3
f 386/3/3 384/3/3 383/3/3
f 387/3/3 384/3/3 386/3/3
f 391/7/3 386/7/3 385/7/3
f 391/7/3 387/7/3 386/7/3
f 392/7/3 387/7/3 391/7/3
f 393/3/3 388/3/3 387/3/3
f 393/7/3 387/7/3 392/7/3
f 394/3/3 388/3/3 393/3/3
f 395/9/3 390/9/3 389/9/3
f 396/9/3 390/9/3 395/9/3
f 398/7/3 392/7/3 391/7/3
f 399/3/3 393/3/3 392/3/3
f 399/7/3 392/7/3 398/7/3
f 400/3/3 393/3/3 399/3/3
f 401/7/3 398/7/3 397/7/3
f 402/7/3 398/7/3 401/7/3
f 406/7/3 404/7/3 403/7/3
f 407/7/3 404/7/3 406/7/3
f 408/3/3 405/3/3 404/3/3
f 408/7/3 404/7/3 407/7/3
f 409/3/3 405/3/3 408/3/3
f 416/7/3 407/7/3 406/7/3
f 417/7/3 407/7/3 416/7/3
f 418/3/3 409/3/3 408/3/3
f 418/3/3 410/3/3 409/3/3
f 419/3/3 410/3/3 418/3/3
f 421/1/3 412/1/3 411/1/3
f 422/9/3 415/9/3 414/9/3
f 424/3/3 410/3/3 419/3/3
f 425/1/3 421/1/3 420/1/3
f 426/1/3 412/1/3 421/1/3
f 426/1/3 421/1/3 425/1/3
f 427/9/3 422/9/3 414/9/3
f 430/3/3 424/3/3 423/3/3
f 431/3/3 410/3/3 424/3/3
f 431/3/3 424/3/3 430/3/3
f 432/3/3 410/3/3 431/3/3
f 433/1/3 412/1/3 426/1/3
f 434/9/3 413/9/3 412/9/3
f 434/1/3 412/1/3 433/1/3
f 435/9/3 413/9/3 434/9/3
f 436/9/3 427/9/3 414/9/3
f 437/9/3 427/9/3 436/9/3
f 438/7/3 429/7/3 428/7/3
f 439/3/3 430/3/3 429/3/3
f 439/7/3 429/7/3 438/7/3
f 439/3/3 431/3/3 430/3/3
f 440/3/3 431/3/3 439/3/3
f 447/3/3 442/3/3 441/3/3
f 448/3/3 442/3/3 447/3/3
f 450/1/3 444/1/3 443/1/3
f 451/1/3 444/1/3 450/1/3
f 452/9/3 446/9/3 445/9/3
f 453/9/3 446/9/3 452/9/3
f 455/3/3 449/3/3 448/3/3
f 455/1/3 450/1/3 449/1/3
f 456/1/3 450/1/3 455/1/3
f 457/3/3 455/3/3 448/3/3
f 460/3/3 457/3/3 448/3/3
f 461/1/3 458/1/3 457/1/3
f 461/3/3 457/3/3 460/3/3
f 462/1/3 458/1/3 461/1/3
f 465/9/3 454/9/3 453/9/3
f 466/9/3 454/9/3 465/9/3
f 467/3/3 460/3/3 459/3/3
f 468/3/3 460/3/3 467/3/3
f 469/1/3 463/1/3 462/1/3
f 470/1/3 463/1/3 469/1/3
f 471/9/3 465/9/3 464/9/3
f 472/9/3 465/9/3 471/9/3
f 480/9/3 474/9/3 473/9/3
f 481/9/3 474/9/3 480/9/3
f 482/7/3 476/7/3 475/7/3
f 483/7/3 476/7/3 482/7/3
f 484/3/3 478/3/3 477/3/3
f 485/3/3 478/3/3 484/3/3
f 486/1/3 480/1/3 479/1/3
f 487/1/3 480/1/3 486/1/3
f 494/7/3 489/7/3 488/7/3
f 495/7/3 489/7/3 494/7/3
f 496/3/3 491/3/3 490/3/3
f 497/1/3 493/1/3 492/1/3
f 498/1/3 493/1/3 497/1/3
f 500/3/3 496/3/3 490/3/3
f 501/3/3 496/3/3 500/3/3
f 502/9/3 499/9/3 498/9/3
f 503/9/3 499/9/3 502/9/3
f 505/8/3 504/8/3 503/8/3
f 505/8/3 503/8/3 502/8/3
f 506/8/3 504/8/3 505/8/3
f 513/8/3 508/8/3 507/8/3
f 514/8/3 508/8/3 513/8/3
f 515/4/3 510/4/3 509/4/3
f 516/4/3 510/4/3 515/4/3
f 517/8/3 512/8/3 511/8/3
f 518/8/3 512/8/3 517/8/3
f 521/7/3 520/7/3 519/7/3
f 522/7/3 520/7/3 521/7/3
f 526/7/3 523/7/3 522/7/3
f 526/7/3 524/7/3 523/7/3
f 527/7/3 524/7/3 526/7/3
f 530/7/3 529/7/3 528/7/3
f 531/7/3 529/7/3 530/7/3
f 532/7/3 524/7/3 527/7/3
f 533/3/3 525/3/3 524/3/3
f 533/7/3 524/7/3 532/7/3
f 534/3/3 525/3/3 533/3/3
f 539/8/3 536/8/3 535/8/3
f 540/8/3 536/8/3 539/8/3
f 541/8/3 538/8/3 537/8/3
f 542/8/3 538/8/3 541/8/3
f 545/7/3 544/7/3 543/7/3
f 546/7/3 544/7/3 545/7/3
f 549/7/3 548/7/3 547/7/3
f 550/7/3 548/7/3 549/7/3
f 553/8/3 552/8/3 551/8/3
f 554/8/3 552/8/3 553/8/3
f 557/5/3 556/5/3 555/5/3
f 558/5/3 556/5/3 557/5/3
f 559/7/4 560/7/4 561/7/4
f 561/7/4 560/7/4 562/7/4
f 563/7/4 564/7/4 565/7/4
f 565/7/4 564/7/4 566/7/4
f 567/7/4 568/7/4 569/7/4
f 569/7/4 568/7/4 570/7/4
f 571/7/4 572/7/4 573/7/4
f 576/9/4 577/9/4 578/9/4
f 578/9/4 577/9/4 579/9/4
f 571/7/4 573/7/4 580/7/4
f 573/3/4 574/3/4 581/3/4
f 580/7/4 573/7/4 581/7/4
f 574/3/4 575/3/4 581/3/4
f 581/3/4 575/3/4 582/3/4
f 582/3/4 575/3/4 583/3/4
f 580/7/4 581/7/4 584/7/4
f 584/7/4 581/7/4 585/7/4
f 586/9/4 587/9/4 588/9/4
f 588/9/4 587/9/4 589/9/4
f 590/9/4 591/9/4 594/9/4
f 594/9/4 591/9/4 595/9/4
f 592/7/4 593/7/4 596/7/4
f 596/7/4 593/7/4 597/7/4
f 598/7/4 599/7/4 600/7/4
f 600/7/4 599/7/4 601/7/4
f 602/9/4 603/9/4 604/9/4
f 604/9/4 603/9/4 605/9/4
f 605/9/4 606/9/4 608/9/4
f 608/9/4 606/9/4 609/9/4
f 607/9/4 608/9/4 614/9/4
f 614/9/4 608/9/4 615/9/4
f 610/7/4 611/7/4 616/7/4
f 616/7/4 611/7/4 617/7/4
f 612/3/4 613/3/4 618/3/4
f 612/3/4 618/3/4 619/3/4
f 619/3/4 618/3/4 620/3/4
f 621/9/4 622/9/4 627/9/4
f 627/9/4 622/9/4 628/9/4
f 623/3/4 624/3/4 629/3/4
f 629/3/4 624/3/4 630/3/4
f 630/3/4 624/3/4 631/3/4
f 625/1/4 626/1/4 633/1/4
f 633/1/4 626/1/4 634/1/4
f 634/1/4 626/1/4 635/1/4
f 636/9/4 637/9/4 638/9/4
f 631/3/4 632/3/4 640/3/4
f 633/3/4 634/3/4 640/3/4
f 632/3/4 633/3/4 640/3/4
f 640/3/4 634/3/4 641/3/4
f 638/9/4 639/9/4 642/9/4
f 636/9/4 638/9/4 642/9/4
f 642/9/4 639/9/4 643/9/4
f 641/3/4 634/3/4 646/3/4
f 646/3/4 634/3/4 647/3/4
f 647/3/4 634/3/4 648/3/4
f 636/9/4 642/9/4 650/9/4
f 650/9/4 642/9/4 651/9/4
f 644/3/4 645/3/4 652/3/4
f 652/3/4 645/3/4 653/3/4
f 648/1/4 649/1/4 654/1/4
f 647/1/4 648/1/4 654/1/4
f 654/1/4 649/1/4 655/1/4
f 656/9/4 657/9/4 660/9/4
f 660/9/4 657/9/4 661/9/4
f 658/8/4 659/8/4 662/8/4
f 662/8/4 659/8/4 663/8/4
f 664/7/4 665/7/4 669/7/4
f 669/7/4 665/7/4 670/7/4
f 670/7/4 665/7/4 671/7/4
f 666/1/4 667/1/4 675/1/4
f 675/1/4 667/1/4 676/1/4
f 667/9/4 668/9/4 677/9/4
f 676/1/4 667/1/4 677/1/4
f 677/9/4 668/9/4 678/9/4
f 670/7/4 671/7/4 679/7/4
f 671/7/4 672/7/4 679/7/4
f 679/7/4 672/7/4 680/7/4
f 675/6/4 676/6/4 681/6/4
f 674/4/4 675/4/4 681/4/4
f 681/6/4 676/6/4 682/6/4
f 672/3/4 673/3/4 685/3/4
f 674/4/4 681/4/4 687/4/4
f 681/4/4 682/4/4 687/4/4
f 687/4/4 682/4/4 688/4/4
f 683/7/4 684/7/4 689/7/4
f 689/7/4 684/7/4 690/7/4
f 680/7/4 672/7/4 691/7/4
f 685/3/4 686/3/4 692/3/4
f 672/3/4 685/3/4 692/3/4
f 691/7/4 672/7/4 692/7/4
f 692/3/4 686/3/4 693/3/4
f 674/4/4 687/4/4 694/4/4
f 687/6/4 688/6/4 695/6/4
f 694/4/4 687/4/4 695/4/4
f 695/6/4 688/6/4 696/6/4
f 690/7/4 691/7/4 699/7/4
f 691/7/4 692/7/4 699/7/4
f 699/7/4 692/7/4 700/7/4
f 695/1/4 696/1/4 701/1/4
f 696/1/4 697/1/4 701/1/4
f 697/9/4 698/9/4 702/9/4
f 701/1/4 697/1/4 702/1/4
f 702/9/4 698/9/4 703/9/4
f 704/8/4 705/8/4 706/8/4
f 706/8/4 705/8/4 707/8/4
f 708/1/4 709/1/4 711/1/4
f 709/9/4 710/9/4 712/9/4
f 711/1/4 709/1/4 712/1/4
f 712/9/4 710/9/4 713/9/4
f 714/8/4 715/8/4 720/8/4
f 720/8/4 715/8/4 721/8/4
f 716/8/4 717/8/4 722/8/4
f 722/8/4 717/8/4 723/8/4
f 718/5/4 719/5/4 724/5/4
f 724/5/4 719/5/4 725/5/4
f 726/5/4 727/5/4 728/5/4
f 728/5/4 727/5/4 729/5/4
f 730/8/4 731/8/4 732/8/4
f 732/8/4 731/8/4 733/8/4
f 734/7/4 735/7/4 736/7/4
f 736/7/4 735/7/4 737/7/4
f 740/7/5 739/7/5 738/7/5
f 741/7/5 739/7/5 740/7/5
f 746/7/5 745/7/5 744/7/5
f 747/7/5 745/7/5 746/7/5
f 748/7/5 743/7/5 742/7/5
f 749/7/5 743/7/5 748/7/5
f 752/7/5 751/7/5 750/7/5
f 753/7/5 751/7/5 752/7/5
f 759/7/5 755/7/5 754/7/5
f 760/7/5 758/7/5 757/7/5
f 760/7/5 759/7/5 758/7/5
f 760/7/5 757/7/5 756/7/5
f 761/7/5 755/7/5 759/7/5
f 761/7/5 759/7/5 760/7/5
f 766/7/5 763/7/5 762/7/5
f 767/7/5 763/7/5 766/7/5
f 768/7/5 765/7/5 764/7/5
f 769/7/5 765/7/5 768/7/5
f 776/8/5 771/8/5 770/8/5
f 777/8/5 771/8/5 776/8/5
f 778/7/5 773/7/5 772/7/5
f 779/7/5 773/7/5 778/7/5
f 780/7/5 775/7/5 774/7/5
f 781/7/5 775/7/5 780/7/5
f 784/3/5 783/3/5 782/3/5
f 785/3/5 783/3/5 784/3/5
f 790/7/5 787/7/5 786/7/5
f 791/7/5 787/7/5 790/7/5
f 792/7/5 789/7/5 788/7/5
f 793/7/5 789/7/5 792/7/5
f 798/7/5 795/7/5 794/7/5
f 799/7/5 795/7/5 798/7/5
f 801/3/5 797/3/5 796/3/5
f 802/3/5 797/3/5 801/3/5
f 803/7/5 800/7/5 799/7/5
f 804/7/5 800/7/5 803/7/5
f 805/7/5 802/7/5 801/7/5
f 806/7/5 802/7/5 805/7/5
f 809/8/5 808/8/5 807/8/5
f 810/8/5 808/8/5 809/8/5
f 815/7/5 812/7/5 811/7/5
f 816/7/5 812/7/5 815/7/5
f 817/8/5 814/8/5 813/8/5
f 818/8/5 814/8/5 817/8/5
f 821/3/5 820/3/5 819/3/5
f 822/3/5 820/3/5 821/3/5
f 825/1/5 824/1/5 823/1/5
f 826/1/5 824/1/5 825/1/5
f 831/3/5 830/3/5 829/3/5
f 832/3/5 830/3/5 831/3/5
f 834/3/5 828/3/5 827/3/5
f 835/3/5 828/3/5 834/3/5
f 836/4/5 833/4/5 832/4/5
f 837/4/5 833/4/5 836/4/5
f 839/4/5 835/4/5 834/4/5
f 840/4/5 835/4/5 839/4/5
f 842/7/5 839/7/5 838/7/5
f 842/7/5 841/7/5 840/7/5
f 842/7/5 840/7/5 839/7/5
f 843/7/5 841/7/5 842/7/5
f 849/1/5 845/1/5 844/1/5
f 850/1/5 845/1/5 849/1/5
f 851/1/5 847/1/5 846/1/5
f 852/1/5 847/1/5 851/1/5
f 854/1/5 849/1/5 848/1/5
f 855/1/5 849/1/5 854/1/5
f 856/1/5 853/1/5 852/1/5
f 857/1/5 853/1/5 856/1/5
f 860/1/5 859/1/5 858/1/5
f 861/1/5 859/1/5 860/1/5
f 864/4/5 863/4/5 862/4/5
f 865/4/5 863/4/5 864/4/5
f 870/1/5 867/1/5 866/1/5
f 871/1/5 867/1/5 870/1/5
f 872/1/5 869/1/5 868/1/5
f 873/1/5 869/1/5 872/1/5
f 876/8/5 875/8/5 874/8/5
f 877/8/5 875/8/5 876/8/5
f 882/1/5 879/1/5 878/1/5
f 882/1/5 881/1/5 880/1/5
f 882/1/5 880/1/5 879/1/5
f 883/1/5 881/1/5 882/1/5
f 889/9/5 885/9/5 884/9/5
f 890/9/5 885/9/5 889/9/5
f 891/9/5 887/9/5 886/9/5
f 892/9/5 887/9/5 891/9/5
f 895/8/5 894/8/5 893/8/5
f 895/9/5 893/9/5 892/9/5
f 896/8/5 894/8/5 895/8/5
f 897/9/5 889/9/5 888/9/5
f 898/9/5 889/9/5 897/9/5
f 899/9/5 895/9/5 892/9/5
f 900/9/5 895/9/5 899/9/5
f 903/8/5 902/8/5 901/8/5
f 904/8/5 902/8/5 903/8/5
f 907/8/5 906/8/5 905/8/5
f 908/8/5 906/8/5 907/8/5
f 911/9/5 910/9/5 909/9/5
f 912/9/5 910/9/5 911/9/5
f 915/9/5 914/9/5 913/9/5
f 916/9/5 914/9/5 915/9/5
f 917/7/6 918/7/6 921/7/6
f 921/7/6 918/7/6 922/7/6
f 919/7/6 920/7/6 925/7/6
f 925/7/6 920/7/6 926/7/6
f 923/7/6 924/7/6 927/7/6
f 927/7/6 924/7/6 928/7/6
f 929/7/6 930/7/6 931/7/6
f 931/7/6 930/7/6 932/7/6
f 933/7/6 934/7/6 935/7/6
f 935/7/6 934/7/6 936/7/6
f 937/3/6 938/3/6 941/3/6
f 941/3/6 938/3/6 942/3/6
f 939/3/6 940/3/6 943/3/6
f 943/3/6 940/3/6 944/3/6
f 945/7/6 946/7/6 947/7/6
f 947/7/6 946/7/6 948/7/6
f 949/3/6 950/3/6 953/3/6
f 953/3/6 950/3/6 954/3/6
f 951/3/6 952/3/6 957/3/6
f 957/3/6 952/3/6 958/3/6
f 955/3/6 956/3/6 959/3/6
f 959/3/6 956/3/6 960/3/6
f 961/8/6 962/8/6 965/8/6
f 965/8/6 962/8/6 966/8/6
f 963/7/6 964/7/6 967/7/6
f 967/7/6 964/7/6 968/7/6
f 969/8/6 970/8/6 971/8/6
f 971/8/6 970/8/6 972/8/6
f 973/3/6 974/3/6 976/3/6
f 976/3/6 974/3/6 977/3/6
f 975/3/6 976/3/6 979/3/6
f 979/3/6 976/3/6 980/3/6
f 977/3/6 978/3/6 982/3/6
f 982/3/6 978/3/6 983/3/6
f 980/3/6 981/3/6 984/3/6
f 984/3/6 981/3/6 985/3/6
f 986/3/6 987/3/6 988/3/6
f 988/3/6 987/3/6 989/3/6
f 990/3/6 991/3/6 992/3/6
f 992/3/6 991/3/6 993/3/6
f 993/4/6 994/4/6 997/4/6
f 997/4/6 994/4/6 998/4/6
f 995/4/6 996/4/6 1000/4/6
f 1000/4/6 996/4/6 1001/4/6
f 999/7/6 1000/7/6 1003/7/6
f 1001/7/6 1002/7/6 1003/7/6
f 1000/7/6 1001/7/6 1003/7/6
f 1003/7/6 1002/7/6 1004/7/6
f 999/7/6 1003/7/6 1005/7/6
f 1004/7/6 1002/7/6 1006/7/6
f 999/7/6 1005/7/6 1007/7/6
f 1005/7/6 1006/7/6 1007/7/6
f 1006/7/6 1002/7/6 1008/7/6
f 1007/7/6 1006/7/6 1008/7/6
f 1009/5/6 1010/5/6 1011/5/6
f 1011/5/6 1010/5/6 1012/5/6
f 1013/1/6 1014/1/6 1017/1/6
f 1017/1/6 1014/1/6 1018/1/6
f 1015/1/6 1016/1/6 1019/1/6
f 1019/1/6 1016/1/6 1020/1/6
f 1021/9/6 1022/9/6 1024/9/6
f 1024/9/6 1022/9/6 1025/9/6
f 1023/9/6 1024/9/6 1028/9/6
f 1025/9/6 1026/9/6 1029/9/6
f 1029/9/6 1030/9/6 1031/9/6
f 1027/9/6 1028/9/6 1032/9/6
f 1028/9/6 1024/9/6 1033/9/6
f 1032/9/6 1028/9/6 1033/9/6
f 1033/9/6 1024/9/6 1034/9/6
f 1025/9/6 1029/9/6 1035/9/6
f 1029/9/6 1031/9/6 1035/9/6
f 1035/9/6 1031/9/6 1036/9/6
f 1036/9/6 1031/9/6 1037/9/6
f 1033/9/6 1034/9/6 1038/9/6
f 1035/9/6 1036/9/6 1038/9/6
f 1034/9/6 1035/9/6 1038/9/6
f 1038/9/6 1036/9/6 1039/9/6
f 1039/9/6 1036/9/6 1040/9/6
f 1040/9/6 1036/9/6 1041/9/6
f 1039/9/6 1040/9/6 1042/9/6
f 1042/9/6 1040/9/6 1043/9/6
f 1044/9/6 1045/9/6 1048/9/6
f 1048/9/6 1045/9/6 1049/9/6
f 1046/9/6 1047/9/6 1050/9/6
f 1050/9/6 1047/9/6 1051/9/6
f 1052/9/6 1053/9/6 1056/9/6
f 1056/9/6 1053/9/6 1057/9/6
f 1054/9/6 1055/9/6 1058/9/6
f 1058/9/6 1055/9/6 1059/9/6
f 1057/9/6 1058/9/6 1060/9/6
f 1060/9/6 1058/9/6 1061/9/6
f 1062/8/6 1063/8/6 1064/8/6
f 1064/8/6 1063/8/6 1065/8/6
f 1066/9/6 1067/9/6 1070/9/6
f 1068/9/6 1069/9/6 1071/9/6
f 1066/9/6 1070/9/6 1072/9/6
f 1070/9/6 1071/9/6 1072/9/6
f 1072/9/6 1071/9/6 1073/9/6
f 1071/9/6 1069/9/6 1074/9/6
f 1073/9/6 1071/9/6 1074/9/6
f 1074/9/6 1069/9/6 1075/9/6
f 1073/9/6 1074/9/6 1078/9/6
f 1078/9/6 1074/9/6 1079/9/6
f 1076/8/6 1077/8/6 1080/8/6
f 1080/8/6 1077/8/6 1081/8/6
f 1080/5/6 1081/5/6 1082/5/6
f 1082/5/6 1081/5/6 1083/5/6
f 1084/9/6 1085/9/6 1086/9/6
f 1086/9/6 1085/9/6 1087/9/6
