# MagicaVoxel @ Ephtracy

# group
o 

# material
mtllib FireBow.mtl
usemtl palette

# normals
vn -1 0 0
vn 1 0 0
vn 0 0 1
vn 0 0 -1
vn 0 -1 0
vn 0 1 0

# texcoords
vt 0.849609 0.5
vt 0.865234 0.5
vt 0.955078 0.5
vt 0.962891 0.5

# verts
v -0.5 0 1
v -0.5 0 -1.1
v -0.5 0.1 1
v -0.5 0.1 -1.1
v -0.3 0 0.9
v -0.3 0 0.8
v -0.3 0 -0.9
v -0.3 0 -1
v -0.3 0.1 0.9
v -0.3 0.1 0.8
v -0.3 0.1 -0.9
v -0.3 0.1 -1
v -0.2 0 0.8
v -0.2 0 0.7
v -0.2 0 -0.8
v -0.2 0 -0.9
v -0.2 0.1 0.8
v -0.2 0.1 0.7
v -0.2 0.1 -0.8
v -0.2 0.1 -0.9
v -0.1 0 0.7
v -0.1 0 0.6
v -0.1 0 -0.7
v -0.1 0 -0.8
v -0.1 0.1 0.7
v -0.1 0.1 0.6
v -0.1 0.1 -0.7
v -0.1 0.1 -0.8
v 0 0 0.6
v 0 0 0.5
v 0 0 -0.6
v 0 0 -0.7
v 0 0.1 0.6
v 0 0.1 0.5
v 0 0.1 -0.6
v 0 0.1 -0.7
v 0.1 0 0.5
v 0.1 0 0.4
v 0.1 0 -0.5
v 0.1 0 -0.6
v 0.1 0.1 0.5
v 0.1 0.1 0.4
v 0.1 0.1 -0.5
v 0.1 0.1 -0.6
v 0.2 0 0.4
v 0.2 0 0.3
v 0.2 0 -0.4
v 0.2 0 -0.5
v 0.2 0.1 0.4
v 0.2 0.1 0.3
v 0.2 0.1 -0.4
v 0.2 0.1 -0.5
v 0.3 0 0.3
v 0.3 0 0
v 0.3 0 -0.1
v 0.3 0 -0.4
v 0.3 0.1 0.3
v 0.3 0.1 0
v 0.3 0.1 -0.1
v 0.3 0.1 -0.4
v -0.4 0 0.9
v -0.4 0 -1
v -0.4 0.1 0.9
v -0.4 0.1 -1
v -0.2 0 1
v -0.2 0 0.9
v -0.2 0 -1
v -0.2 0 -1.1
v -0.2 0.1 1
v -0.2 0.1 0.9
v -0.2 0.1 -1
v -0.2 0.1 -1.1
v -0.1 0 0.9
v -0.1 0 0.8
v -0.1 0 -0.9
v -0.1 0 -1
v -0.1 0.1 0.9
v -0.1 0.1 0.8
v -0.1 0.1 -0.9
v -0.1 0.1 -1
v 0 0 0.8
v 0 0 0.7
v 0 0 -0.8
v 0 0 -0.9
v 0 0.1 0.8
v 0 0.1 0.7
v 0 0.1 -0.8
v 0 0.1 -0.9
v 0.1 0 0.7
v 0.1 0 0.6
v 0.1 0 -0.7
v 0.1 0 -0.8
v 0.1 0.1 0.7
v 0.1 0.1 0.6
v 0.1 0.1 -0.7
v 0.1 0.1 -0.8
v 0.2 0 0.6
v 0.2 0 0.5
v 0.2 0 -0.6
v 0.2 0 -0.7
v 0.2 0.1 0.6
v 0.2 0.1 0.5
v 0.2 0.1 -0.6
v 0.2 0.1 -0.7
v 0.3 0 0.5
v 0.3 0 0.4
v 0.3 0 -0.5
v 0.3 0 -0.6
v 0.3 0.1 0.5
v 0.3 0.1 0.4
v 0.3 0.1 -0.5
v 0.3 0.1 -0.6
v 0.4 0 0.4
v 0.4 0 0.3
v 0.4 0 -0.4
v 0.4 0 -0.5
v 0.4 0.1 0.4
v 0.4 0.1 0.3
v 0.4 0.1 -0.4
v 0.4 0.1 -0.5
v 0.5 0 0.3
v 0.5 0 -0.4
v 0.5 0.1 0.3
v 0.5 0.1 -0.4
v -0.5 0 1
v -0.5 0.1 1
v -0.4 0 1
v -0.4 0.1 1
v -0.2 0 1
v -0.2 0.1 1
v -0.2 0 0.9
v -0.2 0.1 0.9
v -0.1 0 0.9
v -0.1 0.1 0.9
v -0.1 0 0.8
v -0.1 0.1 0.8
v 0 0 0.8
v 0 0.1 0.8
v 0 0 0.7
v 0 0.1 0.7
v 0.1 0 0.7
v 0.1 0.1 0.7
v 0.1 0 0.6
v 0.1 0.1 0.6
v 0.2 0 0.6
v 0.2 0.1 0.6
v 0.2 0 0.5
v 0.2 0.1 0.5
v 0.3 0 0.5
v 0.3 0.1 0.5
v 0.3 0 0.4
v 0.3 0.1 0.4
v 0.4 0 0.4
v 0.4 0.1 0.4
v 0.4 0 0.3
v 0.4 0.1 0.3
v 0.5 0 0.3
v 0.5 0.1 0.3
v 0.2 0 -0.4
v 0.2 0.1 -0.4
v 0.3 0 -0.4
v 0.3 0.1 -0.4
v 0.1 0 -0.5
v 0.1 0.1 -0.5
v 0.2 0 -0.5
v 0.2 0.1 -0.5
v 0 0 -0.6
v 0 0.1 -0.6
v 0.1 0 -0.6
v 0.1 0.1 -0.6
v -0.1 0 -0.7
v -0.1 0.1 -0.7
v 0 0 -0.7
v 0 0.1 -0.7
v -0.2 0 -0.8
v -0.2 0.1 -0.8
v -0.1 0 -0.8
v -0.1 0.1 -0.8
v -0.3 0 -0.9
v -0.3 0.1 -0.9
v -0.2 0 -0.9
v -0.2 0.1 -0.9
v -0.4 0 -1
v -0.4 0.1 -1
v -0.3 0 -1
v -0.3 0.1 -1
v -0.4 0 0.9
v -0.4 0.1 0.9
v -0.3 0 0.9
v -0.3 0.1 0.9
v -0.3 0 0.8
v -0.3 0.1 0.8
v -0.2 0 0.8
v -0.2 0.1 0.8
v -0.2 0 0.7
v -0.2 0.1 0.7
v -0.1 0 0.7
v -0.1 0.1 0.7
v -0.1 0 0.6
v -0.1 0.1 0.6
v 0 0 0.6
v 0 0.1 0.6
v 0 0 0.5
v 0 0.1 0.5
v 0.1 0 0.5
v 0.1 0.1 0.5
v 0.1 0 0.4
v 0.1 0.1 0.4
v 0.2 0 0.4
v 0.2 0.1 0.4
v 0.2 0 0.3
v 0.2 0.1 0.3
v 0.3 0 0.3
v 0.3 0.1 0.3
v 0.4 0 -0.4
v 0.4 0.1 -0.4
v 0.5 0 -0.4
v 0.5 0.1 -0.4
v 0.3 0 -0.5
v 0.3 0.1 -0.5
v 0.4 0 -0.5
v 0.4 0.1 -0.5
v 0.2 0 -0.6
v 0.2 0.1 -0.6
v 0.3 0 -0.6
v 0.3 0.1 -0.6
v 0.1 0 -0.7
v 0.1 0.1 -0.7
v 0.2 0 -0.7
v 0.2 0.1 -0.7
v 0 0 -0.8
v 0 0.1 -0.8
v 0.1 0 -0.8
v 0.1 0.1 -0.8
v -0.1 0 -0.9
v -0.1 0.1 -0.9
v 0 0 -0.9
v 0 0.1 -0.9
v -0.2 0 -1
v -0.2 0.1 -1
v -0.1 0 -1
v -0.1 0.1 -1
v -0.5 0 -1.1
v -0.5 0.1 -1.1
v -0.4 0 -1.1
v -0.4 0.1 -1.1
v -0.2 0 -1.1
v -0.2 0.1 -1.1
v -0.5 0 1
v -0.4 0 1
v -0.2 0 1
v -0.4 0 0.9
v -0.3 0 0.9
v -0.2 0 0.9
v -0.1 0 0.9
v -0.3 0 0.8
v -0.2 0 0.8
v -0.1 0 0.8
v 0 0 0.8
v -0.2 0 0.7
v -0.1 0 0.7
v 0 0 0.7
v 0.1 0 0.7
v -0.1 0 0.6
v 0 0 0.6
v 0.1 0 0.6
v 0.2 0 0.6
v 0 0 0.5
v 0.1 0 0.5
v 0.2 0 0.5
v 0.3 0 0.5
v 0.1 0 0.4
v 0.2 0 0.4
v 0.3 0 0.4
v 0.4 0 0.4
v 0.2 0 0.3
v 0.3 0 0.3
v 0.4 0 0.3
v 0.5 0 0.3
v 0.3 0 0
v 0.4 0 0
v 0.3 0 -0.1
v 0.4 0 -0.1
v 0.2 0 -0.4
v 0.3 0 -0.4
v 0.4 0 -0.4
v 0.5 0 -0.4
v 0.1 0 -0.5
v 0.2 0 -0.5
v 0.3 0 -0.5
v 0.4 0 -0.5
v 0 0 -0.6
v 0.1 0 -0.6
v 0.2 0 -0.6
v 0.3 0 -0.6
v -0.1 0 -0.7
v 0 0 -0.7
v 0.1 0 -0.7
v 0.2 0 -0.7
v -0.2 0 -0.8
v -0.1 0 -0.8
v 0 0 -0.8
v 0.1 0 -0.8
v -0.3 0 -0.9
v -0.2 0 -0.9
v -0.1 0 -0.9
v 0 0 -0.9
v -0.4 0 -1
v -0.3 0 -1
v -0.2 0 -1
v -0.1 0 -1
v -0.5 0 -1.1
v -0.4 0 -1.1
v -0.2 0 -1.1
v -0.5 0.1 1
v -0.4 0.1 1
v -0.2 0.1 1
v -0.4 0.1 0.9
v -0.3 0.1 0.9
v -0.2 0.1 0.9
v -0.1 0.1 0.9
v -0.3 0.1 0.8
v -0.2 0.1 0.8
v -0.1 0.1 0.8
v 0 0.1 0.8
v -0.2 0.1 0.7
v -0.1 0.1 0.7
v 0 0.1 0.7
v 0.1 0.1 0.7
v -0.1 0.1 0.6
v 0 0.1 0.6
v 0.1 0.1 0.6
v 0.2 0.1 0.6
v 0 0.1 0.5
v 0.1 0.1 0.5
v 0.2 0.1 0.5
v 0.3 0.1 0.5
v 0.1 0.1 0.4
v 0.2 0.1 0.4
v 0.3 0.1 0.4
v 0.4 0.1 0.4
v 0.2 0.1 0.3
v 0.3 0.1 0.3
v 0.4 0.1 0.3
v 0.5 0.1 0.3
v 0.3 0.1 0
v 0.4 0.1 0
v 0.3 0.1 -0.1
v 0.4 0.1 -0.1
v 0.2 0.1 -0.4
v 0.3 0.1 -0.4
v 0.4 0.1 -0.4
v 0.5 0.1 -0.4
v 0.1 0.1 -0.5
v 0.2 0.1 -0.5
v 0.3 0.1 -0.5
v 0.4 0.1 -0.5
v 0 0.1 -0.6
v 0.1 0.1 -0.6
v 0.2 0.1 -0.6
v 0.3 0.1 -0.6
v -0.1 0.1 -0.7
v 0 0.1 -0.7
v 0.1 0.1 -0.7
v 0.2 0.1 -0.7
v -0.2 0.1 -0.8
v -0.1 0.1 -0.8
v 0 0.1 -0.8
v 0.1 0.1 -0.8
v -0.3 0.1 -0.9
v -0.2 0.1 -0.9
v -0.1 0.1 -0.9
v 0 0.1 -0.9
v -0.4 0.1 -1
v -0.3 0.1 -1
v -0.2 0.1 -1
v -0.1 0.1 -1
v -0.5 0.1 -1.1
v -0.4 0.1 -1.1
v -0.2 0.1 -1.1

# faces
f 3/4/1 2/4/1 1/4/1
f 4/4/1 2/4/1 3/4/1
f 9/1/1 6/1/1 5/1/1
f 10/1/1 6/1/1 9/1/1
f 11/1/1 8/1/1 7/1/1
f 12/1/1 8/1/1 11/1/1
f 17/1/1 14/1/1 13/1/1
f 18/1/1 14/1/1 17/1/1
f 19/1/1 16/1/1 15/1/1
f 20/1/1 16/1/1 19/1/1
f 25/1/1 22/1/1 21/1/1
f 26/1/1 22/1/1 25/1/1
f 27/1/1 24/1/1 23/1/1
f 28/1/1 24/1/1 27/1/1
f 33/1/1 30/1/1 29/1/1
f 34/1/1 30/1/1 33/1/1
f 35/1/1 32/1/1 31/1/1
f 36/1/1 32/1/1 35/1/1
f 41/1/1 38/1/1 37/1/1
f 42/1/1 38/1/1 41/1/1
f 43/1/1 40/1/1 39/1/1
f 44/1/1 40/1/1 43/1/1
f 49/1/1 46/1/1 45/1/1
f 50/1/1 46/1/1 49/1/1
f 51/1/1 48/1/1 47/1/1
f 52/1/1 48/1/1 51/1/1
f 57/1/1 54/1/1 53/1/1
f 58/3/1 55/3/1 54/3/1
f 58/1/1 54/1/1 57/1/1
f 59/1/1 56/1/1 55/1/1
f 59/3/1 55/3/1 58/3/1
f 60/1/1 56/1/1 59/1/1
f 61/4/2 62/4/2 63/4/2
f 63/4/2 62/4/2 64/4/2
f 65/2/2 66/2/2 69/2/2
f 69/2/2 66/2/2 70/2/2
f 67/2/2 68/2/2 71/2/2
f 71/2/2 68/2/2 72/2/2
f 73/2/2 74/2/2 77/2/2
f 77/2/2 74/2/2 78/2/2
f 75/2/2 76/2/2 79/2/2
f 79/2/2 76/2/2 80/2/2
f 81/2/2 82/2/2 85/2/2
f 85/2/2 82/2/2 86/2/2
f 83/2/2 84/2/2 87/2/2
f 87/2/2 84/2/2 88/2/2
f 89/2/2 90/2/2 93/2/2
f 93/2/2 90/2/2 94/2/2
f 91/2/2 92/2/2 95/2/2
f 95/2/2 92/2/2 96/2/2
f 97/2/2 98/2/2 101/2/2
f 101/2/2 98/2/2 102/2/2
f 99/2/2 100/2/2 103/2/2
f 103/2/2 100/2/2 104/2/2
f 105/2/2 106/2/2 109/2/2
f 109/2/2 106/2/2 110/2/2
f 107/2/2 108/2/2 111/2/2
f 111/2/2 108/2/2 112/2/2
f 113/2/2 114/2/2 117/2/2
f 117/2/2 114/2/2 118/2/2
f 115/2/2 116/2/2 119/2/2
f 119/2/2 116/2/2 120/2/2
f 121/2/2 122/2/2 123/2/2
f 123/2/2 122/2/2 124/2/2
f 127/4/3 126/4/3 125/4/3
f 128/4/3 126/4/3 127/4/3
f 129/2/3 128/2/3 127/2/3
f 130/2/3 128/2/3 129/2/3
f 133/2/3 132/2/3 131/2/3
f 134/2/3 132/2/3 133/2/3
f 137/2/3 136/2/3 135/2/3
f 138/2/3 136/2/3 137/2/3
f 141/2/3 140/2/3 139/2/3
f 142/2/3 140/2/3 141/2/3
f 145/2/3 144/2/3 143/2/3
f 146/2/3 144/2/3 145/2/3
f 149/2/3 148/2/3 147/2/3
f 150/2/3 148/2/3 149/2/3
f 153/2/3 152/2/3 151/2/3
f 154/2/3 152/2/3 153/2/3
f 157/2/3 156/2/3 155/2/3
f 158/2/3 156/2/3 157/2/3
f 161/1/3 160/1/3 159/1/3
f 162/1/3 160/1/3 161/1/3
f 165/1/3 164/1/3 163/1/3
f 166/1/3 164/1/3 165/1/3
f 169/1/3 168/1/3 167/1/3
f 170/1/3 168/1/3 169/1/3
f 173/1/3 172/1/3 171/1/3
f 174/1/3 172/1/3 173/1/3
f 177/1/3 176/1/3 175/1/3
f 178/1/3 176/1/3 177/1/3
f 181/1/3 180/1/3 179/1/3
f 182/1/3 180/1/3 181/1/3
f 185/2/3 184/2/3 183/2/3
f 186/2/3 184/2/3 185/2/3
f 187/2/4 188/2/4 189/2/4
f 189/2/4 188/2/4 190/2/4
f 191/1/4 192/1/4 193/1/4
f 193/1/4 192/1/4 194/1/4
f 195/1/4 196/1/4 197/1/4
f 197/1/4 196/1/4 198/1/4
f 199/1/4 200/1/4 201/1/4
f 201/1/4 200/1/4 202/1/4
f 203/1/4 204/1/4 205/1/4
f 205/1/4 204/1/4 206/1/4
f 207/1/4 208/1/4 209/1/4
f 209/1/4 208/1/4 210/1/4
f 211/1/4 212/1/4 213/1/4
f 213/1/4 212/1/4 214/1/4
f 215/2/4 216/2/4 217/2/4
f 217/2/4 216/2/4 218/2/4
f 219/2/4 220/2/4 221/2/4
f 221/2/4 220/2/4 222/2/4
f 223/2/4 224/2/4 225/2/4
f 225/2/4 224/2/4 226/2/4
f 227/2/4 228/2/4 229/2/4
f 229/2/4 228/2/4 230/2/4
f 231/2/4 232/2/4 233/2/4
f 233/2/4 232/2/4 234/2/4
f 235/2/4 236/2/4 237/2/4
f 237/2/4 236/2/4 238/2/4
f 239/2/4 240/2/4 241/2/4
f 241/2/4 240/2/4 242/2/4
f 243/4/4 244/4/4 245/4/4
f 245/4/4 244/4/4 246/4/4
f 245/2/4 246/2/4 247/2/4
f 247/2/4 246/2/4 248/2/4
f 252/4/5 250/4/5 249/4/5
f 252/2/5 251/2/5 250/2/5
f 253/2/5 251/2/5 252/2/5
f 254/2/5 251/2/5 253/2/5
f 256/1/5 254/1/5 253/1/5
f 257/2/5 255/2/5 254/2/5
f 257/1/5 254/1/5 256/1/5
f 258/2/5 255/2/5 257/2/5
f 260/1/5 258/1/5 257/1/5
f 261/2/5 259/2/5 258/2/5
f 261/1/5 258/1/5 260/1/5
f 262/2/5 259/2/5 261/2/5
f 264/1/5 262/1/5 261/1/5
f 265/2/5 263/2/5 262/2/5
f 265/1/5 262/1/5 264/1/5
f 266/2/5 263/2/5 265/2/5
f 268/1/5 266/1/5 265/1/5
f 269/2/5 267/2/5 266/2/5
f 269/1/5 266/1/5 268/1/5
f 270/2/5 267/2/5 269/2/5
f 272/1/5 270/1/5 269/1/5
f 273/2/5 271/2/5 270/2/5
f 273/1/5 270/1/5 272/1/5
f 274/2/5 271/2/5 273/2/5
f 276/1/5 274/1/5 273/1/5
f 277/2/5 275/2/5 274/2/5
f 277/1/5 274/1/5 276/1/5
f 278/2/5 275/2/5 277/2/5
f 280/1/5 278/1/5 277/1/5
f 281/2/5 279/2/5 278/2/5
f 281/1/5 278/1/5 280/1/5
f 282/3/5 281/3/5 280/3/5
f 283/2/5 279/2/5 281/2/5
f 283/3/5 281/3/5 282/3/5
f 285/1/5 283/1/5 282/1/5
f 286/2/5 279/2/5 283/2/5
f 286/1/5 283/1/5 285/1/5
f 287/2/5 279/2/5 286/2/5
f 289/1/5 285/1/5 284/1/5
f 290/2/5 286/2/5 285/2/5
f 290/1/5 285/1/5 289/1/5
f 291/2/5 286/2/5 290/2/5
f 293/1/5 289/1/5 288/1/5
f 294/2/5 290/2/5 289/2/5
f 294/1/5 289/1/5 293/1/5
f 295/2/5 290/2/5 294/2/5
f 297/1/5 293/1/5 292/1/5
f 298/2/5 294/2/5 293/2/5
f 298/1/5 293/1/5 297/1/5
f 299/2/5 294/2/5 298/2/5
f 301/1/5 297/1/5 296/1/5
f 302/2/5 298/2/5 297/2/5
f 302/1/5 297/1/5 301/1/5
f 303/2/5 298/2/5 302/2/5
f 305/1/5 301/1/5 300/1/5
f 306/2/5 302/2/5 301/2/5
f 306/1/5 301/1/5 305/1/5
f 307/2/5 302/2/5 306/2/5
f 308/4/5 252/4/5 249/4/5
f 309/1/5 305/1/5 304/1/5
f 310/2/5 306/2/5 305/2/5
f 310/1/5 305/1/5 309/1/5
f 311/2/5 306/2/5 310/2/5
f 312/4/5 308/4/5 249/4/5
f 313/2/5 309/2/5 308/2/5
f 313/4/5 308/4/5 312/4/5
f 313/2/5 310/2/5 309/2/5
f 314/2/5 310/2/5 313/2/5
f 315/4/6 316/4/6 318/4/6
f 316/2/6 317/2/6 318/2/6
f 318/2/6 317/2/6 319/2/6
f 319/2/6 317/2/6 320/2/6
f 319/1/6 320/1/6 322/1/6
f 320/2/6 321/2/6 323/2/6
f 322/1/6 320/1/6 323/1/6
f 323/2/6 321/2/6 324/2/6
f 323/1/6 324/1/6 326/1/6
f 324/2/6 325/2/6 327/2/6
f 326/1/6 324/1/6 327/1/6
f 327/2/6 325/2/6 328/2/6
f 327/1/6 328/1/6 330/1/6
f 328/2/6 329/2/6 331/2/6
f 330/1/6 328/1/6 331/1/6
f 331/2/6 329/2/6 332/2/6
f 331/1/6 332/1/6 334/1/6
f 332/2/6 333/2/6 335/2/6
f 334/1/6 332/1/6 335/1/6
f 335/2/6 333/2/6 336/2/6
f 335/1/6 336/1/6 338/1/6
f 336/2/6 337/2/6 339/2/6
f 338/1/6 336/1/6 339/1/6
f 339/2/6 337/2/6 340/2/6
f 339/1/6 340/1/6 342/1/6
f 340/2/6 341/2/6 343/2/6
f 342/1/6 340/1/6 343/1/6
f 343/2/6 341/2/6 344/2/6
f 343/1/6 344/1/6 346/1/6
f 344/2/6 345/2/6 347/2/6
f 346/1/6 344/1/6 347/1/6
f 346/3/6 347/3/6 348/3/6
f 347/2/6 345/2/6 349/2/6
f 348/3/6 347/3/6 349/3/6
f 348/1/6 349/1/6 351/1/6
f 349/2/6 345/2/6 352/2/6
f 351/1/6 349/1/6 352/1/6
f 352/2/6 345/2/6 353/2/6
f 350/1/6 351/1/6 355/1/6
f 351/2/6 352/2/6 356/2/6
f 355/1/6 351/1/6 356/1/6
f 356/2/6 352/2/6 357/2/6
f 354/1/6 355/1/6 359/1/6
f 355/2/6 356/2/6 360/2/6
f 359/1/6 355/1/6 360/1/6
f 360/2/6 356/2/6 361/2/6
f 358/1/6 359/1/6 363/1/6
f 359/2/6 360/2/6 364/2/6
f 363/1/6 359/1/6 364/1/6
f 364/2/6 360/2/6 365/2/6
f 362/1/6 363/1/6 367/1/6
f 363/2/6 364/2/6 368/2/6
f 367/1/6 363/1/6 368/1/6
f 368/2/6 364/2/6 369/2/6
f 366/1/6 367/1/6 371/1/6
f 367/2/6 368/2/6 372/2/6
f 371/1/6 367/1/6 372/1/6
f 372/2/6 368/2/6 373/2/6
f 315/4/6 318/4/6 374/4/6
f 370/1/6 371/1/6 375/1/6
f 371/2/6 372/2/6 376/2/6
f 375/1/6 371/1/6 376/1/6
f 376/2/6 372/2/6 377/2/6
f 315/4/6 374/4/6 378/4/6
f 374/2/6 375/2/6 379/2/6
f 378/4/6 374/4/6 379/4/6
f 375/2/6 376/2/6 379/2/6
f 379/2/6 376/2/6 380/2/6
