# MagicaVoxel @ Ephtracy

# group
o 

# material
mtllib Home.mtl
usemtl palette

# normals
vn -1 0 0
vn 1 0 0
vn 0 0 1
vn 0 0 -1
vn 0 -1 0
vn 0 1 0

# texcoords
vt 0.373047 0.5
vt 0.537109 0.5

# verts
v -1.1 1.2 1
v -1.1 1.2 -1
v -1.1 1.4 1
v -1.1 1.4 -1
v -0.9 0 0.6
v -0.9 0 -0.7
v -0.9 0.2 0.4
v -0.9 0.2 0.1
v -0.9 0.2 -0.2
v -0.9 0.2 -0.5
v -0.9 0.7 0.1
v -0.9 0.7 -0.2
v -0.9 1.2 0.6
v -0.9 1.2 0.4
v -0.9 1.2 -0.5
v -0.9 1.2 -0.7
v -0.9 1.4 0.8
v -0.9 1.4 0.4
v -0.9 1.4 -0.5
v -0.9 1.4 -0.9
v -0.9 1.6 0.8
v -0.9 1.6 0.4
v -0.9 1.6 -0.5
v -0.9 1.6 -0.9
v -0.7 1.6 0.6
v -0.7 1.6 0.4
v -0.7 1.6 0.3
v -0.7 1.6 -0.4
v -0.7 1.6 -0.5
v -0.7 1.6 -0.7
v -0.7 1.8 0.6
v -0.7 1.8 0.3
v -0.7 1.8 -0.4
v -0.7 1.8 -0.7
v -0.5 1.8 0.4
v -0.5 1.8 0.3
v -0.5 1.8 0.2
v -0.5 1.8 -0.3
v -0.5 1.8 -0.4
v -0.5 1.8 -0.5
v -0.5 2 0.4
v -0.5 2 0.2
v -0.5 2 -0.3
v -0.5 2 -0.5
v -0.3 2 0.2
v -0.3 2 -0.3
v -0.3 2.1 0.2
v -0.3 2.1 -0.3
v 0.8 0.2 0.4
v 0.8 0.2 -0.5
v 0.8 1.2 0.4
v 0.8 1.2 -0.5
v -0.8 0.3 0.1
v -0.8 0.3 0
v -0.8 0.6 0
v -0.8 0.6 -0.2
v -0.8 0.7 0.1
v -0.8 0.7 -0.2
v -0.7 0.2 0.4
v -0.7 0.2 0.1
v -0.7 0.2 -0.2
v -0.7 0.2 -0.5
v -0.7 0.3 0.1
v -0.7 0.3 0
v -0.7 0.6 0
v -0.7 0.6 -0.2
v -0.7 0.7 0.1
v -0.7 0.7 -0.2
v -0.7 1.2 0.4
v -0.7 1.2 -0.5
v 0.4 2 0.2
v 0.4 2 -0.3
v 0.4 2.1 0.2
v 0.4 2.1 -0.3
v 0.6 1.8 0.4
v 0.6 1.8 0.3
v 0.6 1.8 0.2
v 0.6 1.8 -0.3
v 0.6 1.8 -0.4
v 0.6 1.8 -0.5
v 0.6 2 0.4
v 0.6 2 0.2
v 0.6 2 -0.3
v 0.6 2 -0.5
v 0.8 1.6 0.6
v 0.8 1.6 0.4
v 0.8 1.6 0.3
v 0.8 1.6 -0.4
v 0.8 1.6 -0.5
v 0.8 1.6 -0.7
v 0.8 1.8 0.6
v 0.8 1.8 0.3
v 0.8 1.8 -0.4
v 0.8 1.8 -0.7
v 1 0 0.6
v 1 0 -0.7
v 1 0.2 0.4
v 1 0.2 -0.5
v 1 1.2 0.6
v 1 1.2 0.4
v 1 1.2 -0.5
v 1 1.2 -0.7
v 1 1.4 0.8
v 1 1.4 0.4
v 1 1.4 -0.5
v 1 1.4 -0.9
v 1 1.6 0.8
v 1 1.6 0.4
v 1 1.6 -0.5
v 1 1.6 -0.9
v 1.2 1.2 1
v 1.2 1.2 -1
v 1.2 1.4 1
v 1.2 1.4 -1
v -1.1 1.2 1
v -1.1 1.4 1
v 1.2 1.2 1
v 1.2 1.4 1
v -0.9 1.4 0.8
v -0.9 1.6 0.8
v -0.5 1.4 0.8
v -0.5 1.6 0.8
v 0.6 1.4 0.8
v 0.6 1.6 0.8
v 1 1.4 0.8
v 1 1.6 0.8
v -0.9 0 0.6
v -0.9 1.2 0.6
v -0.7 0.2 0.6
v -0.7 1.2 0.6
v -0.7 1.6 0.6
v -0.7 1.8 0.6
v -0.5 1.6 0.6
v -0.4 1.6 0.6
v -0.4 1.8 0.6
v 0.5 1.6 0.6
v 0.5 1.8 0.6
v 0.6 1.6 0.6
v 0.8 0.2 0.6
v 0.8 1.2 0.6
v 0.8 1.6 0.6
v 0.8 1.8 0.6
v 1 0 0.6
v 1 1.2 0.6
v -0.5 1.8 0.4
v -0.5 2 0.4
v -0.4 1.8 0.4
v -0.3 1.8 0.4
v -0.3 2 0.4
v 0.4 1.8 0.4
v 0.4 2 0.4
v 0.5 1.8 0.4
v 0.6 1.8 0.4
v 0.6 2 0.4
v -0.3 2 0.2
v -0.3 2.1 0.2
v 0.4 2 0.2
v 0.4 2.1 0.2
v -0.8 0.3 0
v -0.8 0.6 0
v -0.7 0.3 0
v -0.7 0.6 0
v -0.8 0.6 -0.2
v -0.8 0.7 -0.2
v -0.7 0.6 -0.2
v -0.7 0.7 -0.2
v -0.7 0.2 -0.5
v -0.7 1.2 -0.5
v 0.8 0.2 -0.5
v 0.8 1.2 -0.5
v -0.7 0.2 0.4
v -0.7 1.2 0.4
v 0.8 0.2 0.4
v 0.8 1.2 0.4
v -0.8 0.3 0.1
v -0.8 0.7 0.1
v -0.7 0.3 0.1
v -0.7 0.7 0.1
v -0.3 2 -0.3
v -0.3 2.1 -0.3
v 0.4 2 -0.3
v 0.4 2.1 -0.3
v -0.5 1.8 -0.5
v -0.5 2 -0.5
v -0.4 1.8 -0.5
v -0.3 1.8 -0.5
v -0.3 2 -0.5
v 0.4 1.8 -0.5
v 0.4 2 -0.5
v 0.5 1.8 -0.5
v 0.6 1.8 -0.5
v 0.6 2 -0.5
v -0.9 0 -0.7
v -0.9 1.2 -0.7
v -0.7 0.2 -0.7
v -0.7 1.2 -0.7
v -0.7 1.6 -0.7
v -0.7 1.8 -0.7
v -0.5 1.6 -0.7
v -0.4 1.6 -0.7
v -0.4 1.8 -0.7
v 0.5 1.6 -0.7
v 0.5 1.8 -0.7
v 0.6 1.6 -0.7
v 0.8 0.2 -0.7
v 0.8 1.2 -0.7
v 0.8 1.6 -0.7
v 0.8 1.8 -0.7
v 1 0 -0.7
v 1 1.2 -0.7
v -0.9 1.4 -0.9
v -0.9 1.6 -0.9
v -0.5 1.4 -0.9
v -0.5 1.6 -0.9
v 0.6 1.4 -0.9
v 0.6 1.6 -0.9
v 1 1.4 -0.9
v 1 1.6 -0.9
v -1.1 1.2 -1
v -1.1 1.4 -1
v 1.2 1.2 -1
v 1.2 1.4 -1
v -0.9 0 0.6
v 1 0 0.6
v -0.9 0 -0.7
v 1 0 -0.7
v -0.8 0.7 0.1
v -0.7 0.7 0.1
v -0.8 0.7 -0.2
v -0.7 0.7 -0.2
v -1.1 1.2 1
v 1.2 1.2 1
v -0.9 1.2 0.6
v -0.7 1.2 0.6
v 0.8 1.2 0.6
v 1 1.2 0.6
v -0.9 1.2 0.4
v -0.7 1.2 0.4
v 0.8 1.2 0.4
v 1 1.2 0.4
v -0.9 1.2 -0.5
v -0.7 1.2 -0.5
v 0.8 1.2 -0.5
v 1 1.2 -0.5
v -0.9 1.2 -0.7
v -0.7 1.2 -0.7
v 0.8 1.2 -0.7
v 1 1.2 -0.7
v -1.1 1.2 -1
v 1.2 1.2 -1
v -0.7 0.2 0.4
v 0.8 0.2 0.4
v -0.7 0.2 0.1
v -0.7 0.2 -0.2
v -0.7 0.2 -0.5
v 0.8 0.2 -0.5
v -0.8 0.3 0.1
v -0.7 0.3 0.1
v -0.8 0.3 0
v -0.7 0.3 0
v -0.8 0.6 0
v -0.7 0.6 0
v -0.8 0.6 -0.2
v -0.7 0.6 -0.2
v -1.1 1.4 1
v 1.2 1.4 1
v -0.9 1.4 0.8
v -0.5 1.4 0.8
v 0.6 1.4 0.8
v 1 1.4 0.8
v -0.9 1.4 0.4
v 1 1.4 0.4
v -0.9 1.4 -0.5
v 1 1.4 -0.5
v -0.9 1.4 -0.9
v -0.5 1.4 -0.9
v 0.6 1.4 -0.9
v 1 1.4 -0.9
v -1.1 1.4 -1
v 1.2 1.4 -1
v -0.9 1.6 0.8
v -0.5 1.6 0.8
v 0.6 1.6 0.8
v 1 1.6 0.8
v -0.7 1.6 0.6
v -0.5 1.6 0.6
v -0.4 1.6 0.6
v 0.5 1.6 0.6
v 0.6 1.6 0.6
v 0.8 1.6 0.6
v -0.9 1.6 0.4
v -0.7 1.6 0.4
v 0.8 1.6 0.4
v 1 1.6 0.4
v -0.7 1.6 0.3
v 0.8 1.6 0.3
v -0.7 1.6 -0.4
v 0.8 1.6 -0.4
v -0.9 1.6 -0.5
v -0.7 1.6 -0.5
v 0.8 1.6 -0.5
v 1 1.6 -0.5
v -0.7 1.6 -0.7
v -0.5 1.6 -0.7
v -0.4 1.6 -0.7
v 0.5 1.6 -0.7
v 0.6 1.6 -0.7
v 0.8 1.6 -0.7
v -0.9 1.6 -0.9
v -0.5 1.6 -0.9
v 0.6 1.6 -0.9
v 1 1.6 -0.9
v -0.7 1.8 0.6
v -0.4 1.8 0.6
v 0.5 1.8 0.6
v 0.8 1.8 0.6
v -0.5 1.8 0.4
v -0.4 1.8 0.4
v -0.3 1.8 0.4
v 0.4 1.8 0.4
v 0.5 1.8 0.4
v 0.6 1.8 0.4
v -0.7 1.8 0.3
v -0.5 1.8 0.3
v 0.6 1.8 0.3
v 0.8 1.8 0.3
v -0.5 1.8 0.2
v 0.6 1.8 0.2
v -0.5 1.8 -0.3
v 0.6 1.8 -0.3
v -0.7 1.8 -0.4
v -0.5 1.8 -0.4
v 0.6 1.8 -0.4
v 0.8 1.8 -0.4
v -0.5 1.8 -0.5
v -0.4 1.8 -0.5
v -0.3 1.8 -0.5
v 0.4 1.8 -0.5
v 0.5 1.8 -0.5
v 0.6 1.8 -0.5
v -0.7 1.8 -0.7
v -0.4 1.8 -0.7
v 0.5 1.8 -0.7
v 0.8 1.8 -0.7
v -0.5 2 0.4
v -0.3 2 0.4
v 0.4 2 0.4
v 0.6 2 0.4
v -0.5 2 0.2
v -0.3 2 0.2
v 0.4 2 0.2
v 0.6 2 0.2
v -0.5 2 -0.3
v -0.3 2 -0.3
v 0.4 2 -0.3
v 0.6 2 -0.3
v -0.5 2 -0.5
v -0.3 2 -0.5
v 0.4 2 -0.5
v 0.6 2 -0.5
v -0.3 2.1 0.2
v 0.4 2.1 0.2
v -0.2 2.1 0.1
v 0.3 2.1 0.1
v -0.2 2.1 -0.2
v 0.3 2.1 -0.2
v -0.3 2.1 -0.3
v 0.4 2.1 -0.3

# faces
f 3/2/1 2/2/1 1/2/1
f 4/2/1 2/2/1 3/2/1
f 7/2/1 6/2/1 5/2/1
f 8/2/1 6/2/1 7/2/1
f 9/2/1 6/2/1 8/2/1
f 10/2/1 6/2/1 9/2/1
f 11/1/1 8/1/1 7/1/1
f 11/2/1 9/2/1 8/2/1
f 12/1/1 10/1/1 9/1/1
f 12/2/1 9/2/1 11/2/1
f 13/2/1 7/2/1 5/2/1
f 14/1/1 11/1/1 7/1/1
f 14/2/1 7/2/1 13/2/1
f 14/1/1 12/1/1 11/1/1
f 15/1/1 10/1/1 12/1/1
f 15/1/1 12/1/1 14/1/1
f 15/2/1 6/2/1 10/2/1
f 16/2/1 6/2/1 15/2/1
f 21/2/1 18/2/1 17/2/1
f 22/1/1 19/1/1 18/1/1
f 22/2/1 18/2/1 21/2/1
f 23/2/1 20/2/1 19/2/1
f 23/1/1 19/1/1 22/1/1
f 24/2/1 20/2/1 23/2/1
f 31/2/1 26/2/1 25/2/1
f 31/2/1 27/2/1 26/2/1
f 32/1/1 28/1/1 27/1/1
f 32/2/1 27/2/1 31/2/1
f 33/2/1 30/2/1 29/2/1
f 33/1/1 28/1/1 32/1/1
f 33/2/1 29/2/1 28/2/1
f 34/2/1 30/2/1 33/2/1
f 41/2/1 36/2/1 35/2/1
f 41/2/1 37/2/1 36/2/1
f 42/1/1 38/1/1 37/1/1
f 42/2/1 37/2/1 41/2/1
f 43/2/1 40/2/1 39/2/1
f 43/1/1 38/1/1 42/1/1
f 43/2/1 39/2/1 38/2/1
f 44/2/1 40/2/1 43/2/1
f 47/2/1 46/2/1 45/2/1
f 48/2/1 46/2/1 47/2/1
f 51/1/1 50/1/1 49/1/1
f 52/1/1 50/1/1 51/1/1
f 53/2/2 54/2/2 55/2/2
f 53/2/2 55/2/2 57/2/2
f 55/2/2 56/2/2 57/2/2
f 57/2/2 56/2/2 58/2/2
f 59/1/2 60/1/2 63/1/2
f 60/2/2 61/2/2 63/2/2
f 63/2/2 61/2/2 64/2/2
f 64/2/2 61/2/2 65/2/2
f 61/1/2 62/1/2 66/1/2
f 65/2/2 61/2/2 66/2/2
f 59/1/2 63/1/2 67/1/2
f 66/1/2 62/1/2 68/1/2
f 59/1/2 67/1/2 69/1/2
f 67/1/2 68/1/2 69/1/2
f 68/1/2 62/1/2 70/1/2
f 69/1/2 68/1/2 70/1/2
f 71/2/2 72/2/2 73/2/2
f 73/2/2 72/2/2 74/2/2
f 75/2/2 76/2/2 81/2/2
f 76/2/2 77/2/2 81/2/2
f 77/1/2 78/1/2 82/1/2
f 81/2/2 77/2/2 82/2/2
f 79/2/2 80/2/2 83/2/2
f 82/1/2 78/1/2 83/1/2
f 78/2/2 79/2/2 83/2/2
f 83/2/2 80/2/2 84/2/2
f 85/2/2 86/2/2 91/2/2
f 86/2/2 87/2/2 91/2/2
f 87/1/2 88/1/2 92/1/2
f 91/2/2 87/2/2 92/2/2
f 89/2/2 90/2/2 93/2/2
f 92/1/2 88/1/2 93/1/2
f 88/2/2 89/2/2 93/2/2
f 93/2/2 90/2/2 94/2/2
f 95/2/2 96/2/2 97/2/2
f 97/2/2 96/2/2 98/2/2
f 95/2/2 97/2/2 99/2/2
f 97/1/2 98/1/2 100/1/2
f 99/2/2 97/2/2 100/2/2
f 98/2/2 96/2/2 101/2/2
f 100/1/2 98/1/2 101/1/2
f 101/2/2 96/2/2 102/2/2
f 103/2/2 104/2/2 107/2/2
f 104/1/2 105/1/2 108/1/2
f 107/2/2 104/2/2 108/2/2
f 105/2/2 106/2/2 109/2/2
f 108/1/2 105/1/2 109/1/2
f 109/2/2 106/2/2 110/2/2
f 111/2/2 112/2/2 113/2/2
f 113/2/2 112/2/2 114/2/2
f 117/2/3 116/2/3 115/2/3
f 118/2/3 116/2/3 117/2/3
f 121/2/3 120/2/3 119/2/3
f 122/2/3 120/2/3 121/2/3
f 123/1/3 122/1/3 121/1/3
f 124/1/3 122/1/3 123/1/3
f 125/2/3 124/2/3 123/2/3
f 126/2/3 124/2/3 125/2/3
f 129/2/3 128/2/3 127/2/3
f 130/2/3 128/2/3 129/2/3
f 133/2/3 132/2/3 131/2/3
f 134/2/3 132/2/3 133/2/3
f 135/2/3 132/2/3 134/2/3
f 136/1/3 135/1/3 134/1/3
f 137/1/3 135/1/3 136/1/3
f 138/2/3 137/2/3 136/2/3
f 139/2/3 129/2/3 127/2/3
f 139/1/3 130/1/3 129/1/3
f 140/1/3 130/1/3 139/1/3
f 141/2/3 137/2/3 138/2/3
f 142/2/3 137/2/3 141/2/3
f 143/2/3 140/2/3 139/2/3
f 143/2/3 139/2/3 127/2/3
f 144/2/3 140/2/3 143/2/3
f 147/2/3 146/2/3 145/2/3
f 148/2/3 146/2/3 147/2/3
f 149/2/3 146/2/3 148/2/3
f 150/1/3 149/1/3 148/1/3
f 151/1/3 149/1/3 150/1/3
f 152/2/3 151/2/3 150/2/3
f 153/2/3 151/2/3 152/2/3
f 154/2/3 151/2/3 153/2/3
f 157/2/3 156/2/3 155/2/3
f 158/2/3 156/2/3 157/2/3
f 161/2/3 160/2/3 159/2/3
f 162/2/3 160/2/3 161/2/3
f 165/1/3 164/1/3 163/1/3
f 166/1/3 164/1/3 165/1/3
f 169/1/3 168/1/3 167/1/3
f 170/1/3 168/1/3 169/1/3
f 171/1/4 172/1/4 173/1/4
f 173/1/4 172/1/4 174/1/4
f 175/1/4 176/1/4 177/1/4
f 177/1/4 176/1/4 178/1/4
f 179/2/4 180/2/4 181/2/4
f 181/2/4 180/2/4 182/2/4
f 183/2/4 184/2/4 185/2/4
f 185/2/4 184/2/4 186/2/4
f 186/2/4 184/2/4 187/2/4
f 186/1/4 187/1/4 188/1/4
f 188/1/4 187/1/4 189/1/4
f 188/2/4 189/2/4 190/2/4
f 190/2/4 189/2/4 191/2/4
f 191/2/4 189/2/4 192/2/4
f 193/2/4 194/2/4 195/2/4
f 195/2/4 194/2/4 196/2/4
f 197/2/4 198/2/4 199/2/4
f 199/2/4 198/2/4 200/2/4
f 200/2/4 198/2/4 201/2/4
f 200/1/4 201/1/4 202/1/4
f 202/1/4 201/1/4 203/1/4
f 202/2/4 203/2/4 204/2/4
f 193/2/4 195/2/4 205/2/4
f 195/1/4 196/1/4 205/1/4
f 205/1/4 196/1/4 206/1/4
f 204/2/4 203/2/4 207/2/4
f 207/2/4 203/2/4 208/2/4
f 205/2/4 206/2/4 209/2/4
f 193/2/4 205/2/4 209/2/4
f 209/2/4 206/2/4 210/2/4
f 211/2/4 212/2/4 213/2/4
f 213/2/4 212/2/4 214/2/4
f 213/1/4 214/1/4 215/1/4
f 215/1/4 214/1/4 216/1/4
f 215/2/4 216/2/4 217/2/4
f 217/2/4 216/2/4 218/2/4
f 219/2/4 220/2/4 221/2/4
f 221/2/4 220/2/4 222/2/4
f 225/2/5 224/2/5 223/2/5
f 226/2/5 224/2/5 225/2/5
f 229/1/5 228/1/5 227/1/5
f 230/1/5 228/1/5 229/1/5
f 233/2/5 232/2/5 231/2/5
f 234/2/5 232/2/5 233/2/5
f 235/2/5 232/2/5 234/2/5
f 236/2/5 232/2/5 235/2/5
f 237/2/5 233/2/5 231/2/5
f 240/2/5 232/2/5 236/2/5
f 241/2/5 237/2/5 231/2/5
f 242/2/5 239/2/5 238/2/5
f 243/2/5 239/2/5 242/2/5
f 244/2/5 232/2/5 240/2/5
f 245/2/5 241/2/5 231/2/5
f 248/2/5 232/2/5 244/2/5
f 249/2/5 247/2/5 246/2/5
f 249/2/5 248/2/5 247/2/5
f 249/2/5 245/2/5 231/2/5
f 249/2/5 246/2/5 245/2/5
f 250/2/5 232/2/5 248/2/5
f 250/2/5 248/2/5 249/2/5
f 251/1/6 252/1/6 253/1/6
f 253/1/6 252/1/6 254/1/6
f 254/1/6 252/1/6 255/1/6
f 255/1/6 252/1/6 256/1/6
f 257/2/6 258/2/6 259/2/6
f 259/2/6 258/2/6 260/2/6
f 261/2/6 262/2/6 263/2/6
f 263/2/6 262/2/6 264/2/6
f 265/2/6 266/2/6 267/2/6
f 267/2/6 266/2/6 268/2/6
f 268/2/6 266/2/6 269/2/6
f 269/2/6 266/2/6 270/2/6
f 265/2/6 267/2/6 271/2/6
f 270/2/6 266/2/6 272/2/6
f 265/2/6 271/2/6 273/2/6
f 272/2/6 266/2/6 274/2/6
f 265/2/6 273/2/6 275/2/6
f 274/2/6 266/2/6 278/2/6
f 276/2/6 277/2/6 279/2/6
f 277/2/6 278/2/6 279/2/6
f 265/2/6 275/2/6 279/2/6
f 275/2/6 276/2/6 279/2/6
f 278/2/6 266/2/6 280/2/6
f 279/2/6 278/2/6 280/2/6
f 281/2/6 282/2/6 285/2/6
f 282/1/6 283/1/6 286/1/6
f 285/2/6 282/2/6 286/2/6
f 286/1/6 283/1/6 287/1/6
f 287/1/6 283/1/6 288/1/6
f 283/2/6 284/2/6 289/2/6
f 288/1/6 283/1/6 289/1/6
f 289/2/6 284/2/6 290/2/6
f 281/2/6 285/2/6 291/2/6
f 291/2/6 285/2/6 292/2/6
f 290/2/6 284/2/6 293/2/6
f 293/2/6 284/2/6 294/2/6
f 291/1/6 292/1/6 295/1/6
f 293/1/6 294/1/6 296/1/6
f 291/1/6 295/1/6 297/1/6
f 296/1/6 294/1/6 298/1/6
f 291/1/6 297/1/6 299/1/6
f 299/1/6 297/1/6 300/1/6
f 298/1/6 294/1/6 301/1/6
f 301/1/6 294/1/6 302/1/6
f 299/2/6 300/2/6 303/2/6
f 301/2/6 302/2/6 308/2/6
f 299/2/6 303/2/6 309/2/6
f 303/2/6 304/2/6 309/2/6
f 306/1/6 307/1/6 310/1/6
f 309/2/6 304/2/6 310/2/6
f 304/1/6 305/1/6 310/1/6
f 305/1/6 306/1/6 310/1/6
f 307/2/6 308/2/6 311/2/6
f 310/1/6 307/1/6 311/1/6
f 308/2/6 302/2/6 312/2/6
f 311/2/6 308/2/6 312/2/6
f 313/2/6 314/2/6 317/2/6
f 314/1/6 315/1/6 318/1/6
f 317/2/6 314/2/6 318/2/6
f 318/1/6 315/1/6 319/1/6
f 319/1/6 315/1/6 320/1/6
f 315/2/6 316/2/6 321/2/6
f 320/1/6 315/1/6 321/1/6
f 321/2/6 316/2/6 322/2/6
f 313/2/6 317/2/6 323/2/6
f 323/2/6 317/2/6 324/2/6
f 322/2/6 316/2/6 325/2/6
f 325/2/6 316/2/6 326/2/6
f 323/1/6 324/1/6 327/1/6
f 325/1/6 326/1/6 328/1/6
f 323/1/6 327/1/6 329/1/6
f 328/1/6 326/1/6 330/1/6
f 323/1/6 329/1/6 331/1/6
f 331/1/6 329/1/6 332/1/6
f 330/1/6 326/1/6 333/1/6
f 333/1/6 326/1/6 334/1/6
f 331/2/6 332/2/6 335/2/6
f 333/2/6 334/2/6 340/2/6
f 331/2/6 335/2/6 341/2/6
f 335/2/6 336/2/6 341/2/6
f 338/1/6 339/1/6 342/1/6
f 341/2/6 336/2/6 342/2/6
f 336/1/6 337/1/6 342/1/6
f 337/1/6 338/1/6 342/1/6
f 339/2/6 340/2/6 343/2/6
f 342/1/6 339/1/6 343/1/6
f 340/2/6 334/2/6 344/2/6
f 343/2/6 340/2/6 344/2/6
f 345/2/6 346/2/6 349/2/6
f 346/1/6 347/1/6 350/1/6
f 349/2/6 346/2/6 350/2/6
f 347/2/6 348/2/6 351/2/6
f 350/1/6 347/1/6 351/1/6
f 351/2/6 348/2/6 352/2/6
f 349/1/6 350/1/6 353/1/6
f 353/1/6 350/1/6 354/1/6
f 351/1/6 352/1/6 355/1/6
f 355/1/6 352/1/6 356/1/6
f 353/2/6 354/2/6 357/2/6
f 354/1/6 355/1/6 358/1/6
f 357/2/6 354/2/6 358/2/6
f 355/2/6 356/2/6 359/2/6
f 358/1/6 355/1/6 359/1/6
f 359/2/6 356/2/6 360/2/6
f 361/2/6 362/2/6 363/2/6
f 363/2/6 362/2/6 364/2/6
f 361/2/6 363/2/6 365/2/6
f 363/1/6 364/1/6 365/1/6
f 364/2/6 362/2/6 366/2/6
f 365/1/6 364/1/6 366/1/6
f 361/2/6 365/2/6 367/2/6
f 365/2/6 366/2/6 367/2/6
f 366/2/6 362/2/6 368/2/6
f 367/2/6 366/2/6 368/2/6
