# MagicaVoxel @ Ephtracy

# group
o 

# material
mtllib Small_Witch_vox.mtl
usemtl palette

# normals
vn -1 0 0
vn 1 0 0
vn 0 0 1
vn 0 0 -1
vn 0 -1 0
vn 0 1 0

# texcoords
vt 0.0175781 0.5
vt 0.0214844 0.5
vt 0.0253906 0.5
vt 0.0292969 0.5
vt 0.873047 0.5
vt 0.912109 0.5

# verts
v -0.3 0.3 -0.3
v -0.3 0.3 -0.6
v -0.3 0.4 -0.3
v -0.3 0.4 -0.6
v -0.3 0.8 0
v -0.3 0.8 -0.2
v -0.3 0.9 0
v -0.3 0.9 -0.2
v -0.2 0 0.5
v -0.2 0 0.4
v -0.2 0 0.2
v -0.2 0 -0.1
v -0.2 0.1 0.5
v -0.2 0.1 0.4
v -0.2 0.1 0.2
v -0.2 0.1 -0.1
v -0.2 0.3 0
v -0.2 0.3 -0.2
v -0.2 0.3 -0.3
v -0.2 0.4 0.1
v -0.2 0.4 0
v -0.2 0.4 -0.1
v -0.2 0.4 -0.2
v -0.2 0.4 -0.3
v -0.2 0.5 0
v -0.2 0.5 -0.1
v -0.2 0.6 -0.2
v -0.2 0.6 -0.3
v -0.2 0.7 0.1
v -0.2 0.7 0
v -0.2 0.8 0.1
v -0.2 0.8 0
v -0.2 0.8 -0.2
v -0.2 0.8 -0.3
v -0.2 0.9 0.1
v -0.2 0.9 0
v -0.2 0.9 -0.2
v -0.2 0.9 -0.3
v -0.1 0 0.4
v -0.1 0 0.2
v -0.1 0 -0.1
v -0.1 0 -0.2
v -0.1 0.1 0.4
v -0.1 0.1 0.2
v -0.1 0.1 -0.1
v -0.1 0.2 0.2
v -0.1 0.2 0.1
v -0.1 0.3 0
v -0.1 0.3 -0.2
v -0.1 0.4 0.2
v -0.1 0.4 0.1
v -0.1 0.4 0
v -0.1 0.5 -0.2
v -0.1 0.5 -0.3
v -0.1 0.6 -0.2
v -0.1 0.6 -0.3
v -0.1 0.7 0.1
v -0.1 0.7 0
v -0.1 0.7 -0.3
v -0.1 0.7 -0.4
v -0.1 0.8 0.2
v -0.1 0.8 0.1
v -0.1 0.8 0
v -0.1 0.8 -0.3
v -0.1 0.8 -0.4
v -0.1 0.9 0.2
v -0.1 0.9 0.1
v -0.1 0.9 -0.2
v -0.1 0.9 -0.3
v -0.1 0.9 -0.4
v -0.1 1 -0.1
v -0.1 1 -0.2
v -0.1 1.1 0.2
v -0.1 1.1 0.1
v -0.1 1.1 0
v -0.1 1.1 -0.1
v -0.1 1.2 0.2
v -0.1 1.2 0
v 0 0.3 0.2
v 0 0.3 0.1
v 0 0.4 0.2
v 0 0.4 0.1
v 0 1 -0.1
v 0 1 -0.2
v 0 1.1 0
v 0 1.1 -0.1
v 0 1.1 -0.2
v 0 1.2 0.3
v 0 1.2 0.2
v 0 1.2 0.1
v 0 1.2 0
v 0 1.2 -0.1
v 0 1.3 0.3
v 0 1.3 0.1
v 0.1 0 0.3
v 0.1 0 0.2
v 0.1 0.1 0.3
v 0.1 0.1 0.2
v 0.2 0 0.4
v 0.2 0 0.3
v 0.2 0.1 0.4
v 0.2 0.1 0.3
v 0.2 0.3 -0.2
v 0.2 0.3 -0.3
v 0.2 0.4 -0.2
v 0.2 0.4 -0.3
v -0.1 0 0.5
v -0.1 0 0.4
v -0.1 0.1 0.5
v -0.1 0.1 0.4
v -0.1 0.3 -0.2
v -0.1 0.3 -0.3
v -0.1 0.4 -0.2
v -0.1 0.4 -0.3
v 0 0 0.4
v 0 0 0.2
v 0 0.1 0.4
v 0 0.1 0.2
v 0 0.3 -0.3
v 0 0.3 -0.6
v 0 0.4 -0.3
v 0 0.4 -0.6
v 0.1 0.3 0.2
v 0.1 0.3 0.1
v 0.1 0.4 0.2
v 0.1 0.4 0.1
v 0.1 1 -0.1
v 0.1 1 -0.2
v 0.1 1.1 0
v 0.1 1.1 -0.1
v 0.1 1.1 -0.2
v 0.1 1.2 0.3
v 0.1 1.2 0.2
v 0.1 1.2 0.1
v 0.1 1.2 0
v 0.1 1.2 -0.1
v 0.1 1.3 0.3
v 0.1 1.3 0.1
v 0.2 0 0.3
v 0.2 0 0.2
v 0.2 0 -0.1
v 0.2 0 -0.2
v 0.2 0.1 0.3
v 0.2 0.1 0.2
v 0.2 0.1 -0.1
v 0.2 0.2 0.2
v 0.2 0.2 0.1
v 0.2 0.3 0
v 0.2 0.3 -0.2
v 0.2 0.4 0.2
v 0.2 0.4 0.1
v 0.2 0.4 0
v 0.2 0.5 -0.2
v 0.2 0.5 -0.3
v 0.2 0.6 -0.2
v 0.2 0.6 -0.3
v 0.2 0.7 0.1
v 0.2 0.7 0
v 0.2 0.7 -0.3
v 0.2 0.7 -0.4
v 0.2 0.8 0.2
v 0.2 0.8 0.1
v 0.2 0.8 0
v 0.2 0.8 -0.3
v 0.2 0.8 -0.4
v 0.2 0.9 0.2
v 0.2 0.9 0.1
v 0.2 0.9 -0.2
v 0.2 0.9 -0.3
v 0.2 0.9 -0.4
v 0.2 1 -0.1
v 0.2 1 -0.2
v 0.2 1.1 0.2
v 0.2 1.1 0.1
v 0.2 1.1 0
v 0.2 1.1 -0.1
v 0.2 1.2 0.2
v 0.2 1.2 0
v 0.3 0 0.4
v 0.3 0 0.3
v 0.3 0 0.2
v 0.3 0 -0.1
v 0.3 0.1 0.4
v 0.3 0.1 0.3
v 0.3 0.1 0.2
v 0.3 0.1 -0.1
v 0.3 0.3 0
v 0.3 0.3 -0.2
v 0.3 0.3 -0.3
v 0.3 0.4 0.1
v 0.3 0.4 0
v 0.3 0.4 -0.1
v 0.3 0.4 -0.2
v 0.3 0.4 -0.3
v 0.3 0.5 0
v 0.3 0.5 -0.1
v 0.3 0.6 -0.2
v 0.3 0.6 -0.3
v 0.3 0.7 0.1
v 0.3 0.7 0
v 0.3 0.8 0.1
v 0.3 0.8 0
v 0.3 0.8 -0.2
v 0.3 0.8 -0.3
v 0.3 0.9 0.1
v 0.3 0.9 0
v 0.3 0.9 -0.2
v 0.3 0.9 -0.3
v 0.4 0.8 0
v 0.4 0.8 -0.2
v 0.4 0.9 0
v 0.4 0.9 -0.2
v -0.2 0 0.5
v -0.2 0.1 0.5
v -0.1 0 0.5
v -0.1 0.1 0.5
v -0.1 0 0.4
v -0.1 0.1 0.4
v 0 0 0.4
v 0 0.1 0.4
v 0.2 0 0.4
v 0.2 0.1 0.4
v 0.3 0 0.4
v 0.3 0.1 0.4
v 0 1.2 0.3
v 0 1.3 0.3
v 0.1 0 0.3
v 0.1 0.1 0.3
v 0.1 1.2 0.3
v 0.1 1.3 0.3
v 0.2 0 0.3
v 0.2 0.1 0.3
v -0.2 0 0.2
v -0.2 0.1 0.2
v -0.1 0 0.2
v -0.1 0.1 0.2
v -0.1 0.2 0.2
v -0.1 0.4 0.2
v -0.1 0.8 0.2
v -0.1 0.9 0.2
v -0.1 1.1 0.2
v -0.1 1.2 0.2
v 0 0 0.2
v 0 0.1 0.2
v 0 0.3 0.2
v 0 0.4 0.2
v 0 1.2 0.2
v 0.1 0 0.2
v 0.1 0.1 0.2
v 0.1 0.3 0.2
v 0.1 0.4 0.2
v 0.1 1.2 0.2
v 0.2 0 0.2
v 0.2 0.1 0.2
v 0.2 0.2 0.2
v 0.2 0.4 0.2
v 0.2 0.8 0.2
v 0.2 0.9 0.2
v 0.2 1.1 0.2
v 0.2 1.2 0.2
v 0.3 0 0.2
v 0.3 0.1 0.2
v -0.2 0.4 0.1
v -0.2 0.7 0.1
v -0.2 0.8 0.1
v -0.2 0.9 0.1
v -0.1 0.2 0.1
v -0.1 0.4 0.1
v -0.1 0.7 0.1
v -0.1 0.8 0.1
v -0.1 0.9 0.1
v -0.1 1.1 0.1
v 0 0.3 0.1
v 0 0.4 0.1
v 0.1 0.3 0.1
v 0.1 0.4 0.1
v 0.2 0.2 0.1
v 0.2 0.4 0.1
v 0.2 0.7 0.1
v 0.2 0.8 0.1
v 0.2 0.9 0.1
v 0.2 1.1 0.1
v 0.3 0.4 0.1
v 0.3 0.7 0.1
v 0.3 0.8 0.1
v 0.3 0.9 0.1
v -0.3 0.8 0
v -0.3 0.9 0
v -0.2 0.3 0
v -0.2 0.4 0
v -0.2 0.7 0
v -0.2 0.8 0
v -0.2 0.9 0
v -0.1 0.3 0
v -0.1 0.4 0
v -0.1 0.7 0
v -0.1 0.8 0
v 0.2 0.3 0
v 0.2 0.4 0
v 0.2 0.7 0
v 0.2 0.8 0
v 0.3 0.3 0
v 0.3 0.4 0
v 0.3 0.7 0
v 0.3 0.8 0
v 0.3 0.9 0
v 0.4 0.8 0
v 0.4 0.9 0
v -0.3 0.3 -0.3
v -0.3 0.4 -0.3
v -0.2 0.3 -0.3
v -0.2 0.4 -0.3
v -0.1 0.3 -0.3
v -0.1 0.4 -0.3
v 0 0.3 -0.3
v 0 0.4 -0.3
v -0.2 0 0.4
v -0.2 0.1 0.4
v -0.1 0 0.4
v -0.1 0.1 0.4
v 0.2 0 0.3
v 0.2 0.1 0.3
v 0.3 0 0.3
v 0.3 0.1 0.3
v 0 1.2 0.1
v 0 1.3 0.1
v 0.1 1.2 0.1
v 0.1 1.3 0.1
v -0.1 1.1 0
v -0.1 1.2 0
v 0 1.1 0
v 0 1.2 0
v 0.1 1.1 0
v 0.1 1.2 0
v 0.2 1.1 0
v 0.2 1.2 0
v -0.2 0 -0.1
v -0.2 0.1 -0.1
v -0.1 0 -0.1
v -0.1 0.1 -0.1
v -0.1 1 -0.1
v -0.1 1.1 -0.1
v 0 1 -0.1
v 0 1.1 -0.1
v 0 1.2 -0.1
v 0.1 1 -0.1
v 0.1 1.1 -0.1
v 0.1 1.2 -0.1
v 0.2 0 -0.1
v 0.2 0.1 -0.1
v 0.2 1 -0.1
v 0.2 1.1 -0.1
v 0.3 0 -0.1
v 0.3 0.1 -0.1
v -0.3 0.8 -0.2
v -0.3 0.9 -0.2
v -0.2 0.4 -0.2
v -0.2 0.6 -0.2
v -0.2 0.8 -0.2
v -0.2 0.9 -0.2
v -0.1 0 -0.2
v -0.1 0.3 -0.2
v -0.1 0.4 -0.2
v -0.1 0.5 -0.2
v -0.1 0.6 -0.2
v -0.1 0.9 -0.2
v -0.1 1 -0.2
v 0 1 -0.2
v 0 1.1 -0.2
v 0.1 1 -0.2
v 0.1 1.1 -0.2
v 0.2 0 -0.2
v 0.2 0.3 -0.2
v 0.2 0.4 -0.2
v 0.2 0.5 -0.2
v 0.2 0.6 -0.2
v 0.2 0.9 -0.2
v 0.2 1 -0.2
v 0.3 0.4 -0.2
v 0.3 0.6 -0.2
v 0.3 0.8 -0.2
v 0.3 0.9 -0.2
v 0.4 0.8 -0.2
v 0.4 0.9 -0.2
v -0.2 0.6 -0.3
v -0.2 0.8 -0.3
v -0.2 0.9 -0.3
v -0.1 0.5 -0.3
v -0.1 0.6 -0.3
v -0.1 0.7 -0.3
v -0.1 0.8 -0.3
v -0.1 0.9 -0.3
v 0 0.6 -0.3
v 0 0.7 -0.3
v 0.1 0.6 -0.3
v 0.1 0.7 -0.3
v 0.2 0.3 -0.3
v 0.2 0.4 -0.3
v 0.2 0.5 -0.3
v 0.2 0.6 -0.3
v 0.2 0.7 -0.3
v 0.2 0.8 -0.3
v 0.2 0.9 -0.3
v 0.3 0.3 -0.3
v 0.3 0.4 -0.3
v 0.3 0.6 -0.3
v 0.3 0.8 -0.3
v 0.3 0.9 -0.3
v -0.1 0.7 -0.4
v -0.1 0.8 -0.4
v -0.1 0.9 -0.4
v 0.2 0.7 -0.4
v 0.2 0.8 -0.4
v 0.2 0.9 -0.4
v -0.3 0.3 -0.6
v -0.3 0.4 -0.6
v 0 0.3 -0.6
v 0 0.4 -0.6
v -0.2 0 0.5
v -0.1 0 0.5
v -0.2 0 0.4
v -0.1 0 0.4
v 0 0 0.4
v 0.2 0 0.4
v 0.3 0 0.4
v 0.1 0 0.3
v 0.2 0 0.3
v 0.3 0 0.3
v -0.2 0 0.2
v -0.1 0 0.2
v 0 0 0.2
v 0.1 0 0.2
v 0.2 0 0.2
v 0.3 0 0.2
v -0.2 0 -0.1
v -0.1 0 -0.1
v 0.2 0 -0.1
v 0.3 0 -0.1
v -0.1 0 -0.2
v 0.2 0 -0.2
v 0 0.3 0.2
v 0.1 0.3 0.2
v 0 0.3 0.1
v 0.1 0.3 0.1
v -0.2 0.3 0
v -0.1 0.3 0
v 0.2 0.3 0
v 0.3 0.3 0
v -0.2 0.3 -0.2
v -0.1 0.3 -0.2
v 0.2 0.3 -0.2
v 0.3 0.3 -0.2
v -0.3 0.3 -0.3
v -0.2 0.3 -0.3
v -0.1 0.3 -0.3
v 0 0.3 -0.3
v 0.2 0.3 -0.3
v 0.3 0.3 -0.3
v -0.3 0.3 -0.6
v 0 0.3 -0.6
v -0.1 0.4 0.2
v 0 0.4 0.2
v 0.1 0.4 0.2
v 0.2 0.4 0.2
v -0.2 0.4 0.1
v -0.1 0.4 0.1
v 0 0.4 0.1
v 0.1 0.4 0.1
v 0.2 0.4 0.1
v 0.3 0.4 0.1
v -0.2 0.4 0
v -0.1 0.4 0
v 0.2 0.4 0
v 0.3 0.4 0
v -0.1 0.5 -0.2
v 0.2 0.5 -0.2
v -0.1 0.5 -0.3
v 0.2 0.5 -0.3
v -0.2 0.6 -0.2
v -0.1 0.6 -0.2
v 0.2 0.6 -0.2
v 0.3 0.6 -0.2
v -0.2 0.6 -0.3
v -0.1 0.6 -0.3
v 0.2 0.6 -0.3
v 0.3 0.6 -0.3
v -0.1 0.7 -0.3
v 0 0.7 -0.3
v 0.1 0.7 -0.3
v 0.2 0.7 -0.3
v -0.1 0.7 -0.4
v 0.2 0.7 -0.4
v -0.2 0.8 0.1
v -0.1 0.8 0.1
v 0.2 0.8 0.1
v 0.3 0.8 0.1
v -0.3 0.8 0
v -0.2 0.8 0
v -0.1 0.8 0
v 0.2 0.8 0
v 0.3 0.8 0
v 0.4 0.8 0
v -0.3 0.8 -0.2
v -0.2 0.8 -0.2
v 0.3 0.8 -0.2
v 0.4 0.8 -0.2
v -0.1 1.1 0.2
v 0.2 1.1 0.2
v -0.1 1.1 0.1
v 0.2 1.1 0.1
v 0 1.2 0.3
v 0.1 1.2 0.3
v 0 1.2 0.2
v 0.1 1.2 0.2
v -0.2 0.1 0.5
v -0.1 0.1 0.5
v -0.2 0.1 0.4
v -0.1 0.1 0.4
v 0 0.1 0.4
v 0.2 0.1 0.4
v 0.3 0.1 0.4
v 0.1 0.1 0.3
v 0.2 0.1 0.3
v 0.3 0.1 0.3
v -0.2 0.1 0.2
v -0.1 0.1 0.2
v 0 0.1 0.2
v 0.1 0.1 0.2
v 0.2 0.1 0.2
v 0.3 0.1 0.2
v -0.2 0.1 -0.1
v -0.1 0.1 -0.1
v 0.2 0.1 -0.1
v 0.3 0.1 -0.1
v -0.1 0.2 0.2
v 0.2 0.2 0.2
v -0.1 0.2 0.1
v 0.2 0.2 0.1
v -0.2 0.4 -0.2
v -0.1 0.4 -0.2
v 0.2 0.4 -0.2
v 0.3 0.4 -0.2
v -0.3 0.4 -0.3
v -0.2 0.4 -0.3
v -0.1 0.4 -0.3
v 0 0.4 -0.3
v 0.2 0.4 -0.3
v 0.3 0.4 -0.3
v -0.3 0.4 -0.6
v 0 0.4 -0.6
v -0.2 0.7 0.1
v -0.1 0.7 0.1
v 0.2 0.7 0.1
v 0.3 0.7 0.1
v -0.2 0.7 0
v -0.1 0.7 0
v 0.2 0.7 0
v 0.3 0.7 0
v -0.1 0.9 0.2
v 0.2 0.9 0.2
v -0.2 0.9 0.1
v -0.1 0.9 0.1
v 0.2 0.9 0.1
v 0.3 0.9 0.1
v -0.3 0.9 0
v -0.2 0.9 0
v 0.3 0.9 0
v 0.4 0.9 0
v -0.3 0.9 -0.2
v -0.2 0.9 -0.2
v -0.1 0.9 -0.2
v 0.2 0.9 -0.2
v 0.3 0.9 -0.2
v 0.4 0.9 -0.2
v -0.2 0.9 -0.3
v -0.1 0.9 -0.3
v 0.2 0.9 -0.3
v 0.3 0.9 -0.3
v -0.1 0.9 -0.4
v 0.2 0.9 -0.4
v -0.1 1 -0.1
v 0 1 -0.1
v 0.1 1 -0.1
v 0.2 1 -0.1
v -0.1 1 -0.2
v 0 1 -0.2
v 0.1 1 -0.2
v 0.2 1 -0.2
v -0.1 1.1 0
v 0 1.1 0
v 0.1 1.1 0
v 0.2 1.1 0
v -0.1 1.1 -0.1
v 0 1.1 -0.1
v 0.1 1.1 -0.1
v 0.2 1.1 -0.1
v 0 1.1 -0.2
v 0.1 1.1 -0.2
v -0.1 1.2 0.2
v 0 1.2 0.2
v 0.1 1.2 0.2
v 0.2 1.2 0.2
v 0 1.2 0.1
v 0.1 1.2 0.1
v -0.1 1.2 0
v 0 1.2 0
v 0.1 1.2 0
v 0.2 1.2 0
v 0 1.2 -0.1
v 0.1 1.2 -0.1
v 0 1.3 0.3
v 0.1 1.3 0.3
v 0 1.3 0.1
v 0.1 1.3 0.1

# faces
f 3/5/1 2/5/1 1/5/1
f 4/5/1 2/5/1 3/5/1
f 7/6/1 6/6/1 5/6/1
f 8/6/1 6/6/1 7/6/1
f 13/3/1 10/3/1 9/3/1
f 14/3/1 10/3/1 13/3/1
f 15/3/1 12/3/1 11/3/1
f 16/3/1 12/3/1 15/3/1
f 21/3/1 18/3/1 17/3/1
f 22/3/1 18/3/1 21/3/1
f 23/4/1 19/4/1 18/4/1
f 23/3/1 18/3/1 22/3/1
f 24/4/1 19/4/1 23/4/1
f 25/3/1 22/3/1 21/3/1
f 25/2/1 21/2/1 20/2/1
f 26/2/1 23/2/1 22/2/1
f 26/3/1 22/3/1 25/3/1
f 27/2/1 26/2/1 25/2/1
f 27/2/1 23/2/1 26/2/1
f 29/2/1 25/2/1 20/2/1
f 29/2/1 28/2/1 27/2/1
f 29/2/1 27/2/1 25/2/1
f 30/2/1 28/2/1 29/2/1
f 32/2/1 28/2/1 30/2/1
f 33/2/1 28/2/1 32/2/1
f 34/2/1 28/2/1 33/2/1
f 35/6/1 32/6/1 31/6/1
f 36/6/1 32/6/1 35/6/1
f 37/6/1 34/6/1 33/6/1
f 38/6/1 34/6/1 37/6/1
f 43/3/1 40/3/1 39/3/1
f 44/3/1 40/3/1 43/3/1
f 45/3/1 42/3/1 41/3/1
f 46/3/1 45/3/1 44/3/1
f 47/3/1 45/3/1 46/3/1
f 48/3/1 45/3/1 47/3/1
f 49/3/1 42/3/1 45/3/1
f 49/3/1 45/3/1 48/3/1
f 51/3/1 48/3/1 47/3/1
f 52/3/1 48/3/1 51/3/1
f 55/4/1 54/4/1 53/4/1
f 56/4/1 54/4/1 55/4/1
f 57/2/1 51/2/1 50/2/1
f 61/2/1 58/2/1 57/2/1
f 61/2/1 57/2/1 50/2/1
f 62/2/1 58/2/1 61/2/1
f 63/2/1 58/2/1 62/2/1
f 64/2/1 60/2/1 59/2/1
f 65/2/1 60/2/1 64/2/1
f 66/6/1 62/6/1 61/6/1
f 67/6/1 62/6/1 66/6/1
f 69/6/1 65/6/1 64/6/1
f 70/6/1 65/6/1 69/6/1
f 71/6/1 68/6/1 67/6/1
f 72/6/1 68/6/1 71/6/1
f 74/6/1 71/6/1 67/6/1
f 75/6/1 71/6/1 74/6/1
f 76/6/1 71/6/1 75/6/1
f 77/6/1 74/6/1 73/6/1
f 77/6/1 75/6/1 74/6/1
f 78/6/1 75/6/1 77/6/1
f 81/2/1 80/2/1 79/2/1
f 82/2/1 80/2/1 81/2/1
f 86/6/1 84/6/1 83/6/1
f 87/6/1 84/6/1 86/6/1
f 91/6/1 86/6/1 85/6/1
f 92/6/1 86/6/1 91/6/1
f 93/6/1 90/6/1 89/6/1
f 93/6/1 89/6/1 88/6/1
f 94/6/1 90/6/1 93/6/1
f 97/3/1 96/3/1 95/3/1
f 98/3/1 96/3/1 97/3/1
f 101/3/1 100/3/1 99/3/1
f 102/3/1 100/3/1 101/3/1
f 105/4/1 104/4/1 103/4/1
f 106/4/1 104/4/1 105/4/1
f 107/3/2 108/3/2 109/3/2
f 109/3/2 108/3/2 110/3/2
f 111/4/2 112/4/2 113/4/2
f 113/4/2 112/4/2 114/4/2
f 115/3/2 116/3/2 117/3/2
f 117/3/2 116/3/2 118/3/2
f 119/5/2 120/5/2 121/5/2
f 121/5/2 120/5/2 122/5/2
f 123/2/2 124/2/2 125/2/2
f 125/2/2 124/2/2 126/2/2
f 127/6/2 128/6/2 130/6/2
f 130/6/2 128/6/2 131/6/2
f 129/6/2 130/6/2 135/6/2
f 135/6/2 130/6/2 136/6/2
f 133/6/2 134/6/2 137/6/2
f 132/6/2 133/6/2 137/6/2
f 137/6/2 134/6/2 138/6/2
f 139/3/2 140/3/2 143/3/2
f 143/3/2 140/3/2 144/3/2
f 141/3/2 142/3/2 145/3/2
f 144/3/2 145/3/2 146/3/2
f 146/3/2 145/3/2 147/3/2
f 147/3/2 145/3/2 148/3/2
f 145/3/2 142/3/2 149/3/2
f 148/3/2 145/3/2 149/3/2
f 147/3/2 148/3/2 151/3/2
f 151/3/2 148/3/2 152/3/2
f 153/4/2 154/4/2 155/4/2
f 155/4/2 154/4/2 156/4/2
f 150/2/2 151/2/2 157/2/2
f 157/2/2 158/2/2 161/2/2
f 150/2/2 157/2/2 161/2/2
f 161/2/2 158/2/2 162/2/2
f 162/2/2 158/2/2 163/2/2
f 159/2/2 160/2/2 164/2/2
f 164/2/2 160/2/2 165/2/2
f 161/6/2 162/6/2 166/6/2
f 166/6/2 162/6/2 167/6/2
f 164/6/2 165/6/2 169/6/2
f 169/6/2 165/6/2 170/6/2
f 167/6/2 168/6/2 171/6/2
f 171/6/2 168/6/2 172/6/2
f 167/6/2 171/6/2 174/6/2
f 174/6/2 171/6/2 175/6/2
f 175/6/2 171/6/2 176/6/2
f 173/6/2 174/6/2 177/6/2
f 174/6/2 175/6/2 177/6/2
f 177/6/2 175/6/2 178/6/2
f 179/3/2 180/3/2 183/3/2
f 183/3/2 180/3/2 184/3/2
f 181/3/2 182/3/2 185/3/2
f 185/3/2 182/3/2 186/3/2
f 187/3/2 188/3/2 191/3/2
f 191/3/2 188/3/2 192/3/2
f 188/4/2 189/4/2 193/4/2
f 192/3/2 188/3/2 193/3/2
f 193/4/2 189/4/2 194/4/2
f 191/3/2 192/3/2 195/3/2
f 190/2/2 191/2/2 195/2/2
f 192/2/2 193/2/2 196/2/2
f 195/3/2 192/3/2 196/3/2
f 195/2/2 196/2/2 197/2/2
f 196/2/2 193/2/2 197/2/2
f 190/2/2 195/2/2 199/2/2
f 197/2/2 198/2/2 199/2/2
f 195/2/2 197/2/2 199/2/2
f 199/2/2 198/2/2 200/2/2
f 200/2/2 198/2/2 202/2/2
f 202/2/2 198/2/2 203/2/2
f 203/2/2 198/2/2 204/2/2
f 201/6/2 202/6/2 205/6/2
f 205/6/2 202/6/2 206/6/2
f 203/6/2 204/6/2 207/6/2
f 207/6/2 204/6/2 208/6/2
f 209/6/2 210/6/2 211/6/2
f 211/6/2 210/6/2 212/6/2
f 215/3/3 214/3/3 213/3/3
f 216/3/3 214/3/3 215/3/3
f 219/3/3 218/3/3 217/3/3
f 220/3/3 218/3/3 219/3/3
f 223/3/3 222/3/3 221/3/3
f 224/3/3 222/3/3 223/3/3
f 229/6/3 226/6/3 225/6/3
f 230/6/3 226/6/3 229/6/3
f 231/3/3 228/3/3 227/3/3
f 232/3/3 228/3/3 231/3/3
f 235/3/3 234/3/3 233/3/3
f 236/3/3 234/3/3 235/3/3
f 244/3/3 237/3/3 236/3/3
f 246/2/3 239/2/3 238/2/3
f 247/6/3 242/6/3 241/6/3
f 248/3/3 244/3/3 243/3/3
f 249/3/3 237/3/3 244/3/3
f 249/3/3 244/3/3 248/3/3
f 250/2/3 246/2/3 245/2/3
f 251/2/3 239/2/3 246/2/3
f 251/2/3 246/2/3 250/2/3
f 252/6/3 247/6/3 241/6/3
f 254/3/3 237/3/3 249/3/3
f 255/3/3 237/3/3 254/3/3
f 256/2/3 239/2/3 251/2/3
f 257/6/3 240/6/3 239/6/3
f 257/2/3 239/2/3 256/2/3
f 258/6/3 240/6/3 257/6/3
f 259/6/3 252/6/3 241/6/3
f 260/6/3 252/6/3 259/6/3
f 261/3/3 254/3/3 253/3/3
f 262/3/3 254/3/3 261/3/3
f 268/2/3 264/2/3 263/2/3
f 269/2/3 264/2/3 268/2/3
f 270/6/3 266/6/3 265/6/3
f 271/6/3 266/6/3 270/6/3
f 273/3/3 268/3/3 267/3/3
f 274/3/3 268/3/3 273/3/3
f 275/3/3 273/3/3 267/3/3
f 277/3/3 275/3/3 267/3/3
f 277/3/3 276/3/3 275/3/3
f 278/3/3 276/3/3 277/3/3
f 281/6/3 272/6/3 271/6/3
f 282/6/3 272/6/3 281/6/3
f 283/2/3 279/2/3 278/2/3
f 284/2/3 279/2/3 283/2/3
f 285/6/3 281/6/3 280/6/3
f 286/6/3 281/6/3 285/6/3
f 292/6/3 288/6/3 287/6/3
f 293/6/3 288/6/3 292/6/3
f 294/3/3 290/3/3 289/3/3
f 295/3/3 290/3/3 294/3/3
f 296/2/3 292/2/3 291/2/3
f 297/2/3 292/2/3 296/2/3
f 302/3/3 299/3/3 298/3/3
f 303/3/3 299/3/3 302/3/3
f 304/2/3 301/2/3 300/2/3
f 305/2/3 301/2/3 304/2/3
f 307/6/3 306/6/3 305/6/3
f 308/6/3 306/6/3 307/6/3
f 311/5/3 310/5/3 309/5/3
f 312/5/3 310/5/3 311/5/3
f 315/5/3 314/5/3 313/5/3
f 316/5/3 314/5/3 315/5/3
f 317/3/4 318/3/4 319/3/4
f 319/3/4 318/3/4 320/3/4
f 321/3/4 322/3/4 323/3/4
f 323/3/4 322/3/4 324/3/4
f 325/6/4 326/6/4 327/6/4
f 327/6/4 326/6/4 328/6/4
f 329/6/4 330/6/4 331/6/4
f 331/6/4 330/6/4 332/6/4
f 333/6/4 334/6/4 335/6/4
f 335/6/4 334/6/4 336/6/4
f 337/3/4 338/3/4 339/3/4
f 339/3/4 338/3/4 340/3/4
f 341/6/4 342/6/4 343/6/4
f 343/6/4 342/6/4 344/6/4
f 344/6/4 345/6/4 347/6/4
f 347/6/4 345/6/4 348/6/4
f 346/6/4 347/6/4 351/6/4
f 351/6/4 347/6/4 352/6/4
f 349/3/4 350/3/4 353/3/4
f 353/3/4 350/3/4 354/3/4
f 355/6/4 356/6/4 359/6/4
f 359/6/4 356/6/4 360/6/4
f 357/2/4 358/2/4 363/2/4
f 363/2/4 358/2/4 364/2/4
f 364/2/4 358/2/4 365/2/4
f 366/6/4 367/6/4 368/6/4
f 366/6/4 368/6/4 370/6/4
f 368/6/4 369/6/4 370/6/4
f 370/6/4 369/6/4 371/6/4
f 361/3/4 362/3/4 372/3/4
f 363/3/4 364/3/4 372/3/4
f 362/3/4 363/3/4 372/3/4
f 372/3/4 364/3/4 373/3/4
f 373/3/4 364/3/4 374/3/4
f 374/3/4 364/3/4 375/3/4
f 366/6/4 370/6/4 377/6/4
f 377/6/4 370/6/4 378/6/4
f 375/2/4 376/2/4 379/2/4
f 374/2/4 375/2/4 379/2/4
f 379/2/4 376/2/4 380/2/4
f 381/6/4 382/6/4 383/6/4
f 383/6/4 382/6/4 384/6/4
f 385/2/4 386/2/4 389/2/4
f 389/2/4 386/2/4 390/2/4
f 386/6/4 387/6/4 391/6/4
f 390/2/4 386/2/4 391/2/4
f 391/6/4 387/6/4 392/6/4
f 389/1/4 390/1/4 393/1/4
f 388/4/4 389/4/4 393/4/4
f 393/1/4 390/1/4 394/1/4
f 388/4/4 393/4/4 395/4/4
f 393/4/4 394/4/4 395/4/4
f 395/4/4 394/4/4 396/4/4
f 388/4/4 395/4/4 399/4/4
f 395/1/4 396/1/4 400/1/4
f 399/4/4 395/4/4 400/4/4
f 400/1/4 396/1/4 401/1/4
f 397/4/4 398/4/4 404/4/4
f 404/4/4 398/4/4 405/4/4
f 400/2/4 401/2/4 406/2/4
f 401/2/4 402/2/4 406/2/4
f 402/6/4 403/6/4 407/6/4
f 406/2/4 402/2/4 407/2/4
f 407/6/4 403/6/4 408/6/4
f 409/2/4 410/2/4 412/2/4
f 410/6/4 411/6/4 413/6/4
f 412/2/4 410/2/4 413/2/4
f 413/6/4 411/6/4 414/6/4
f 415/5/4 416/5/4 417/5/4
f 417/5/4 416/5/4 418/5/4
f 421/3/5 420/3/5 419/3/5
f 422/3/5 420/3/5 421/3/5
f 427/3/5 425/3/5 424/3/5
f 428/3/5 425/3/5 427/3/5
f 430/3/5 423/3/5 422/3/5
f 431/3/5 423/3/5 430/3/5
f 432/3/5 427/3/5 426/3/5
f 433/3/5 427/3/5 432/3/5
f 435/3/5 431/3/5 430/3/5
f 435/3/5 434/3/5 433/3/5
f 435/3/5 433/3/5 432/3/5
f 435/3/5 432/3/5 431/3/5
f 435/3/5 430/3/5 429/3/5
f 436/3/5 434/3/5 435/3/5
f 437/3/5 434/3/5 436/3/5
f 438/3/5 434/3/5 437/3/5
f 439/3/5 437/3/5 436/3/5
f 440/3/5 437/3/5 439/3/5
f 443/2/5 442/2/5 441/2/5
f 444/2/5 442/2/5 443/2/5
f 449/3/5 446/3/5 445/3/5
f 450/3/5 446/3/5 449/3/5
f 451/3/5 448/3/5 447/3/5
f 452/3/5 448/3/5 451/3/5
f 454/4/5 450/4/5 449/4/5
f 455/4/5 450/4/5 454/4/5
f 457/4/5 452/4/5 451/4/5
f 458/4/5 452/4/5 457/4/5
f 459/5/5 456/5/5 455/5/5
f 459/5/5 454/5/5 453/5/5
f 459/5/5 455/5/5 454/5/5
f 460/5/5 456/5/5 459/5/5
f 466/2/5 462/2/5 461/2/5
f 467/2/5 462/2/5 466/2/5
f 468/2/5 464/2/5 463/2/5
f 469/2/5 464/2/5 468/2/5
f 471/2/5 466/2/5 465/2/5
f 472/2/5 466/2/5 471/2/5
f 473/2/5 470/2/5 469/2/5
f 474/2/5 470/2/5 473/2/5
f 477/4/5 476/4/5 475/4/5
f 478/4/5 476/4/5 477/4/5
f 483/2/5 480/2/5 479/2/5
f 484/2/5 480/2/5 483/2/5
f 485/2/5 482/2/5 481/2/5
f 486/2/5 482/2/5 485/2/5
f 491/2/5 488/2/5 487/2/5
f 491/2/5 490/2/5 489/2/5
f 491/2/5 489/2/5 488/2/5
f 492/2/5 490/2/5 491/2/5
f 498/6/5 494/6/5 493/6/5
f 499/6/5 494/6/5 498/6/5
f 500/6/5 496/6/5 495/6/5
f 501/6/5 496/6/5 500/6/5
f 503/6/5 498/6/5 497/6/5
f 504/6/5 498/6/5 503/6/5
f 505/6/5 502/6/5 501/6/5
f 506/6/5 502/6/5 505/6/5
f 509/6/5 508/6/5 507/6/5
f 510/6/5 508/6/5 509/6/5
f 513/6/5 512/6/5 511/6/5
f 514/6/5 512/6/5 513/6/5
f 515/3/6 516/3/6 517/3/6
f 517/3/6 516/3/6 518/3/6
f 520/3/6 521/3/6 523/3/6
f 523/3/6 521/3/6 524/3/6
f 518/3/6 519/3/6 526/3/6
f 526/3/6 519/3/6 527/3/6
f 522/3/6 523/3/6 528/3/6
f 528/3/6 523/3/6 529/3/6
f 525/3/6 526/3/6 531/3/6
f 531/3/6 526/3/6 532/3/6
f 529/3/6 530/3/6 533/3/6
f 533/3/6 530/3/6 534/3/6
f 535/3/6 536/3/6 537/3/6
f 537/3/6 536/3/6 538/3/6
f 539/4/6 540/4/6 544/4/6
f 544/4/6 540/4/6 545/4/6
f 541/4/6 542/4/6 547/4/6
f 547/4/6 542/4/6 548/4/6
f 545/5/6 546/5/6 549/5/6
f 543/5/6 544/5/6 549/5/6
f 544/5/6 545/5/6 549/5/6
f 549/5/6 546/5/6 550/5/6
f 551/2/6 552/2/6 555/2/6
f 555/2/6 552/2/6 556/2/6
f 553/2/6 554/2/6 557/2/6
f 557/2/6 554/2/6 558/2/6
f 559/6/6 560/6/6 562/6/6
f 562/6/6 560/6/6 563/6/6
f 561/6/6 562/6/6 566/6/6
f 563/6/6 564/6/6 567/6/6
f 565/6/6 566/6/6 569/6/6
f 566/6/6 562/6/6 570/6/6
f 569/6/6 566/6/6 570/6/6
f 570/6/6 562/6/6 571/6/6
f 567/6/6 568/6/6 572/6/6
f 563/6/6 567/6/6 572/6/6
f 572/6/6 568/6/6 573/6/6
f 573/6/6 568/6/6 574/6/6
f 570/6/6 571/6/6 575/6/6
f 572/6/6 573/6/6 575/6/6
f 571/6/6 572/6/6 575/6/6
f 575/6/6 573/6/6 576/6/6
f 576/6/6 573/6/6 577/6/6
f 577/6/6 573/6/6 578/6/6
f 576/6/6 577/6/6 579/6/6
f 579/6/6 577/6/6 580/6/6
f 581/6/6 582/6/6 585/6/6
f 585/6/6 582/6/6 586/6/6
f 583/6/6 584/6/6 587/6/6
f 587/6/6 584/6/6 588/6/6
f 589/6/6 590/6/6 593/6/6
f 593/6/6 590/6/6 594/6/6
f 591/6/6 592/6/6 595/6/6
f 595/6/6 592/6/6 596/6/6
f 594/6/6 595/6/6 597/6/6
f 597/6/6 595/6/6 598/6/6
f 599/6/6 600/6/6 603/6/6
f 601/6/6 602/6/6 604/6/6
f 599/6/6 603/6/6 605/6/6
f 603/6/6 604/6/6 605/6/6
f 605/6/6 604/6/6 606/6/6
f 604/6/6 602/6/6 607/6/6
f 606/6/6 604/6/6 607/6/6
f 607/6/6 602/6/6 608/6/6
f 606/6/6 607/6/6 609/6/6
f 609/6/6 607/6/6 610/6/6
f 611/6/6 612/6/6 613/6/6
f 613/6/6 612/6/6 614/6/6
