# MagicaVoxel @ Ephtracy

# group
o 

# material
mtllib LightingBow.mtl
usemtl palette

# normals
vn -1 0 0
vn 1 0 0
vn 0 0 1
vn 0 0 -1
vn 0 -1 0
vn 0 1 0

# texcoords
vt 0.158203 0.5
vt 0.705078 0.5
vt 0.955078 0.5
vt 0.962891 0.5

# verts
v -0.5 0 1
v -0.5 0 -1.1
v -0.5 0.1 1
v -0.5 0.1 -1.1
v -0.3 0 0.9
v -0.3 0 0.8
v -0.3 0 -0.9
v -0.3 0 -1
v -0.3 0.1 0.9
v -0.3 0.1 0.8
v -0.3 0.1 -0.9
v -0.3 0.1 -1
v -0.2 0 0.8
v -0.2 0 0.7
v -0.2 0 -0.8
v -0.2 0 -0.9
v -0.2 0.1 0.8
v -0.2 0.1 0.7
v -0.2 0.1 -0.8
v -0.2 0.1 -0.9
v -0.1 0 0.7
v -0.1 0 0.6
v -0.1 0 -0.7
v -0.1 0 -0.8
v -0.1 0.1 0.7
v -0.1 0.1 0.6
v -0.1 0.1 -0.7
v -0.1 0.1 -0.8
v 0 0 0.6
v 0 0 0.5
v 0 0 -0.6
v 0 0 -0.7
v 0 0.1 0.6
v 0 0.1 0.5
v 0 0.1 -0.6
v 0 0.1 -0.7
v 0.1 0 0.5
v 0.1 0 0.4
v 0.1 0 -0.5
v 0.1 0 -0.6
v 0.1 0.1 0.5
v 0.1 0.1 0.4
v 0.1 0.1 -0.5
v 0.1 0.1 -0.6
v 0.2 0 0.4
v 0.2 0 0.3
v 0.2 0 -0.4
v 0.2 0 -0.5
v 0.2 0.1 0.4
v 0.2 0.1 0.3
v 0.2 0.1 -0.4
v 0.2 0.1 -0.5
v 0.3 0 0.3
v 0.3 0 0.1
v 0.3 0 0
v 0.3 0 -0.1
v 0.3 0 -0.2
v 0.3 0 -0.4
v 0.3 0.1 0.3
v 0.3 0.1 0.1
v 0.3 0.1 0
v 0.3 0.1 -0.1
v 0.3 0.1 -0.2
v 0.3 0.1 -0.4
v -0.4 0 0.9
v -0.4 0 -1
v -0.4 0.1 0.9
v -0.4 0.1 -1
v -0.2 0 1
v -0.2 0 0.9
v -0.2 0 -1
v -0.2 0 -1.1
v -0.2 0.1 1
v -0.2 0.1 0.9
v -0.2 0.1 -1
v -0.2 0.1 -1.1
v -0.1 0 0.9
v -0.1 0 0.8
v -0.1 0 -0.9
v -0.1 0 -1
v -0.1 0.1 0.9
v -0.1 0.1 0.8
v -0.1 0.1 -0.9
v -0.1 0.1 -1
v 0 0 0.8
v 0 0 0.7
v 0 0 -0.8
v 0 0 -0.9
v 0 0.1 0.8
v 0 0.1 0.7
v 0 0.1 -0.8
v 0 0.1 -0.9
v 0.1 0 0.7
v 0.1 0 0.6
v 0.1 0 -0.7
v 0.1 0 -0.8
v 0.1 0.1 0.7
v 0.1 0.1 0.6
v 0.1 0.1 -0.7
v 0.1 0.1 -0.8
v 0.2 0 0.6
v 0.2 0 0.5
v 0.2 0 -0.6
v 0.2 0 -0.7
v 0.2 0.1 0.6
v 0.2 0.1 0.5
v 0.2 0.1 -0.6
v 0.2 0.1 -0.7
v 0.3 0 0.5
v 0.3 0 0.4
v 0.3 0 -0.5
v 0.3 0 -0.6
v 0.3 0.1 0.5
v 0.3 0.1 0.4
v 0.3 0.1 -0.5
v 0.3 0.1 -0.6
v 0.4 0 0.4
v 0.4 0 0.3
v 0.4 0 -0.4
v 0.4 0 -0.5
v 0.4 0.1 0.4
v 0.4 0.1 0.3
v 0.4 0.1 -0.4
v 0.4 0.1 -0.5
v 0.5 0 0.3
v 0.5 0 0.1
v 0.5 0 0
v 0.5 0 -0.1
v 0.5 0 -0.2
v 0.5 0 -0.4
v 0.5 0.1 0.3
v 0.5 0.1 0.1
v 0.5 0.1 0
v 0.5 0.1 -0.1
v 0.5 0.1 -0.2
v 0.5 0.1 -0.4
v -0.5 0 1
v -0.5 0.1 1
v -0.4 0 1
v -0.4 0.1 1
v -0.2 0 1
v -0.2 0.1 1
v -0.2 0 0.9
v -0.2 0.1 0.9
v -0.1 0 0.9
v -0.1 0.1 0.9
v -0.1 0 0.8
v -0.1 0.1 0.8
v 0 0 0.8
v 0 0.1 0.8
v 0 0 0.7
v 0 0.1 0.7
v 0.1 0 0.7
v 0.1 0.1 0.7
v 0.1 0 0.6
v 0.1 0.1 0.6
v 0.2 0 0.6
v 0.2 0.1 0.6
v 0.2 0 0.5
v 0.2 0.1 0.5
v 0.3 0 0.5
v 0.3 0.1 0.5
v 0.3 0 0.4
v 0.3 0.1 0.4
v 0.4 0 0.4
v 0.4 0.1 0.4
v 0.4 0 0.3
v 0.4 0.1 0.3
v 0.5 0 0.3
v 0.5 0.1 0.3
v 0.2 0 -0.4
v 0.2 0.1 -0.4
v 0.3 0 -0.4
v 0.3 0.1 -0.4
v 0.1 0 -0.5
v 0.1 0.1 -0.5
v 0.2 0 -0.5
v 0.2 0.1 -0.5
v 0 0 -0.6
v 0 0.1 -0.6
v 0.1 0 -0.6
v 0.1 0.1 -0.6
v -0.1 0 -0.7
v -0.1 0.1 -0.7
v 0 0 -0.7
v 0 0.1 -0.7
v -0.2 0 -0.8
v -0.2 0.1 -0.8
v -0.1 0 -0.8
v -0.1 0.1 -0.8
v -0.3 0 -0.9
v -0.3 0.1 -0.9
v -0.2 0 -0.9
v -0.2 0.1 -0.9
v -0.4 0 -1
v -0.4 0.1 -1
v -0.3 0 -1
v -0.3 0.1 -1
v -0.4 0 0.9
v -0.4 0.1 0.9
v -0.3 0 0.9
v -0.3 0.1 0.9
v -0.3 0 0.8
v -0.3 0.1 0.8
v -0.2 0 0.8
v -0.2 0.1 0.8
v -0.2 0 0.7
v -0.2 0.1 0.7
v -0.1 0 0.7
v -0.1 0.1 0.7
v -0.1 0 0.6
v -0.1 0.1 0.6
v 0 0 0.6
v 0 0.1 0.6
v 0 0 0.5
v 0 0.1 0.5
v 0.1 0 0.5
v 0.1 0.1 0.5
v 0.1 0 0.4
v 0.1 0.1 0.4
v 0.2 0 0.4
v 0.2 0.1 0.4
v 0.2 0 0.3
v 0.2 0.1 0.3
v 0.3 0 0.3
v 0.3 0.1 0.3
v 0.4 0 -0.4
v 0.4 0.1 -0.4
v 0.5 0 -0.4
v 0.5 0.1 -0.4
v 0.3 0 -0.5
v 0.3 0.1 -0.5
v 0.4 0 -0.5
v 0.4 0.1 -0.5
v 0.2 0 -0.6
v 0.2 0.1 -0.6
v 0.3 0 -0.6
v 0.3 0.1 -0.6
v 0.1 0 -0.7
v 0.1 0.1 -0.7
v 0.2 0 -0.7
v 0.2 0.1 -0.7
v 0 0 -0.8
v 0 0.1 -0.8
v 0.1 0 -0.8
v 0.1 0.1 -0.8
v -0.1 0 -0.9
v -0.1 0.1 -0.9
v 0 0 -0.9
v 0 0.1 -0.9
v -0.2 0 -1
v -0.2 0.1 -1
v -0.1 0 -1
v -0.1 0.1 -1
v -0.5 0 -1.1
v -0.5 0.1 -1.1
v -0.4 0 -1.1
v -0.4 0.1 -1.1
v -0.2 0 -1.1
v -0.2 0.1 -1.1
v -0.5 0 1
v -0.4 0 1
v -0.2 0 1
v -0.4 0 0.9
v -0.3 0 0.9
v -0.2 0 0.9
v -0.1 0 0.9
v -0.3 0 0.8
v -0.2 0 0.8
v -0.1 0 0.8
v 0 0 0.8
v -0.2 0 0.7
v -0.1 0 0.7
v 0 0 0.7
v 0.1 0 0.7
v -0.1 0 0.6
v 0 0 0.6
v 0.1 0 0.6
v 0.2 0 0.6
v 0 0 0.5
v 0.1 0 0.5
v 0.2 0 0.5
v 0.3 0 0.5
v 0.1 0 0.4
v 0.2 0 0.4
v 0.3 0 0.4
v 0.4 0 0.4
v 0.2 0 0.3
v 0.3 0 0.3
v 0.4 0 0.3
v 0.5 0 0.3
v 0.3 0 0.1
v 0.5 0 0.1
v 0.3 0 0
v 0.5 0 0
v 0.3 0 -0.1
v 0.5 0 -0.1
v 0.3 0 -0.2
v 0.5 0 -0.2
v 0.2 0 -0.4
v 0.3 0 -0.4
v 0.4 0 -0.4
v 0.5 0 -0.4
v 0.1 0 -0.5
v 0.2 0 -0.5
v 0.3 0 -0.5
v 0.4 0 -0.5
v 0 0 -0.6
v 0.1 0 -0.6
v 0.2 0 -0.6
v 0.3 0 -0.6
v -0.1 0 -0.7
v 0 0 -0.7
v 0.1 0 -0.7
v 0.2 0 -0.7
v -0.2 0 -0.8
v -0.1 0 -0.8
v 0 0 -0.8
v 0.1 0 -0.8
v -0.3 0 -0.9
v -0.2 0 -0.9
v -0.1 0 -0.9
v 0 0 -0.9
v -0.4 0 -1
v -0.3 0 -1
v -0.2 0 -1
v -0.1 0 -1
v -0.5 0 -1.1
v -0.4 0 -1.1
v -0.2 0 -1.1
v -0.5 0.1 1
v -0.4 0.1 1
v -0.2 0.1 1
v -0.4 0.1 0.9
v -0.3 0.1 0.9
v -0.2 0.1 0.9
v -0.1 0.1 0.9
v -0.3 0.1 0.8
v -0.2 0.1 0.8
v -0.1 0.1 0.8
v 0 0.1 0.8
v -0.2 0.1 0.7
v -0.1 0.1 0.7
v 0 0.1 0.7
v 0.1 0.1 0.7
v -0.1 0.1 0.6
v 0 0.1 0.6
v 0.1 0.1 0.6
v 0.2 0.1 0.6
v 0 0.1 0.5
v 0.1 0.1 0.5
v 0.2 0.1 0.5
v 0.3 0.1 0.5
v 0.1 0.1 0.4
v 0.2 0.1 0.4
v 0.3 0.1 0.4
v 0.4 0.1 0.4
v 0.2 0.1 0.3
v 0.3 0.1 0.3
v 0.4 0.1 0.3
v 0.5 0.1 0.3
v 0.3 0.1 0.1
v 0.5 0.1 0.1
v 0.3 0.1 0
v 0.5 0.1 0
v 0.3 0.1 -0.1
v 0.5 0.1 -0.1
v 0.3 0.1 -0.2
v 0.5 0.1 -0.2
v 0.2 0.1 -0.4
v 0.3 0.1 -0.4
v 0.4 0.1 -0.4
v 0.5 0.1 -0.4
v 0.1 0.1 -0.5
v 0.2 0.1 -0.5
v 0.3 0.1 -0.5
v 0.4 0.1 -0.5
v 0 0.1 -0.6
v 0.1 0.1 -0.6
v 0.2 0.1 -0.6
v 0.3 0.1 -0.6
v -0.1 0.1 -0.7
v 0 0.1 -0.7
v 0.1 0.1 -0.7
v 0.2 0.1 -0.7
v -0.2 0.1 -0.8
v -0.1 0.1 -0.8
v 0 0.1 -0.8
v 0.1 0.1 -0.8
v -0.3 0.1 -0.9
v -0.2 0.1 -0.9
v -0.1 0.1 -0.9
v 0 0.1 -0.9
v -0.4 0.1 -1
v -0.3 0.1 -1
v -0.2 0.1 -1
v -0.1 0.1 -1
v -0.5 0.1 -1.1
v -0.4 0.1 -1.1
v -0.2 0.1 -1.1

# faces
f 3/4/1 2/4/1 1/4/1
f 4/4/1 2/4/1 3/4/1
f 9/2/1 6/2/1 5/2/1
f 10/2/1 6/2/1 9/2/1
f 11/1/1 8/1/1 7/1/1
f 12/1/1 8/1/1 11/1/1
f 17/2/1 14/2/1 13/2/1
f 18/2/1 14/2/1 17/2/1
f 19/1/1 16/1/1 15/1/1
f 20/1/1 16/1/1 19/1/1
f 25/2/1 22/2/1 21/2/1
f 26/2/1 22/2/1 25/2/1
f 27/1/1 24/1/1 23/1/1
f 28/1/1 24/1/1 27/1/1
f 33/2/1 30/2/1 29/2/1
f 34/2/1 30/2/1 33/2/1
f 35/1/1 32/1/1 31/1/1
f 36/1/1 32/1/1 35/1/1
f 41/2/1 38/2/1 37/2/1
f 42/2/1 38/2/1 41/2/1
f 43/1/1 40/1/1 39/1/1
f 44/1/1 40/1/1 43/1/1
f 49/2/1 46/2/1 45/2/1
f 50/2/1 46/2/1 49/2/1
f 51/1/1 48/1/1 47/1/1
f 52/1/1 48/1/1 51/1/1
f 59/2/1 54/2/1 53/2/1
f 60/1/1 55/1/1 54/1/1
f 60/2/1 54/2/1 59/2/1
f 61/3/1 56/3/1 55/3/1
f 61/1/1 55/1/1 60/1/1
f 62/2/1 57/2/1 56/2/1
f 62/3/1 56/3/1 61/3/1
f 63/1/1 58/1/1 57/1/1
f 63/2/1 57/2/1 62/2/1
f 64/1/1 58/1/1 63/1/1
f 65/4/2 66/4/2 67/4/2
f 67/4/2 66/4/2 68/4/2
f 69/2/2 70/2/2 73/2/2
f 73/2/2 70/2/2 74/2/2
f 71/1/2 72/1/2 75/1/2
f 75/1/2 72/1/2 76/1/2
f 77/2/2 78/2/2 81/2/2
f 81/2/2 78/2/2 82/2/2
f 79/1/2 80/1/2 83/1/2
f 83/1/2 80/1/2 84/1/2
f 85/2/2 86/2/2 89/2/2
f 89/2/2 86/2/2 90/2/2
f 87/1/2 88/1/2 91/1/2
f 91/1/2 88/1/2 92/1/2
f 93/2/2 94/2/2 97/2/2
f 97/2/2 94/2/2 98/2/2
f 95/1/2 96/1/2 99/1/2
f 99/1/2 96/1/2 100/1/2
f 101/2/2 102/2/2 105/2/2
f 105/2/2 102/2/2 106/2/2
f 103/1/2 104/1/2 107/1/2
f 107/1/2 104/1/2 108/1/2
f 109/2/2 110/2/2 113/2/2
f 113/2/2 110/2/2 114/2/2
f 111/1/2 112/1/2 115/1/2
f 115/1/2 112/1/2 116/1/2
f 117/2/2 118/2/2 121/2/2
f 121/2/2 118/2/2 122/2/2
f 119/1/2 120/1/2 123/1/2
f 123/1/2 120/1/2 124/1/2
f 125/2/2 126/2/2 131/2/2
f 126/1/2 127/1/2 132/1/2
f 131/2/2 126/2/2 132/2/2
f 127/3/2 128/3/2 133/3/2
f 132/1/2 127/1/2 133/1/2
f 128/2/2 129/2/2 134/2/2
f 133/3/2 128/3/2 134/3/2
f 129/1/2 130/1/2 135/1/2
f 134/2/2 129/2/2 135/2/2
f 135/1/2 130/1/2 136/1/2
f 139/4/3 138/4/3 137/4/3
f 140/4/3 138/4/3 139/4/3
f 141/2/3 140/2/3 139/2/3
f 142/2/3 140/2/3 141/2/3
f 145/2/3 144/2/3 143/2/3
f 146/2/3 144/2/3 145/2/3
f 149/2/3 148/2/3 147/2/3
f 150/2/3 148/2/3 149/2/3
f 153/2/3 152/2/3 151/2/3
f 154/2/3 152/2/3 153/2/3
f 157/2/3 156/2/3 155/2/3
f 158/2/3 156/2/3 157/2/3
f 161/2/3 160/2/3 159/2/3
f 162/2/3 160/2/3 161/2/3
f 165/2/3 164/2/3 163/2/3
f 166/2/3 164/2/3 165/2/3
f 169/2/3 168/2/3 167/2/3
f 170/2/3 168/2/3 169/2/3
f 173/1/3 172/1/3 171/1/3
f 174/1/3 172/1/3 173/1/3
f 177/1/3 176/1/3 175/1/3
f 178/1/3 176/1/3 177/1/3
f 181/1/3 180/1/3 179/1/3
f 182/1/3 180/1/3 181/1/3
f 185/1/3 184/1/3 183/1/3
f 186/1/3 184/1/3 185/1/3
f 189/1/3 188/1/3 187/1/3
f 190/1/3 188/1/3 189/1/3
f 193/1/3 192/1/3 191/1/3
f 194/1/3 192/1/3 193/1/3
f 197/1/3 196/1/3 195/1/3
f 198/1/3 196/1/3 197/1/3
f 199/2/4 200/2/4 201/2/4
f 201/2/4 200/2/4 202/2/4
f 203/2/4 204/2/4 205/2/4
f 205/2/4 204/2/4 206/2/4
f 207/2/4 208/2/4 209/2/4
f 209/2/4 208/2/4 210/2/4
f 211/2/4 212/2/4 213/2/4
f 213/2/4 212/2/4 214/2/4
f 215/2/4 216/2/4 217/2/4
f 217/2/4 216/2/4 218/2/4
f 219/2/4 220/2/4 221/2/4
f 221/2/4 220/2/4 222/2/4
f 223/2/4 224/2/4 225/2/4
f 225/2/4 224/2/4 226/2/4
f 227/1/4 228/1/4 229/1/4
f 229/1/4 228/1/4 230/1/4
f 231/1/4 232/1/4 233/1/4
f 233/1/4 232/1/4 234/1/4
f 235/1/4 236/1/4 237/1/4
f 237/1/4 236/1/4 238/1/4
f 239/1/4 240/1/4 241/1/4
f 241/1/4 240/1/4 242/1/4
f 243/1/4 244/1/4 245/1/4
f 245/1/4 244/1/4 246/1/4
f 247/1/4 248/1/4 249/1/4
f 249/1/4 248/1/4 250/1/4
f 251/1/4 252/1/4 253/1/4
f 253/1/4 252/1/4 254/1/4
f 255/4/4 256/4/4 257/4/4
f 257/4/4 256/4/4 258/4/4
f 257/1/4 258/1/4 259/1/4
f 259/1/4 258/1/4 260/1/4
f 264/4/5 262/4/5 261/4/5
f 264/2/5 263/2/5 262/2/5
f 265/2/5 263/2/5 264/2/5
f 266/2/5 263/2/5 265/2/5
f 268/2/5 267/2/5 266/2/5
f 268/2/5 266/2/5 265/2/5
f 269/2/5 267/2/5 268/2/5
f 270/2/5 267/2/5 269/2/5
f 272/2/5 271/2/5 270/2/5
f 272/2/5 270/2/5 269/2/5
f 273/2/5 271/2/5 272/2/5
f 274/2/5 271/2/5 273/2/5
f 276/2/5 275/2/5 274/2/5
f 276/2/5 274/2/5 273/2/5
f 277/2/5 275/2/5 276/2/5
f 278/2/5 275/2/5 277/2/5
f 280/2/5 279/2/5 278/2/5
f 280/2/5 278/2/5 277/2/5
f 281/2/5 279/2/5 280/2/5
f 282/2/5 279/2/5 281/2/5
f 284/2/5 283/2/5 282/2/5
f 284/2/5 282/2/5 281/2/5
f 285/2/5 283/2/5 284/2/5
f 286/2/5 283/2/5 285/2/5
f 288/2/5 287/2/5 286/2/5
f 288/2/5 286/2/5 285/2/5
f 289/2/5 287/2/5 288/2/5
f 290/2/5 287/2/5 289/2/5
f 292/2/5 291/2/5 290/2/5
f 292/2/5 290/2/5 289/2/5
f 293/2/5 291/2/5 292/2/5
f 294/1/5 293/1/5 292/1/5
f 295/1/5 293/1/5 294/1/5
f 296/3/5 295/3/5 294/3/5
f 297/3/5 295/3/5 296/3/5
f 298/2/5 297/2/5 296/2/5
f 299/2/5 297/2/5 298/2/5
f 301/1/5 299/1/5 298/1/5
f 302/1/5 299/1/5 301/1/5
f 303/1/5 299/1/5 302/1/5
f 305/1/5 301/1/5 300/1/5
f 305/1/5 302/1/5 301/1/5
f 306/1/5 302/1/5 305/1/5
f 307/1/5 302/1/5 306/1/5
f 309/1/5 305/1/5 304/1/5
f 309/1/5 306/1/5 305/1/5
f 310/1/5 306/1/5 309/1/5
f 311/1/5 306/1/5 310/1/5
f 313/1/5 309/1/5 308/1/5
f 313/1/5 310/1/5 309/1/5
f 314/1/5 310/1/5 313/1/5
f 315/1/5 310/1/5 314/1/5
f 317/1/5 313/1/5 312/1/5
f 317/1/5 314/1/5 313/1/5
f 318/1/5 314/1/5 317/1/5
f 319/1/5 314/1/5 318/1/5
f 321/1/5 317/1/5 316/1/5
f 321/1/5 318/1/5 317/1/5
f 322/1/5 318/1/5 321/1/5
f 323/1/5 318/1/5 322/1/5
f 324/4/5 264/4/5 261/4/5
f 325/1/5 321/1/5 320/1/5
f 325/1/5 322/1/5 321/1/5
f 326/1/5 322/1/5 325/1/5
f 327/1/5 322/1/5 326/1/5
f 328/4/5 324/4/5 261/4/5
f 329/1/5 325/1/5 324/1/5
f 329/4/5 324/4/5 328/4/5
f 329/1/5 326/1/5 325/1/5
f 330/1/5 326/1/5 329/1/5
f 331/4/6 332/4/6 334/4/6
f 332/2/6 333/2/6 334/2/6
f 334/2/6 333/2/6 335/2/6
f 335/2/6 333/2/6 336/2/6
f 336/2/6 337/2/6 338/2/6
f 335/2/6 336/2/6 338/2/6
f 338/2/6 337/2/6 339/2/6
f 339/2/6 337/2/6 340/2/6
f 340/2/6 341/2/6 342/2/6
f 339/2/6 340/2/6 342/2/6
f 342/2/6 341/2/6 343/2/6
f 343/2/6 341/2/6 344/2/6
f 344/2/6 345/2/6 346/2/6
f 343/2/6 344/2/6 346/2/6
f 346/2/6 345/2/6 347/2/6
f 347/2/6 345/2/6 348/2/6
f 348/2/6 349/2/6 350/2/6
f 347/2/6 348/2/6 350/2/6
f 350/2/6 349/2/6 351/2/6
f 351/2/6 349/2/6 352/2/6
f 352/2/6 353/2/6 354/2/6
f 351/2/6 352/2/6 354/2/6
f 354/2/6 353/2/6 355/2/6
f 355/2/6 353/2/6 356/2/6
f 356/2/6 357/2/6 358/2/6
f 355/2/6 356/2/6 358/2/6
f 358/2/6 357/2/6 359/2/6
f 359/2/6 357/2/6 360/2/6
f 360/2/6 361/2/6 362/2/6
f 359/2/6 360/2/6 362/2/6
f 362/2/6 361/2/6 363/2/6
f 362/1/6 363/1/6 364/1/6
f 364/1/6 363/1/6 365/1/6
f 364/3/6 365/3/6 366/3/6
f 366/3/6 365/3/6 367/3/6
f 366/2/6 367/2/6 368/2/6
f 368/2/6 367/2/6 369/2/6
f 368/1/6 369/1/6 371/1/6
f 371/1/6 369/1/6 372/1/6
f 372/1/6 369/1/6 373/1/6
f 370/1/6 371/1/6 375/1/6
f 371/1/6 372/1/6 375/1/6
f 375/1/6 372/1/6 376/1/6
f 376/1/6 372/1/6 377/1/6
f 374/1/6 375/1/6 379/1/6
f 375/1/6 376/1/6 379/1/6
f 379/1/6 376/1/6 380/1/6
f 380/1/6 376/1/6 381/1/6
f 378/1/6 379/1/6 383/1/6
f 379/1/6 380/1/6 383/1/6
f 383/1/6 380/1/6 384/1/6
f 384/1/6 380/1/6 385/1/6
f 382/1/6 383/1/6 387/1/6
f 383/1/6 384/1/6 387/1/6
f 387/1/6 384/1/6 388/1/6
f 388/1/6 384/1/6 389/1/6
f 386/1/6 387/1/6 391/1/6
f 387/1/6 388/1/6 391/1/6
f 391/1/6 388/1/6 392/1/6
f 392/1/6 388/1/6 393/1/6
f 331/4/6 334/4/6 394/4/6
f 390/1/6 391/1/6 395/1/6
f 391/1/6 392/1/6 395/1/6
f 395/1/6 392/1/6 396/1/6
f 396/1/6 392/1/6 397/1/6
f 331/4/6 394/4/6 398/4/6
f 394/1/6 395/1/6 399/1/6
f 398/4/6 394/4/6 399/4/6
f 395/1/6 396/1/6 399/1/6
f 399/1/6 396/1/6 400/1/6
