# MagicaVoxel @ Ephtracy

# group
o 

# material
mtllib Light.mtl
usemtl palette

# normals
vn -1 0 0
vn 1 0 0
vn 0 0 1
vn 0 0 -1
vn 0 -1 0
vn 0 1 0

# texcoords
vt 0.0175781 0.5
vt 0.537109 0.5

# verts
v -0.2 0 0.1
v -0.2 0 -0.1
v -0.2 0.1 0.1
v -0.2 0.1 0
v -0.2 0.2 0
v -0.2 0.2 -0.1
v -0.2 1.2 0.1
v -0.2 1.2 -0.1
v -0.2 1.3 0.1
v -0.2 1.3 0
v -0.2 1.6 0
v -0.2 1.6 -0.1
v -0.1 0.1 0.1
v -0.1 0.1 0
v -0.1 0.2 0
v -0.1 0.2 -0.1
v -0.1 0.3 0
v -0.1 0.3 -0.1
v -0.1 1.2 0.1
v -0.1 1.2 0
v -0.1 1.6 0
v -0.1 1.6 -0.1
v -0.1 1.7 0
v -0.1 1.7 -0.1
v 0 0 0.1
v 0 0 -0.1
v 0 0.3 0
v 0 0.3 -0.1
v 0 1.2 0
v 0 1.3 0.1
v 0 1.3 0
v 0.1 1.2 0
v 0.1 1.2 -0.1
v 0.1 1.3 0
v 0.1 1.3 -0.1
v 0.2 1.3 0
v 0.2 1.3 -0.1
v 0.2 1.5 0
v 0.2 1.5 -0.1
v 0.3 1.5 0
v 0.3 1.5 -0.1
v 0.3 1.7 0
v 0.3 1.7 -0.1
v -0.2 0 0.1
v -0.2 0.1 0.1
v -0.2 1.2 0.1
v -0.2 1.3 0.1
v -0.1 0.1 0.1
v -0.1 1.2 0.1
v 0 0 0.1
v 0 1.3 0.1
v -0.2 0.1 0
v -0.2 0.2 0
v -0.2 1.3 0
v -0.2 1.6 0
v -0.1 0.1 0
v -0.1 0.2 0
v -0.1 1.3 0
v -0.1 1.5 0
v -0.1 1.6 0
v -0.1 1.7 0
v 0 1.2 0
v 0 1.3 0
v 0 1.5 0
v 0 1.6 0
v 0.1 1.2 0
v 0.1 1.3 0
v 0.2 1.3 0
v 0.2 1.5 0
v 0.2 1.6 0
v 0.3 1.5 0
v 0.3 1.7 0
v -0.1 0.3 0
v -0.1 1.2 0
v 0 0.3 0
v 0 1.2 0
v -0.2 0 -0.1
v -0.2 0.2 -0.1
v -0.2 1.2 -0.1
v -0.2 1.6 -0.1
v -0.1 0.2 -0.1
v -0.1 0.3 -0.1
v -0.1 1.3 -0.1
v -0.1 1.5 -0.1
v -0.1 1.6 -0.1
v -0.1 1.7 -0.1
v 0 0 -0.1
v 0 0.3 -0.1
v 0 1.5 -0.1
v 0 1.6 -0.1
v 0.1 1.2 -0.1
v 0.1 1.3 -0.1
v 0.2 1.3 -0.1
v 0.2 1.5 -0.1
v 0.2 1.6 -0.1
v 0.3 1.5 -0.1
v 0.3 1.7 -0.1
v -0.2 0 0.1
v 0 0 0.1
v -0.2 0 -0.1
v 0 0 -0.1
v -0.2 1.2 0.1
v -0.1 1.2 0.1
v -0.1 1.2 0
v 0 1.2 0
v 0.1 1.2 0
v -0.2 1.2 -0.1
v 0.1 1.2 -0.1
v 0.1 1.3 0
v 0.2 1.3 0
v 0.1 1.3 -0.1
v 0.2 1.3 -0.1
v 0.2 1.5 0
v 0.3 1.5 0
v 0.2 1.5 -0.1
v 0.3 1.5 -0.1
v -0.2 0.1 0.1
v -0.1 0.1 0.1
v -0.2 0.1 0
v -0.1 0.1 0
v -0.2 0.2 0
v -0.1 0.2 0
v -0.2 0.2 -0.1
v -0.1 0.2 -0.1
v -0.1 0.3 0
v 0 0.3 0
v -0.1 0.3 -0.1
v 0 0.3 -0.1
v -0.2 1.3 0.1
v 0 1.3 0.1
v -0.2 1.3 0
v -0.1 1.3 0
v 0 1.3 0
v -0.2 1.6 0
v -0.1 1.6 0
v -0.2 1.6 -0.1
v -0.1 1.6 -0.1
v -0.1 1.7 0
v 0.3 1.7 0
v -0.1 1.7 -0.1
v 0.3 1.7 -0.1

# faces
f 3/2/1 2/2/1 1/2/1
f 4/2/1 2/2/1 3/2/1
f 5/2/1 2/2/1 4/2/1
f 6/2/1 2/2/1 5/2/1
f 9/2/1 8/2/1 7/2/1
f 10/2/1 8/2/1 9/2/1
f 11/2/1 8/2/1 10/2/1
f 12/2/1 8/2/1 11/2/1
f 15/2/1 14/2/1 13/2/1
f 17/2/1 15/2/1 13/2/1
f 17/2/1 16/2/1 15/2/1
f 18/2/1 16/2/1 17/2/1
f 19/2/1 17/2/1 13/2/1
f 20/2/1 17/2/1 19/2/1
f 23/2/1 22/2/1 21/2/1
f 24/2/1 22/2/1 23/2/1
f 25/2/2 26/2/2 27/2/2
f 27/2/2 26/2/2 28/2/2
f 25/2/2 27/2/2 29/2/2
f 25/2/2 29/2/2 30/2/2
f 30/2/2 29/2/2 31/2/2
f 32/2/2 33/2/2 34/2/2
f 34/2/2 33/2/2 35/2/2
f 36/1/2 37/1/2 38/1/2
f 38/1/2 37/1/2 39/1/2
f 40/2/2 41/2/2 42/2/2
f 42/2/2 41/2/2 43/2/2
f 48/2/3 45/2/3 44/2/3
f 49/2/3 47/2/3 46/2/3
f 50/2/3 48/2/3 44/2/3
f 50/2/3 49/2/3 48/2/3
f 51/2/3 47/2/3 49/2/3
f 51/2/3 49/2/3 50/2/3
f 56/2/3 53/2/3 52/2/3
f 57/2/3 53/2/3 56/2/3
f 58/2/3 55/2/3 54/2/3
f 59/2/3 55/2/3 58/2/3
f 60/2/3 55/2/3 59/2/3
f 63/1/3 59/1/3 58/1/3
f 64/2/3 61/2/3 60/2/3
f 64/2/3 60/2/3 59/2/3
f 64/1/3 59/1/3 63/1/3
f 65/2/3 61/2/3 64/2/3
f 66/2/3 63/2/3 62/2/3
f 67/1/3 64/1/3 63/1/3
f 67/2/3 63/2/3 66/2/3
f 67/1/3 65/1/3 64/1/3
f 68/1/3 65/1/3 67/1/3
f 69/1/3 65/1/3 68/1/3
f 70/2/3 61/2/3 65/2/3
f 70/1/3 65/1/3 69/1/3
f 71/2/3 70/2/3 69/2/3
f 72/2/3 61/2/3 70/2/3
f 72/2/3 70/2/3 71/2/3
f 73/2/4 74/2/4 75/2/4
f 75/2/4 74/2/4 76/2/4
f 77/2/4 78/2/4 81/2/4
f 79/2/4 80/2/4 83/2/4
f 83/2/4 80/2/4 84/2/4
f 84/2/4 80/2/4 85/2/4
f 81/2/4 82/2/4 87/2/4
f 77/2/4 81/2/4 87/2/4
f 87/2/4 82/2/4 88/2/4
f 85/2/4 86/2/4 89/2/4
f 84/2/4 85/2/4 89/2/4
f 83/1/4 84/1/4 89/1/4
f 89/2/4 86/2/4 90/2/4
f 79/2/4 83/2/4 91/2/4
f 89/1/4 90/1/4 92/1/4
f 91/2/4 83/2/4 92/2/4
f 83/1/4 89/1/4 92/1/4
f 92/1/4 90/1/4 93/1/4
f 93/1/4 90/1/4 94/1/4
f 90/2/4 86/2/4 95/2/4
f 94/1/4 90/1/4 95/1/4
f 94/2/4 95/2/4 96/2/4
f 95/2/4 86/2/4 97/2/4
f 96/2/4 95/2/4 97/2/4
f 100/2/5 99/2/5 98/2/5
f 101/2/5 99/2/5 100/2/5
f 104/2/5 103/2/5 102/2/5
f 107/2/5 104/2/5 102/2/5
f 107/2/5 106/2/5 105/2/5
f 107/2/5 105/2/5 104/2/5
f 108/2/5 106/2/5 107/2/5
f 111/1/5 110/1/5 109/1/5
f 112/1/5 110/1/5 111/1/5
f 115/2/5 114/2/5 113/2/5
f 116/2/5 114/2/5 115/2/5
f 117/2/6 118/2/6 119/2/6
f 119/2/6 118/2/6 120/2/6
f 121/2/6 122/2/6 123/2/6
f 123/2/6 122/2/6 124/2/6
f 125/2/6 126/2/6 127/2/6
f 127/2/6 126/2/6 128/2/6
f 129/2/6 130/2/6 131/2/6
f 131/2/6 130/2/6 132/2/6
f 132/2/6 130/2/6 133/2/6
f 134/2/6 135/2/6 136/2/6
f 136/2/6 135/2/6 137/2/6
f 138/2/6 139/2/6 140/2/6
f 140/2/6 139/2/6 141/2/6
