# MagicaVoxel @ Ephtracy

# group
o 

# material
mtllib Middle_Witch.mtl
usemtl palette

# normals
vn -1 0 0
vn 1 0 0
vn 0 0 1
vn 0 0 -1
vn 0 -1 0
vn 0 1 0

# texcoords
vt 0.0136719 0.5
vt 0.0214844 0.5
vt 0.0253906 0.5
vt 0.0292969 0.5
vt 0.150391 0.5
vt 0.154297 0.5
vt 0.373047 0.5

# verts
v -0.3 0.5 -0.3
v -0.3 0.5 -0.6
v -0.3 0.6 -0.3
v -0.3 0.6 -0.6
v -0.3 1 0
v -0.3 1 -0.2
v -0.3 1.1 0
v -0.3 1.1 -0.2
v -0.2 0 0.5
v -0.2 0 0.4
v -0.2 0 0.2
v -0.2 0 -0.1
v -0.2 0.1 0.5
v -0.2 0.1 0.4
v -0.2 0.1 0.2
v -0.2 0.1 -0.1
v -0.2 0.5 0
v -0.2 0.5 -0.2
v -0.2 0.5 -0.3
v -0.2 0.6 0.1
v -0.2 0.6 0
v -0.2 0.6 -0.1
v -0.2 0.6 -0.2
v -0.2 0.6 -0.3
v -0.2 0.6 -0.4
v -0.2 0.6 -0.5
v -0.2 0.7 0
v -0.2 0.7 -0.1
v -0.2 0.7 -0.4
v -0.2 0.7 -0.5
v -0.2 0.8 -0.2
v -0.2 0.8 -0.3
v -0.2 0.9 0.1
v -0.2 0.9 0
v -0.2 1 0.1
v -0.2 1 0
v -0.2 1 -0.2
v -0.2 1 -0.3
v -0.2 1.1 0.1
v -0.2 1.1 0
v -0.2 1.1 -0.2
v -0.2 1.1 -0.3
v -0.1 0 0.4
v -0.1 0 0.2
v -0.1 0 -0.1
v -0.1 0 -0.2
v -0.1 0.1 0.4
v -0.1 0.1 0.2
v -0.1 0.1 -0.1
v -0.1 0.2 0.2
v -0.1 0.2 0.1
v -0.1 0.5 0
v -0.1 0.5 -0.2
v -0.1 0.6 0.2
v -0.1 0.6 0.1
v -0.1 0.6 0
v -0.1 0.7 -0.2
v -0.1 0.7 -0.3
v -0.1 0.8 -0.2
v -0.1 0.8 -0.3
v -0.1 0.9 0.1
v -0.1 0.9 0
v -0.1 0.9 -0.3
v -0.1 0.9 -0.4
v -0.1 1 0.2
v -0.1 1 0.1
v -0.1 1 0
v -0.1 1 -0.3
v -0.1 1 -0.4
v -0.1 1.1 0.2
v -0.1 1.1 0.1
v -0.1 1.1 -0.2
v -0.1 1.1 -0.3
v -0.1 1.1 -0.4
v -0.1 1.2 -0.1
v -0.1 1.2 -0.2
v -0.1 1.3 0.2
v -0.1 1.3 0.1
v -0.1 1.3 0
v -0.1 1.3 -0.1
v -0.1 1.4 0.2
v -0.1 1.4 0
v 0 0.5 0.2
v 0 0.5 0.1
v 0 0.6 0.2
v 0 0.6 0.1
v 0 1.2 -0.1
v 0 1.2 -0.2
v 0 1.3 0
v 0 1.3 -0.1
v 0 1.3 -0.2
v 0 1.4 0.3
v 0 1.4 0.2
v 0 1.4 0.1
v 0 1.4 0
v 0 1.4 -0.1
v 0 1.5 0.3
v 0 1.5 0.1
v 0.1 0 0.3
v 0.1 0 0.2
v 0.1 0.1 0.3
v 0.1 0.1 0.2
v 0.2 0 0.4
v 0.2 0 0.3
v 0.2 0.1 0.4
v 0.2 0.1 0.3
v 0.2 0.5 -0.2
v 0.2 0.5 -0.3
v 0.2 0.5 -0.5
v 0.2 0.6 -0.2
v 0.2 0.6 -0.3
v 0.2 0.7 -0.3
v 0.2 0.7 -0.5
v -0.1 0 0.5
v -0.1 0 0.4
v -0.1 0.1 0.5
v -0.1 0.1 0.4
v -0.1 0.5 -0.2
v -0.1 0.5 -0.3
v -0.1 0.6 -0.2
v -0.1 0.6 -0.3
v -0.1 0.6 -0.4
v -0.1 0.6 -0.5
v -0.1 0.7 -0.4
v -0.1 0.7 -0.5
v 0 0 0.4
v 0 0 0.2
v 0 0.1 0.4
v 0 0.1 0.2
v 0 0.5 -0.3
v 0 0.5 -0.6
v 0 0.6 -0.3
v 0 0.6 -0.6
v 0.1 0.5 0.2
v 0.1 0.5 0.1
v 0.1 0.6 0.2
v 0.1 0.6 0.1
v 0.1 1.2 -0.1
v 0.1 1.2 -0.2
v 0.1 1.3 0
v 0.1 1.3 -0.1
v 0.1 1.3 -0.2
v 0.1 1.4 0.3
v 0.1 1.4 0.2
v 0.1 1.4 0.1
v 0.1 1.4 0
v 0.1 1.4 -0.1
v 0.1 1.5 0.3
v 0.1 1.5 0.1
v 0.2 0 0.3
v 0.2 0 0.2
v 0.2 0 -0.1
v 0.2 0 -0.2
v 0.2 0.1 0.3
v 0.2 0.1 0.2
v 0.2 0.1 -0.1
v 0.2 0.2 0.2
v 0.2 0.2 0.1
v 0.2 0.5 0
v 0.2 0.5 -0.2
v 0.2 0.6 0.2
v 0.2 0.6 0.1
v 0.2 0.6 0
v 0.2 0.7 -0.2
v 0.2 0.7 -0.3
v 0.2 0.8 -0.2
v 0.2 0.8 -0.3
v 0.2 0.9 0.1
v 0.2 0.9 0
v 0.2 0.9 -0.3
v 0.2 0.9 -0.4
v 0.2 1 0.2
v 0.2 1 0.1
v 0.2 1 0
v 0.2 1 -0.3
v 0.2 1 -0.4
v 0.2 1.1 0.2
v 0.2 1.1 0.1
v 0.2 1.1 -0.2
v 0.2 1.1 -0.3
v 0.2 1.1 -0.4
v 0.2 1.2 -0.1
v 0.2 1.2 -0.2
v 0.2 1.3 0.2
v 0.2 1.3 0.1
v 0.2 1.3 0
v 0.2 1.3 -0.1
v 0.2 1.4 0.2
v 0.2 1.4 0
v 0.3 0 0.4
v 0.3 0 0.3
v 0.3 0 0.2
v 0.3 0 -0.1
v 0.3 0.1 0.4
v 0.3 0.1 0.3
v 0.3 0.1 0.2
v 0.3 0.1 -0.1
v 0.3 0.5 0
v 0.3 0.5 -0.2
v 0.3 0.5 -0.3
v 0.3 0.6 0.1
v 0.3 0.6 0
v 0.3 0.6 -0.1
v 0.3 0.6 -0.2
v 0.3 0.6 -0.3
v 0.3 0.7 0
v 0.3 0.7 -0.1
v 0.3 0.8 -0.2
v 0.3 0.8 -0.3
v 0.3 0.9 0.1
v 0.3 0.9 0
v 0.3 1 0.1
v 0.3 1 0
v 0.3 1 -0.2
v 0.3 1 -0.3
v 0.3 1.1 0.1
v 0.3 1.1 0
v 0.3 1.1 -0.2
v 0.3 1.1 -0.3
v 0.4 0.5 -0.3
v 0.4 0.5 -0.5
v 0.4 0.7 -0.3
v 0.4 0.7 -0.5
v 0.4 1 0
v 0.4 1 -0.2
v 0.4 1.1 0
v 0.4 1.1 -0.2
v -0.2 0 0.5
v -0.2 0.1 0.5
v -0.1 0 0.5
v -0.1 0.1 0.5
v -0.1 0 0.4
v -0.1 0.1 0.4
v 0 0 0.4
v 0 0.1 0.4
v 0.2 0 0.4
v 0.2 0.1 0.4
v 0.3 0 0.4
v 0.3 0.1 0.4
v 0 1.4 0.3
v 0 1.5 0.3
v 0.1 0 0.3
v 0.1 0.1 0.3
v 0.1 1.4 0.3
v 0.1 1.5 0.3
v 0.2 0 0.3
v 0.2 0.1 0.3
v -0.2 0 0.2
v -0.2 0.1 0.2
v -0.1 0 0.2
v -0.1 0.1 0.2
v -0.1 0.2 0.2
v -0.1 0.6 0.2
v -0.1 1 0.2
v -0.1 1.1 0.2
v -0.1 1.3 0.2
v -0.1 1.4 0.2
v 0 0 0.2
v 0 0.1 0.2
v 0 0.5 0.2
v 0 0.6 0.2
v 0 1.4 0.2
v 0.1 0 0.2
v 0.1 0.1 0.2
v 0.1 0.5 0.2
v 0.1 0.6 0.2
v 0.1 1.4 0.2
v 0.2 0 0.2
v 0.2 0.1 0.2
v 0.2 0.2 0.2
v 0.2 0.6 0.2
v 0.2 1 0.2
v 0.2 1.1 0.2
v 0.2 1.3 0.2
v 0.2 1.4 0.2
v 0.3 0 0.2
v 0.3 0.1 0.2
v -0.2 0.6 0.1
v -0.2 0.9 0.1
v -0.2 1 0.1
v -0.2 1.1 0.1
v -0.1 0.2 0.1
v -0.1 0.6 0.1
v -0.1 0.9 0.1
v -0.1 1 0.1
v -0.1 1.1 0.1
v -0.1 1.3 0.1
v 0 0.5 0.1
v 0 0.6 0.1
v 0.1 0.5 0.1
v 0.1 0.6 0.1
v 0.2 0.2 0.1
v 0.2 0.6 0.1
v 0.2 0.9 0.1
v 0.2 1 0.1
v 0.2 1.1 0.1
v 0.2 1.3 0.1
v 0.3 0.6 0.1
v 0.3 0.9 0.1
v 0.3 1 0.1
v 0.3 1.1 0.1
v -0.3 1 0
v -0.3 1.1 0
v -0.2 0.5 0
v -0.2 0.6 0
v -0.2 0.9 0
v -0.2 1 0
v -0.2 1.1 0
v -0.1 0.5 0
v -0.1 0.6 0
v -0.1 0.9 0
v -0.1 1 0
v 0.2 0.5 0
v 0.2 0.6 0
v 0.2 0.9 0
v 0.2 1 0
v 0.3 0.5 0
v 0.3 0.6 0
v 0.3 0.9 0
v 0.3 1 0
v 0.3 1.1 0
v 0.4 1 0
v 0.4 1.1 0
v -0.3 0.5 -0.3
v -0.3 0.6 -0.3
v -0.2 0.5 -0.3
v -0.2 0.6 -0.3
v -0.1 0.5 -0.3
v -0.1 0.6 -0.3
v 0 0.5 -0.3
v 0 0.6 -0.3
v 0.2 0.6 -0.3
v 0.2 0.7 -0.3
v 0.3 0.5 -0.3
v 0.3 0.6 -0.3
v 0.4 0.5 -0.3
v 0.4 0.7 -0.3
v -0.2 0.6 -0.4
v -0.2 0.7 -0.4
v -0.1 0.6 -0.4
v -0.1 0.7 -0.4
v -0.2 0 0.4
v -0.2 0.1 0.4
v -0.1 0 0.4
v -0.1 0.1 0.4
v 0.2 0 0.3
v 0.2 0.1 0.3
v 0.3 0 0.3
v 0.3 0.1 0.3
v 0 1.4 0.1
v 0 1.5 0.1
v 0.1 1.4 0.1
v 0.1 1.5 0.1
v -0.1 1.3 0
v -0.1 1.4 0
v 0 1.3 0
v 0 1.4 0
v 0.1 1.3 0
v 0.1 1.4 0
v 0.2 1.3 0
v 0.2 1.4 0
v -0.2 0 -0.1
v -0.2 0.1 -0.1
v -0.1 0 -0.1
v -0.1 0.1 -0.1
v -0.1 1.2 -0.1
v -0.1 1.3 -0.1
v 0 1.2 -0.1
v 0 1.3 -0.1
v 0 1.4 -0.1
v 0.1 1.2 -0.1
v 0.1 1.3 -0.1
v 0.1 1.4 -0.1
v 0.2 0 -0.1
v 0.2 0.1 -0.1
v 0.2 1.2 -0.1
v 0.2 1.3 -0.1
v 0.3 0 -0.1
v 0.3 0.1 -0.1
v -0.3 1 -0.2
v -0.3 1.1 -0.2
v -0.2 0.6 -0.2
v -0.2 0.8 -0.2
v -0.2 1 -0.2
v -0.2 1.1 -0.2
v -0.1 0 -0.2
v -0.1 0.5 -0.2
v -0.1 0.6 -0.2
v -0.1 0.7 -0.2
v -0.1 0.8 -0.2
v -0.1 1.1 -0.2
v -0.1 1.2 -0.2
v 0 1.2 -0.2
v 0 1.3 -0.2
v 0.1 1.2 -0.2
v 0.1 1.3 -0.2
v 0.2 0 -0.2
v 0.2 0.5 -0.2
v 0.2 0.6 -0.2
v 0.2 0.7 -0.2
v 0.2 0.8 -0.2
v 0.2 1.1 -0.2
v 0.2 1.2 -0.2
v 0.3 0.6 -0.2
v 0.3 0.8 -0.2
v 0.3 1 -0.2
v 0.3 1.1 -0.2
v 0.4 1 -0.2
v 0.4 1.1 -0.2
v -0.2 0.8 -0.3
v -0.2 1 -0.3
v -0.2 1.1 -0.3
v -0.1 0.7 -0.3
v -0.1 0.8 -0.3
v -0.1 0.9 -0.3
v -0.1 1 -0.3
v -0.1 1.1 -0.3
v 0 0.8 -0.3
v 0 0.9 -0.3
v 0.1 0.8 -0.3
v 0.1 0.9 -0.3
v 0.2 0.7 -0.3
v 0.2 0.8 -0.3
v 0.2 0.9 -0.3
v 0.2 1 -0.3
v 0.2 1.1 -0.3
v 0.3 0.8 -0.3
v 0.3 1 -0.3
v 0.3 1.1 -0.3
v -0.1 0.9 -0.4
v -0.1 1 -0.4
v -0.1 1.1 -0.4
v 0.2 0.9 -0.4
v 0.2 1 -0.4
v 0.2 1.1 -0.4
v -0.2 0.6 -0.5
v -0.2 0.7 -0.5
v -0.1 0.6 -0.5
v -0.1 0.7 -0.5
v 0.2 0.5 -0.5
v 0.2 0.7 -0.5
v 0.4 0.5 -0.5
v 0.4 0.7 -0.5
v -0.3 0.5 -0.6
v -0.3 0.6 -0.6
v 0 0.5 -0.6
v 0 0.6 -0.6
v -0.2 0 0.5
v -0.1 0 0.5
v -0.2 0 0.4
v -0.1 0 0.4
v 0 0 0.4
v 0.2 0 0.4
v 0.3 0 0.4
v 0.1 0 0.3
v 0.2 0 0.3
v 0.3 0 0.3
v -0.2 0 0.2
v -0.1 0 0.2
v 0 0 0.2
v 0.1 0 0.2
v 0.2 0 0.2
v 0.3 0 0.2
v -0.2 0 -0.1
v -0.1 0 -0.1
v 0.2 0 -0.1
v 0.3 0 -0.1
v -0.1 0 -0.2
v 0.2 0 -0.2
v 0 0.5 0.2
v 0.1 0.5 0.2
v 0 0.5 0.1
v 0.1 0.5 0.1
v -0.2 0.5 0
v -0.1 0.5 0
v 0.2 0.5 0
v 0.3 0.5 0
v -0.2 0.5 -0.2
v -0.1 0.5 -0.2
v 0.2 0.5 -0.2
v 0.3 0.5 -0.2
v -0.3 0.5 -0.3
v -0.2 0.5 -0.3
v -0.1 0.5 -0.3
v 0 0.5 -0.3
v 0.2 0.5 -0.3
v 0.3 0.5 -0.3
v 0.4 0.5 -0.3
v 0.2 0.5 -0.5
v 0.4 0.5 -0.5
v -0.3 0.5 -0.6
v 0 0.5 -0.6
v -0.1 0.6 0.2
v 0 0.6 0.2
v 0.1 0.6 0.2
v 0.2 0.6 0.2
v -0.2 0.6 0.1
v -0.1 0.6 0.1
v 0 0.6 0.1
v 0.1 0.6 0.1
v 0.2 0.6 0.1
v 0.3 0.6 0.1
v -0.2 0.6 0
v -0.1 0.6 0
v 0.2 0.6 0
v 0.3 0.6 0
v -0.1 0.7 -0.2
v 0.2 0.7 -0.2
v -0.1 0.7 -0.3
v 0.2 0.7 -0.3
v -0.2 0.8 -0.2
v -0.1 0.8 -0.2
v 0.2 0.8 -0.2
v 0.3 0.8 -0.2
v -0.2 0.8 -0.3
v -0.1 0.8 -0.3
v 0.2 0.8 -0.3
v 0.3 0.8 -0.3
v -0.1 0.9 -0.3
v 0 0.9 -0.3
v 0.1 0.9 -0.3
v 0.2 0.9 -0.3
v -0.1 0.9 -0.4
v 0.2 0.9 -0.4
v -0.2 1 0.1
v -0.1 1 0.1
v 0.2 1 0.1
v 0.3 1 0.1
v -0.3 1 0
v -0.2 1 0
v -0.1 1 0
v 0.2 1 0
v 0.3 1 0
v 0.4 1 0
v -0.3 1 -0.2
v -0.2 1 -0.2
v 0.3 1 -0.2
v 0.4 1 -0.2
v -0.1 1.3 0.2
v 0.2 1.3 0.2
v -0.1 1.3 0.1
v 0.2 1.3 0.1
v 0 1.4 0.3
v 0.1 1.4 0.3
v 0 1.4 0.2
v 0.1 1.4 0.2
v -0.2 0.1 0.5
v -0.1 0.1 0.5
v -0.2 0.1 0.4
v -0.1 0.1 0.4
v 0 0.1 0.4
v 0.2 0.1 0.4
v 0.3 0.1 0.4
v 0.1 0.1 0.3
v 0.2 0.1 0.3
v 0.3 0.1 0.3
v -0.2 0.1 0.2
v -0.1 0.1 0.2
v 0 0.1 0.2
v 0.1 0.1 0.2
v 0.2 0.1 0.2
v 0.3 0.1 0.2
v -0.2 0.1 -0.1
v -0.1 0.1 -0.1
v 0.2 0.1 -0.1
v 0.3 0.1 -0.1
v -0.1 0.2 0.2
v 0.2 0.2 0.2
v -0.1 0.2 0.1
v 0.2 0.2 0.1
v -0.2 0.6 -0.2
v -0.1 0.6 -0.2
v 0.2 0.6 -0.2
v 0.3 0.6 -0.2
v -0.3 0.6 -0.3
v -0.2 0.6 -0.3
v -0.1 0.6 -0.3
v 0 0.6 -0.3
v 0.2 0.6 -0.3
v 0.3 0.6 -0.3
v -0.2 0.6 -0.4
v -0.1 0.6 -0.4
v -0.2 0.6 -0.5
v -0.1 0.6 -0.5
v -0.3 0.6 -0.6
v 0 0.6 -0.6
v 0.2 0.7 -0.3
v 0.4 0.7 -0.3
v -0.2 0.7 -0.4
v -0.1 0.7 -0.4
v -0.2 0.7 -0.5
v -0.1 0.7 -0.5
v 0.2 0.7 -0.5
v 0.4 0.7 -0.5
v -0.2 0.9 0.1
v -0.1 0.9 0.1
v 0.2 0.9 0.1
v 0.3 0.9 0.1
v -0.2 0.9 0
v -0.1 0.9 0
v 0.2 0.9 0
v 0.3 0.9 0
v -0.1 1.1 0.2
v 0.2 1.1 0.2
v -0.2 1.1 0.1
v -0.1 1.1 0.1
v 0.2 1.1 0.1
v 0.3 1.1 0.1
v -0.3 1.1 0
v -0.2 1.1 0
v 0.3 1.1 0
v 0.4 1.1 0
v -0.3 1.1 -0.2
v -0.2 1.1 -0.2
v -0.1 1.1 -0.2
v 0.2 1.1 -0.2
v 0.3 1.1 -0.2
v 0.4 1.1 -0.2
v -0.2 1.1 -0.3
v -0.1 1.1 -0.3
v 0.2 1.1 -0.3
v 0.3 1.1 -0.3
v -0.1 1.1 -0.4
v 0.2 1.1 -0.4
v -0.1 1.2 -0.1
v 0 1.2 -0.1
v 0.1 1.2 -0.1
v 0.2 1.2 -0.1
v -0.1 1.2 -0.2
v 0 1.2 -0.2
v 0.1 1.2 -0.2
v 0.2 1.2 -0.2
v -0.1 1.3 0
v 0 1.3 0
v 0.1 1.3 0
v 0.2 1.3 0
v -0.1 1.3 -0.1
v 0 1.3 -0.1
v 0.1 1.3 -0.1
v 0.2 1.3 -0.1
v 0 1.3 -0.2
v 0.1 1.3 -0.2
v -0.1 1.4 0.2
v 0 1.4 0.2
v 0.1 1.4 0.2
v 0.2 1.4 0.2
v 0 1.4 0.1
v 0.1 1.4 0.1
v -0.1 1.4 0
v 0 1.4 0
v 0.1 1.4 0
v 0.2 1.4 0
v 0 1.4 -0.1
v 0.1 1.4 -0.1
v 0 1.5 0.3
v 0.1 1.5 0.3
v 0 1.5 0.1
v 0.1 1.5 0.1

# faces
f 3/7/1 2/7/1 1/7/1
f 4/7/1 2/7/1 3/7/1
f 7/1/1 6/1/1 5/1/1
f 8/1/1 6/1/1 7/1/1
f 13/3/1 10/3/1 9/3/1
f 14/3/1 10/3/1 13/3/1
f 15/3/1 12/3/1 11/3/1
f 16/3/1 12/3/1 15/3/1
f 21/3/1 18/3/1 17/3/1
f 22/3/1 18/3/1 21/3/1
f 23/4/1 19/4/1 18/4/1
f 23/3/1 18/3/1 22/3/1
f 24/4/1 19/4/1 23/4/1
f 27/3/1 22/3/1 21/3/1
f 27/2/1 21/2/1 20/2/1
f 28/2/1 23/2/1 22/2/1
f 28/3/1 22/3/1 27/3/1
f 29/5/1 26/5/1 25/5/1
f 30/5/1 26/5/1 29/5/1
f 31/2/1 23/2/1 28/2/1
f 31/2/1 28/2/1 27/2/1
f 33/2/1 27/2/1 20/2/1
f 33/2/1 32/2/1 31/2/1
f 33/2/1 31/2/1 27/2/1
f 34/2/1 32/2/1 33/2/1
f 36/2/1 32/2/1 34/2/1
f 37/2/1 32/2/1 36/2/1
f 38/2/1 32/2/1 37/2/1
f 39/1/1 36/1/1 35/1/1
f 40/1/1 36/1/1 39/1/1
f 41/1/1 38/1/1 37/1/1
f 42/1/1 38/1/1 41/1/1
f 47/3/1 44/3/1 43/3/1
f 48/3/1 44/3/1 47/3/1
f 49/3/1 46/3/1 45/3/1
f 50/3/1 49/3/1 48/3/1
f 51/3/1 49/3/1 50/3/1
f 52/3/1 49/3/1 51/3/1
f 53/3/1 46/3/1 49/3/1
f 53/3/1 49/3/1 52/3/1
f 55/3/1 52/3/1 51/3/1
f 56/3/1 52/3/1 55/3/1
f 59/4/1 58/4/1 57/4/1
f 60/4/1 58/4/1 59/4/1
f 61/2/1 55/2/1 54/2/1
f 65/2/1 62/2/1 61/2/1
f 65/2/1 61/2/1 54/2/1
f 66/2/1 62/2/1 65/2/1
f 67/2/1 62/2/1 66/2/1
f 68/2/1 64/2/1 63/2/1
f 69/2/1 64/2/1 68/2/1
f 70/1/1 66/1/1 65/1/1
f 71/1/1 66/1/1 70/1/1
f 73/1/1 69/1/1 68/1/1
f 74/1/1 69/1/1 73/1/1
f 75/1/1 72/1/1 71/1/1
f 76/1/1 72/1/1 75/1/1
f 78/1/1 75/1/1 71/1/1
f 79/1/1 75/1/1 78/1/1
f 80/1/1 75/1/1 79/1/1
f 81/1/1 78/1/1 77/1/1
f 81/1/1 79/1/1 78/1/1
f 82/1/1 79/1/1 81/1/1
f 85/2/1 84/2/1 83/2/1
f 86/2/1 84/2/1 85/2/1
f 90/1/1 88/1/1 87/1/1
f 91/1/1 88/1/1 90/1/1
f 95/1/1 90/1/1 89/1/1
f 96/1/1 90/1/1 95/1/1
f 97/1/1 94/1/1 93/1/1
f 97/1/1 93/1/1 92/1/1
f 98/1/1 94/1/1 97/1/1
f 101/3/1 100/3/1 99/3/1
f 102/3/1 100/3/1 101/3/1
f 105/3/1 104/3/1 103/3/1
f 106/3/1 104/3/1 105/3/1
f 110/4/1 108/4/1 107/4/1
f 111/5/1 109/5/1 108/5/1
f 111/4/1 108/4/1 110/4/1
f 112/5/1 109/5/1 111/5/1
f 113/5/1 109/5/1 112/5/1
f 114/3/2 115/3/2 116/3/2
f 116/3/2 115/3/2 117/3/2
f 118/4/2 119/4/2 120/4/2
f 120/4/2 119/4/2 121/4/2
f 122/5/2 123/5/2 124/5/2
f 124/5/2 123/5/2 125/5/2
f 126/3/2 127/3/2 128/3/2
f 128/3/2 127/3/2 129/3/2
f 130/7/2 131/7/2 132/7/2
f 132/7/2 131/7/2 133/7/2
f 134/2/2 135/2/2 136/2/2
f 136/2/2 135/2/2 137/2/2
f 138/1/2 139/1/2 141/1/2
f 141/1/2 139/1/2 142/1/2
f 140/1/2 141/1/2 146/1/2
f 146/1/2 141/1/2 147/1/2
f 144/1/2 145/1/2 148/1/2
f 143/1/2 144/1/2 148/1/2
f 148/1/2 145/1/2 149/1/2
f 150/3/2 151/3/2 154/3/2
f 154/3/2 151/3/2 155/3/2
f 152/3/2 153/3/2 156/3/2
f 155/3/2 156/3/2 157/3/2
f 157/3/2 156/3/2 158/3/2
f 158/3/2 156/3/2 159/3/2
f 156/3/2 153/3/2 160/3/2
f 159/3/2 156/3/2 160/3/2
f 158/3/2 159/3/2 162/3/2
f 162/3/2 159/3/2 163/3/2
f 164/4/2 165/4/2 166/4/2
f 166/4/2 165/4/2 167/4/2
f 161/2/2 162/2/2 168/2/2
f 168/2/2 169/2/2 172/2/2
f 161/2/2 168/2/2 172/2/2
f 172/2/2 169/2/2 173/2/2
f 173/2/2 169/2/2 174/2/2
f 170/2/2 171/2/2 175/2/2
f 175/2/2 171/2/2 176/2/2
f 172/1/2 173/1/2 177/1/2
f 177/1/2 173/1/2 178/1/2
f 175/1/2 176/1/2 180/1/2
f 180/1/2 176/1/2 181/1/2
f 178/1/2 179/1/2 182/1/2
f 182/1/2 179/1/2 183/1/2
f 178/1/2 182/1/2 185/1/2
f 185/1/2 182/1/2 186/1/2
f 186/1/2 182/1/2 187/1/2
f 184/1/2 185/1/2 188/1/2
f 185/1/2 186/1/2 188/1/2
f 188/1/2 186/1/2 189/1/2
f 190/3/2 191/3/2 194/3/2
f 194/3/2 191/3/2 195/3/2
f 192/3/2 193/3/2 196/3/2
f 196/3/2 193/3/2 197/3/2
f 198/3/2 199/3/2 202/3/2
f 202/3/2 199/3/2 203/3/2
f 199/4/2 200/4/2 204/4/2
f 203/3/2 199/3/2 204/3/2
f 204/4/2 200/4/2 205/4/2
f 202/3/2 203/3/2 206/3/2
f 201/2/2 202/2/2 206/2/2
f 203/2/2 204/2/2 207/2/2
f 206/3/2 203/3/2 207/3/2
f 206/2/2 207/2/2 208/2/2
f 207/2/2 204/2/2 208/2/2
f 201/2/2 206/2/2 210/2/2
f 208/2/2 209/2/2 210/2/2
f 206/2/2 208/2/2 210/2/2
f 210/2/2 209/2/2 211/2/2
f 211/2/2 209/2/2 213/2/2
f 213/2/2 209/2/2 214/2/2
f 214/2/2 209/2/2 215/2/2
f 212/1/2 213/1/2 216/1/2
f 216/1/2 213/1/2 217/1/2
f 214/1/2 215/1/2 218/1/2
f 218/1/2 215/1/2 219/1/2
f 220/5/2 221/5/2 222/5/2
f 222/5/2 221/5/2 223/5/2
f 224/1/2 225/1/2 226/1/2
f 226/1/2 225/1/2 227/1/2
f 230/3/3 229/3/3 228/3/3
f 231/3/3 229/3/3 230/3/3
f 234/3/3 233/3/3 232/3/3
f 235/3/3 233/3/3 234/3/3
f 238/3/3 237/3/3 236/3/3
f 239/3/3 237/3/3 238/3/3
f 244/1/3 241/1/3 240/1/3
f 245/1/3 241/1/3 244/1/3
f 246/3/3 243/3/3 242/3/3
f 247/3/3 243/3/3 246/3/3
f 250/3/3 249/3/3 248/3/3
f 251/3/3 249/3/3 250/3/3
f 259/3/3 252/3/3 251/3/3
f 261/2/3 254/2/3 253/2/3
f 262/1/3 257/1/3 256/1/3
f 263/3/3 259/3/3 258/3/3
f 264/3/3 252/3/3 259/3/3
f 264/3/3 259/3/3 263/3/3
f 265/2/3 261/2/3 260/2/3
f 266/2/3 254/2/3 261/2/3
f 266/2/3 261/2/3 265/2/3
f 267/1/3 262/1/3 256/1/3
f 269/3/3 252/3/3 264/3/3
f 270/3/3 252/3/3 269/3/3
f 271/2/3 254/2/3 266/2/3
f 272/1/3 255/1/3 254/1/3
f 272/2/3 254/2/3 271/2/3
f 273/1/3 255/1/3 272/1/3
f 274/1/3 267/1/3 256/1/3
f 275/1/3 267/1/3 274/1/3
f 276/3/3 269/3/3 268/3/3
f 277/3/3 269/3/3 276/3/3
f 283/2/3 279/2/3 278/2/3
f 284/2/3 279/2/3 283/2/3
f 285/1/3 281/1/3 280/1/3
f 286/1/3 281/1/3 285/1/3
f 288/3/3 283/3/3 282/3/3
f 289/3/3 283/3/3 288/3/3
f 290/3/3 288/3/3 282/3/3
f 292/3/3 290/3/3 282/3/3
f 292/3/3 291/3/3 290/3/3
f 293/3/3 291/3/3 292/3/3
f 296/1/3 287/1/3 286/1/3
f 297/1/3 287/1/3 296/1/3
f 298/2/3 294/2/3 293/2/3
f 299/2/3 294/2/3 298/2/3
f 300/1/3 296/1/3 295/1/3
f 301/1/3 296/1/3 300/1/3
f 307/1/3 303/1/3 302/1/3
f 308/1/3 303/1/3 307/1/3
f 309/3/3 305/3/3 304/3/3
f 310/3/3 305/3/3 309/3/3
f 311/2/3 307/2/3 306/2/3
f 312/2/3 307/2/3 311/2/3
f 317/3/3 314/3/3 313/3/3
f 318/3/3 314/3/3 317/3/3
f 319/2/3 316/2/3 315/2/3
f 320/2/3 316/2/3 319/2/3
f 322/1/3 321/1/3 320/1/3
f 323/1/3 321/1/3 322/1/3
f 326/7/3 325/7/3 324/7/3
f 327/7/3 325/7/3 326/7/3
f 330/7/3 329/7/3 328/7/3
f 331/7/3 329/7/3 330/7/3
f 335/5/3 333/5/3 332/5/3
f 336/5/3 335/5/3 334/5/3
f 337/5/3 333/5/3 335/5/3
f 337/5/3 335/5/3 336/5/3
f 340/5/3 339/5/3 338/5/3
f 341/5/3 339/5/3 340/5/3
f 342/3/4 343/3/4 344/3/4
f 344/3/4 343/3/4 345/3/4
f 346/3/4 347/3/4 348/3/4
f 348/3/4 347/3/4 349/3/4
f 350/1/4 351/1/4 352/1/4
f 352/1/4 351/1/4 353/1/4
f 354/1/4 355/1/4 356/1/4
f 356/1/4 355/1/4 357/1/4
f 358/1/4 359/1/4 360/1/4
f 360/1/4 359/1/4 361/1/4
f 362/3/4 363/3/4 364/3/4
f 364/3/4 363/3/4 365/3/4
f 366/1/4 367/1/4 368/1/4
f 368/1/4 367/1/4 369/1/4
f 369/1/4 370/1/4 372/1/4
f 372/1/4 370/1/4 373/1/4
f 371/1/4 372/1/4 376/1/4
f 376/1/4 372/1/4 377/1/4
f 374/3/4 375/3/4 378/3/4
f 378/3/4 375/3/4 379/3/4
f 380/1/4 381/1/4 384/1/4
f 384/1/4 381/1/4 385/1/4
f 382/2/4 383/2/4 388/2/4
f 388/2/4 383/2/4 389/2/4
f 389/2/4 383/2/4 390/2/4
f 391/1/4 392/1/4 393/1/4
f 391/1/4 393/1/4 395/1/4
f 393/1/4 394/1/4 395/1/4
f 395/1/4 394/1/4 396/1/4
f 386/3/4 387/3/4 397/3/4
f 388/3/4 389/3/4 397/3/4
f 387/3/4 388/3/4 397/3/4
f 397/3/4 389/3/4 398/3/4
f 398/3/4 389/3/4 399/3/4
f 399/3/4 389/3/4 400/3/4
f 391/1/4 395/1/4 402/1/4
f 402/1/4 395/1/4 403/1/4
f 400/2/4 401/2/4 404/2/4
f 399/2/4 400/2/4 404/2/4
f 404/2/4 401/2/4 405/2/4
f 406/1/4 407/1/4 408/1/4
f 408/1/4 407/1/4 409/1/4
f 410/2/4 411/2/4 414/2/4
f 414/2/4 411/2/4 415/2/4
f 411/1/4 412/1/4 416/1/4
f 415/2/4 411/2/4 416/2/4
f 416/1/4 412/1/4 417/1/4
f 414/6/4 415/6/4 418/6/4
f 413/4/4 414/4/4 418/4/4
f 418/6/4 415/6/4 419/6/4
f 413/4/4 418/4/4 420/4/4
f 418/4/4 419/4/4 420/4/4
f 420/4/4 419/4/4 421/4/4
f 413/4/4 420/4/4 422/4/4
f 420/6/4 421/6/4 423/6/4
f 422/4/4 420/4/4 423/4/4
f 423/6/4 421/6/4 424/6/4
f 423/2/4 424/2/4 427/2/4
f 424/2/4 425/2/4 427/2/4
f 425/1/4 426/1/4 428/1/4
f 427/2/4 425/2/4 428/2/4
f 428/1/4 426/1/4 429/1/4
f 430/2/4 431/2/4 433/2/4
f 431/1/4 432/1/4 434/1/4
f 433/2/4 431/2/4 434/2/4
f 434/1/4 432/1/4 435/1/4
f 436/5/4 437/5/4 438/5/4
f 438/5/4 437/5/4 439/5/4
f 440/5/4 441/5/4 442/5/4
f 442/5/4 441/5/4 443/5/4
f 444/7/4 445/7/4 446/7/4
f 446/7/4 445/7/4 447/7/4
f 450/3/5 449/3/5 448/3/5
f 451/3/5 449/3/5 450/3/5
f 456/3/5 454/3/5 453/3/5
f 457/3/5 454/3/5 456/3/5
f 459/3/5 452/3/5 451/3/5
f 460/3/5 452/3/5 459/3/5
f 461/3/5 456/3/5 455/3/5
f 462/3/5 456/3/5 461/3/5
f 464/3/5 460/3/5 459/3/5
f 464/3/5 463/3/5 462/3/5
f 464/3/5 462/3/5 461/3/5
f 464/3/5 461/3/5 460/3/5
f 464/3/5 459/3/5 458/3/5
f 465/3/5 463/3/5 464/3/5
f 466/3/5 463/3/5 465/3/5
f 467/3/5 463/3/5 466/3/5
f 468/3/5 466/3/5 465/3/5
f 469/3/5 466/3/5 468/3/5
f 472/2/5 471/2/5 470/2/5
f 473/2/5 471/2/5 472/2/5
f 478/3/5 475/3/5 474/3/5
f 479/3/5 475/3/5 478/3/5
f 480/3/5 477/3/5 476/3/5
f 481/3/5 477/3/5 480/3/5
f 483/4/5 479/4/5 478/4/5
f 484/4/5 479/4/5 483/4/5
f 486/4/5 481/4/5 480/4/5
f 487/4/5 481/4/5 486/4/5
f 489/5/5 487/5/5 486/5/5
f 489/5/5 488/5/5 487/5/5
f 490/5/5 488/5/5 489/5/5
f 491/7/5 485/7/5 484/7/5
f 491/7/5 483/7/5 482/7/5
f 491/7/5 484/7/5 483/7/5
f 492/7/5 485/7/5 491/7/5
f 498/2/5 494/2/5 493/2/5
f 499/2/5 494/2/5 498/2/5
f 500/2/5 496/2/5 495/2/5
f 501/2/5 496/2/5 500/2/5
f 503/2/5 498/2/5 497/2/5
f 504/2/5 498/2/5 503/2/5
f 505/2/5 502/2/5 501/2/5
f 506/2/5 502/2/5 505/2/5
f 509/4/5 508/4/5 507/4/5
f 510/4/5 508/4/5 509/4/5
f 515/2/5 512/2/5 511/2/5
f 516/2/5 512/2/5 515/2/5
f 517/2/5 514/2/5 513/2/5
f 518/2/5 514/2/5 517/2/5
f 523/2/5 520/2/5 519/2/5
f 523/2/5 522/2/5 521/2/5
f 523/2/5 521/2/5 520/2/5
f 524/2/5 522/2/5 523/2/5
f 530/1/5 526/1/5 525/1/5
f 531/1/5 526/1/5 530/1/5
f 532/1/5 528/1/5 527/1/5
f 533/1/5 528/1/5 532/1/5
f 535/1/5 530/1/5 529/1/5
f 536/1/5 530/1/5 535/1/5
f 537/1/5 534/1/5 533/1/5
f 538/1/5 534/1/5 537/1/5
f 541/1/5 540/1/5 539/1/5
f 542/1/5 540/1/5 541/1/5
f 545/1/5 544/1/5 543/1/5
f 546/1/5 544/1/5 545/1/5
f 547/3/6 548/3/6 549/3/6
f 549/3/6 548/3/6 550/3/6
f 552/3/6 553/3/6 555/3/6
f 555/3/6 553/3/6 556/3/6
f 550/3/6 551/3/6 558/3/6
f 558/3/6 551/3/6 559/3/6
f 554/3/6 555/3/6 560/3/6
f 560/3/6 555/3/6 561/3/6
f 557/3/6 558/3/6 563/3/6
f 563/3/6 558/3/6 564/3/6
f 561/3/6 562/3/6 565/3/6
f 565/3/6 562/3/6 566/3/6
f 567/3/6 568/3/6 569/3/6
f 569/3/6 568/3/6 570/3/6
f 571/4/6 572/4/6 576/4/6
f 576/4/6 572/4/6 577/4/6
f 573/4/6 574/4/6 579/4/6
f 579/4/6 574/4/6 580/4/6
f 577/7/6 578/7/6 581/7/6
f 575/7/6 576/7/6 581/7/6
f 576/7/6 577/7/6 581/7/6
f 581/7/6 578/7/6 582/7/6
f 575/7/6 581/7/6 583/7/6
f 582/7/6 578/7/6 584/7/6
f 575/7/6 583/7/6 585/7/6
f 583/7/6 584/7/6 585/7/6
f 584/7/6 578/7/6 586/7/6
f 585/7/6 584/7/6 586/7/6
f 589/5/6 590/5/6 591/5/6
f 591/5/6 590/5/6 592/5/6
f 587/5/6 588/5/6 593/5/6
f 593/5/6 588/5/6 594/5/6
f 595/2/6 596/2/6 599/2/6
f 599/2/6 596/2/6 600/2/6
f 597/2/6 598/2/6 601/2/6
f 601/2/6 598/2/6 602/2/6
f 603/1/6 604/1/6 606/1/6
f 606/1/6 604/1/6 607/1/6
f 605/1/6 606/1/6 610/1/6
f 607/1/6 608/1/6 611/1/6
f 609/1/6 610/1/6 613/1/6
f 610/1/6 606/1/6 614/1/6
f 613/1/6 610/1/6 614/1/6
f 614/1/6 606/1/6 615/1/6
f 611/1/6 612/1/6 616/1/6
f 607/1/6 611/1/6 616/1/6
f 616/1/6 612/1/6 617/1/6
f 617/1/6 612/1/6 618/1/6
f 614/1/6 615/1/6 619/1/6
f 616/1/6 617/1/6 619/1/6
f 615/1/6 616/1/6 619/1/6
f 619/1/6 617/1/6 620/1/6
f 620/1/6 617/1/6 621/1/6
f 621/1/6 617/1/6 622/1/6
f 620/1/6 621/1/6 623/1/6
f 623/1/6 621/1/6 624/1/6
f 625/1/6 626/1/6 629/1/6
f 629/1/6 626/1/6 630/1/6
f 627/1/6 628/1/6 631/1/6
f 631/1/6 628/1/6 632/1/6
f 633/1/6 634/1/6 637/1/6
f 637/1/6 634/1/6 638/1/6
f 635/1/6 636/1/6 639/1/6
f 639/1/6 636/1/6 640/1/6
f 638/1/6 639/1/6 641/1/6
f 641/1/6 639/1/6 642/1/6
f 643/1/6 644/1/6 647/1/6
f 645/1/6 646/1/6 648/1/6
f 643/1/6 647/1/6 649/1/6
f 647/1/6 648/1/6 649/1/6
f 649/1/6 648/1/6 650/1/6
f 648/1/6 646/1/6 651/1/6
f 650/1/6 648/1/6 651/1/6
f 651/1/6 646/1/6 652/1/6
f 650/1/6 651/1/6 653/1/6
f 653/1/6 651/1/6 654/1/6
f 655/1/6 656/1/6 657/1/6
f 657/1/6 656/1/6 658/1/6
